<?xml version="1.0" standalone="no"?>
<!DOCTYPE svg PUBLIC "-//W3C//DTD SVG 1.1//EN" "http://www.w3.org/Graphics/SVG/1.1/DTD/svg11.dtd" >
<svg xmlns="http://www.w3.org/2000/svg" xmlns:xlink="http://www.w3.org/1999/xlink" version="1.1">
<metadata></metadata>
<defs>
<font id="dk_mama_bearregular" horiz-adv-x="2308" >
<font-face units-per-em="2048" ascent="1638" descent="-410" />
<missing-glyph horiz-adv-x="1024" />
<glyph horiz-adv-x="0" />
<glyph horiz-adv-x="682" />
<glyph unicode=" "  horiz-adv-x="1024" />
<glyph unicode="&#x09;" horiz-adv-x="1024" />
<glyph unicode="&#xa0;" horiz-adv-x="1024" />
<glyph unicode="!" horiz-adv-x="485" d="M102 510v41q0 35 6 101t7 73v43q0 1 2 9t2 9v7q-17 100 -17 180q0 27 6.5 83t6.5 83q0 5 -4.5 14t-4.5 14v4q1 4 5 27.5t4 26.5v157q0 2 2 26t2 26v75q2 8 11 12.5t23.5 8t18.5 4.5h121q1 -1 18 -6t31.5 -11.5t27.5 -23t13 -39.5q0 -17 -15 -43.5t-18 -38.5 q-4 -17 -5.5 -60t-10.5 -65l-8 -8q0 -1 2 -5t2 -5v-15q-9 -111 -21 -153v-31q0 -47 -3 -139.5t-3 -140.5v-31q-6 -1 -6 -14q-1 -7 -5.5 -51t-4.5 -52v-92q0 -74 -14 -105.5t-52 -31.5q-28 0 -68 23.5t-47 47.5q-4 18 -4 66zM129 219q0 31 59 31q35 0 80 -10t58 -29v-47 q-1 -7 -4.5 -64.5t-4.5 -64.5q0 -14 -5 -22.5t-17 -12t-21 -4t-26 -0.5q-26 0 -44 7t-28 15.5t-16.5 27t-8.5 30t-5 37.5q-1 5 -1 8l-4 8q0 1 -1 5t-1 7q0 5 0.5 12.5t1 12.5t0.5 6q-1 7 -6.5 22.5t-5.5 24.5z" />
<glyph unicode="&#x22;" horiz-adv-x="733" d="M104 1401q0 19 29 31l66 -7q32 -3 64 -18.5t40 -36.5l4 -6q0 -1 3 -14t3 -15v-2q3 -7 12.5 -17.5t12.5 -17.5l2 -4q0 -26 -5.5 -57t-15.5 -70.5t-14 -58.5l-20 -66q-8 -23 -38 -70.5t-30 -62.5l4 -8q0 -2 2.5 -4.5t3.5 -5.5v-2q-13 -19 -19.5 -52t-8.5 -36l-17 -21l-8 -2 q-8 21 -8 51q0 26 4 66v29q-2 1 -4 11.5t-4 12.5l8 72q-16 40 -16 151q0 49 6 86q-6 12 -33 93l-4 10q-2 3 -7.5 11.5t-8.5 15.5t-3 14zM395 1401q0 19 29 31l65 -7q32 -3 64.5 -18.5t40.5 -36.5l4 -6q0 -1 3 -14t3 -15v-2q3 -7 12.5 -17.5t12.5 -17.5l2 -4q0 -26 -5.5 -57 t-15.5 -70.5t-14 -58.5l-21 -66q-8 -23 -37.5 -70.5t-29.5 -62.5l4 -8q0 -2 2.5 -4.5t3.5 -5.5v-2q-13 -19 -20 -52t-9 -36l-16 -21l-8 -2q-8 21 -8 51q0 26 4 66v29q-2 1 -4 11.5t-4 12.5l8 72q-17 42 -17 151q0 42 7 86q-6 12 -33 93l-4 10q-2 3 -7.5 11.5t-8.5 15.5 t-3 14z" />
<glyph unicode="$" horiz-adv-x="1112" d="M102 1030q0 4 5.5 24t19 50.5t29.5 46.5l34 18q17 17 17 21l39 33q19 19 49 39l16 12q15 0 38 4t30 4l82 21h22q3 0 7 4t4 6v43q-8 4 -14.5 23t-6.5 32q0 23 10 33q18 0 29 19.5t27 23.5h65q77 0 108 -29.5t31 -85.5v-26q-6 -19 -12 -25l-4 -8v-35q0 -2 6.5 -8t9.5 -8 l88 -33q18 -6 44 -29.5t32 -23.5l7 -2q7 -3 18.5 -9t22 -13.5t18.5 -20.5t8 -27q0 -30 -34.5 -50t-69.5 -20q-28 0 -51 20t-50 27h-2q-15 0 -24.5 -18.5t-13 -47t-4.5 -43.5t-1 -28v-106q0 -20 -5 -52.5t-5 -48.5q0 -11 42.5 -29.5t97.5 -41t75 -41.5l22 -25 q11 -12 31.5 -57t20.5 -62q-6 -16 -6 -18v-23q0 -26 6 -32l-13 -54q-4 -8 -4 -18q-7 0 -11.5 -13t-7 -28t-3.5 -16q-13 -20 -62 -74q-30 -32 -83.5 -57t-91.5 -40t-40 -26l-16 -82q0 -1 2 -5t2 -5v-4q0 -35 -16.5 -68.5t-16.5 -48.5v-41q0 -1 1 -3t1 -3q0 -19 -35.5 -36 t-64.5 -17q-30 0 -39.5 17t-9.5 48v41q0 4 -4 11.5t-4 11.5v20q0 2 -2.5 12t-2.5 15l13 94v10q0 7 -1 10.5t-7.5 8t-20.5 10.5l-74 22q-32 9 -77 29.5t-88.5 56t-43.5 68.5q0 17 13.5 37t29.5 20q11 -4 13 -4h16l6 -4q6 -2 8 -2q7 0 20 3t19 3h2q13 -13 29.5 -17t20.5 -7 q14 -6 31.5 -25t31 -38t33.5 -34.5t41 -15.5l6 20v160q0 2 -2 12.5t-2 12.5v4q0 4 3 23.5t3 43.5q0 5 -1 18l-1 13l-4 10v117q0 4 -4 12.5t-8 15.5l-5 7q-293 81 -350 205v6q-13 0 -24 32.5t-11 51.5q0 12 1 33t1 24q0 1 -2 17t-2 22zM328 942q0 -34 18 -75.5t43 -63.5 q15 -2 17 -4l26 -25q13 0 62 -14h14q0 56 -3 157.5t-3 116.5q0 2 2 23.5t2 23.5v35q-7 2 -9.5 23.5t-13.5 21.5q-13 0 -39.5 -19.5t-37.5 -19.5q-1 0 -3.5 1t-3.5 1q-28 -35 -39 -51t-21.5 -50.5t-10.5 -80.5zM705 238q0 -5 6 -5q28 0 47.5 38.5t30.5 82.5t16 49v37 q0 101 -66 154q-16 -1 -25 -23.5t-9 -40.5q0 -1 3 -12t3 -12q0 -58 -6 -82v-78q0 -1 3 -10t3 -10v-7q0 -9 -3 -27t-3 -28v-26z" />
<glyph unicode="'" horiz-adv-x="442" d="M104 1401q0 19 29 31l66 -7q32 -3 64 -18.5t40 -36.5l4 -6q0 -1 3 -14t3 -15v-2q3 -7 12.5 -17.5t12.5 -17.5l2 -4q0 -26 -5.5 -57t-15.5 -70.5t-14 -58.5l-20 -66q-8 -23 -38 -70.5t-30 -62.5l4 -8q0 -2 2.5 -4.5t3.5 -5.5v-2q-13 -19 -19.5 -52t-8.5 -36l-17 -21l-8 -2 q-8 21 -8 51q0 26 4 66v29q-2 1 -4 11.5t-4 12.5l8 72q-16 40 -16 151q0 49 6 86q-6 12 -33 93l-4 10q-2 3 -7.5 11.5t-8.5 15.5t-3 14z" />
<glyph unicode="(" horiz-adv-x="727" d="M102 635v12q0 55 9 109t16.5 78.5t30 85.5t26.5 73q6 13 11.5 42.5t15.5 47.5l16 29q3 7 30.5 41.5t33.5 40.5q3 4 23 29.5t28 34.5t28.5 31t35 32t35.5 23t43 18.5t46 5.5q93 0 93 -84q0 -33 -21 -84l-82 -63q-14 -4 -30 -22t-25.5 -33.5t-25.5 -46t-21 -38.5 q-66 -116 -84 -190q-19 -75 -27 -242v-4q6 -22 6 -24l-1 -9q-1 -9 -1 -14q0 -23 11.5 -67t11.5 -70v-35q2 0 7 -5t5 -7q3 -5 17.5 -30t18.5 -32t18 -28.5t21.5 -30t22 -25.5t26 -26t27.5 -19.5t33 -17.5h5q31 -14 56 -40.5t25 -47.5q0 -33 -67 -33q-33 0 -76.5 20.5 t-50.5 20.5q-37 0 -87.5 38t-92.5 83l-11 12q-52 59 -79 156l-19 69q0 11 -10 31q0 41 -10.5 106t-10.5 99z" />
<glyph unicode=")" horiz-adv-x="727" d="M104 1284q0 84 93 84q24 0 46 -5.5t43 -18.5t35.5 -23t35 -32t28.5 -31t28 -34.5t23 -29.5q6 -6 33.5 -40.5t30.5 -41.5l16 -29q10 -18 15.5 -47.5t11.5 -42.5q4 -12 26.5 -73t30 -85.5t16.5 -78.5t9 -109v-12q0 -34 -10.5 -99t-10.5 -106q-10 -20 -10 -31l-19 -69 q-27 -97 -79 -156l-11 -12q-42 -45 -92.5 -83t-87.5 -38q-7 0 -50.5 -20.5t-76.5 -20.5q-67 0 -67 33q0 21 25.5 47.5t56.5 40.5h4q17 7 33 17.5t27.5 19.5t26 26t22 25.5t21.5 30t18 28.5t18.5 32t17.5 30q0 2 5.5 7t6.5 5v35q0 26 11.5 70t11.5 67q0 5 -1 14l-1 9l6 24v4 q-8 157 -27 242q-18 74 -84 190q-5 8 -21 38.5t-25.5 46t-25.5 33.5t-30 22l-82 63q-21 51 -21 84z" />
<glyph unicode="," horiz-adv-x="557" d="M102 -360q0 17 6 35t17.5 42t15.5 33l11 27q0 1 2 11.5t2 12.5l32 64q0 31 26 105t52 120q0 7 2 48t2 48v11q0 5 -2 15t-2 15q0 29 41 33l60 -22q27 -11 54 -37.5t28 -44.5v-6q0 -1 -2.5 -14t-2.5 -15v-2q0 -7 5.5 -19.5t5.5 -19.5v-4q-10 -25 -27 -52t-41.5 -62.5 t-34.5 -51.5l-45 -55q-15 -17 -62 -53.5t-52 -51.5v-8q0 -3 2 -6t2 -6v-2q-20 -14 -39.5 -42.5t-24.5 -31.5l-22 -14h-9z" />
<glyph unicode="-" horiz-adv-x="1038" d="M102 618q0 30 6 40t29 10h19q25 -2 85.5 -15.5t67.5 -13.5h10q1 0 14 1t15 1h191q11 0 14 -6l139 4q14 0 43 -3.5t45 -2.5q29 0 60 4t39 4q30 0 43.5 -34.5t13.5 -78.5l-2 -18l-4 -10l-6 -6l-119 10q-4 -2 -23.5 -3.5t-45.5 -3t-38 -3.5l-26 4q-4 0 -43.5 -4.5 t-42.5 -4.5q-47 0 -51 -2l-70 -10q-8 0 -8 -4l-70 -4q-16 -1 -46 -8.5t-46 -7.5q-5 0 -17 2l-12 2q-7 0 -21 -4t-22 -4l-6 2q-45 9 -59 16q-24 18 -40 65t-16 86zM346 467h2q4 0 4 4q0 6 -2 6z" />
<glyph unicode="." horiz-adv-x="460" d="M104 131q0 33 30 71t65 38q20 0 22 -2q16 0 46 -9t60.5 -32.5t30.5 -53.5q0 -22 -8.5 -33.5t-24 -25.5t-26.5 -35q-3 0 -17 -15.5t-35 -31.5t-42 -16q-15 0 -26.5 7.5t-25.5 23t-20 20.5q-29 0 -29 94z" />
<glyph unicode="/" horiz-adv-x="882" d="M102 4q0 8 6.5 18.5t6.5 22.5v14l22 52q11 26 30 84.5t32 87.5q6 6 6 10l16 26q0 1 1.5 5t3.5 10t3 8q39 114 113 276q14 29 29 80.5t26 73.5q0 14 13 38t16 34q19 32 53 147.5t53 134.5q41 166 70 166l8 -2q19 0 44 -3.5t55 -12t50.5 -26.5t20.5 -42q0 -17 -8 -34 t-21.5 -37t-17.5 -27q-54 -104 -115 -244l-16 -33q-76 -148 -76 -174l2 -6l-10 -12q-34 -73 -64 -146t-53 -120l-28 -76q-5 -8 -48 -98t-67 -117l-25 -27q-3 -4 -13 -18.5t-19 -22.5t-19 -8l-32 -35q-3 -1 -10.5 -5t-14 -6.5t-10.5 -2.5q-5 0 -9 19t-4 28z" />
<glyph unicode="0" d="M102 995q1 0 8 -1t9 -1l4 -4l8 -10v-182q10 10 25 10q20 0 28 -12.5t13 -40.5v-84q-1 -5 -3.5 -33t-3.5 -33q0 -2 -3 -6.5t-3 -5.5h-4l-4 2l-5.5 5.5t-2.5 4.5v156q-4 4 -6 4l-2 2l-2 -2q-8 -8 -8 -10q-15 -51 -15 -129q-2 -9 -8 -9q-14 0 -14 15q-7 109 -7 198 q-4 110 -4 166zM217 688q0 65 33 107q10 6 12 6q0 2 2 2l4 -2q1 0 8.5 -3t8.5 -3v12h8q12 0 18 -12q-1 -38 0.5 -109.5t1.5 -91.5q0 -6 -3.5 -13.5t-8.5 -7.5q-4 0 -10 10t-6 15q-2 1 -12 3t-11 3q-45 11 -45 84zM252 666q0 -3 0.5 -4.5t1 -4t1.5 -3.5t2 -2.5t3 -2t4 -0.5 q8 0 15.5 14.5t7.5 26.5q0 10 -1 27t-1 26q-3 5 -9 5q-24 0 -24 -66v-5.5v-5.5v-5zM334 819q27 0 31 -12q4 -8 4 -25q3 10 18 25h8q19 0 25.5 -8.5t9.5 -34.5q0 -8 2 -64.5t2 -68.5v-2q0 -6 -4 -11.5t-10 -5.5h-4q-10 10 -10 13v133l-3 6q-11 -2 -24 -49q0 -5 -2 -21l-2 -16 q-4 -16 -4 -62q-3 -14 -13 -14q-5 0 -8 3.5t-4 6.5t-4 13q0 12 -3 76.5t-3 74.5q0 3 -1 22t-1 21zM459 705q0 74 30 106q16 12 23 12q16 0 30.5 -36t14.5 -60q0 -69 -43 -115q-8 -10 -16 -10q-14 0 -27 27q-12 20 -12 76zM485 662l7 -9q4 -1 12 11t10 18l10 20q6 15 6 37 q0 27 -12 27q-8 0 -19.5 -20.5t-13.5 -34.5v-49zM578 700q0 73 30 95q5 2 12 6.5t7 5.5h4q10 0 20 -10q4 16 4 51v102q18 0 25 -12q4 -31 4 -80v-35q0 -3 -2 -31.5t-2 -31.5v-37q0 -9 -1 -62.5t-1 -62.5q-3 -9 -14 -16q-15 15 -15 36q-13 -10 -22 -10q-24 0 -36.5 29.5 t-12.5 62.5zM604 688q0 -35 12 -35q9 0 20 11.5t15 13.5v29q0 1 0.5 9.5t0 14t-1.5 12.5t-3.5 11t-7.5 4q-15 0 -25 -25t-10 -45zM707 702q0 78 28 113h6q26 0 33 -18q2 -3 6.5 -17.5t5.5 -15.5v-41q0 -8 -4 -8l-18 -27q-2 -2 -10.5 -7.5t-14.5 -11.5t-6 -10q0 -22 17 -22 q3 0 6.5 1.5t5.5 3.5t5.5 6t5 6t5 8t4.5 8h4q4 0 10.5 -14t6.5 -19q-4 -10 -8 -12q-1 -6 -9.5 -17.5t-11.5 -13.5q-2 -2 -24 -2h-11q-12 14 -16 20q-16 26 -16 90zM733 725q8 0 18.5 12t10.5 21q0 8 -6 8q-8 0 -15.5 -14.5t-7.5 -26.5zM823 700q0 71 33 95l18 12h3 q12 0 22 -10q0 4 1 26t1 25q0 7 1 51t1 51q18 0 25 -12q2 -31 2 -80v-35q0 -3 -1 -31.5t-1 -31.5v-37q0 -9 -2 -62.5t-2 -62.5q0 -3 -13 -16q-17 14 -14 36q-13 -10 -25 -10q-24 0 -36.5 29.5t-12.5 62.5zM852 688q0 -35 12 -35q8 0 18.5 11.5t16.5 13.5v29l1 9 q0 10 -0.5 14.5t-1.5 12.5t-4.5 11.5t-8.5 3.5q-13 0 -23 -25.5t-10 -44.5zM918 1407v6q0 14 4 14h20l6 -8q0 -25 8 -57q0 -8 2 -12q0 4 1.5 14t1.5 12l8 47h20l4 -4q0 -1 1 -14t1 -14l11 -68l2 -4l20 100q0 4 10 4q5 0 7 -0.5t4 -3t2 -8.5q0 -11 -6.5 -32.5t-8.5 -30.5 l-18 -123q0 -4 -4 -8h-6q-12 0 -15 8q0 54 -12 78q-2 0 -2 -17q-8 -32 -8 -61q0 -8 -13 -8q-6 0 -9.5 1t-5 5t-2 7t-1 11t-0.5 12q0 1 -2 14t-2 15q-8 80 -18 125zM946 -2v20q0 35 10 35q6 0 12.5 -8t6.5 -18q0 -7 -7 -24t-12 -17v2zM952 807v4q0 6 4 6l7 2q26 0 26 -26v-7 q18 21 35 21q31 0 41 -49v-41q0 -115 -47 -115q-6 0 -15.5 5t-15.5 5h-2q-4 -106 -2 -159q-7 -15 -12 -15q-3 0 -7 4.5t-6 8.5q-6 159 -6 356zM989 702q0 -16 8.5 -34.5t20.5 -18.5q22 0 22 58q0 51 -18 51q-13 0 -23 -18t-10 -38zM995 98q0 54 29 99q5 10 14 10t23 -16 t14 -29v-2q-1 -1 -2 -6.5t-3 -9.5t-5 -5h-18q-9 -3 -14 -22.5t-5 -34.5v-21l3 -8q3 -8 7 -8q6 0 10 19.5t13 19.5l6 -2q5 -3 12 -16v-13q0 -24 -14 -49q-6 -12 -23 -12q-20 0 -33.5 37.5t-13.5 68.5zM1071 1407v4q0 16 14 16t18 -12.5t4.5 -33t4.5 -29.5l10 71h25l14 -108 q15 77 17 82q0 1 1 11t1 11q1 4 12 4q6 0 8 -2.5t2 -11.5q0 -10 -2 -21t-5.5 -24t-4.5 -21q-1 -3 -5 -32.5t-5 -32.5q-1 -4 -3.5 -17t-4 -23t-1.5 -13q-1 -7 -2 -7.5t-8 -0.5q-9 0 -12.5 6t-4 22t-1.5 21q0 7 -3 19.5t-5 12.5q-5 -14 -5 -20q-1 -3 -3.5 -26t-2.5 -27 q0 -1 -1 -4t-1 -4h-16q-5 3 -10 12q-2 36 -12.5 100t-12.5 78zM1090 975v8q0 7 2 8.5t8 1.5q10 0 18 -14q0 -106 4 -152q0 -3 1 -15.5t1 -14.5q3 10 21 10q29 0 39 -47v-49q0 -66 -4 -107q0 -6 -6 -12h-3q-4 0 -10 3.5t-6 8.5v135l-4 25l-2 2q-14 0 -14 -39l-5 -12l-4 -15 q0 -6 -1 -37.5t-1 -37.5l-2 -9h-8q-14 0 -14 15q-6 113 -10 344zM1106 96q0 74 33 105q8 10 18 10q18 0 31.5 -35.5t13.5 -62.5q0 -67 -41 -115q-6 -6 -18 -6q-6 0 -12.5 7t-8.5 13q-16 29 -16 84zM1133.5 52q0.5 -4 2.5 -6.5t5 -2.5l6 2q12 10 21.5 36t9.5 48q0 25 -13 25 q-15 0 -22.5 -27t-7.5 -53q0 -2 -0.5 -6.5t-1 -8t0 -7.5zM1210 711q0 37 7.5 59t27.5 45q11 8 19 8q10 0 24.5 -27.5t16.5 -41.5l1 -12q1 -12 1 -17l-2 -29q0 -9 -5 -14q-14 -55 -38 -74q-6 -6 -13 -6q-22 0 -30.5 36t-8.5 73zM1223 215v29q2 4 8 4q10 0 14 -4q8 -4 8 -8 v-37q2 -2 4 -2q1 0 11 10h8q21 0 24 -39q2 4 5.5 12.5t6 13.5t6.5 9t9 4q14 0 22.5 -14.5t10.5 -32.5q4 -20 4 -82v-66q0 -6 -4 -12t-8 -6q-5 0 -9 4q0 8 -2 54.5t-2 53.5t-2 28.5t-2 23.5q0 6 -2 6q-5 -3 -8.5 -20t-3.5 -27q-8 -72 -8 -105q-8 -16 -13 -18q-2 4 -4 4 l-12 16l-2 16q-2 16 -2 21q-2 14 -2 88q0 11 -4 15h-2q-2 0 -4 -4.5t-3.5 -9t-2.5 -5.5l-7 -14v-117q0 -12 -14 -12q-12 0 -12 16q-1 24 -2.5 66t-2.5 76.5t-1 64.5zM1223 1413l6 14h24q11 0 11 -71l4 8q6 24 6 55l4 4h22v-10q3 -12 6 -47.5t7 -50.5l4 10q18 72 18 98h23 q0 -11 -2 -22t-5.5 -24t-4.5 -21q-19 -114 -19 -121q-6 -17 -12 -18q-12 0 -15 12q-3 36 -12 74q-5 -9 -5 -32t-2.5 -38.5t-14.5 -15.5h-9q-8 8 -8 12q0 31 -4 39q-1 3 -9.5 68t-12.5 77zM1239 688q0 -2 1 -13t1 -13v-9h2q8 0 19 17q8 8 12 30q6 6 6 15v43q-3 8 -8 8 q-11 0 -21 -18t-10 -33l-1 -11q-1 -11 -1 -16zM1329 688v273h21q4 -3 6 -5l4 -6v-190q5 9 18 16h2q13 -13 13 -28v-5l-33 -41v-14q0 -35 8 -39q4 2 9 15.5t14 13.5q12 0 12 -16q0 -23 -10.5 -41.5t-24.5 -18.5q-39 0 -39 86zM1360 1243q0 33 12 33q9 0 15 -7.5t6 -19.5 q0 -9 -7 -24t-14 -15q-12 0 -12 33zM1423 711q0 38 6.5 59.5t26.5 44.5q11 8 21 8t24.5 -27.5t16.5 -41.5v-58q0 -1 -2.5 -7t-2.5 -7q-13 -52 -38 -74q-6 -6 -11 -6q-23 0 -32 36t-9 73zM1452 662l2 -9h2q8 0 19 17l12 30q6 6 6 15v43q-5 8 -8 8q-11 0 -21 -17.5t-12 -33.5 v-53zM1534 684q0 72 39 111q8 6 10 6h19l6 6h10l12 -16q0 -12 1 -72t1 -70v-74v-24.5v-28.5t-1.5 -25t-4 -27.5t-8 -22t-12.5 -21.5q-2 -2 -8 -8.5t-8 -8t-7 -4t-10 -2.5q-11 0 -19 21t-8 39q0 78 25 78q12 0 12 -29q0 -8 -5 -24t-5 -27v-15q3 2 14 17t12 16q9 12 9 45v37 q0 47 -2 55q-14 -14 -27 -14q-23 0 -34 25t-11 57zM1563 655q2 -2 10 -2q4 0 10 4t13 11.5t10 9.5v22q0 43 -13 43h-4q-26 -19 -26 -67v-21zM1657 662v151q17 0 26 -18q3 -9 3 -35q1 2 3 6.5t3 6.5t3 4.5t5 3.5t6 1q16 0 23 -18v-16q0 -33 -15 -33q-8 6 -10 8 q-16 -37 -18 -57v-62q0 -12 -11 -12t-14 20q0 2 -2 24t-2 26zM1745 653v70q2 37 35 74q6 6 10 6q3 0 9.5 -3.5t8.5 -4.5q4 12 13 12q6 0 12 -8t6 -17q0 -10 -2 -29.5t-2 -29.5q0 -17 2 -49t2 -47v-35q-5 -19 -12 -19q-5 0 -10 12t-9 13q-1 1 -11.5 3t-12.5 3q-25 6 -39 49z M1776 680q0 -31 14 -31q20 0 20 45q0 31 -2 54h-4q-28 0 -28 -68zM1862 797v12q0 10 10 10q29 0 29 -33q1 2 14 15q4 6 16 6q32 0 43 -53v-37q0 -115 -47 -115q-12 0 -22 6l-4 4h-7q0 -3 -1 -19t-1 -20v-114q-6 -12 -6 -17l-4 -4h-2q-12 0 -12 13q0 25 -3 173t-3 173z M1898 702q0 -18 7 -32q1 -2 3.5 -5.5t4 -5.5t4 -4.5t5 -4t5.5 -1.5q12 0 17.5 19t5.5 37q0 53 -21 53q-14 0 -22.5 -17.5t-8.5 -38.5zM1997 995q1 0 8 -1t8 -1q5 -2 11 -8t6 -10v-178q5 10 20 10q43 0 43 -74v-14q-1 -8 -2 -55.5t-2 -55.5q-5 -16 -10 -16h-2l-9 2 q-3 1 -5.5 8.5t-2.5 9.5v146q0 6 -4 6q-19 -17 -24 -94v-41q0 -13 -11 -13h-4q-1 0 -3 3l-4 6t-3 4q0 4 -1 25t-1 24q0 15 -3 124t-3 134q0 2 -1 28t-1 31zM2116 748v6l6 47l2 6h20l6 -10v-109q0 -4 5.5 -16.5t9.5 -12.5q5 0 9.5 10.5t4.5 16.5v111q0 4 4 4q6 2 8 2l7 -2 l8 -6v-320q-4 -10 -4 -12q-15 -43 -39 -43q-16 0 -24.5 13t-9.5 25.5t-1 35.5v22l8 19h21l6 -7q-9 -13 -9 -41v-16q3 -8 9 -8q16 0 16 65v23q0 4 -1 32t-1 33h-23l-4 2q-34 39 -34 130z" />
<glyph unicode="1" d="M102 995q1 0 8 -1t9 -1l4 -4l8 -10v-182q10 10 25 10q20 0 28 -12.5t13 -40.5v-84q-1 -5 -3.5 -33t-3.5 -33q0 -2 -3 -6.5t-3 -5.5h-4l-4 2l-5.5 5.5t-2.5 4.5v156q-4 4 -6 4l-2 2l-2 -2q-8 -8 -8 -10q-15 -51 -15 -129q-2 -9 -8 -9q-14 0 -14 15q-7 109 -7 198 q-4 110 -4 166zM217 688q0 65 33 107q10 6 12 6q0 2 2 2l4 -2q1 0 8.5 -3t8.5 -3v12h8q12 0 18 -12q-1 -38 0.5 -109.5t1.5 -91.5q0 -6 -3.5 -13.5t-8.5 -7.5q-4 0 -10 10t-6 15q-2 1 -12 3t-11 3q-45 11 -45 84zM252 666q0 -3 0.5 -4.5t1 -4t1.5 -3.5t2 -2.5t3 -2t4 -0.5 q8 0 15.5 14.5t7.5 26.5q0 10 -1 27t-1 26q-3 5 -9 5q-24 0 -24 -66v-5.5v-5.5v-5zM334 819q27 0 31 -12q4 -8 4 -25q3 10 18 25h8q19 0 25.5 -8.5t9.5 -34.5q0 -8 2 -64.5t2 -68.5v-2q0 -6 -4 -11.5t-10 -5.5h-4q-10 10 -10 13v133l-3 6q-11 -2 -24 -49q0 -5 -2 -21l-2 -16 q-4 -16 -4 -62q-3 -14 -13 -14q-5 0 -8 3.5t-4 6.5t-4 13q0 12 -3 76.5t-3 74.5q0 3 -1 22t-1 21zM459 705q0 74 30 106q16 12 23 12q16 0 30.5 -36t14.5 -60q0 -69 -43 -115q-8 -10 -16 -10q-14 0 -27 27q-12 20 -12 76zM485 662l7 -9q4 -1 12 11t10 18l10 20q6 15 6 37 q0 27 -12 27q-8 0 -19.5 -20.5t-13.5 -34.5v-49zM578 700q0 73 30 95q5 2 12 6.5t7 5.5h4q10 0 20 -10q4 16 4 51v102q18 0 25 -12q4 -31 4 -80v-35q0 -3 -2 -31.5t-2 -31.5v-37q0 -9 -1 -62.5t-1 -62.5q-3 -9 -14 -16q-15 15 -15 36q-13 -10 -22 -10q-24 0 -36.5 29.5 t-12.5 62.5zM604 688q0 -35 12 -35q9 0 20 11.5t15 13.5v29q0 1 0.5 9.5t0 14t-1.5 12.5t-3.5 11t-7.5 4q-15 0 -25 -25t-10 -45zM707 702q0 78 28 113h6q26 0 33 -18q2 -3 6.5 -17.5t5.5 -15.5v-41q0 -8 -4 -8l-18 -27q-2 -2 -10.5 -7.5t-14.5 -11.5t-6 -10q0 -22 17 -22 q3 0 6.5 1.5t5.5 3.5t5.5 6t5 6t5 8t4.5 8h4q4 0 10.5 -14t6.5 -19q-4 -10 -8 -12q-1 -6 -9.5 -17.5t-11.5 -13.5q-2 -2 -24 -2h-11q-12 14 -16 20q-16 26 -16 90zM733 725q8 0 18.5 12t10.5 21q0 8 -6 8q-8 0 -15.5 -14.5t-7.5 -26.5zM823 700q0 71 33 95l18 12h3 q12 0 22 -10q0 4 1 26t1 25q0 7 1 51t1 51q18 0 25 -12q2 -31 2 -80v-35q0 -3 -1 -31.5t-1 -31.5v-37q0 -9 -2 -62.5t-2 -62.5q0 -3 -13 -16q-17 14 -14 36q-13 -10 -25 -10q-24 0 -36.5 29.5t-12.5 62.5zM852 688q0 -35 12 -35q8 0 18.5 11.5t16.5 13.5v29l1 9 q0 10 -0.5 14.5t-1.5 12.5t-4.5 11.5t-8.5 3.5q-13 0 -23 -25.5t-10 -44.5zM918 1407v6q0 14 4 14h20l6 -8q0 -25 8 -57q0 -8 2 -12q0 4 1.5 14t1.5 12l8 47h20l4 -4q0 -1 1 -14t1 -14l11 -68l2 -4l20 100q0 4 10 4q5 0 7 -0.5t4 -3t2 -8.5q0 -11 -6.5 -32.5t-8.5 -30.5 l-18 -123q0 -4 -4 -8h-6q-12 0 -15 8q0 54 -12 78q-2 0 -2 -17q-8 -32 -8 -61q0 -8 -13 -8q-6 0 -9.5 1t-5 5t-2 7t-1 11t-0.5 12q0 1 -2 14t-2 15q-8 80 -18 125zM946 -2v20q0 35 10 35q6 0 12.5 -8t6.5 -18q0 -7 -7 -24t-12 -17v2zM952 807v4q0 6 4 6l7 2q26 0 26 -26v-7 q18 21 35 21q31 0 41 -49v-41q0 -115 -47 -115q-6 0 -15.5 5t-15.5 5h-2q-4 -106 -2 -159q-7 -15 -12 -15q-3 0 -7 4.5t-6 8.5q-6 159 -6 356zM989 702q0 -16 8.5 -34.5t20.5 -18.5q22 0 22 58q0 51 -18 51q-13 0 -23 -18t-10 -38zM995 98q0 54 29 99q5 10 14 10t23 -16 t14 -29v-2q-1 -1 -2 -6.5t-3 -9.5t-5 -5h-18q-9 -3 -14 -22.5t-5 -34.5v-21l3 -8q3 -8 7 -8q6 0 10 19.5t13 19.5l6 -2q5 -3 12 -16v-13q0 -24 -14 -49q-6 -12 -23 -12q-20 0 -33.5 37.5t-13.5 68.5zM1071 1407v4q0 16 14 16t18 -12.5t4.5 -33t4.5 -29.5l10 71h25l14 -108 q15 77 17 82q0 1 1 11t1 11q1 4 12 4q6 0 8 -2.5t2 -11.5q0 -10 -2 -21t-5.5 -24t-4.5 -21q-1 -3 -5 -32.5t-5 -32.5q-1 -4 -3.5 -17t-4 -23t-1.5 -13q-1 -7 -2 -7.5t-8 -0.5q-9 0 -12.5 6t-4 22t-1.5 21q0 7 -3 19.5t-5 12.5q-5 -14 -5 -20q-1 -3 -3.5 -26t-2.5 -27 q0 -1 -1 -4t-1 -4h-16q-5 3 -10 12q-2 36 -12.5 100t-12.5 78zM1090 975v8q0 7 2 8.5t8 1.5q10 0 18 -14q0 -106 4 -152q0 -3 1 -15.5t1 -14.5q3 10 21 10q29 0 39 -47v-49q0 -66 -4 -107q0 -6 -6 -12h-3q-4 0 -10 3.5t-6 8.5v135l-4 25l-2 2q-14 0 -14 -39l-5 -12l-4 -15 q0 -6 -1 -37.5t-1 -37.5l-2 -9h-8q-14 0 -14 15q-6 113 -10 344zM1106 96q0 74 33 105q8 10 18 10q18 0 31.5 -35.5t13.5 -62.5q0 -67 -41 -115q-6 -6 -18 -6q-6 0 -12.5 7t-8.5 13q-16 29 -16 84zM1133.5 52q0.5 -4 2.5 -6.5t5 -2.5l6 2q12 10 21.5 36t9.5 48q0 25 -13 25 q-15 0 -22.5 -27t-7.5 -53q0 -2 -0.5 -6.5t-1 -8t0 -7.5zM1210 711q0 37 7.5 59t27.5 45q11 8 19 8q10 0 24.5 -27.5t16.5 -41.5l1 -12q1 -12 1 -17l-2 -29q0 -9 -5 -14q-14 -55 -38 -74q-6 -6 -13 -6q-22 0 -30.5 36t-8.5 73zM1223 215v29q2 4 8 4q10 0 14 -4q8 -4 8 -8 v-37q2 -2 4 -2q1 0 11 10h8q21 0 24 -39q2 4 5.5 12.5t6 13.5t6.5 9t9 4q14 0 22.5 -14.5t10.5 -32.5q4 -20 4 -82v-66q0 -6 -4 -12t-8 -6q-5 0 -9 4q0 8 -2 54.5t-2 53.5t-2 28.5t-2 23.5q0 6 -2 6q-5 -3 -8.5 -20t-3.5 -27q-8 -72 -8 -105q-8 -16 -13 -18q-2 4 -4 4 l-12 16l-2 16q-2 16 -2 21q-2 14 -2 88q0 11 -4 15h-2q-2 0 -4 -4.5t-3.5 -9t-2.5 -5.5l-7 -14v-117q0 -12 -14 -12q-12 0 -12 16q-1 24 -2.5 66t-2.5 76.5t-1 64.5zM1223 1413l6 14h24q11 0 11 -71l4 8q6 24 6 55l4 4h22v-10q3 -12 6 -47.5t7 -50.5l4 10q18 72 18 98h23 q0 -11 -2 -22t-5.5 -24t-4.5 -21q-19 -114 -19 -121q-6 -17 -12 -18q-12 0 -15 12q-3 36 -12 74q-5 -9 -5 -32t-2.5 -38.5t-14.5 -15.5h-9q-8 8 -8 12q0 31 -4 39q-1 3 -9.5 68t-12.5 77zM1239 688q0 -2 1 -13t1 -13v-9h2q8 0 19 17q8 8 12 30q6 6 6 15v43q-3 8 -8 8 q-11 0 -21 -18t-10 -33l-1 -11q-1 -11 -1 -16zM1329 688v273h21q4 -3 6 -5l4 -6v-190q5 9 18 16h2q13 -13 13 -28v-5l-33 -41v-14q0 -35 8 -39q4 2 9 15.5t14 13.5q12 0 12 -16q0 -23 -10.5 -41.5t-24.5 -18.5q-39 0 -39 86zM1360 1243q0 33 12 33q9 0 15 -7.5t6 -19.5 q0 -9 -7 -24t-14 -15q-12 0 -12 33zM1423 711q0 38 6.5 59.5t26.5 44.5q11 8 21 8t24.5 -27.5t16.5 -41.5v-58q0 -1 -2.5 -7t-2.5 -7q-13 -52 -38 -74q-6 -6 -11 -6q-23 0 -32 36t-9 73zM1452 662l2 -9h2q8 0 19 17l12 30q6 6 6 15v43q-5 8 -8 8q-11 0 -21 -17.5t-12 -33.5 v-53zM1534 684q0 72 39 111q8 6 10 6h19l6 6h10l12 -16q0 -12 1 -72t1 -70v-74v-24.5v-28.5t-1.5 -25t-4 -27.5t-8 -22t-12.5 -21.5q-2 -2 -8 -8.5t-8 -8t-7 -4t-10 -2.5q-11 0 -19 21t-8 39q0 78 25 78q12 0 12 -29q0 -8 -5 -24t-5 -27v-15q3 2 14 17t12 16q9 12 9 45v37 q0 47 -2 55q-14 -14 -27 -14q-23 0 -34 25t-11 57zM1563 655q2 -2 10 -2q4 0 10 4t13 11.5t10 9.5v22q0 43 -13 43h-4q-26 -19 -26 -67v-21zM1657 662v151q17 0 26 -18q3 -9 3 -35q1 2 3 6.5t3 6.5t3 4.5t5 3.5t6 1q16 0 23 -18v-16q0 -33 -15 -33q-8 6 -10 8 q-16 -37 -18 -57v-62q0 -12 -11 -12t-14 20q0 2 -2 24t-2 26zM1745 653v70q2 37 35 74q6 6 10 6q3 0 9.5 -3.5t8.5 -4.5q4 12 13 12q6 0 12 -8t6 -17q0 -10 -2 -29.5t-2 -29.5q0 -17 2 -49t2 -47v-35q-5 -19 -12 -19q-5 0 -10 12t-9 13q-1 1 -11.5 3t-12.5 3q-25 6 -39 49z M1776 680q0 -31 14 -31q20 0 20 45q0 31 -2 54h-4q-28 0 -28 -68zM1862 797v12q0 10 10 10q29 0 29 -33q1 2 14 15q4 6 16 6q32 0 43 -53v-37q0 -115 -47 -115q-12 0 -22 6l-4 4h-7q0 -3 -1 -19t-1 -20v-114q-6 -12 -6 -17l-4 -4h-2q-12 0 -12 13q0 25 -3 173t-3 173z M1898 702q0 -18 7 -32q1 -2 3.5 -5.5t4 -5.5t4 -4.5t5 -4t5.5 -1.5q12 0 17.5 19t5.5 37q0 53 -21 53q-14 0 -22.5 -17.5t-8.5 -38.5zM1997 995q1 0 8 -1t8 -1q5 -2 11 -8t6 -10v-178q5 10 20 10q43 0 43 -74v-14q-1 -8 -2 -55.5t-2 -55.5q-5 -16 -10 -16h-2l-9 2 q-3 1 -5.5 8.5t-2.5 9.5v146q0 6 -4 6q-19 -17 -24 -94v-41q0 -13 -11 -13h-4q-1 0 -3 3l-4 6t-3 4q0 4 -1 25t-1 24q0 15 -3 124t-3 134q0 2 -1 28t-1 31zM2116 748v6l6 47l2 6h20l6 -10v-109q0 -4 5.5 -16.5t9.5 -12.5q5 0 9.5 10.5t4.5 16.5v111q0 4 4 4q6 2 8 2l7 -2 l8 -6v-320q-4 -10 -4 -12q-15 -43 -39 -43q-16 0 -24.5 13t-9.5 25.5t-1 35.5v22l8 19h21l6 -7q-9 -13 -9 -41v-16q3 -8 9 -8q16 0 16 65v23q0 4 -1 32t-1 33h-23l-4 2q-34 39 -34 130z" />
<glyph unicode="2" d="M102 995q1 0 8 -1t9 -1l4 -4l8 -10v-182q10 10 25 10q20 0 28 -12.5t13 -40.5v-84q-1 -5 -3.5 -33t-3.5 -33q0 -2 -3 -6.5t-3 -5.5h-4l-4 2l-5.5 5.5t-2.5 4.5v156q-4 4 -6 4l-2 2l-2 -2q-8 -8 -8 -10q-15 -51 -15 -129q-2 -9 -8 -9q-14 0 -14 15q-7 109 -7 198 q-4 110 -4 166zM217 688q0 65 33 107q10 6 12 6q0 2 2 2l4 -2q1 0 8.5 -3t8.5 -3v12h8q12 0 18 -12q-1 -38 0.5 -109.5t1.5 -91.5q0 -6 -3.5 -13.5t-8.5 -7.5q-4 0 -10 10t-6 15q-2 1 -12 3t-11 3q-45 11 -45 84zM252 666q0 -3 0.5 -4.5t1 -4t1.5 -3.5t2 -2.5t3 -2t4 -0.5 q8 0 15.5 14.5t7.5 26.5q0 10 -1 27t-1 26q-3 5 -9 5q-24 0 -24 -66v-5.5v-5.5v-5zM334 819q27 0 31 -12q4 -8 4 -25q3 10 18 25h8q19 0 25.5 -8.5t9.5 -34.5q0 -8 2 -64.5t2 -68.5v-2q0 -6 -4 -11.5t-10 -5.5h-4q-10 10 -10 13v133l-3 6q-11 -2 -24 -49q0 -5 -2 -21l-2 -16 q-4 -16 -4 -62q-3 -14 -13 -14q-5 0 -8 3.5t-4 6.5t-4 13q0 12 -3 76.5t-3 74.5q0 3 -1 22t-1 21zM459 705q0 74 30 106q16 12 23 12q16 0 30.5 -36t14.5 -60q0 -69 -43 -115q-8 -10 -16 -10q-14 0 -27 27q-12 20 -12 76zM485 662l7 -9q4 -1 12 11t10 18l10 20q6 15 6 37 q0 27 -12 27q-8 0 -19.5 -20.5t-13.5 -34.5v-49zM578 700q0 73 30 95q5 2 12 6.5t7 5.5h4q10 0 20 -10q4 16 4 51v102q18 0 25 -12q4 -31 4 -80v-35q0 -3 -2 -31.5t-2 -31.5v-37q0 -9 -1 -62.5t-1 -62.5q-3 -9 -14 -16q-15 15 -15 36q-13 -10 -22 -10q-24 0 -36.5 29.5 t-12.5 62.5zM604 688q0 -35 12 -35q9 0 20 11.5t15 13.5v29q0 1 0.5 9.5t0 14t-1.5 12.5t-3.5 11t-7.5 4q-15 0 -25 -25t-10 -45zM707 702q0 78 28 113h6q26 0 33 -18q2 -3 6.5 -17.5t5.5 -15.5v-41q0 -8 -4 -8l-18 -27q-2 -2 -10.5 -7.5t-14.5 -11.5t-6 -10q0 -22 17 -22 q3 0 6.5 1.5t5.5 3.5t5.5 6t5 6t5 8t4.5 8h4q4 0 10.5 -14t6.5 -19q-4 -10 -8 -12q-1 -6 -9.5 -17.5t-11.5 -13.5q-2 -2 -24 -2h-11q-12 14 -16 20q-16 26 -16 90zM733 725q8 0 18.5 12t10.5 21q0 8 -6 8q-8 0 -15.5 -14.5t-7.5 -26.5zM823 700q0 71 33 95l18 12h3 q12 0 22 -10q0 4 1 26t1 25q0 7 1 51t1 51q18 0 25 -12q2 -31 2 -80v-35q0 -3 -1 -31.5t-1 -31.5v-37q0 -9 -2 -62.5t-2 -62.5q0 -3 -13 -16q-17 14 -14 36q-13 -10 -25 -10q-24 0 -36.5 29.5t-12.5 62.5zM852 688q0 -35 12 -35q8 0 18.5 11.5t16.5 13.5v29l1 9 q0 10 -0.5 14.5t-1.5 12.5t-4.5 11.5t-8.5 3.5q-13 0 -23 -25.5t-10 -44.5zM918 1407v6q0 14 4 14h20l6 -8q0 -25 8 -57q0 -8 2 -12q0 4 1.5 14t1.5 12l8 47h20l4 -4q0 -1 1 -14t1 -14l11 -68l2 -4l20 100q0 4 10 4q5 0 7 -0.5t4 -3t2 -8.5q0 -11 -6.5 -32.5t-8.5 -30.5 l-18 -123q0 -4 -4 -8h-6q-12 0 -15 8q0 54 -12 78q-2 0 -2 -17q-8 -32 -8 -61q0 -8 -13 -8q-6 0 -9.5 1t-5 5t-2 7t-1 11t-0.5 12q0 1 -2 14t-2 15q-8 80 -18 125zM946 -2v20q0 35 10 35q6 0 12.5 -8t6.5 -18q0 -7 -7 -24t-12 -17v2zM952 807v4q0 6 4 6l7 2q26 0 26 -26v-7 q18 21 35 21q31 0 41 -49v-41q0 -115 -47 -115q-6 0 -15.5 5t-15.5 5h-2q-4 -106 -2 -159q-7 -15 -12 -15q-3 0 -7 4.5t-6 8.5q-6 159 -6 356zM989 702q0 -16 8.5 -34.5t20.5 -18.5q22 0 22 58q0 51 -18 51q-13 0 -23 -18t-10 -38zM995 98q0 54 29 99q5 10 14 10t23 -16 t14 -29v-2q-1 -1 -2 -6.5t-3 -9.5t-5 -5h-18q-9 -3 -14 -22.5t-5 -34.5v-21l3 -8q3 -8 7 -8q6 0 10 19.5t13 19.5l6 -2q5 -3 12 -16v-13q0 -24 -14 -49q-6 -12 -23 -12q-20 0 -33.5 37.5t-13.5 68.5zM1071 1407v4q0 16 14 16t18 -12.5t4.5 -33t4.5 -29.5l10 71h25l14 -108 q15 77 17 82q0 1 1 11t1 11q1 4 12 4q6 0 8 -2.5t2 -11.5q0 -10 -2 -21t-5.5 -24t-4.5 -21q-1 -3 -5 -32.5t-5 -32.5q-1 -4 -3.5 -17t-4 -23t-1.5 -13q-1 -7 -2 -7.5t-8 -0.5q-9 0 -12.5 6t-4 22t-1.5 21q0 7 -3 19.5t-5 12.5q-5 -14 -5 -20q-1 -3 -3.5 -26t-2.5 -27 q0 -1 -1 -4t-1 -4h-16q-5 3 -10 12q-2 36 -12.5 100t-12.5 78zM1090 975v8q0 7 2 8.5t8 1.5q10 0 18 -14q0 -106 4 -152q0 -3 1 -15.5t1 -14.5q3 10 21 10q29 0 39 -47v-49q0 -66 -4 -107q0 -6 -6 -12h-3q-4 0 -10 3.5t-6 8.5v135l-4 25l-2 2q-14 0 -14 -39l-5 -12l-4 -15 q0 -6 -1 -37.5t-1 -37.5l-2 -9h-8q-14 0 -14 15q-6 113 -10 344zM1106 96q0 74 33 105q8 10 18 10q18 0 31.5 -35.5t13.5 -62.5q0 -67 -41 -115q-6 -6 -18 -6q-6 0 -12.5 7t-8.5 13q-16 29 -16 84zM1133.5 52q0.5 -4 2.5 -6.5t5 -2.5l6 2q12 10 21.5 36t9.5 48q0 25 -13 25 q-15 0 -22.5 -27t-7.5 -53q0 -2 -0.5 -6.5t-1 -8t0 -7.5zM1210 711q0 37 7.5 59t27.5 45q11 8 19 8q10 0 24.5 -27.5t16.5 -41.5l1 -12q1 -12 1 -17l-2 -29q0 -9 -5 -14q-14 -55 -38 -74q-6 -6 -13 -6q-22 0 -30.5 36t-8.5 73zM1223 215v29q2 4 8 4q10 0 14 -4q8 -4 8 -8 v-37q2 -2 4 -2q1 0 11 10h8q21 0 24 -39q2 4 5.5 12.5t6 13.5t6.5 9t9 4q14 0 22.5 -14.5t10.5 -32.5q4 -20 4 -82v-66q0 -6 -4 -12t-8 -6q-5 0 -9 4q0 8 -2 54.5t-2 53.5t-2 28.5t-2 23.5q0 6 -2 6q-5 -3 -8.5 -20t-3.5 -27q-8 -72 -8 -105q-8 -16 -13 -18q-2 4 -4 4 l-12 16l-2 16q-2 16 -2 21q-2 14 -2 88q0 11 -4 15h-2q-2 0 -4 -4.5t-3.5 -9t-2.5 -5.5l-7 -14v-117q0 -12 -14 -12q-12 0 -12 16q-1 24 -2.5 66t-2.5 76.5t-1 64.5zM1223 1413l6 14h24q11 0 11 -71l4 8q6 24 6 55l4 4h22v-10q3 -12 6 -47.5t7 -50.5l4 10q18 72 18 98h23 q0 -11 -2 -22t-5.5 -24t-4.5 -21q-19 -114 -19 -121q-6 -17 -12 -18q-12 0 -15 12q-3 36 -12 74q-5 -9 -5 -32t-2.5 -38.5t-14.5 -15.5h-9q-8 8 -8 12q0 31 -4 39q-1 3 -9.5 68t-12.5 77zM1239 688q0 -2 1 -13t1 -13v-9h2q8 0 19 17q8 8 12 30q6 6 6 15v43q-3 8 -8 8 q-11 0 -21 -18t-10 -33l-1 -11q-1 -11 -1 -16zM1329 688v273h21q4 -3 6 -5l4 -6v-190q5 9 18 16h2q13 -13 13 -28v-5l-33 -41v-14q0 -35 8 -39q4 2 9 15.5t14 13.5q12 0 12 -16q0 -23 -10.5 -41.5t-24.5 -18.5q-39 0 -39 86zM1360 1243q0 33 12 33q9 0 15 -7.5t6 -19.5 q0 -9 -7 -24t-14 -15q-12 0 -12 33zM1423 711q0 38 6.5 59.5t26.5 44.5q11 8 21 8t24.5 -27.5t16.5 -41.5v-58q0 -1 -2.5 -7t-2.5 -7q-13 -52 -38 -74q-6 -6 -11 -6q-23 0 -32 36t-9 73zM1452 662l2 -9h2q8 0 19 17l12 30q6 6 6 15v43q-5 8 -8 8q-11 0 -21 -17.5t-12 -33.5 v-53zM1534 684q0 72 39 111q8 6 10 6h19l6 6h10l12 -16q0 -12 1 -72t1 -70v-74v-24.5v-28.5t-1.5 -25t-4 -27.5t-8 -22t-12.5 -21.5q-2 -2 -8 -8.5t-8 -8t-7 -4t-10 -2.5q-11 0 -19 21t-8 39q0 78 25 78q12 0 12 -29q0 -8 -5 -24t-5 -27v-15q3 2 14 17t12 16q9 12 9 45v37 q0 47 -2 55q-14 -14 -27 -14q-23 0 -34 25t-11 57zM1563 655q2 -2 10 -2q4 0 10 4t13 11.5t10 9.5v22q0 43 -13 43h-4q-26 -19 -26 -67v-21zM1657 662v151q17 0 26 -18q3 -9 3 -35q1 2 3 6.5t3 6.5t3 4.5t5 3.5t6 1q16 0 23 -18v-16q0 -33 -15 -33q-8 6 -10 8 q-16 -37 -18 -57v-62q0 -12 -11 -12t-14 20q0 2 -2 24t-2 26zM1745 653v70q2 37 35 74q6 6 10 6q3 0 9.5 -3.5t8.5 -4.5q4 12 13 12q6 0 12 -8t6 -17q0 -10 -2 -29.5t-2 -29.5q0 -17 2 -49t2 -47v-35q-5 -19 -12 -19q-5 0 -10 12t-9 13q-1 1 -11.5 3t-12.5 3q-25 6 -39 49z M1776 680q0 -31 14 -31q20 0 20 45q0 31 -2 54h-4q-28 0 -28 -68zM1862 797v12q0 10 10 10q29 0 29 -33q1 2 14 15q4 6 16 6q32 0 43 -53v-37q0 -115 -47 -115q-12 0 -22 6l-4 4h-7q0 -3 -1 -19t-1 -20v-114q-6 -12 -6 -17l-4 -4h-2q-12 0 -12 13q0 25 -3 173t-3 173z M1898 702q0 -18 7 -32q1 -2 3.5 -5.5t4 -5.5t4 -4.5t5 -4t5.5 -1.5q12 0 17.5 19t5.5 37q0 53 -21 53q-14 0 -22.5 -17.5t-8.5 -38.5zM1997 995q1 0 8 -1t8 -1q5 -2 11 -8t6 -10v-178q5 10 20 10q43 0 43 -74v-14q-1 -8 -2 -55.5t-2 -55.5q-5 -16 -10 -16h-2l-9 2 q-3 1 -5.5 8.5t-2.5 9.5v146q0 6 -4 6q-19 -17 -24 -94v-41q0 -13 -11 -13h-4q-1 0 -3 3l-4 6t-3 4q0 4 -1 25t-1 24q0 15 -3 124t-3 134q0 2 -1 28t-1 31zM2116 748v6l6 47l2 6h20l6 -10v-109q0 -4 5.5 -16.5t9.5 -12.5q5 0 9.5 10.5t4.5 16.5v111q0 4 4 4q6 2 8 2l7 -2 l8 -6v-320q-4 -10 -4 -12q-15 -43 -39 -43q-16 0 -24.5 13t-9.5 25.5t-1 35.5v22l8 19h21l6 -7q-9 -13 -9 -41v-16q3 -8 9 -8q16 0 16 65v23q0 4 -1 32t-1 33h-23l-4 2q-34 39 -34 130z" />
<glyph unicode="3" d="M102 995q1 0 8 -1t9 -1l4 -4l8 -10v-182q10 10 25 10q20 0 28 -12.5t13 -40.5v-84q-1 -5 -3.5 -33t-3.5 -33q0 -2 -3 -6.5t-3 -5.5h-4l-4 2l-5.5 5.5t-2.5 4.5v156q-4 4 -6 4l-2 2l-2 -2q-8 -8 -8 -10q-15 -51 -15 -129q-2 -9 -8 -9q-14 0 -14 15q-7 109 -7 198 q-4 110 -4 166zM217 688q0 65 33 107q10 6 12 6q0 2 2 2l4 -2q1 0 8.5 -3t8.5 -3v12h8q12 0 18 -12q-1 -38 0.5 -109.5t1.5 -91.5q0 -6 -3.5 -13.5t-8.5 -7.5q-4 0 -10 10t-6 15q-2 1 -12 3t-11 3q-45 11 -45 84zM252 666q0 -3 0.5 -4.5t1 -4t1.5 -3.5t2 -2.5t3 -2t4 -0.5 q8 0 15.5 14.5t7.5 26.5q0 10 -1 27t-1 26q-3 5 -9 5q-24 0 -24 -66v-5.5v-5.5v-5zM334 819q27 0 31 -12q4 -8 4 -25q3 10 18 25h8q19 0 25.5 -8.5t9.5 -34.5q0 -8 2 -64.5t2 -68.5v-2q0 -6 -4 -11.5t-10 -5.5h-4q-10 10 -10 13v133l-3 6q-11 -2 -24 -49q0 -5 -2 -21l-2 -16 q-4 -16 -4 -62q-3 -14 -13 -14q-5 0 -8 3.5t-4 6.5t-4 13q0 12 -3 76.5t-3 74.5q0 3 -1 22t-1 21zM459 705q0 74 30 106q16 12 23 12q16 0 30.5 -36t14.5 -60q0 -69 -43 -115q-8 -10 -16 -10q-14 0 -27 27q-12 20 -12 76zM485 662l7 -9q4 -1 12 11t10 18l10 20q6 15 6 37 q0 27 -12 27q-8 0 -19.5 -20.5t-13.5 -34.5v-49zM578 700q0 73 30 95q5 2 12 6.5t7 5.5h4q10 0 20 -10q4 16 4 51v102q18 0 25 -12q4 -31 4 -80v-35q0 -3 -2 -31.5t-2 -31.5v-37q0 -9 -1 -62.5t-1 -62.5q-3 -9 -14 -16q-15 15 -15 36q-13 -10 -22 -10q-24 0 -36.5 29.5 t-12.5 62.5zM604 688q0 -35 12 -35q9 0 20 11.5t15 13.5v29q0 1 0.5 9.5t0 14t-1.5 12.5t-3.5 11t-7.5 4q-15 0 -25 -25t-10 -45zM707 702q0 78 28 113h6q26 0 33 -18q2 -3 6.5 -17.5t5.5 -15.5v-41q0 -8 -4 -8l-18 -27q-2 -2 -10.5 -7.5t-14.5 -11.5t-6 -10q0 -22 17 -22 q3 0 6.5 1.5t5.5 3.5t5.5 6t5 6t5 8t4.5 8h4q4 0 10.5 -14t6.5 -19q-4 -10 -8 -12q-1 -6 -9.5 -17.5t-11.5 -13.5q-2 -2 -24 -2h-11q-12 14 -16 20q-16 26 -16 90zM733 725q8 0 18.5 12t10.5 21q0 8 -6 8q-8 0 -15.5 -14.5t-7.5 -26.5zM823 700q0 71 33 95l18 12h3 q12 0 22 -10q0 4 1 26t1 25q0 7 1 51t1 51q18 0 25 -12q2 -31 2 -80v-35q0 -3 -1 -31.5t-1 -31.5v-37q0 -9 -2 -62.5t-2 -62.5q0 -3 -13 -16q-17 14 -14 36q-13 -10 -25 -10q-24 0 -36.5 29.5t-12.5 62.5zM852 688q0 -35 12 -35q8 0 18.5 11.5t16.5 13.5v29l1 9 q0 10 -0.5 14.5t-1.5 12.5t-4.5 11.5t-8.5 3.5q-13 0 -23 -25.5t-10 -44.5zM918 1407v6q0 14 4 14h20l6 -8q0 -25 8 -57q0 -8 2 -12q0 4 1.5 14t1.5 12l8 47h20l4 -4q0 -1 1 -14t1 -14l11 -68l2 -4l20 100q0 4 10 4q5 0 7 -0.5t4 -3t2 -8.5q0 -11 -6.5 -32.5t-8.5 -30.5 l-18 -123q0 -4 -4 -8h-6q-12 0 -15 8q0 54 -12 78q-2 0 -2 -17q-8 -32 -8 -61q0 -8 -13 -8q-6 0 -9.5 1t-5 5t-2 7t-1 11t-0.5 12q0 1 -2 14t-2 15q-8 80 -18 125zM946 -2v20q0 35 10 35q6 0 12.5 -8t6.5 -18q0 -7 -7 -24t-12 -17v2zM952 807v4q0 6 4 6l7 2q26 0 26 -26v-7 q18 21 35 21q31 0 41 -49v-41q0 -115 -47 -115q-6 0 -15.5 5t-15.5 5h-2q-4 -106 -2 -159q-7 -15 -12 -15q-3 0 -7 4.5t-6 8.5q-6 159 -6 356zM989 702q0 -16 8.5 -34.5t20.5 -18.5q22 0 22 58q0 51 -18 51q-13 0 -23 -18t-10 -38zM995 98q0 54 29 99q5 10 14 10t23 -16 t14 -29v-2q-1 -1 -2 -6.5t-3 -9.5t-5 -5h-18q-9 -3 -14 -22.5t-5 -34.5v-21l3 -8q3 -8 7 -8q6 0 10 19.5t13 19.5l6 -2q5 -3 12 -16v-13q0 -24 -14 -49q-6 -12 -23 -12q-20 0 -33.5 37.5t-13.5 68.5zM1071 1407v4q0 16 14 16t18 -12.5t4.5 -33t4.5 -29.5l10 71h25l14 -108 q15 77 17 82q0 1 1 11t1 11q1 4 12 4q6 0 8 -2.5t2 -11.5q0 -10 -2 -21t-5.5 -24t-4.5 -21q-1 -3 -5 -32.5t-5 -32.5q-1 -4 -3.5 -17t-4 -23t-1.5 -13q-1 -7 -2 -7.5t-8 -0.5q-9 0 -12.5 6t-4 22t-1.5 21q0 7 -3 19.5t-5 12.5q-5 -14 -5 -20q-1 -3 -3.5 -26t-2.5 -27 q0 -1 -1 -4t-1 -4h-16q-5 3 -10 12q-2 36 -12.5 100t-12.5 78zM1090 975v8q0 7 2 8.5t8 1.5q10 0 18 -14q0 -106 4 -152q0 -3 1 -15.5t1 -14.5q3 10 21 10q29 0 39 -47v-49q0 -66 -4 -107q0 -6 -6 -12h-3q-4 0 -10 3.5t-6 8.5v135l-4 25l-2 2q-14 0 -14 -39l-5 -12l-4 -15 q0 -6 -1 -37.5t-1 -37.5l-2 -9h-8q-14 0 -14 15q-6 113 -10 344zM1106 96q0 74 33 105q8 10 18 10q18 0 31.5 -35.5t13.5 -62.5q0 -67 -41 -115q-6 -6 -18 -6q-6 0 -12.5 7t-8.5 13q-16 29 -16 84zM1133.5 52q0.5 -4 2.5 -6.5t5 -2.5l6 2q12 10 21.5 36t9.5 48q0 25 -13 25 q-15 0 -22.5 -27t-7.5 -53q0 -2 -0.5 -6.5t-1 -8t0 -7.5zM1210 711q0 37 7.5 59t27.5 45q11 8 19 8q10 0 24.5 -27.5t16.5 -41.5l1 -12q1 -12 1 -17l-2 -29q0 -9 -5 -14q-14 -55 -38 -74q-6 -6 -13 -6q-22 0 -30.5 36t-8.5 73zM1223 215v29q2 4 8 4q10 0 14 -4q8 -4 8 -8 v-37q2 -2 4 -2q1 0 11 10h8q21 0 24 -39q2 4 5.5 12.5t6 13.5t6.5 9t9 4q14 0 22.5 -14.5t10.5 -32.5q4 -20 4 -82v-66q0 -6 -4 -12t-8 -6q-5 0 -9 4q0 8 -2 54.5t-2 53.5t-2 28.5t-2 23.5q0 6 -2 6q-5 -3 -8.5 -20t-3.5 -27q-8 -72 -8 -105q-8 -16 -13 -18q-2 4 -4 4 l-12 16l-2 16q-2 16 -2 21q-2 14 -2 88q0 11 -4 15h-2q-2 0 -4 -4.5t-3.5 -9t-2.5 -5.5l-7 -14v-117q0 -12 -14 -12q-12 0 -12 16q-1 24 -2.5 66t-2.5 76.5t-1 64.5zM1223 1413l6 14h24q11 0 11 -71l4 8q6 24 6 55l4 4h22v-10q3 -12 6 -47.5t7 -50.5l4 10q18 72 18 98h23 q0 -11 -2 -22t-5.5 -24t-4.5 -21q-19 -114 -19 -121q-6 -17 -12 -18q-12 0 -15 12q-3 36 -12 74q-5 -9 -5 -32t-2.5 -38.5t-14.5 -15.5h-9q-8 8 -8 12q0 31 -4 39q-1 3 -9.5 68t-12.5 77zM1239 688q0 -2 1 -13t1 -13v-9h2q8 0 19 17q8 8 12 30q6 6 6 15v43q-3 8 -8 8 q-11 0 -21 -18t-10 -33l-1 -11q-1 -11 -1 -16zM1329 688v273h21q4 -3 6 -5l4 -6v-190q5 9 18 16h2q13 -13 13 -28v-5l-33 -41v-14q0 -35 8 -39q4 2 9 15.5t14 13.5q12 0 12 -16q0 -23 -10.5 -41.5t-24.5 -18.5q-39 0 -39 86zM1360 1243q0 33 12 33q9 0 15 -7.5t6 -19.5 q0 -9 -7 -24t-14 -15q-12 0 -12 33zM1423 711q0 38 6.5 59.5t26.5 44.5q11 8 21 8t24.5 -27.5t16.5 -41.5v-58q0 -1 -2.5 -7t-2.5 -7q-13 -52 -38 -74q-6 -6 -11 -6q-23 0 -32 36t-9 73zM1452 662l2 -9h2q8 0 19 17l12 30q6 6 6 15v43q-5 8 -8 8q-11 0 -21 -17.5t-12 -33.5 v-53zM1534 684q0 72 39 111q8 6 10 6h19l6 6h10l12 -16q0 -12 1 -72t1 -70v-74v-24.5v-28.5t-1.5 -25t-4 -27.5t-8 -22t-12.5 -21.5q-2 -2 -8 -8.5t-8 -8t-7 -4t-10 -2.5q-11 0 -19 21t-8 39q0 78 25 78q12 0 12 -29q0 -8 -5 -24t-5 -27v-15q3 2 14 17t12 16q9 12 9 45v37 q0 47 -2 55q-14 -14 -27 -14q-23 0 -34 25t-11 57zM1563 655q2 -2 10 -2q4 0 10 4t13 11.5t10 9.5v22q0 43 -13 43h-4q-26 -19 -26 -67v-21zM1657 662v151q17 0 26 -18q3 -9 3 -35q1 2 3 6.5t3 6.5t3 4.5t5 3.5t6 1q16 0 23 -18v-16q0 -33 -15 -33q-8 6 -10 8 q-16 -37 -18 -57v-62q0 -12 -11 -12t-14 20q0 2 -2 24t-2 26zM1745 653v70q2 37 35 74q6 6 10 6q3 0 9.5 -3.5t8.5 -4.5q4 12 13 12q6 0 12 -8t6 -17q0 -10 -2 -29.5t-2 -29.5q0 -17 2 -49t2 -47v-35q-5 -19 -12 -19q-5 0 -10 12t-9 13q-1 1 -11.5 3t-12.5 3q-25 6 -39 49z M1776 680q0 -31 14 -31q20 0 20 45q0 31 -2 54h-4q-28 0 -28 -68zM1862 797v12q0 10 10 10q29 0 29 -33q1 2 14 15q4 6 16 6q32 0 43 -53v-37q0 -115 -47 -115q-12 0 -22 6l-4 4h-7q0 -3 -1 -19t-1 -20v-114q-6 -12 -6 -17l-4 -4h-2q-12 0 -12 13q0 25 -3 173t-3 173z M1898 702q0 -18 7 -32q1 -2 3.5 -5.5t4 -5.5t4 -4.5t5 -4t5.5 -1.5q12 0 17.5 19t5.5 37q0 53 -21 53q-14 0 -22.5 -17.5t-8.5 -38.5zM1997 995q1 0 8 -1t8 -1q5 -2 11 -8t6 -10v-178q5 10 20 10q43 0 43 -74v-14q-1 -8 -2 -55.5t-2 -55.5q-5 -16 -10 -16h-2l-9 2 q-3 1 -5.5 8.5t-2.5 9.5v146q0 6 -4 6q-19 -17 -24 -94v-41q0 -13 -11 -13h-4q-1 0 -3 3l-4 6t-3 4q0 4 -1 25t-1 24q0 15 -3 124t-3 134q0 2 -1 28t-1 31zM2116 748v6l6 47l2 6h20l6 -10v-109q0 -4 5.5 -16.5t9.5 -12.5q5 0 9.5 10.5t4.5 16.5v111q0 4 4 4q6 2 8 2l7 -2 l8 -6v-320q-4 -10 -4 -12q-15 -43 -39 -43q-16 0 -24.5 13t-9.5 25.5t-1 35.5v22l8 19h21l6 -7q-9 -13 -9 -41v-16q3 -8 9 -8q16 0 16 65v23q0 4 -1 32t-1 33h-23l-4 2q-34 39 -34 130z" />
<glyph unicode="4" d="M102 995q1 0 8 -1t9 -1l4 -4l8 -10v-182q10 10 25 10q20 0 28 -12.5t13 -40.5v-84q-1 -5 -3.5 -33t-3.5 -33q0 -2 -3 -6.5t-3 -5.5h-4l-4 2l-5.5 5.5t-2.5 4.5v156q-4 4 -6 4l-2 2l-2 -2q-8 -8 -8 -10q-15 -51 -15 -129q-2 -9 -8 -9q-14 0 -14 15q-7 109 -7 198 q-4 110 -4 166zM217 688q0 65 33 107q10 6 12 6q0 2 2 2l4 -2q1 0 8.5 -3t8.5 -3v12h8q12 0 18 -12q-1 -38 0.5 -109.5t1.5 -91.5q0 -6 -3.5 -13.5t-8.5 -7.5q-4 0 -10 10t-6 15q-2 1 -12 3t-11 3q-45 11 -45 84zM252 666q0 -3 0.5 -4.5t1 -4t1.5 -3.5t2 -2.5t3 -2t4 -0.5 q8 0 15.5 14.5t7.5 26.5q0 10 -1 27t-1 26q-3 5 -9 5q-24 0 -24 -66v-5.5v-5.5v-5zM334 819q27 0 31 -12q4 -8 4 -25q3 10 18 25h8q19 0 25.5 -8.5t9.5 -34.5q0 -8 2 -64.5t2 -68.5v-2q0 -6 -4 -11.5t-10 -5.5h-4q-10 10 -10 13v133l-3 6q-11 -2 -24 -49q0 -5 -2 -21l-2 -16 q-4 -16 -4 -62q-3 -14 -13 -14q-5 0 -8 3.5t-4 6.5t-4 13q0 12 -3 76.5t-3 74.5q0 3 -1 22t-1 21zM459 705q0 74 30 106q16 12 23 12q16 0 30.5 -36t14.5 -60q0 -69 -43 -115q-8 -10 -16 -10q-14 0 -27 27q-12 20 -12 76zM485 662l7 -9q4 -1 12 11t10 18l10 20q6 15 6 37 q0 27 -12 27q-8 0 -19.5 -20.5t-13.5 -34.5v-49zM578 700q0 73 30 95q5 2 12 6.5t7 5.5h4q10 0 20 -10q4 16 4 51v102q18 0 25 -12q4 -31 4 -80v-35q0 -3 -2 -31.5t-2 -31.5v-37q0 -9 -1 -62.5t-1 -62.5q-3 -9 -14 -16q-15 15 -15 36q-13 -10 -22 -10q-24 0 -36.5 29.5 t-12.5 62.5zM604 688q0 -35 12 -35q9 0 20 11.5t15 13.5v29q0 1 0.5 9.5t0 14t-1.5 12.5t-3.5 11t-7.5 4q-15 0 -25 -25t-10 -45zM707 702q0 78 28 113h6q26 0 33 -18q2 -3 6.5 -17.5t5.5 -15.5v-41q0 -8 -4 -8l-18 -27q-2 -2 -10.5 -7.5t-14.5 -11.5t-6 -10q0 -22 17 -22 q3 0 6.5 1.5t5.5 3.5t5.5 6t5 6t5 8t4.5 8h4q4 0 10.5 -14t6.5 -19q-4 -10 -8 -12q-1 -6 -9.5 -17.5t-11.5 -13.5q-2 -2 -24 -2h-11q-12 14 -16 20q-16 26 -16 90zM733 725q8 0 18.5 12t10.5 21q0 8 -6 8q-8 0 -15.5 -14.5t-7.5 -26.5zM823 700q0 71 33 95l18 12h3 q12 0 22 -10q0 4 1 26t1 25q0 7 1 51t1 51q18 0 25 -12q2 -31 2 -80v-35q0 -3 -1 -31.5t-1 -31.5v-37q0 -9 -2 -62.5t-2 -62.5q0 -3 -13 -16q-17 14 -14 36q-13 -10 -25 -10q-24 0 -36.5 29.5t-12.5 62.5zM852 688q0 -35 12 -35q8 0 18.5 11.5t16.5 13.5v29l1 9 q0 10 -0.5 14.5t-1.5 12.5t-4.5 11.5t-8.5 3.5q-13 0 -23 -25.5t-10 -44.5zM918 1407v6q0 14 4 14h20l6 -8q0 -25 8 -57q0 -8 2 -12q0 4 1.5 14t1.5 12l8 47h20l4 -4q0 -1 1 -14t1 -14l11 -68l2 -4l20 100q0 4 10 4q5 0 7 -0.5t4 -3t2 -8.5q0 -11 -6.5 -32.5t-8.5 -30.5 l-18 -123q0 -4 -4 -8h-6q-12 0 -15 8q0 54 -12 78q-2 0 -2 -17q-8 -32 -8 -61q0 -8 -13 -8q-6 0 -9.5 1t-5 5t-2 7t-1 11t-0.5 12q0 1 -2 14t-2 15q-8 80 -18 125zM946 -2v20q0 35 10 35q6 0 12.5 -8t6.5 -18q0 -7 -7 -24t-12 -17v2zM952 807v4q0 6 4 6l7 2q26 0 26 -26v-7 q18 21 35 21q31 0 41 -49v-41q0 -115 -47 -115q-6 0 -15.5 5t-15.5 5h-2q-4 -106 -2 -159q-7 -15 -12 -15q-3 0 -7 4.5t-6 8.5q-6 159 -6 356zM989 702q0 -16 8.5 -34.5t20.5 -18.5q22 0 22 58q0 51 -18 51q-13 0 -23 -18t-10 -38zM995 98q0 54 29 99q5 10 14 10t23 -16 t14 -29v-2q-1 -1 -2 -6.5t-3 -9.5t-5 -5h-18q-9 -3 -14 -22.5t-5 -34.5v-21l3 -8q3 -8 7 -8q6 0 10 19.5t13 19.5l6 -2q5 -3 12 -16v-13q0 -24 -14 -49q-6 -12 -23 -12q-20 0 -33.5 37.5t-13.5 68.5zM1071 1407v4q0 16 14 16t18 -12.5t4.5 -33t4.5 -29.5l10 71h25l14 -108 q15 77 17 82q0 1 1 11t1 11q1 4 12 4q6 0 8 -2.5t2 -11.5q0 -10 -2 -21t-5.5 -24t-4.5 -21q-1 -3 -5 -32.5t-5 -32.5q-1 -4 -3.5 -17t-4 -23t-1.5 -13q-1 -7 -2 -7.5t-8 -0.5q-9 0 -12.5 6t-4 22t-1.5 21q0 7 -3 19.5t-5 12.5q-5 -14 -5 -20q-1 -3 -3.5 -26t-2.5 -27 q0 -1 -1 -4t-1 -4h-16q-5 3 -10 12q-2 36 -12.5 100t-12.5 78zM1090 975v8q0 7 2 8.5t8 1.5q10 0 18 -14q0 -106 4 -152q0 -3 1 -15.5t1 -14.5q3 10 21 10q29 0 39 -47v-49q0 -66 -4 -107q0 -6 -6 -12h-3q-4 0 -10 3.5t-6 8.5v135l-4 25l-2 2q-14 0 -14 -39l-5 -12l-4 -15 q0 -6 -1 -37.5t-1 -37.5l-2 -9h-8q-14 0 -14 15q-6 113 -10 344zM1106 96q0 74 33 105q8 10 18 10q18 0 31.5 -35.5t13.5 -62.5q0 -67 -41 -115q-6 -6 -18 -6q-6 0 -12.5 7t-8.5 13q-16 29 -16 84zM1133.5 52q0.5 -4 2.5 -6.5t5 -2.5l6 2q12 10 21.5 36t9.5 48q0 25 -13 25 q-15 0 -22.5 -27t-7.5 -53q0 -2 -0.5 -6.5t-1 -8t0 -7.5zM1210 711q0 37 7.5 59t27.5 45q11 8 19 8q10 0 24.5 -27.5t16.5 -41.5l1 -12q1 -12 1 -17l-2 -29q0 -9 -5 -14q-14 -55 -38 -74q-6 -6 -13 -6q-22 0 -30.5 36t-8.5 73zM1223 215v29q2 4 8 4q10 0 14 -4q8 -4 8 -8 v-37q2 -2 4 -2q1 0 11 10h8q21 0 24 -39q2 4 5.5 12.5t6 13.5t6.5 9t9 4q14 0 22.5 -14.5t10.5 -32.5q4 -20 4 -82v-66q0 -6 -4 -12t-8 -6q-5 0 -9 4q0 8 -2 54.5t-2 53.5t-2 28.5t-2 23.5q0 6 -2 6q-5 -3 -8.5 -20t-3.5 -27q-8 -72 -8 -105q-8 -16 -13 -18q-2 4 -4 4 l-12 16l-2 16q-2 16 -2 21q-2 14 -2 88q0 11 -4 15h-2q-2 0 -4 -4.5t-3.5 -9t-2.5 -5.5l-7 -14v-117q0 -12 -14 -12q-12 0 -12 16q-1 24 -2.5 66t-2.5 76.5t-1 64.5zM1223 1413l6 14h24q11 0 11 -71l4 8q6 24 6 55l4 4h22v-10q3 -12 6 -47.5t7 -50.5l4 10q18 72 18 98h23 q0 -11 -2 -22t-5.5 -24t-4.5 -21q-19 -114 -19 -121q-6 -17 -12 -18q-12 0 -15 12q-3 36 -12 74q-5 -9 -5 -32t-2.5 -38.5t-14.5 -15.5h-9q-8 8 -8 12q0 31 -4 39q-1 3 -9.5 68t-12.5 77zM1239 688q0 -2 1 -13t1 -13v-9h2q8 0 19 17q8 8 12 30q6 6 6 15v43q-3 8 -8 8 q-11 0 -21 -18t-10 -33l-1 -11q-1 -11 -1 -16zM1329 688v273h21q4 -3 6 -5l4 -6v-190q5 9 18 16h2q13 -13 13 -28v-5l-33 -41v-14q0 -35 8 -39q4 2 9 15.5t14 13.5q12 0 12 -16q0 -23 -10.5 -41.5t-24.5 -18.5q-39 0 -39 86zM1360 1243q0 33 12 33q9 0 15 -7.5t6 -19.5 q0 -9 -7 -24t-14 -15q-12 0 -12 33zM1423 711q0 38 6.5 59.5t26.5 44.5q11 8 21 8t24.5 -27.5t16.5 -41.5v-58q0 -1 -2.5 -7t-2.5 -7q-13 -52 -38 -74q-6 -6 -11 -6q-23 0 -32 36t-9 73zM1452 662l2 -9h2q8 0 19 17l12 30q6 6 6 15v43q-5 8 -8 8q-11 0 -21 -17.5t-12 -33.5 v-53zM1534 684q0 72 39 111q8 6 10 6h19l6 6h10l12 -16q0 -12 1 -72t1 -70v-74v-24.5v-28.5t-1.5 -25t-4 -27.5t-8 -22t-12.5 -21.5q-2 -2 -8 -8.5t-8 -8t-7 -4t-10 -2.5q-11 0 -19 21t-8 39q0 78 25 78q12 0 12 -29q0 -8 -5 -24t-5 -27v-15q3 2 14 17t12 16q9 12 9 45v37 q0 47 -2 55q-14 -14 -27 -14q-23 0 -34 25t-11 57zM1563 655q2 -2 10 -2q4 0 10 4t13 11.5t10 9.5v22q0 43 -13 43h-4q-26 -19 -26 -67v-21zM1657 662v151q17 0 26 -18q3 -9 3 -35q1 2 3 6.5t3 6.5t3 4.5t5 3.5t6 1q16 0 23 -18v-16q0 -33 -15 -33q-8 6 -10 8 q-16 -37 -18 -57v-62q0 -12 -11 -12t-14 20q0 2 -2 24t-2 26zM1745 653v70q2 37 35 74q6 6 10 6q3 0 9.5 -3.5t8.5 -4.5q4 12 13 12q6 0 12 -8t6 -17q0 -10 -2 -29.5t-2 -29.5q0 -17 2 -49t2 -47v-35q-5 -19 -12 -19q-5 0 -10 12t-9 13q-1 1 -11.5 3t-12.5 3q-25 6 -39 49z M1776 680q0 -31 14 -31q20 0 20 45q0 31 -2 54h-4q-28 0 -28 -68zM1862 797v12q0 10 10 10q29 0 29 -33q1 2 14 15q4 6 16 6q32 0 43 -53v-37q0 -115 -47 -115q-12 0 -22 6l-4 4h-7q0 -3 -1 -19t-1 -20v-114q-6 -12 -6 -17l-4 -4h-2q-12 0 -12 13q0 25 -3 173t-3 173z M1898 702q0 -18 7 -32q1 -2 3.5 -5.5t4 -5.5t4 -4.5t5 -4t5.5 -1.5q12 0 17.5 19t5.5 37q0 53 -21 53q-14 0 -22.5 -17.5t-8.5 -38.5zM1997 995q1 0 8 -1t8 -1q5 -2 11 -8t6 -10v-178q5 10 20 10q43 0 43 -74v-14q-1 -8 -2 -55.5t-2 -55.5q-5 -16 -10 -16h-2l-9 2 q-3 1 -5.5 8.5t-2.5 9.5v146q0 6 -4 6q-19 -17 -24 -94v-41q0 -13 -11 -13h-4q-1 0 -3 3l-4 6t-3 4q0 4 -1 25t-1 24q0 15 -3 124t-3 134q0 2 -1 28t-1 31zM2116 748v6l6 47l2 6h20l6 -10v-109q0 -4 5.5 -16.5t9.5 -12.5q5 0 9.5 10.5t4.5 16.5v111q0 4 4 4q6 2 8 2l7 -2 l8 -6v-320q-4 -10 -4 -12q-15 -43 -39 -43q-16 0 -24.5 13t-9.5 25.5t-1 35.5v22l8 19h21l6 -7q-9 -13 -9 -41v-16q3 -8 9 -8q16 0 16 65v23q0 4 -1 32t-1 33h-23l-4 2q-34 39 -34 130z" />
<glyph unicode="5" d="M102 995q1 0 8 -1t9 -1l4 -4l8 -10v-182q10 10 25 10q20 0 28 -12.5t13 -40.5v-84q-1 -5 -3.5 -33t-3.5 -33q0 -2 -3 -6.5t-3 -5.5h-4l-4 2l-5.5 5.5t-2.5 4.5v156q-4 4 -6 4l-2 2l-2 -2q-8 -8 -8 -10q-15 -51 -15 -129q-2 -9 -8 -9q-14 0 -14 15q-7 109 -7 198 q-4 110 -4 166zM217 688q0 65 33 107q10 6 12 6q0 2 2 2l4 -2q1 0 8.5 -3t8.5 -3v12h8q12 0 18 -12q-1 -38 0.5 -109.5t1.5 -91.5q0 -6 -3.5 -13.5t-8.5 -7.5q-4 0 -10 10t-6 15q-2 1 -12 3t-11 3q-45 11 -45 84zM252 666q0 -3 0.5 -4.5t1 -4t1.5 -3.5t2 -2.5t3 -2t4 -0.5 q8 0 15.5 14.5t7.5 26.5q0 10 -1 27t-1 26q-3 5 -9 5q-24 0 -24 -66v-5.5v-5.5v-5zM334 819q27 0 31 -12q4 -8 4 -25q3 10 18 25h8q19 0 25.5 -8.5t9.5 -34.5q0 -8 2 -64.5t2 -68.5v-2q0 -6 -4 -11.5t-10 -5.5h-4q-10 10 -10 13v133l-3 6q-11 -2 -24 -49q0 -5 -2 -21l-2 -16 q-4 -16 -4 -62q-3 -14 -13 -14q-5 0 -8 3.5t-4 6.5t-4 13q0 12 -3 76.5t-3 74.5q0 3 -1 22t-1 21zM459 705q0 74 30 106q16 12 23 12q16 0 30.5 -36t14.5 -60q0 -69 -43 -115q-8 -10 -16 -10q-14 0 -27 27q-12 20 -12 76zM485 662l7 -9q4 -1 12 11t10 18l10 20q6 15 6 37 q0 27 -12 27q-8 0 -19.5 -20.5t-13.5 -34.5v-49zM578 700q0 73 30 95q5 2 12 6.5t7 5.5h4q10 0 20 -10q4 16 4 51v102q18 0 25 -12q4 -31 4 -80v-35q0 -3 -2 -31.5t-2 -31.5v-37q0 -9 -1 -62.5t-1 -62.5q-3 -9 -14 -16q-15 15 -15 36q-13 -10 -22 -10q-24 0 -36.5 29.5 t-12.5 62.5zM604 688q0 -35 12 -35q9 0 20 11.5t15 13.5v29q0 1 0.5 9.5t0 14t-1.5 12.5t-3.5 11t-7.5 4q-15 0 -25 -25t-10 -45zM707 702q0 78 28 113h6q26 0 33 -18q2 -3 6.5 -17.5t5.5 -15.5v-41q0 -8 -4 -8l-18 -27q-2 -2 -10.5 -7.5t-14.5 -11.5t-6 -10q0 -22 17 -22 q3 0 6.5 1.5t5.5 3.5t5.5 6t5 6t5 8t4.5 8h4q4 0 10.5 -14t6.5 -19q-4 -10 -8 -12q-1 -6 -9.5 -17.5t-11.5 -13.5q-2 -2 -24 -2h-11q-12 14 -16 20q-16 26 -16 90zM733 725q8 0 18.5 12t10.5 21q0 8 -6 8q-8 0 -15.5 -14.5t-7.5 -26.5zM823 700q0 71 33 95l18 12h3 q12 0 22 -10q0 4 1 26t1 25q0 7 1 51t1 51q18 0 25 -12q2 -31 2 -80v-35q0 -3 -1 -31.5t-1 -31.5v-37q0 -9 -2 -62.5t-2 -62.5q0 -3 -13 -16q-17 14 -14 36q-13 -10 -25 -10q-24 0 -36.5 29.5t-12.5 62.5zM852 688q0 -35 12 -35q8 0 18.5 11.5t16.5 13.5v29l1 9 q0 10 -0.5 14.5t-1.5 12.5t-4.5 11.5t-8.5 3.5q-13 0 -23 -25.5t-10 -44.5zM918 1407v6q0 14 4 14h20l6 -8q0 -25 8 -57q0 -8 2 -12q0 4 1.5 14t1.5 12l8 47h20l4 -4q0 -1 1 -14t1 -14l11 -68l2 -4l20 100q0 4 10 4q5 0 7 -0.5t4 -3t2 -8.5q0 -11 -6.5 -32.5t-8.5 -30.5 l-18 -123q0 -4 -4 -8h-6q-12 0 -15 8q0 54 -12 78q-2 0 -2 -17q-8 -32 -8 -61q0 -8 -13 -8q-6 0 -9.5 1t-5 5t-2 7t-1 11t-0.5 12q0 1 -2 14t-2 15q-8 80 -18 125zM946 -2v20q0 35 10 35q6 0 12.5 -8t6.5 -18q0 -7 -7 -24t-12 -17v2zM952 807v4q0 6 4 6l7 2q26 0 26 -26v-7 q18 21 35 21q31 0 41 -49v-41q0 -115 -47 -115q-6 0 -15.5 5t-15.5 5h-2q-4 -106 -2 -159q-7 -15 -12 -15q-3 0 -7 4.5t-6 8.5q-6 159 -6 356zM989 702q0 -16 8.5 -34.5t20.5 -18.5q22 0 22 58q0 51 -18 51q-13 0 -23 -18t-10 -38zM995 98q0 54 29 99q5 10 14 10t23 -16 t14 -29v-2q-1 -1 -2 -6.5t-3 -9.5t-5 -5h-18q-9 -3 -14 -22.5t-5 -34.5v-21l3 -8q3 -8 7 -8q6 0 10 19.5t13 19.5l6 -2q5 -3 12 -16v-13q0 -24 -14 -49q-6 -12 -23 -12q-20 0 -33.5 37.5t-13.5 68.5zM1071 1407v4q0 16 14 16t18 -12.5t4.5 -33t4.5 -29.5l10 71h25l14 -108 q15 77 17 82q0 1 1 11t1 11q1 4 12 4q6 0 8 -2.5t2 -11.5q0 -10 -2 -21t-5.5 -24t-4.5 -21q-1 -3 -5 -32.5t-5 -32.5q-1 -4 -3.5 -17t-4 -23t-1.5 -13q-1 -7 -2 -7.5t-8 -0.5q-9 0 -12.5 6t-4 22t-1.5 21q0 7 -3 19.5t-5 12.5q-5 -14 -5 -20q-1 -3 -3.5 -26t-2.5 -27 q0 -1 -1 -4t-1 -4h-16q-5 3 -10 12q-2 36 -12.5 100t-12.5 78zM1090 975v8q0 7 2 8.5t8 1.5q10 0 18 -14q0 -106 4 -152q0 -3 1 -15.5t1 -14.5q3 10 21 10q29 0 39 -47v-49q0 -66 -4 -107q0 -6 -6 -12h-3q-4 0 -10 3.5t-6 8.5v135l-4 25l-2 2q-14 0 -14 -39l-5 -12l-4 -15 q0 -6 -1 -37.5t-1 -37.5l-2 -9h-8q-14 0 -14 15q-6 113 -10 344zM1106 96q0 74 33 105q8 10 18 10q18 0 31.5 -35.5t13.5 -62.5q0 -67 -41 -115q-6 -6 -18 -6q-6 0 -12.5 7t-8.5 13q-16 29 -16 84zM1133.5 52q0.5 -4 2.5 -6.5t5 -2.5l6 2q12 10 21.5 36t9.5 48q0 25 -13 25 q-15 0 -22.5 -27t-7.5 -53q0 -2 -0.5 -6.5t-1 -8t0 -7.5zM1210 711q0 37 7.5 59t27.5 45q11 8 19 8q10 0 24.5 -27.5t16.5 -41.5l1 -12q1 -12 1 -17l-2 -29q0 -9 -5 -14q-14 -55 -38 -74q-6 -6 -13 -6q-22 0 -30.5 36t-8.5 73zM1223 215v29q2 4 8 4q10 0 14 -4q8 -4 8 -8 v-37q2 -2 4 -2q1 0 11 10h8q21 0 24 -39q2 4 5.5 12.5t6 13.5t6.5 9t9 4q14 0 22.5 -14.5t10.5 -32.5q4 -20 4 -82v-66q0 -6 -4 -12t-8 -6q-5 0 -9 4q0 8 -2 54.5t-2 53.5t-2 28.5t-2 23.5q0 6 -2 6q-5 -3 -8.5 -20t-3.5 -27q-8 -72 -8 -105q-8 -16 -13 -18q-2 4 -4 4 l-12 16l-2 16q-2 16 -2 21q-2 14 -2 88q0 11 -4 15h-2q-2 0 -4 -4.5t-3.5 -9t-2.5 -5.5l-7 -14v-117q0 -12 -14 -12q-12 0 -12 16q-1 24 -2.5 66t-2.5 76.5t-1 64.5zM1223 1413l6 14h24q11 0 11 -71l4 8q6 24 6 55l4 4h22v-10q3 -12 6 -47.5t7 -50.5l4 10q18 72 18 98h23 q0 -11 -2 -22t-5.5 -24t-4.5 -21q-19 -114 -19 -121q-6 -17 -12 -18q-12 0 -15 12q-3 36 -12 74q-5 -9 -5 -32t-2.5 -38.5t-14.5 -15.5h-9q-8 8 -8 12q0 31 -4 39q-1 3 -9.5 68t-12.5 77zM1239 688q0 -2 1 -13t1 -13v-9h2q8 0 19 17q8 8 12 30q6 6 6 15v43q-3 8 -8 8 q-11 0 -21 -18t-10 -33l-1 -11q-1 -11 -1 -16zM1329 688v273h21q4 -3 6 -5l4 -6v-190q5 9 18 16h2q13 -13 13 -28v-5l-33 -41v-14q0 -35 8 -39q4 2 9 15.5t14 13.5q12 0 12 -16q0 -23 -10.5 -41.5t-24.5 -18.5q-39 0 -39 86zM1360 1243q0 33 12 33q9 0 15 -7.5t6 -19.5 q0 -9 -7 -24t-14 -15q-12 0 -12 33zM1423 711q0 38 6.5 59.5t26.5 44.5q11 8 21 8t24.5 -27.5t16.5 -41.5v-58q0 -1 -2.5 -7t-2.5 -7q-13 -52 -38 -74q-6 -6 -11 -6q-23 0 -32 36t-9 73zM1452 662l2 -9h2q8 0 19 17l12 30q6 6 6 15v43q-5 8 -8 8q-11 0 -21 -17.5t-12 -33.5 v-53zM1534 684q0 72 39 111q8 6 10 6h19l6 6h10l12 -16q0 -12 1 -72t1 -70v-74v-24.5v-28.5t-1.5 -25t-4 -27.5t-8 -22t-12.5 -21.5q-2 -2 -8 -8.5t-8 -8t-7 -4t-10 -2.5q-11 0 -19 21t-8 39q0 78 25 78q12 0 12 -29q0 -8 -5 -24t-5 -27v-15q3 2 14 17t12 16q9 12 9 45v37 q0 47 -2 55q-14 -14 -27 -14q-23 0 -34 25t-11 57zM1563 655q2 -2 10 -2q4 0 10 4t13 11.5t10 9.5v22q0 43 -13 43h-4q-26 -19 -26 -67v-21zM1657 662v151q17 0 26 -18q3 -9 3 -35q1 2 3 6.5t3 6.5t3 4.5t5 3.5t6 1q16 0 23 -18v-16q0 -33 -15 -33q-8 6 -10 8 q-16 -37 -18 -57v-62q0 -12 -11 -12t-14 20q0 2 -2 24t-2 26zM1745 653v70q2 37 35 74q6 6 10 6q3 0 9.5 -3.5t8.5 -4.5q4 12 13 12q6 0 12 -8t6 -17q0 -10 -2 -29.5t-2 -29.5q0 -17 2 -49t2 -47v-35q-5 -19 -12 -19q-5 0 -10 12t-9 13q-1 1 -11.5 3t-12.5 3q-25 6 -39 49z M1776 680q0 -31 14 -31q20 0 20 45q0 31 -2 54h-4q-28 0 -28 -68zM1862 797v12q0 10 10 10q29 0 29 -33q1 2 14 15q4 6 16 6q32 0 43 -53v-37q0 -115 -47 -115q-12 0 -22 6l-4 4h-7q0 -3 -1 -19t-1 -20v-114q-6 -12 -6 -17l-4 -4h-2q-12 0 -12 13q0 25 -3 173t-3 173z M1898 702q0 -18 7 -32q1 -2 3.5 -5.5t4 -5.5t4 -4.5t5 -4t5.5 -1.5q12 0 17.5 19t5.5 37q0 53 -21 53q-14 0 -22.5 -17.5t-8.5 -38.5zM1997 995q1 0 8 -1t8 -1q5 -2 11 -8t6 -10v-178q5 10 20 10q43 0 43 -74v-14q-1 -8 -2 -55.5t-2 -55.5q-5 -16 -10 -16h-2l-9 2 q-3 1 -5.5 8.5t-2.5 9.5v146q0 6 -4 6q-19 -17 -24 -94v-41q0 -13 -11 -13h-4q-1 0 -3 3l-4 6t-3 4q0 4 -1 25t-1 24q0 15 -3 124t-3 134q0 2 -1 28t-1 31zM2116 748v6l6 47l2 6h20l6 -10v-109q0 -4 5.5 -16.5t9.5 -12.5q5 0 9.5 10.5t4.5 16.5v111q0 4 4 4q6 2 8 2l7 -2 l8 -6v-320q-4 -10 -4 -12q-15 -43 -39 -43q-16 0 -24.5 13t-9.5 25.5t-1 35.5v22l8 19h21l6 -7q-9 -13 -9 -41v-16q3 -8 9 -8q16 0 16 65v23q0 4 -1 32t-1 33h-23l-4 2q-34 39 -34 130z" />
<glyph unicode="6" d="M102 995q1 0 8 -1t9 -1l4 -4l8 -10v-182q10 10 25 10q20 0 28 -12.5t13 -40.5v-84q-1 -5 -3.5 -33t-3.5 -33q0 -2 -3 -6.5t-3 -5.5h-4l-4 2l-5.5 5.5t-2.5 4.5v156q-4 4 -6 4l-2 2l-2 -2q-8 -8 -8 -10q-15 -51 -15 -129q-2 -9 -8 -9q-14 0 -14 15q-7 109 -7 198 q-4 110 -4 166zM217 688q0 65 33 107q10 6 12 6q0 2 2 2l4 -2q1 0 8.5 -3t8.5 -3v12h8q12 0 18 -12q-1 -38 0.5 -109.5t1.5 -91.5q0 -6 -3.5 -13.5t-8.5 -7.5q-4 0 -10 10t-6 15q-2 1 -12 3t-11 3q-45 11 -45 84zM252 666q0 -3 0.5 -4.5t1 -4t1.5 -3.5t2 -2.5t3 -2t4 -0.5 q8 0 15.5 14.5t7.5 26.5q0 10 -1 27t-1 26q-3 5 -9 5q-24 0 -24 -66v-5.5v-5.5v-5zM334 819q27 0 31 -12q4 -8 4 -25q3 10 18 25h8q19 0 25.5 -8.5t9.5 -34.5q0 -8 2 -64.5t2 -68.5v-2q0 -6 -4 -11.5t-10 -5.5h-4q-10 10 -10 13v133l-3 6q-11 -2 -24 -49q0 -5 -2 -21l-2 -16 q-4 -16 -4 -62q-3 -14 -13 -14q-5 0 -8 3.5t-4 6.5t-4 13q0 12 -3 76.5t-3 74.5q0 3 -1 22t-1 21zM459 705q0 74 30 106q16 12 23 12q16 0 30.5 -36t14.5 -60q0 -69 -43 -115q-8 -10 -16 -10q-14 0 -27 27q-12 20 -12 76zM485 662l7 -9q4 -1 12 11t10 18l10 20q6 15 6 37 q0 27 -12 27q-8 0 -19.5 -20.5t-13.5 -34.5v-49zM578 700q0 73 30 95q5 2 12 6.5t7 5.5h4q10 0 20 -10q4 16 4 51v102q18 0 25 -12q4 -31 4 -80v-35q0 -3 -2 -31.5t-2 -31.5v-37q0 -9 -1 -62.5t-1 -62.5q-3 -9 -14 -16q-15 15 -15 36q-13 -10 -22 -10q-24 0 -36.5 29.5 t-12.5 62.5zM604 688q0 -35 12 -35q9 0 20 11.5t15 13.5v29q0 1 0.5 9.5t0 14t-1.5 12.5t-3.5 11t-7.5 4q-15 0 -25 -25t-10 -45zM707 702q0 78 28 113h6q26 0 33 -18q2 -3 6.5 -17.5t5.5 -15.5v-41q0 -8 -4 -8l-18 -27q-2 -2 -10.5 -7.5t-14.5 -11.5t-6 -10q0 -22 17 -22 q3 0 6.5 1.5t5.5 3.5t5.5 6t5 6t5 8t4.5 8h4q4 0 10.5 -14t6.5 -19q-4 -10 -8 -12q-1 -6 -9.5 -17.5t-11.5 -13.5q-2 -2 -24 -2h-11q-12 14 -16 20q-16 26 -16 90zM733 725q8 0 18.5 12t10.5 21q0 8 -6 8q-8 0 -15.5 -14.5t-7.5 -26.5zM823 700q0 71 33 95l18 12h3 q12 0 22 -10q0 4 1 26t1 25q0 7 1 51t1 51q18 0 25 -12q2 -31 2 -80v-35q0 -3 -1 -31.5t-1 -31.5v-37q0 -9 -2 -62.5t-2 -62.5q0 -3 -13 -16q-17 14 -14 36q-13 -10 -25 -10q-24 0 -36.5 29.5t-12.5 62.5zM852 688q0 -35 12 -35q8 0 18.5 11.5t16.5 13.5v29l1 9 q0 10 -0.5 14.5t-1.5 12.5t-4.5 11.5t-8.5 3.5q-13 0 -23 -25.5t-10 -44.5zM918 1407v6q0 14 4 14h20l6 -8q0 -25 8 -57q0 -8 2 -12q0 4 1.5 14t1.5 12l8 47h20l4 -4q0 -1 1 -14t1 -14l11 -68l2 -4l20 100q0 4 10 4q5 0 7 -0.5t4 -3t2 -8.5q0 -11 -6.5 -32.5t-8.5 -30.5 l-18 -123q0 -4 -4 -8h-6q-12 0 -15 8q0 54 -12 78q-2 0 -2 -17q-8 -32 -8 -61q0 -8 -13 -8q-6 0 -9.5 1t-5 5t-2 7t-1 11t-0.5 12q0 1 -2 14t-2 15q-8 80 -18 125zM946 -2v20q0 35 10 35q6 0 12.5 -8t6.5 -18q0 -7 -7 -24t-12 -17v2zM952 807v4q0 6 4 6l7 2q26 0 26 -26v-7 q18 21 35 21q31 0 41 -49v-41q0 -115 -47 -115q-6 0 -15.5 5t-15.5 5h-2q-4 -106 -2 -159q-7 -15 -12 -15q-3 0 -7 4.5t-6 8.5q-6 159 -6 356zM989 702q0 -16 8.5 -34.5t20.5 -18.5q22 0 22 58q0 51 -18 51q-13 0 -23 -18t-10 -38zM995 98q0 54 29 99q5 10 14 10t23 -16 t14 -29v-2q-1 -1 -2 -6.5t-3 -9.5t-5 -5h-18q-9 -3 -14 -22.5t-5 -34.5v-21l3 -8q3 -8 7 -8q6 0 10 19.5t13 19.5l6 -2q5 -3 12 -16v-13q0 -24 -14 -49q-6 -12 -23 -12q-20 0 -33.5 37.5t-13.5 68.5zM1071 1407v4q0 16 14 16t18 -12.5t4.5 -33t4.5 -29.5l10 71h25l14 -108 q15 77 17 82q0 1 1 11t1 11q1 4 12 4q6 0 8 -2.5t2 -11.5q0 -10 -2 -21t-5.5 -24t-4.5 -21q-1 -3 -5 -32.5t-5 -32.5q-1 -4 -3.5 -17t-4 -23t-1.5 -13q-1 -7 -2 -7.5t-8 -0.5q-9 0 -12.5 6t-4 22t-1.5 21q0 7 -3 19.5t-5 12.5q-5 -14 -5 -20q-1 -3 -3.5 -26t-2.5 -27 q0 -1 -1 -4t-1 -4h-16q-5 3 -10 12q-2 36 -12.5 100t-12.5 78zM1090 975v8q0 7 2 8.5t8 1.5q10 0 18 -14q0 -106 4 -152q0 -3 1 -15.5t1 -14.5q3 10 21 10q29 0 39 -47v-49q0 -66 -4 -107q0 -6 -6 -12h-3q-4 0 -10 3.5t-6 8.5v135l-4 25l-2 2q-14 0 -14 -39l-5 -12l-4 -15 q0 -6 -1 -37.5t-1 -37.5l-2 -9h-8q-14 0 -14 15q-6 113 -10 344zM1106 96q0 74 33 105q8 10 18 10q18 0 31.5 -35.5t13.5 -62.5q0 -67 -41 -115q-6 -6 -18 -6q-6 0 -12.5 7t-8.5 13q-16 29 -16 84zM1133.5 52q0.5 -4 2.5 -6.5t5 -2.5l6 2q12 10 21.5 36t9.5 48q0 25 -13 25 q-15 0 -22.5 -27t-7.5 -53q0 -2 -0.5 -6.5t-1 -8t0 -7.5zM1210 711q0 37 7.5 59t27.5 45q11 8 19 8q10 0 24.5 -27.5t16.5 -41.5l1 -12q1 -12 1 -17l-2 -29q0 -9 -5 -14q-14 -55 -38 -74q-6 -6 -13 -6q-22 0 -30.5 36t-8.5 73zM1223 215v29q2 4 8 4q10 0 14 -4q8 -4 8 -8 v-37q2 -2 4 -2q1 0 11 10h8q21 0 24 -39q2 4 5.5 12.5t6 13.5t6.5 9t9 4q14 0 22.5 -14.5t10.5 -32.5q4 -20 4 -82v-66q0 -6 -4 -12t-8 -6q-5 0 -9 4q0 8 -2 54.5t-2 53.5t-2 28.5t-2 23.5q0 6 -2 6q-5 -3 -8.5 -20t-3.5 -27q-8 -72 -8 -105q-8 -16 -13 -18q-2 4 -4 4 l-12 16l-2 16q-2 16 -2 21q-2 14 -2 88q0 11 -4 15h-2q-2 0 -4 -4.5t-3.5 -9t-2.5 -5.5l-7 -14v-117q0 -12 -14 -12q-12 0 -12 16q-1 24 -2.5 66t-2.5 76.5t-1 64.5zM1223 1413l6 14h24q11 0 11 -71l4 8q6 24 6 55l4 4h22v-10q3 -12 6 -47.5t7 -50.5l4 10q18 72 18 98h23 q0 -11 -2 -22t-5.5 -24t-4.5 -21q-19 -114 -19 -121q-6 -17 -12 -18q-12 0 -15 12q-3 36 -12 74q-5 -9 -5 -32t-2.5 -38.5t-14.5 -15.5h-9q-8 8 -8 12q0 31 -4 39q-1 3 -9.5 68t-12.5 77zM1239 688q0 -2 1 -13t1 -13v-9h2q8 0 19 17q8 8 12 30q6 6 6 15v43q-3 8 -8 8 q-11 0 -21 -18t-10 -33l-1 -11q-1 -11 -1 -16zM1329 688v273h21q4 -3 6 -5l4 -6v-190q5 9 18 16h2q13 -13 13 -28v-5l-33 -41v-14q0 -35 8 -39q4 2 9 15.5t14 13.5q12 0 12 -16q0 -23 -10.5 -41.5t-24.5 -18.5q-39 0 -39 86zM1360 1243q0 33 12 33q9 0 15 -7.5t6 -19.5 q0 -9 -7 -24t-14 -15q-12 0 -12 33zM1423 711q0 38 6.5 59.5t26.5 44.5q11 8 21 8t24.5 -27.5t16.5 -41.5v-58q0 -1 -2.5 -7t-2.5 -7q-13 -52 -38 -74q-6 -6 -11 -6q-23 0 -32 36t-9 73zM1452 662l2 -9h2q8 0 19 17l12 30q6 6 6 15v43q-5 8 -8 8q-11 0 -21 -17.5t-12 -33.5 v-53zM1534 684q0 72 39 111q8 6 10 6h19l6 6h10l12 -16q0 -12 1 -72t1 -70v-74v-24.5v-28.5t-1.5 -25t-4 -27.5t-8 -22t-12.5 -21.5q-2 -2 -8 -8.5t-8 -8t-7 -4t-10 -2.5q-11 0 -19 21t-8 39q0 78 25 78q12 0 12 -29q0 -8 -5 -24t-5 -27v-15q3 2 14 17t12 16q9 12 9 45v37 q0 47 -2 55q-14 -14 -27 -14q-23 0 -34 25t-11 57zM1563 655q2 -2 10 -2q4 0 10 4t13 11.5t10 9.5v22q0 43 -13 43h-4q-26 -19 -26 -67v-21zM1657 662v151q17 0 26 -18q3 -9 3 -35q1 2 3 6.5t3 6.5t3 4.5t5 3.5t6 1q16 0 23 -18v-16q0 -33 -15 -33q-8 6 -10 8 q-16 -37 -18 -57v-62q0 -12 -11 -12t-14 20q0 2 -2 24t-2 26zM1745 653v70q2 37 35 74q6 6 10 6q3 0 9.5 -3.5t8.5 -4.5q4 12 13 12q6 0 12 -8t6 -17q0 -10 -2 -29.5t-2 -29.5q0 -17 2 -49t2 -47v-35q-5 -19 -12 -19q-5 0 -10 12t-9 13q-1 1 -11.5 3t-12.5 3q-25 6 -39 49z M1776 680q0 -31 14 -31q20 0 20 45q0 31 -2 54h-4q-28 0 -28 -68zM1862 797v12q0 10 10 10q29 0 29 -33q1 2 14 15q4 6 16 6q32 0 43 -53v-37q0 -115 -47 -115q-12 0 -22 6l-4 4h-7q0 -3 -1 -19t-1 -20v-114q-6 -12 -6 -17l-4 -4h-2q-12 0 -12 13q0 25 -3 173t-3 173z M1898 702q0 -18 7 -32q1 -2 3.5 -5.5t4 -5.5t4 -4.5t5 -4t5.5 -1.5q12 0 17.5 19t5.5 37q0 53 -21 53q-14 0 -22.5 -17.5t-8.5 -38.5zM1997 995q1 0 8 -1t8 -1q5 -2 11 -8t6 -10v-178q5 10 20 10q43 0 43 -74v-14q-1 -8 -2 -55.5t-2 -55.5q-5 -16 -10 -16h-2l-9 2 q-3 1 -5.5 8.5t-2.5 9.5v146q0 6 -4 6q-19 -17 -24 -94v-41q0 -13 -11 -13h-4q-1 0 -3 3l-4 6t-3 4q0 4 -1 25t-1 24q0 15 -3 124t-3 134q0 2 -1 28t-1 31zM2116 748v6l6 47l2 6h20l6 -10v-109q0 -4 5.5 -16.5t9.5 -12.5q5 0 9.5 10.5t4.5 16.5v111q0 4 4 4q6 2 8 2l7 -2 l8 -6v-320q-4 -10 -4 -12q-15 -43 -39 -43q-16 0 -24.5 13t-9.5 25.5t-1 35.5v22l8 19h21l6 -7q-9 -13 -9 -41v-16q3 -8 9 -8q16 0 16 65v23q0 4 -1 32t-1 33h-23l-4 2q-34 39 -34 130z" />
<glyph unicode="7" d="M102 995q1 0 8 -1t9 -1l4 -4l8 -10v-182q10 10 25 10q20 0 28 -12.5t13 -40.5v-84q-1 -5 -3.5 -33t-3.5 -33q0 -2 -3 -6.5t-3 -5.5h-4l-4 2l-5.5 5.5t-2.5 4.5v156q-4 4 -6 4l-2 2l-2 -2q-8 -8 -8 -10q-15 -51 -15 -129q-2 -9 -8 -9q-14 0 -14 15q-7 109 -7 198 q-4 110 -4 166zM217 688q0 65 33 107q10 6 12 6q0 2 2 2l4 -2q1 0 8.5 -3t8.5 -3v12h8q12 0 18 -12q-1 -38 0.5 -109.5t1.5 -91.5q0 -6 -3.5 -13.5t-8.5 -7.5q-4 0 -10 10t-6 15q-2 1 -12 3t-11 3q-45 11 -45 84zM252 666q0 -3 0.5 -4.5t1 -4t1.5 -3.5t2 -2.5t3 -2t4 -0.5 q8 0 15.5 14.5t7.5 26.5q0 10 -1 27t-1 26q-3 5 -9 5q-24 0 -24 -66v-5.5v-5.5v-5zM334 819q27 0 31 -12q4 -8 4 -25q3 10 18 25h8q19 0 25.5 -8.5t9.5 -34.5q0 -8 2 -64.5t2 -68.5v-2q0 -6 -4 -11.5t-10 -5.5h-4q-10 10 -10 13v133l-3 6q-11 -2 -24 -49q0 -5 -2 -21l-2 -16 q-4 -16 -4 -62q-3 -14 -13 -14q-5 0 -8 3.5t-4 6.5t-4 13q0 12 -3 76.5t-3 74.5q0 3 -1 22t-1 21zM459 705q0 74 30 106q16 12 23 12q16 0 30.5 -36t14.5 -60q0 -69 -43 -115q-8 -10 -16 -10q-14 0 -27 27q-12 20 -12 76zM485 662l7 -9q4 -1 12 11t10 18l10 20q6 15 6 37 q0 27 -12 27q-8 0 -19.5 -20.5t-13.5 -34.5v-49zM578 700q0 73 30 95q5 2 12 6.5t7 5.5h4q10 0 20 -10q4 16 4 51v102q18 0 25 -12q4 -31 4 -80v-35q0 -3 -2 -31.5t-2 -31.5v-37q0 -9 -1 -62.5t-1 -62.5q-3 -9 -14 -16q-15 15 -15 36q-13 -10 -22 -10q-24 0 -36.5 29.5 t-12.5 62.5zM604 688q0 -35 12 -35q9 0 20 11.5t15 13.5v29q0 1 0.5 9.5t0 14t-1.5 12.5t-3.5 11t-7.5 4q-15 0 -25 -25t-10 -45zM707 702q0 78 28 113h6q26 0 33 -18q2 -3 6.5 -17.5t5.5 -15.5v-41q0 -8 -4 -8l-18 -27q-2 -2 -10.5 -7.5t-14.5 -11.5t-6 -10q0 -22 17 -22 q3 0 6.5 1.5t5.5 3.5t5.5 6t5 6t5 8t4.5 8h4q4 0 10.5 -14t6.5 -19q-4 -10 -8 -12q-1 -6 -9.5 -17.5t-11.5 -13.5q-2 -2 -24 -2h-11q-12 14 -16 20q-16 26 -16 90zM733 725q8 0 18.5 12t10.5 21q0 8 -6 8q-8 0 -15.5 -14.5t-7.5 -26.5zM823 700q0 71 33 95l18 12h3 q12 0 22 -10q0 4 1 26t1 25q0 7 1 51t1 51q18 0 25 -12q2 -31 2 -80v-35q0 -3 -1 -31.5t-1 -31.5v-37q0 -9 -2 -62.5t-2 -62.5q0 -3 -13 -16q-17 14 -14 36q-13 -10 -25 -10q-24 0 -36.5 29.5t-12.5 62.5zM852 688q0 -35 12 -35q8 0 18.5 11.5t16.5 13.5v29l1 9 q0 10 -0.5 14.5t-1.5 12.5t-4.5 11.5t-8.5 3.5q-13 0 -23 -25.5t-10 -44.5zM918 1407v6q0 14 4 14h20l6 -8q0 -25 8 -57q0 -8 2 -12q0 4 1.5 14t1.5 12l8 47h20l4 -4q0 -1 1 -14t1 -14l11 -68l2 -4l20 100q0 4 10 4q5 0 7 -0.5t4 -3t2 -8.5q0 -11 -6.5 -32.5t-8.5 -30.5 l-18 -123q0 -4 -4 -8h-6q-12 0 -15 8q0 54 -12 78q-2 0 -2 -17q-8 -32 -8 -61q0 -8 -13 -8q-6 0 -9.5 1t-5 5t-2 7t-1 11t-0.5 12q0 1 -2 14t-2 15q-8 80 -18 125zM946 -2v20q0 35 10 35q6 0 12.5 -8t6.5 -18q0 -7 -7 -24t-12 -17v2zM952 807v4q0 6 4 6l7 2q26 0 26 -26v-7 q18 21 35 21q31 0 41 -49v-41q0 -115 -47 -115q-6 0 -15.5 5t-15.5 5h-2q-4 -106 -2 -159q-7 -15 -12 -15q-3 0 -7 4.5t-6 8.5q-6 159 -6 356zM989 702q0 -16 8.5 -34.5t20.5 -18.5q22 0 22 58q0 51 -18 51q-13 0 -23 -18t-10 -38zM995 98q0 54 29 99q5 10 14 10t23 -16 t14 -29v-2q-1 -1 -2 -6.5t-3 -9.5t-5 -5h-18q-9 -3 -14 -22.5t-5 -34.5v-21l3 -8q3 -8 7 -8q6 0 10 19.5t13 19.5l6 -2q5 -3 12 -16v-13q0 -24 -14 -49q-6 -12 -23 -12q-20 0 -33.5 37.5t-13.5 68.5zM1071 1407v4q0 16 14 16t18 -12.5t4.5 -33t4.5 -29.5l10 71h25l14 -108 q15 77 17 82q0 1 1 11t1 11q1 4 12 4q6 0 8 -2.5t2 -11.5q0 -10 -2 -21t-5.5 -24t-4.5 -21q-1 -3 -5 -32.5t-5 -32.5q-1 -4 -3.5 -17t-4 -23t-1.5 -13q-1 -7 -2 -7.5t-8 -0.5q-9 0 -12.5 6t-4 22t-1.5 21q0 7 -3 19.5t-5 12.5q-5 -14 -5 -20q-1 -3 -3.5 -26t-2.5 -27 q0 -1 -1 -4t-1 -4h-16q-5 3 -10 12q-2 36 -12.5 100t-12.5 78zM1090 975v8q0 7 2 8.5t8 1.5q10 0 18 -14q0 -106 4 -152q0 -3 1 -15.5t1 -14.5q3 10 21 10q29 0 39 -47v-49q0 -66 -4 -107q0 -6 -6 -12h-3q-4 0 -10 3.5t-6 8.5v135l-4 25l-2 2q-14 0 -14 -39l-5 -12l-4 -15 q0 -6 -1 -37.5t-1 -37.5l-2 -9h-8q-14 0 -14 15q-6 113 -10 344zM1106 96q0 74 33 105q8 10 18 10q18 0 31.5 -35.5t13.5 -62.5q0 -67 -41 -115q-6 -6 -18 -6q-6 0 -12.5 7t-8.5 13q-16 29 -16 84zM1133.5 52q0.5 -4 2.5 -6.5t5 -2.5l6 2q12 10 21.5 36t9.5 48q0 25 -13 25 q-15 0 -22.5 -27t-7.5 -53q0 -2 -0.5 -6.5t-1 -8t0 -7.5zM1210 711q0 37 7.5 59t27.5 45q11 8 19 8q10 0 24.5 -27.5t16.5 -41.5l1 -12q1 -12 1 -17l-2 -29q0 -9 -5 -14q-14 -55 -38 -74q-6 -6 -13 -6q-22 0 -30.5 36t-8.5 73zM1223 215v29q2 4 8 4q10 0 14 -4q8 -4 8 -8 v-37q2 -2 4 -2q1 0 11 10h8q21 0 24 -39q2 4 5.5 12.5t6 13.5t6.5 9t9 4q14 0 22.5 -14.5t10.5 -32.5q4 -20 4 -82v-66q0 -6 -4 -12t-8 -6q-5 0 -9 4q0 8 -2 54.5t-2 53.5t-2 28.5t-2 23.5q0 6 -2 6q-5 -3 -8.5 -20t-3.5 -27q-8 -72 -8 -105q-8 -16 -13 -18q-2 4 -4 4 l-12 16l-2 16q-2 16 -2 21q-2 14 -2 88q0 11 -4 15h-2q-2 0 -4 -4.5t-3.5 -9t-2.5 -5.5l-7 -14v-117q0 -12 -14 -12q-12 0 -12 16q-1 24 -2.5 66t-2.5 76.5t-1 64.5zM1223 1413l6 14h24q11 0 11 -71l4 8q6 24 6 55l4 4h22v-10q3 -12 6 -47.5t7 -50.5l4 10q18 72 18 98h23 q0 -11 -2 -22t-5.5 -24t-4.5 -21q-19 -114 -19 -121q-6 -17 -12 -18q-12 0 -15 12q-3 36 -12 74q-5 -9 -5 -32t-2.5 -38.5t-14.5 -15.5h-9q-8 8 -8 12q0 31 -4 39q-1 3 -9.5 68t-12.5 77zM1239 688q0 -2 1 -13t1 -13v-9h2q8 0 19 17q8 8 12 30q6 6 6 15v43q-3 8 -8 8 q-11 0 -21 -18t-10 -33l-1 -11q-1 -11 -1 -16zM1329 688v273h21q4 -3 6 -5l4 -6v-190q5 9 18 16h2q13 -13 13 -28v-5l-33 -41v-14q0 -35 8 -39q4 2 9 15.5t14 13.5q12 0 12 -16q0 -23 -10.5 -41.5t-24.5 -18.5q-39 0 -39 86zM1360 1243q0 33 12 33q9 0 15 -7.5t6 -19.5 q0 -9 -7 -24t-14 -15q-12 0 -12 33zM1423 711q0 38 6.5 59.5t26.5 44.5q11 8 21 8t24.5 -27.5t16.5 -41.5v-58q0 -1 -2.5 -7t-2.5 -7q-13 -52 -38 -74q-6 -6 -11 -6q-23 0 -32 36t-9 73zM1452 662l2 -9h2q8 0 19 17l12 30q6 6 6 15v43q-5 8 -8 8q-11 0 -21 -17.5t-12 -33.5 v-53zM1534 684q0 72 39 111q8 6 10 6h19l6 6h10l12 -16q0 -12 1 -72t1 -70v-74v-24.5v-28.5t-1.5 -25t-4 -27.5t-8 -22t-12.5 -21.5q-2 -2 -8 -8.5t-8 -8t-7 -4t-10 -2.5q-11 0 -19 21t-8 39q0 78 25 78q12 0 12 -29q0 -8 -5 -24t-5 -27v-15q3 2 14 17t12 16q9 12 9 45v37 q0 47 -2 55q-14 -14 -27 -14q-23 0 -34 25t-11 57zM1563 655q2 -2 10 -2q4 0 10 4t13 11.5t10 9.5v22q0 43 -13 43h-4q-26 -19 -26 -67v-21zM1657 662v151q17 0 26 -18q3 -9 3 -35q1 2 3 6.5t3 6.5t3 4.5t5 3.5t6 1q16 0 23 -18v-16q0 -33 -15 -33q-8 6 -10 8 q-16 -37 -18 -57v-62q0 -12 -11 -12t-14 20q0 2 -2 24t-2 26zM1745 653v70q2 37 35 74q6 6 10 6q3 0 9.5 -3.5t8.5 -4.5q4 12 13 12q6 0 12 -8t6 -17q0 -10 -2 -29.5t-2 -29.5q0 -17 2 -49t2 -47v-35q-5 -19 -12 -19q-5 0 -10 12t-9 13q-1 1 -11.5 3t-12.5 3q-25 6 -39 49z M1776 680q0 -31 14 -31q20 0 20 45q0 31 -2 54h-4q-28 0 -28 -68zM1862 797v12q0 10 10 10q29 0 29 -33q1 2 14 15q4 6 16 6q32 0 43 -53v-37q0 -115 -47 -115q-12 0 -22 6l-4 4h-7q0 -3 -1 -19t-1 -20v-114q-6 -12 -6 -17l-4 -4h-2q-12 0 -12 13q0 25 -3 173t-3 173z M1898 702q0 -18 7 -32q1 -2 3.5 -5.5t4 -5.5t4 -4.5t5 -4t5.5 -1.5q12 0 17.5 19t5.5 37q0 53 -21 53q-14 0 -22.5 -17.5t-8.5 -38.5zM1997 995q1 0 8 -1t8 -1q5 -2 11 -8t6 -10v-178q5 10 20 10q43 0 43 -74v-14q-1 -8 -2 -55.5t-2 -55.5q-5 -16 -10 -16h-2l-9 2 q-3 1 -5.5 8.5t-2.5 9.5v146q0 6 -4 6q-19 -17 -24 -94v-41q0 -13 -11 -13h-4q-1 0 -3 3l-4 6t-3 4q0 4 -1 25t-1 24q0 15 -3 124t-3 134q0 2 -1 28t-1 31zM2116 748v6l6 47l2 6h20l6 -10v-109q0 -4 5.5 -16.5t9.5 -12.5q5 0 9.5 10.5t4.5 16.5v111q0 4 4 4q6 2 8 2l7 -2 l8 -6v-320q-4 -10 -4 -12q-15 -43 -39 -43q-16 0 -24.5 13t-9.5 25.5t-1 35.5v22l8 19h21l6 -7q-9 -13 -9 -41v-16q3 -8 9 -8q16 0 16 65v23q0 4 -1 32t-1 33h-23l-4 2q-34 39 -34 130z" />
<glyph unicode="8" d="M102 995q1 0 8 -1t9 -1l4 -4l8 -10v-182q10 10 25 10q20 0 28 -12.5t13 -40.5v-84q-1 -5 -3.5 -33t-3.5 -33q0 -2 -3 -6.5t-3 -5.5h-4l-4 2l-5.5 5.5t-2.5 4.5v156q-4 4 -6 4l-2 2l-2 -2q-8 -8 -8 -10q-15 -51 -15 -129q-2 -9 -8 -9q-14 0 -14 15q-7 109 -7 198 q-4 110 -4 166zM217 688q0 65 33 107q10 6 12 6q0 2 2 2l4 -2q1 0 8.5 -3t8.5 -3v12h8q12 0 18 -12q-1 -38 0.5 -109.5t1.5 -91.5q0 -6 -3.5 -13.5t-8.5 -7.5q-4 0 -10 10t-6 15q-2 1 -12 3t-11 3q-45 11 -45 84zM252 666q0 -3 0.5 -4.5t1 -4t1.5 -3.5t2 -2.5t3 -2t4 -0.5 q8 0 15.5 14.5t7.5 26.5q0 10 -1 27t-1 26q-3 5 -9 5q-24 0 -24 -66v-5.5v-5.5v-5zM334 819q27 0 31 -12q4 -8 4 -25q3 10 18 25h8q19 0 25.5 -8.5t9.5 -34.5q0 -8 2 -64.5t2 -68.5v-2q0 -6 -4 -11.5t-10 -5.5h-4q-10 10 -10 13v133l-3 6q-11 -2 -24 -49q0 -5 -2 -21l-2 -16 q-4 -16 -4 -62q-3 -14 -13 -14q-5 0 -8 3.5t-4 6.5t-4 13q0 12 -3 76.5t-3 74.5q0 3 -1 22t-1 21zM459 705q0 74 30 106q16 12 23 12q16 0 30.5 -36t14.5 -60q0 -69 -43 -115q-8 -10 -16 -10q-14 0 -27 27q-12 20 -12 76zM485 662l7 -9q4 -1 12 11t10 18l10 20q6 15 6 37 q0 27 -12 27q-8 0 -19.5 -20.5t-13.5 -34.5v-49zM578 700q0 73 30 95q5 2 12 6.5t7 5.5h4q10 0 20 -10q4 16 4 51v102q18 0 25 -12q4 -31 4 -80v-35q0 -3 -2 -31.5t-2 -31.5v-37q0 -9 -1 -62.5t-1 -62.5q-3 -9 -14 -16q-15 15 -15 36q-13 -10 -22 -10q-24 0 -36.5 29.5 t-12.5 62.5zM604 688q0 -35 12 -35q9 0 20 11.5t15 13.5v29q0 1 0.5 9.5t0 14t-1.5 12.5t-3.5 11t-7.5 4q-15 0 -25 -25t-10 -45zM707 702q0 78 28 113h6q26 0 33 -18q2 -3 6.5 -17.5t5.5 -15.5v-41q0 -8 -4 -8l-18 -27q-2 -2 -10.5 -7.5t-14.5 -11.5t-6 -10q0 -22 17 -22 q3 0 6.5 1.5t5.5 3.5t5.5 6t5 6t5 8t4.5 8h4q4 0 10.5 -14t6.5 -19q-4 -10 -8 -12q-1 -6 -9.5 -17.5t-11.5 -13.5q-2 -2 -24 -2h-11q-12 14 -16 20q-16 26 -16 90zM733 725q8 0 18.5 12t10.5 21q0 8 -6 8q-8 0 -15.5 -14.5t-7.5 -26.5zM823 700q0 71 33 95l18 12h3 q12 0 22 -10q0 4 1 26t1 25q0 7 1 51t1 51q18 0 25 -12q2 -31 2 -80v-35q0 -3 -1 -31.5t-1 -31.5v-37q0 -9 -2 -62.5t-2 -62.5q0 -3 -13 -16q-17 14 -14 36q-13 -10 -25 -10q-24 0 -36.5 29.5t-12.5 62.5zM852 688q0 -35 12 -35q8 0 18.5 11.5t16.5 13.5v29l1 9 q0 10 -0.5 14.5t-1.5 12.5t-4.5 11.5t-8.5 3.5q-13 0 -23 -25.5t-10 -44.5zM918 1407v6q0 14 4 14h20l6 -8q0 -25 8 -57q0 -8 2 -12q0 4 1.5 14t1.5 12l8 47h20l4 -4q0 -1 1 -14t1 -14l11 -68l2 -4l20 100q0 4 10 4q5 0 7 -0.5t4 -3t2 -8.5q0 -11 -6.5 -32.5t-8.5 -30.5 l-18 -123q0 -4 -4 -8h-6q-12 0 -15 8q0 54 -12 78q-2 0 -2 -17q-8 -32 -8 -61q0 -8 -13 -8q-6 0 -9.5 1t-5 5t-2 7t-1 11t-0.5 12q0 1 -2 14t-2 15q-8 80 -18 125zM946 -2v20q0 35 10 35q6 0 12.5 -8t6.5 -18q0 -7 -7 -24t-12 -17v2zM952 807v4q0 6 4 6l7 2q26 0 26 -26v-7 q18 21 35 21q31 0 41 -49v-41q0 -115 -47 -115q-6 0 -15.5 5t-15.5 5h-2q-4 -106 -2 -159q-7 -15 -12 -15q-3 0 -7 4.5t-6 8.5q-6 159 -6 356zM989 702q0 -16 8.5 -34.5t20.5 -18.5q22 0 22 58q0 51 -18 51q-13 0 -23 -18t-10 -38zM995 98q0 54 29 99q5 10 14 10t23 -16 t14 -29v-2q-1 -1 -2 -6.5t-3 -9.5t-5 -5h-18q-9 -3 -14 -22.5t-5 -34.5v-21l3 -8q3 -8 7 -8q6 0 10 19.5t13 19.5l6 -2q5 -3 12 -16v-13q0 -24 -14 -49q-6 -12 -23 -12q-20 0 -33.5 37.5t-13.5 68.5zM1071 1407v4q0 16 14 16t18 -12.5t4.5 -33t4.5 -29.5l10 71h25l14 -108 q15 77 17 82q0 1 1 11t1 11q1 4 12 4q6 0 8 -2.5t2 -11.5q0 -10 -2 -21t-5.5 -24t-4.5 -21q-1 -3 -5 -32.5t-5 -32.5q-1 -4 -3.5 -17t-4 -23t-1.5 -13q-1 -7 -2 -7.5t-8 -0.5q-9 0 -12.5 6t-4 22t-1.5 21q0 7 -3 19.5t-5 12.5q-5 -14 -5 -20q-1 -3 -3.5 -26t-2.5 -27 q0 -1 -1 -4t-1 -4h-16q-5 3 -10 12q-2 36 -12.5 100t-12.5 78zM1090 975v8q0 7 2 8.5t8 1.5q10 0 18 -14q0 -106 4 -152q0 -3 1 -15.5t1 -14.5q3 10 21 10q29 0 39 -47v-49q0 -66 -4 -107q0 -6 -6 -12h-3q-4 0 -10 3.5t-6 8.5v135l-4 25l-2 2q-14 0 -14 -39l-5 -12l-4 -15 q0 -6 -1 -37.5t-1 -37.5l-2 -9h-8q-14 0 -14 15q-6 113 -10 344zM1106 96q0 74 33 105q8 10 18 10q18 0 31.5 -35.5t13.5 -62.5q0 -67 -41 -115q-6 -6 -18 -6q-6 0 -12.5 7t-8.5 13q-16 29 -16 84zM1133.5 52q0.5 -4 2.5 -6.5t5 -2.5l6 2q12 10 21.5 36t9.5 48q0 25 -13 25 q-15 0 -22.5 -27t-7.5 -53q0 -2 -0.5 -6.5t-1 -8t0 -7.5zM1210 711q0 37 7.5 59t27.5 45q11 8 19 8q10 0 24.5 -27.5t16.5 -41.5l1 -12q1 -12 1 -17l-2 -29q0 -9 -5 -14q-14 -55 -38 -74q-6 -6 -13 -6q-22 0 -30.5 36t-8.5 73zM1223 215v29q2 4 8 4q10 0 14 -4q8 -4 8 -8 v-37q2 -2 4 -2q1 0 11 10h8q21 0 24 -39q2 4 5.5 12.5t6 13.5t6.5 9t9 4q14 0 22.5 -14.5t10.5 -32.5q4 -20 4 -82v-66q0 -6 -4 -12t-8 -6q-5 0 -9 4q0 8 -2 54.5t-2 53.5t-2 28.5t-2 23.5q0 6 -2 6q-5 -3 -8.5 -20t-3.5 -27q-8 -72 -8 -105q-8 -16 -13 -18q-2 4 -4 4 l-12 16l-2 16q-2 16 -2 21q-2 14 -2 88q0 11 -4 15h-2q-2 0 -4 -4.5t-3.5 -9t-2.5 -5.5l-7 -14v-117q0 -12 -14 -12q-12 0 -12 16q-1 24 -2.5 66t-2.5 76.5t-1 64.5zM1223 1413l6 14h24q11 0 11 -71l4 8q6 24 6 55l4 4h22v-10q3 -12 6 -47.5t7 -50.5l4 10q18 72 18 98h23 q0 -11 -2 -22t-5.5 -24t-4.5 -21q-19 -114 -19 -121q-6 -17 -12 -18q-12 0 -15 12q-3 36 -12 74q-5 -9 -5 -32t-2.5 -38.5t-14.5 -15.5h-9q-8 8 -8 12q0 31 -4 39q-1 3 -9.5 68t-12.5 77zM1239 688q0 -2 1 -13t1 -13v-9h2q8 0 19 17q8 8 12 30q6 6 6 15v43q-3 8 -8 8 q-11 0 -21 -18t-10 -33l-1 -11q-1 -11 -1 -16zM1329 688v273h21q4 -3 6 -5l4 -6v-190q5 9 18 16h2q13 -13 13 -28v-5l-33 -41v-14q0 -35 8 -39q4 2 9 15.5t14 13.5q12 0 12 -16q0 -23 -10.5 -41.5t-24.5 -18.5q-39 0 -39 86zM1360 1243q0 33 12 33q9 0 15 -7.5t6 -19.5 q0 -9 -7 -24t-14 -15q-12 0 -12 33zM1423 711q0 38 6.5 59.5t26.5 44.5q11 8 21 8t24.5 -27.5t16.5 -41.5v-58q0 -1 -2.5 -7t-2.5 -7q-13 -52 -38 -74q-6 -6 -11 -6q-23 0 -32 36t-9 73zM1452 662l2 -9h2q8 0 19 17l12 30q6 6 6 15v43q-5 8 -8 8q-11 0 -21 -17.5t-12 -33.5 v-53zM1534 684q0 72 39 111q8 6 10 6h19l6 6h10l12 -16q0 -12 1 -72t1 -70v-74v-24.5v-28.5t-1.5 -25t-4 -27.5t-8 -22t-12.5 -21.5q-2 -2 -8 -8.5t-8 -8t-7 -4t-10 -2.5q-11 0 -19 21t-8 39q0 78 25 78q12 0 12 -29q0 -8 -5 -24t-5 -27v-15q3 2 14 17t12 16q9 12 9 45v37 q0 47 -2 55q-14 -14 -27 -14q-23 0 -34 25t-11 57zM1563 655q2 -2 10 -2q4 0 10 4t13 11.5t10 9.5v22q0 43 -13 43h-4q-26 -19 -26 -67v-21zM1657 662v151q17 0 26 -18q3 -9 3 -35q1 2 3 6.5t3 6.5t3 4.5t5 3.5t6 1q16 0 23 -18v-16q0 -33 -15 -33q-8 6 -10 8 q-16 -37 -18 -57v-62q0 -12 -11 -12t-14 20q0 2 -2 24t-2 26zM1745 653v70q2 37 35 74q6 6 10 6q3 0 9.5 -3.5t8.5 -4.5q4 12 13 12q6 0 12 -8t6 -17q0 -10 -2 -29.5t-2 -29.5q0 -17 2 -49t2 -47v-35q-5 -19 -12 -19q-5 0 -10 12t-9 13q-1 1 -11.5 3t-12.5 3q-25 6 -39 49z M1776 680q0 -31 14 -31q20 0 20 45q0 31 -2 54h-4q-28 0 -28 -68zM1862 797v12q0 10 10 10q29 0 29 -33q1 2 14 15q4 6 16 6q32 0 43 -53v-37q0 -115 -47 -115q-12 0 -22 6l-4 4h-7q0 -3 -1 -19t-1 -20v-114q-6 -12 -6 -17l-4 -4h-2q-12 0 -12 13q0 25 -3 173t-3 173z M1898 702q0 -18 7 -32q1 -2 3.5 -5.5t4 -5.5t4 -4.5t5 -4t5.5 -1.5q12 0 17.5 19t5.5 37q0 53 -21 53q-14 0 -22.5 -17.5t-8.5 -38.5zM1997 995q1 0 8 -1t8 -1q5 -2 11 -8t6 -10v-178q5 10 20 10q43 0 43 -74v-14q-1 -8 -2 -55.5t-2 -55.5q-5 -16 -10 -16h-2l-9 2 q-3 1 -5.5 8.5t-2.5 9.5v146q0 6 -4 6q-19 -17 -24 -94v-41q0 -13 -11 -13h-4q-1 0 -3 3l-4 6t-3 4q0 4 -1 25t-1 24q0 15 -3 124t-3 134q0 2 -1 28t-1 31zM2116 748v6l6 47l2 6h20l6 -10v-109q0 -4 5.5 -16.5t9.5 -12.5q5 0 9.5 10.5t4.5 16.5v111q0 4 4 4q6 2 8 2l7 -2 l8 -6v-320q-4 -10 -4 -12q-15 -43 -39 -43q-16 0 -24.5 13t-9.5 25.5t-1 35.5v22l8 19h21l6 -7q-9 -13 -9 -41v-16q3 -8 9 -8q16 0 16 65v23q0 4 -1 32t-1 33h-23l-4 2q-34 39 -34 130z" />
<glyph unicode="9" d="M102 995q1 0 8 -1t9 -1l4 -4l8 -10v-182q10 10 25 10q20 0 28 -12.5t13 -40.5v-84q-1 -5 -3.5 -33t-3.5 -33q0 -2 -3 -6.5t-3 -5.5h-4l-4 2l-5.5 5.5t-2.5 4.5v156q-4 4 -6 4l-2 2l-2 -2q-8 -8 -8 -10q-15 -51 -15 -129q-2 -9 -8 -9q-14 0 -14 15q-7 109 -7 198 q-4 110 -4 166zM217 688q0 65 33 107q10 6 12 6q0 2 2 2l4 -2q1 0 8.5 -3t8.5 -3v12h8q12 0 18 -12q-1 -38 0.5 -109.5t1.5 -91.5q0 -6 -3.5 -13.5t-8.5 -7.5q-4 0 -10 10t-6 15q-2 1 -12 3t-11 3q-45 11 -45 84zM252 666q0 -3 0.5 -4.5t1 -4t1.5 -3.5t2 -2.5t3 -2t4 -0.5 q8 0 15.5 14.5t7.5 26.5q0 10 -1 27t-1 26q-3 5 -9 5q-24 0 -24 -66v-5.5v-5.5v-5zM334 819q27 0 31 -12q4 -8 4 -25q3 10 18 25h8q19 0 25.5 -8.5t9.5 -34.5q0 -8 2 -64.5t2 -68.5v-2q0 -6 -4 -11.5t-10 -5.5h-4q-10 10 -10 13v133l-3 6q-11 -2 -24 -49q0 -5 -2 -21l-2 -16 q-4 -16 -4 -62q-3 -14 -13 -14q-5 0 -8 3.5t-4 6.5t-4 13q0 12 -3 76.5t-3 74.5q0 3 -1 22t-1 21zM459 705q0 74 30 106q16 12 23 12q16 0 30.5 -36t14.5 -60q0 -69 -43 -115q-8 -10 -16 -10q-14 0 -27 27q-12 20 -12 76zM485 662l7 -9q4 -1 12 11t10 18l10 20q6 15 6 37 q0 27 -12 27q-8 0 -19.5 -20.5t-13.5 -34.5v-49zM578 700q0 73 30 95q5 2 12 6.5t7 5.5h4q10 0 20 -10q4 16 4 51v102q18 0 25 -12q4 -31 4 -80v-35q0 -3 -2 -31.5t-2 -31.5v-37q0 -9 -1 -62.5t-1 -62.5q-3 -9 -14 -16q-15 15 -15 36q-13 -10 -22 -10q-24 0 -36.5 29.5 t-12.5 62.5zM604 688q0 -35 12 -35q9 0 20 11.5t15 13.5v29q0 1 0.5 9.5t0 14t-1.5 12.5t-3.5 11t-7.5 4q-15 0 -25 -25t-10 -45zM707 702q0 78 28 113h6q26 0 33 -18q2 -3 6.5 -17.5t5.5 -15.5v-41q0 -8 -4 -8l-18 -27q-2 -2 -10.5 -7.5t-14.5 -11.5t-6 -10q0 -22 17 -22 q3 0 6.5 1.5t5.5 3.5t5.5 6t5 6t5 8t4.5 8h4q4 0 10.5 -14t6.5 -19q-4 -10 -8 -12q-1 -6 -9.5 -17.5t-11.5 -13.5q-2 -2 -24 -2h-11q-12 14 -16 20q-16 26 -16 90zM733 725q8 0 18.5 12t10.5 21q0 8 -6 8q-8 0 -15.5 -14.5t-7.5 -26.5zM823 700q0 71 33 95l18 12h3 q12 0 22 -10q0 4 1 26t1 25q0 7 1 51t1 51q18 0 25 -12q2 -31 2 -80v-35q0 -3 -1 -31.5t-1 -31.5v-37q0 -9 -2 -62.5t-2 -62.5q0 -3 -13 -16q-17 14 -14 36q-13 -10 -25 -10q-24 0 -36.5 29.5t-12.5 62.5zM852 688q0 -35 12 -35q8 0 18.5 11.5t16.5 13.5v29l1 9 q0 10 -0.5 14.5t-1.5 12.5t-4.5 11.5t-8.5 3.5q-13 0 -23 -25.5t-10 -44.5zM918 1407v6q0 14 4 14h20l6 -8q0 -25 8 -57q0 -8 2 -12q0 4 1.5 14t1.5 12l8 47h20l4 -4q0 -1 1 -14t1 -14l11 -68l2 -4l20 100q0 4 10 4q5 0 7 -0.5t4 -3t2 -8.5q0 -11 -6.5 -32.5t-8.5 -30.5 l-18 -123q0 -4 -4 -8h-6q-12 0 -15 8q0 54 -12 78q-2 0 -2 -17q-8 -32 -8 -61q0 -8 -13 -8q-6 0 -9.5 1t-5 5t-2 7t-1 11t-0.5 12q0 1 -2 14t-2 15q-8 80 -18 125zM946 -2v20q0 35 10 35q6 0 12.5 -8t6.5 -18q0 -7 -7 -24t-12 -17v2zM952 807v4q0 6 4 6l7 2q26 0 26 -26v-7 q18 21 35 21q31 0 41 -49v-41q0 -115 -47 -115q-6 0 -15.5 5t-15.5 5h-2q-4 -106 -2 -159q-7 -15 -12 -15q-3 0 -7 4.5t-6 8.5q-6 159 -6 356zM989 702q0 -16 8.5 -34.5t20.5 -18.5q22 0 22 58q0 51 -18 51q-13 0 -23 -18t-10 -38zM995 98q0 54 29 99q5 10 14 10t23 -16 t14 -29v-2q-1 -1 -2 -6.5t-3 -9.5t-5 -5h-18q-9 -3 -14 -22.5t-5 -34.5v-21l3 -8q3 -8 7 -8q6 0 10 19.5t13 19.5l6 -2q5 -3 12 -16v-13q0 -24 -14 -49q-6 -12 -23 -12q-20 0 -33.5 37.5t-13.5 68.5zM1071 1407v4q0 16 14 16t18 -12.5t4.5 -33t4.5 -29.5l10 71h25l14 -108 q15 77 17 82q0 1 1 11t1 11q1 4 12 4q6 0 8 -2.5t2 -11.5q0 -10 -2 -21t-5.5 -24t-4.5 -21q-1 -3 -5 -32.5t-5 -32.5q-1 -4 -3.5 -17t-4 -23t-1.5 -13q-1 -7 -2 -7.5t-8 -0.5q-9 0 -12.5 6t-4 22t-1.5 21q0 7 -3 19.5t-5 12.5q-5 -14 -5 -20q-1 -3 -3.5 -26t-2.5 -27 q0 -1 -1 -4t-1 -4h-16q-5 3 -10 12q-2 36 -12.5 100t-12.5 78zM1090 975v8q0 7 2 8.5t8 1.5q10 0 18 -14q0 -106 4 -152q0 -3 1 -15.5t1 -14.5q3 10 21 10q29 0 39 -47v-49q0 -66 -4 -107q0 -6 -6 -12h-3q-4 0 -10 3.5t-6 8.5v135l-4 25l-2 2q-14 0 -14 -39l-5 -12l-4 -15 q0 -6 -1 -37.5t-1 -37.5l-2 -9h-8q-14 0 -14 15q-6 113 -10 344zM1106 96q0 74 33 105q8 10 18 10q18 0 31.5 -35.5t13.5 -62.5q0 -67 -41 -115q-6 -6 -18 -6q-6 0 -12.5 7t-8.5 13q-16 29 -16 84zM1133.5 52q0.5 -4 2.5 -6.5t5 -2.5l6 2q12 10 21.5 36t9.5 48q0 25 -13 25 q-15 0 -22.5 -27t-7.5 -53q0 -2 -0.5 -6.5t-1 -8t0 -7.5zM1210 711q0 37 7.5 59t27.5 45q11 8 19 8q10 0 24.5 -27.5t16.5 -41.5l1 -12q1 -12 1 -17l-2 -29q0 -9 -5 -14q-14 -55 -38 -74q-6 -6 -13 -6q-22 0 -30.5 36t-8.5 73zM1223 215v29q2 4 8 4q10 0 14 -4q8 -4 8 -8 v-37q2 -2 4 -2q1 0 11 10h8q21 0 24 -39q2 4 5.5 12.5t6 13.5t6.5 9t9 4q14 0 22.5 -14.5t10.5 -32.5q4 -20 4 -82v-66q0 -6 -4 -12t-8 -6q-5 0 -9 4q0 8 -2 54.5t-2 53.5t-2 28.5t-2 23.5q0 6 -2 6q-5 -3 -8.5 -20t-3.5 -27q-8 -72 -8 -105q-8 -16 -13 -18q-2 4 -4 4 l-12 16l-2 16q-2 16 -2 21q-2 14 -2 88q0 11 -4 15h-2q-2 0 -4 -4.5t-3.5 -9t-2.5 -5.5l-7 -14v-117q0 -12 -14 -12q-12 0 -12 16q-1 24 -2.5 66t-2.5 76.5t-1 64.5zM1223 1413l6 14h24q11 0 11 -71l4 8q6 24 6 55l4 4h22v-10q3 -12 6 -47.5t7 -50.5l4 10q18 72 18 98h23 q0 -11 -2 -22t-5.5 -24t-4.5 -21q-19 -114 -19 -121q-6 -17 -12 -18q-12 0 -15 12q-3 36 -12 74q-5 -9 -5 -32t-2.5 -38.5t-14.5 -15.5h-9q-8 8 -8 12q0 31 -4 39q-1 3 -9.5 68t-12.5 77zM1239 688q0 -2 1 -13t1 -13v-9h2q8 0 19 17q8 8 12 30q6 6 6 15v43q-3 8 -8 8 q-11 0 -21 -18t-10 -33l-1 -11q-1 -11 -1 -16zM1329 688v273h21q4 -3 6 -5l4 -6v-190q5 9 18 16h2q13 -13 13 -28v-5l-33 -41v-14q0 -35 8 -39q4 2 9 15.5t14 13.5q12 0 12 -16q0 -23 -10.5 -41.5t-24.5 -18.5q-39 0 -39 86zM1360 1243q0 33 12 33q9 0 15 -7.5t6 -19.5 q0 -9 -7 -24t-14 -15q-12 0 -12 33zM1423 711q0 38 6.5 59.5t26.5 44.5q11 8 21 8t24.5 -27.5t16.5 -41.5v-58q0 -1 -2.5 -7t-2.5 -7q-13 -52 -38 -74q-6 -6 -11 -6q-23 0 -32 36t-9 73zM1452 662l2 -9h2q8 0 19 17l12 30q6 6 6 15v43q-5 8 -8 8q-11 0 -21 -17.5t-12 -33.5 v-53zM1534 684q0 72 39 111q8 6 10 6h19l6 6h10l12 -16q0 -12 1 -72t1 -70v-74v-24.5v-28.5t-1.5 -25t-4 -27.5t-8 -22t-12.5 -21.5q-2 -2 -8 -8.5t-8 -8t-7 -4t-10 -2.5q-11 0 -19 21t-8 39q0 78 25 78q12 0 12 -29q0 -8 -5 -24t-5 -27v-15q3 2 14 17t12 16q9 12 9 45v37 q0 47 -2 55q-14 -14 -27 -14q-23 0 -34 25t-11 57zM1563 655q2 -2 10 -2q4 0 10 4t13 11.5t10 9.5v22q0 43 -13 43h-4q-26 -19 -26 -67v-21zM1657 662v151q17 0 26 -18q3 -9 3 -35q1 2 3 6.5t3 6.5t3 4.5t5 3.5t6 1q16 0 23 -18v-16q0 -33 -15 -33q-8 6 -10 8 q-16 -37 -18 -57v-62q0 -12 -11 -12t-14 20q0 2 -2 24t-2 26zM1745 653v70q2 37 35 74q6 6 10 6q3 0 9.5 -3.5t8.5 -4.5q4 12 13 12q6 0 12 -8t6 -17q0 -10 -2 -29.5t-2 -29.5q0 -17 2 -49t2 -47v-35q-5 -19 -12 -19q-5 0 -10 12t-9 13q-1 1 -11.5 3t-12.5 3q-25 6 -39 49z M1776 680q0 -31 14 -31q20 0 20 45q0 31 -2 54h-4q-28 0 -28 -68zM1862 797v12q0 10 10 10q29 0 29 -33q1 2 14 15q4 6 16 6q32 0 43 -53v-37q0 -115 -47 -115q-12 0 -22 6l-4 4h-7q0 -3 -1 -19t-1 -20v-114q-6 -12 -6 -17l-4 -4h-2q-12 0 -12 13q0 25 -3 173t-3 173z M1898 702q0 -18 7 -32q1 -2 3.5 -5.5t4 -5.5t4 -4.5t5 -4t5.5 -1.5q12 0 17.5 19t5.5 37q0 53 -21 53q-14 0 -22.5 -17.5t-8.5 -38.5zM1997 995q1 0 8 -1t8 -1q5 -2 11 -8t6 -10v-178q5 10 20 10q43 0 43 -74v-14q-1 -8 -2 -55.5t-2 -55.5q-5 -16 -10 -16h-2l-9 2 q-3 1 -5.5 8.5t-2.5 9.5v146q0 6 -4 6q-19 -17 -24 -94v-41q0 -13 -11 -13h-4q-1 0 -3 3l-4 6t-3 4q0 4 -1 25t-1 24q0 15 -3 124t-3 134q0 2 -1 28t-1 31zM2116 748v6l6 47l2 6h20l6 -10v-109q0 -4 5.5 -16.5t9.5 -12.5q5 0 9.5 10.5t4.5 16.5v111q0 4 4 4q6 2 8 2l7 -2 l8 -6v-320q-4 -10 -4 -12q-15 -43 -39 -43q-16 0 -24.5 13t-9.5 25.5t-1 35.5v22l8 19h21l6 -7q-9 -13 -9 -41v-16q3 -8 9 -8q16 0 16 65v23q0 4 -1 32t-1 33h-23l-4 2q-34 39 -34 130z" />
<glyph unicode=":" horiz-adv-x="460" d="M104 131q0 33 30 71t65 38q20 0 22 -2q16 0 46 -9t60.5 -32.5t30.5 -53.5q0 -22 -8.5 -33.5t-24 -25.5t-26.5 -35q-3 0 -17 -15.5t-35 -31.5t-42 -16q-15 0 -26.5 7.5t-25.5 23t-20 20.5q-29 0 -29 94zM104 786q0 33 30 71t65 38q20 0 22 -2q16 0 46 -9t60.5 -32 t30.5 -53q0 -22 -8.5 -33.5t-24 -25.5t-26.5 -35q-3 0 -17 -16t-35 -32t-42 -16q-15 0 -26.5 7.5t-25.5 23t-20 20.5q-29 0 -29 94z" />
<glyph unicode=";" horiz-adv-x="460" d="M-8 -360q0 17 6 35t17.5 42t15.5 33l10 27q0 1 2 11.5t2 12.5l33 64q0 31 26 105t52 120q0 7 2 48t2 48v11q0 5 -2 15t-2 15q0 29 41 33l59 -22q27 -11 54 -37.5t28 -44.5v-6q0 -1 -2 -14t-2 -15v-2q0 -7 5 -19.5t5 -19.5v-4q-10 -25 -26.5 -51.5t-41 -63t-34.5 -51.5 l-45 -55q-15 -17 -62.5 -54t-52.5 -51v-8q0 -3 2 -6t2 -6v-2q-20 -14 -39 -42.5t-24 -31.5l-23 -14h-8zM104 786q0 33 30 71t65 38q20 0 22 -2q16 0 46 -9t60.5 -32t30.5 -53q0 -22 -8.5 -33.5t-24 -25.5t-26.5 -35q-3 0 -17 -16t-35 -32t-42 -16q-15 0 -26.5 7.5t-25.5 23 t-20 20.5q-29 0 -29 94z" />
<glyph unicode="?" horiz-adv-x="1159" d="M102 926q0 25 3 51t6.5 43t11 48t10.5 46q0 23 17.5 55t40 63.5t26.5 39.5l31 61q29 34 65.5 65t51 40.5t53.5 34.5q31 0 87 28.5t91 28.5h27q169 -14 284 -70q57 -28 103.5 -98t46.5 -129q0 -86 -51 -197q-1 -1 -6 -11.5t-5 -12.5q-8 -17 -31.5 -39.5t-29.5 -34.5 l-27 -25q-32 -23 -84 -75q0 -5 -26.5 -42.5t-59 -86t-43.5 -74.5q-1 -1 -5 -18.5t-5 -18.5v2q-2 0 -7 -21.5t-9 -50t-4 -43.5v-8q0 -16 4 -48t4 -46q0 -7 -5 -10.5t-13.5 -5.5t-12.5 -5q-8 -5 -19.5 -27t-31.5 -22q-8 0 -32.5 12t-45 24t-20.5 13v62q0 5 -5.5 18t-5.5 17 q11 35 11 41v73q0 13 6 25q-2 6 -2 10l5 10q5 10 5 13q7 18 16 45t17.5 48.5t19.5 43.5q6 13 32 41.5t32 46.5l61 57l9 7q9 8 19.5 18.5l23 23t23.5 26t17 24.5l31 43q6 6 6 10v14q0 2 5 9t5 8q7 10 12.5 22t8.5 20t6 24.5t4 21.5t3.5 25.5t2.5 23.5v14q-21 75 -22 76 q-12 46 -62.5 65t-109.5 19q-24 0 -62 -20t-55 -37q-86 -40 -140.5 -115t-72.5 -170l-10 -57q-4 -20 -4 -50q0 -65 40 -127q1 -1 15.5 -21.5t15.5 -23.5v-22q0 -33 -25 -59.5t-63 -26.5q-17 0 -25.5 4.5t-23 15.5t-35.5 21l-45 20q-36 11 -55 71.5t-19 115.5zM526 141 q0 22 16.5 28.5t45.5 6.5q42 0 59 -6l10 -4q3 -1 19 -2.5t22 -7.5v-43q4 -13 4 -15q0 -16 -4 -28l-4 -4q-5 -10 -11 -33t-13.5 -33t-22.5 -10q-8 0 -10 6h-51q0 14 -8 14h-3q-6 -6 -6 -14q-12 6 -17.5 24.5t-6 31.5t-0.5 42q-1 9 -10 24t-9 23z" />
<glyph unicode="@" horiz-adv-x="1370" d="M102 393q0 4 2 6q-2 0 -2 4q0 7 4 7q5 -3 5 -7l-5 -4q0 -1 2.5 -4t2.5 -4l-5 -2q-4 0 -4 4zM102 424q6 6 11 6q-1 1 -6 19t-5 20l4 14l-4 11q0 12 4 16v78q0 12 19 59v15q2 38 16 90t31 69l23 43q10 2 15 20.5t13 26.5l15 15q41 66 55 80l26 26q11 14 37 33.5t45 32.5 t60 38.5t49 30.5q0 6 26.5 19t91.5 27t146 14q25 0 47 -6.5t49 -18t45 -16.5q14 -5 45.5 -14.5t49.5 -15.5t48 -18t48 -23t41 -28.5t37 -37t25.5 -46t15.5 -57.5v-14q3 -8 23 -39t20 -37v-2l-4 -12q0 -2 2 -14t2 -13v-14q0 -10 -2 -27t-2 -26v-23l4 -10v-6q0 -121 -23 -179 q0 -1 -3 -6.5t-6.5 -13.5t-4.5 -12l-39 -74q-38 -72 -95.5 -125t-129.5 -53q-32 0 -50 6t-57 27q-2 4 -6 4q-1 0 -12 13.5t-26.5 26.5t-27.5 13l-69 -33q-5 -1 -9 -2l-2 -1q-16 -1 -126 -21h-13q-33 0 -82.5 38t-58.5 60l-33 53q-33 52 -33 94q0 54 21.5 88t73.5 82 q3 0 34 28t74.5 57t75.5 32h74q2 0 21.5 -8t21.5 -8q65 -22 99.5 -46.5t86.5 -86.5v-185q0 -11 6.5 -27t16.5 -16h8q4 4 32 32.5t39 41t28 36t26 44.5q2 11 11 57t12 62.5t6.5 50t3.5 63.5v33q0 16 -11 42l-12 26v10q-15 46 -41 74t-48 36t-46 15.5t-33 15.5l-82 27h-65 q-27 0 -74 -11.5t-80 -11.5l-27 -14q-70 -37 -144.5 -102.5t-74.5 -102.5l-4 -4q-4 0 -16.5 -9.5t-25.5 -27t-13 -35.5q-2 0 -25.5 -67t-27.5 -68v-20q-6 -39 -13 -54l-4 -10l4 -10q0 -6 -2 -10.5t-6 -10t-6 -8.5v-2q0 -4 5 -12t5 -16l-6 -21l6 -10q0 -37 5 -61.5t22 -75.5 l4 -17q-4 -8 -4 -10q9 -9 27.5 -48t31.5 -54l33 -41q40 -35 95 -62.5t106 -27.5h20q142 0 248 49q21 7 47 34t49 27h15q11 0 45 -15.5t34 -21.5l23 -10l-16 -35q0 -3 -4.5 -7t-10.5 -7l-6 -4l-45 -35q0 -4 -6 -5t-14.5 -2t-12.5 -5l-9 -6q-9 -6 -23.5 -15t-32 -18t-37 -15 t-35.5 -6h-8q-8 8 -12 8q-2 0 -13 -5.5t-12 -6.5h-78q-7 -3 -16.5 -8.5t-18 -8.5t-18.5 -3q-23 0 -47 10t-39 10h-23q-1 0 -7 2t-7 2l-6 8q-8 7 -23 8.5t-24.5 2t-9.5 8.5l2 4q2 3 2 6q-57 0 -105 39l-16 16q-5 3 -17 8t-19.5 10.5t-10.5 14.5v15q-4 7 -30 15t-26 28l-16 14 v6q-3 3 -16.5 9t-16.5 12l17 26q0 1 1 3t1 3q-8 3 -23.5 8.5t-17.5 6.5v20q-1 4 -9 10.5t-8 10.5q0 10 11 18q-27 3 -27 23v4q0 2 4.5 10t5.5 10q-17 0 -21.5 6.5t-4.5 20.5q0 10 6 17t6 11q0 20 -23 23zM172 246q0 -4 4 -4q2 0 2 4l-2 2zM580 487q0 -45 26 -45q21 0 52 42 t52 84l21 42q0 13 -6 17q-57 -15 -101 -47t-44 -70v-23z" />
<glyph unicode="A" horiz-adv-x="1073" d="M102 43v18q0 2 5.5 16t9.5 19q24 47 43.5 118t19.5 116v41q0 10 8 26l-2 -2l7 51q10 89 24 117q7 29 15 92.5t16 98.5l63 247q44 106 54 232q0 57 10 98q15 21 70 30t108 9q23 0 53 -10h-2l31 -8q20 -5 52.5 -7t52.5 -9.5t38 -30.5v-185q0 -13 15 -56t18 -79 q7 -68 32 -143t25 -99v-88l12 -17q13 -18 13 -34t-3 -34.5t-3 -26.5q0 -11 2 -13l72 -67q10 -5 10 -27q0 -17 -8 -28.5t-17.5 -16.5t-17.5 -12t-8 -14q0 -3 2 -17t2 -24q0 -6 -2 -13t-2 -8q0 -2 6 -14t6 -19q0 -18 -4 -22q2 -3 9 -12t9 -15v-12q0 -5 -7 -12t-7 -9 q0 -6 9 -29.5t9 -39.5q0 -29 -2 -46t-12 -37.5t-29 -35.5h-37q-20 0 -29 1t-30 6t-33.5 20.5t-17.5 40.5v26q-17 24 -17 74v14q0 3 1 11t1 12l-4 10v21q0 19 -12 65l-10 51l-174 -16q-13 -5 -82.5 -8t-77.5 -13l-29 -24h2q-26 -33 -26 -51v-15q0 -28 -10.5 -60.5 t-10.5 -45.5q0 -21 8.5 -33.5t8.5 -24.5q0 -15 -9.5 -25t-32.5 -17.5t-35 -10t-44 -8.5h-31q-29 0 -39 8zM434 518q0 -16 27 -16q50 0 101.5 4t83.5 9.5t32 10.5q0 15 -8.5 45t-10.5 37l-26 115q-3 13 -10 48.5t-11.5 52.5t-11.5 42.5t-15.5 41.5t-19.5 26 q-7 -20 -23.5 -68.5t-25.5 -75t-21 -65t-19.5 -68t-10.5 -53.5z" />
<glyph unicode="B" horiz-adv-x="1050" d="M102 1284v16q0 39 50 39l133 -10q6 1 60 17t85 16q46 0 101 -11t113 -34.5t105.5 -56t78 -81t30.5 -104.5q0 -75 -43.5 -158t-124.5 -137v-6q24 -29 66 -60.5t79 -65t60 -75.5l45 -81v-13q8 -8 8 -14q0 -1 -4 -15.5t-4 -15.5v-16q0 -6 4 -18t4 -19v-4q-3 -1 -5.5 -9.5 t-2.5 -11.5q0 -4 1 -12.5t1 -13.5q0 -30 -16 -33v-31l-54 -80q-5 -9 -22.5 -21t-22.5 -20q-36 -55 -57 -71q-16 -12 -33 -17l-90 -32q-3 0 -23.5 -4.5t-23.5 -4.5h-4q-21 1 -43 15.5t-31 17.5q-12 3 -44.5 14.5t-58.5 18t-46 6.5q0 -2 1 -15.5t1 -15.5q0 -31 -31 -45 t-59 -14q-35 0 -65.5 20.5t-39.5 20.5l-20 33v16q0 33 3 99.5t3 99.5v61q-6 18 -6 25v82q-10 17 -10 100q-1 8 -4 73t-3 77v90q0 3 -3 16.5t-3 15.5q-8 51 -8 156q0 60 -13.5 170.5t-13.5 130.5zM365 537q0 -1 3 -27t3 -31q0 -1 -1 -45.5t-1 -71.5q0 -42 4 -62.5t7 -26 t20 -12.5t26 -13q0 -20 41.5 -56t91.5 -36q46 0 84 27t60.5 69t34.5 88.5t12 89.5q0 70 -53 144.5t-124 74.5q-55 0 -104 -16q-8 -6 -10 -6q-82 0 -94 -27v-63zM365 913q0 -20 3 -55.5t3 -52.5v-14q0 -7 8 -7l8 2q23 6 38.5 12t26.5 11t27.5 19.5t25.5 23t37 37.5t48 49 l16 25q0 1 22.5 49.5t22.5 66.5q0 78 -31.5 101.5t-97.5 23.5q-38 0 -61 -5t-70 -28l-4 -4q-18 -41 -18 -47q0 -7 1 -17.5t1 -12.5q-6 -36 -6 -127v-50z" />
<glyph unicode="C" horiz-adv-x="995" d="M102 506v147q0 3 4 26.5t7 31.5v-2q48 193 151 342l64 77q36 42 122.5 106t151.5 64q69 0 137 -22l25 -21q31 -4 85 -42t54 -72q0 -97 -110 -97q-17 0 -57.5 7.5t-53.5 7.5q-35 0 -80 -29.5t-80 -68.5t-59.5 -71.5t-28.5 -43.5v2q-2 -13 -10 -25l-47 -94 q-15 -29 -26 -94.5t-11 -122.5q0 -47 18.5 -107.5t49.5 -105.5t61 -45l6 -12h21q54 0 88.5 29t62.5 89l39 60q21 18 49 18q34 0 70.5 -24.5t62.5 -65.5q2 -9 15 -22q-5 -49 -51 -112t-116 -110t-134 -47q-153 0 -250 82l-39 45q-47 15 -93.5 81t-72 134.5t-25.5 106.5z" />
<glyph unicode="D" horiz-adv-x="1136" d="M88 1290q0 26 16 44t43 18h111l193 -17l124 -37q5 -4 21 -5t27 -7l-2 2q35 -15 89 -47t116.5 -77t107 -100t45.5 -101q9 -28 21 -61t16.5 -46.5t8 -35t3.5 -48.5v-14q0 -13 -2 -19v2q-12 -61 -18 -69v-19q0 -21 10 -49t10 -49q-9 -43 -34.5 -105t-55.5 -85 q-12 -45 -51 -89h2q-28 -32 -37 -34h2q-7 -3 -21.5 -11.5t-21.5 -11.5l2 2l-35 -26q-13 -18 -33 -27.5t-63 -29t-92 -50.5l2 4q-41 -24 -141 -47l-52 -12q-136 -33 -157 -33l-37 4q-8 12 -23 12h-2q-13 16 -36 31t-34.5 30t-11.5 42v10q0 8 8.5 47.5t8.5 81.5v43 q-9 49 -12 129.5t-11 120.5v317q0 4 3 50.5t3 50.5v51q0 16 -3 47t-3 47q0 17 3 47t3 45q0 8 -5 31t-5 53zM326 580q0 -40 3 -117t3 -115v-22q4 -8 4 -31v-37q0 -68 4 -72l2 -4q0 4 28.5 10t76 19t81.5 31q125 62 125 80l11 12q37 26 74.5 67t37.5 76l23 27q0 2 2 7.5t2 6.5 q2 9 8 34t8.5 36.5t7 33t6.5 36.5t3.5 33.5t1.5 35.5q0 155 -76 283q-42 69 -136.5 108t-187.5 39h-51q-18 0 -26.5 -18.5t-8.5 -38.5v-21q0 -4 1 -12t1 -12q0 -3 -3 -16t-3 -19v-51q0 -75 -12 -105q-10 -195 -10 -235v-49z" />
<glyph unicode="E" horiz-adv-x="978" d="M102 1231q0 22 11 33l47 22h10q10 -10 109 -10h428q8 4 24 4q36 0 55.5 -12t44.5 -43l9 -6q37 -26 37 -70q0 -16 -31 -27.5t-51 -11.5h-4q-10 0 -31 2t-33 2h-20q-1 0 -32 1t-57 1q-247 0 -247 -61v-1q3 -35 12 -42q6 -29 9 -92.5t10 -100.5t24 -37h29q10 0 46 -2.5 t42 -5.5h6q18 3 59 5t72 5t37 9h10q19 0 38.5 -15.5t29.5 -34.5l10 -45l12 -20v-14q0 -12 -10 -20t-31 -11t-35 -3.5t-39 -0.5h-61q-2 0 -17 -3t-18 -3h-86q-95 -14 -98 -17l-10 -16q0 -6 -4.5 -82.5t-4.5 -104.5v-110q1 -6 4 -11.5t6 -9t8 -6.5t8.5 -5t10.5 -3.5t10.5 -2 t12.5 -1t12 -0.5h12.5h12.5h96q75 0 176 22h8q41 0 64 -34t33 -80v-12q0 -24 -50 -37h-32q-59 0 -128 -7.5t-114.5 -14.5t-48.5 -7q-8 0 -18 0.5t-18 1.5h-7q-29 0 -75.5 -13.5t-72.5 -13.5q-27 0 -70 31t-53 49v13q-1 3 -5.5 17.5t-4.5 23.5v8q0 1 3 13t3 13v82 q0 21 5.5 63t5.5 64q0 7 -3.5 21t-3.5 22t3.5 26t3.5 27v3q0 3 -3.5 27.5t-3.5 27.5v84q0 11 -2 52t-2 67l-22 215q-2 15 -14.5 71.5t-18.5 73.5v4q0 15 -14.5 38t-14.5 36z" />
<glyph unicode="F" horiz-adv-x="946" d="M88 1376q0 24 15 41t40 17l26 -9h1h10q19 9 23 9q3 0 16 -9l170 -18q63 0 172 -4t111 -4h47q34 0 57 -21q5 -5 35.5 -58t30.5 -63q0 -1 -1 -3.5t-1 -4.5v-18l-60 -17h-32q-5 0 -20.5 3t-29 5.5t-14.5 2.5h-94q-8 0 -25 -3t-35 -3q-10 0 -32 1t-29 1h-12q-17 -2 -43 -4 t-40 -3t-14 -4v-131q0 -11 5 -16l12 -125v-78q0 -24 6.5 -30.5t24.5 -6.5h188q2 0 23 2t24 2h16q38 0 66.5 -42t28.5 -91q0 -20 -20.5 -31.5t-39.5 -13.5h-43q-88 0 -205 -10h3q-12 -4 -30 -6t-25.5 -4.5t-14 -17t-6.5 -44.5t5 -84.5t5 -76.5q0 -27 -3 -50t-3 -30 q0 -3 2 -16t2 -21v-37q0 -65 18.5 -127.5t18.5 -87.5q-8 -32 -43.5 -48t-73.5 -16h-16l-49 45v-2q-27 23 -36.5 33.5t-17.5 35.5t-8 67v28l-4 2v133q0 1 -3 19t-3 24v131q0 2 -3 34.5t-3 39.5q0 2 3 19.5t3 19.5v74q0 213 -33 407q0 9 -4 17v35q0 2 -2.5 9.5t-5.5 8.5l-6 70 q-7 78 -21 137q-4 8 -4 16z" />
<glyph unicode="G" horiz-adv-x="1257" d="M88 610v19q0 78 29 157v-2l20 76q18 73 105 164l106 117q143 125 201 127l90 37q85 47 152 47q89 0 157 -50t68 -131q0 -69 -107 -69q-13 0 -32.5 3t-28.5 3q-31 0 -92 -18.5t-94 -20.5l-72 -53q-55 -41 -60 -41l-30 -19q-1 0 -45.5 -42.5t-51.5 -49.5 q-43 -66 -61 -100.5t-32.5 -87.5t-14.5 -119v-55q0 -19 6 -25v-33q0 -16 8 -32l-2 2q8 -13 8 -29l9 -29q14 -47 34 -77q172 -101 312 -101q35 0 92.5 30t85.5 30q22 0 22 28q0 14 -10 69t-10 89v10q0 21 -13 27.5t-29.5 4t-31.5 3.5h-26q-12 0 -35 -3t-33 -3h-23 q-17 0 -44 63t-27 92q0 14 16 25h35q19 -8 47 -8q6 0 18.5 1t18.5 1h68q63 0 110 -12h170q11 0 24.5 -9t14.5 -20l20 -66q10 -17 17 -34q0 -12 -20.5 -37t-20.5 -56v-65q0 -24 3 -69.5t3 -94.5q0 -16 -1 -41.5t-1 -34.5v-20q16 -26 16 -74q0 -44 -17.5 -70t-64.5 -63h-20 q-42 0 -95 24t-57 62v98q-2 2 -2 6q-6 -2 -56.5 -32.5t-90.5 -30.5q-58 0 -146 20t-155 52q-223 105 -305 389l4 -4l-10 12v20q-9 0 -23 123z" />
<glyph unicode="H" horiz-adv-x="1140" d="M102 1313q0 53 93 53h20q29 0 45 -1t40 -5.5t37.5 -14.5t27.5 -27t20 -45.5t6 -66.5q0 -60 -9 -119.5t-9 -111.5v-72q-6 -18 -6 -47l-5 -10q0 -3 4 -17t7 -18v-233q0 -3 24 -3q49 0 152 15.5t153 15.5h111v103q0 2 3 31.5t3 31.5v16q0 17 -5 54.5t-5 56.5l-6 14q0 2 -1 9 t-1 10q0 6 1 19.5t1 19.5v16q0 44 -17 144t-20 126q0 7 -4 19q0 14 13.5 31t25.5 24h37q42 0 77.5 -7.5t64 -29t28.5 -55.5v-166q0 -5 -9 -18q0 -11 4.5 -35t4.5 -35q0 -18 -4.5 -39t-4.5 -28q0 -9 4.5 -24t4.5 -24v-14l-9 -8q0 -12 -3 -25t-6 -19l-3 -7q0 -3 2 -11t2 -10 v-8q17 -5 17 -20q0 -32 -13 -39q4 -8 4 -21v-12l9 -2v-35q6 -12 6 -14q0 -1 -3 -12.5t-3 -12.5l-9 -20q-8 0 -8 -2q0 -3 2 -5l25 -14l-2 -18q4 -8 4 -19l-3 -3q-3 -3 -3 -7v-4q6 -18 6 -33l-12 -10l8 -10q8 -16 8 -23v-55q0 -1 -6 -19l2 2l-6 -12l10 -14v-23q0 -9 8 -49 q-2 -15 -10 -20h10v-82q6 -6 6 -21q0 -13 -6 -28q6 -6 6 -25q-47 -72 -106 -72h-14q-25 0 -59 13t-34 32v160l-6 31q6 12 6 26q0 16 -9 51t-9 50q0 3 1 10.5t1 11.5l-6 50l-25 2q-25 -1 -143 -15l-47 -6q-29 -4 -102 -9t-113 -13q-6 -30 -6 -41v-101q0 -36 -5 -51 q0 -11 2.5 -51.5t2.5 -46.5l4 -6l-2 6q2 -4 6 -11t6 -11t4 -10.5t2 -12.5q0 -52 -90 -78q-47 0 -100.5 32.5t-53.5 71.5q0 22 3.5 60t3.5 57q0 39 -3.5 126.5t-3.5 137.5q0 51 7 146v6q-7 0 -13 106.5t-6 177.5v76q0 51 -14.5 157.5t-14.5 164.5z" />
<glyph unicode="I" horiz-adv-x="962" d="M102 1292q0 13 9.5 23t19.5 10h41q86 0 247.5 12.5t196.5 14.5q22 1 67.5 14.5t66.5 13.5q32 0 64.5 -39.5t45.5 -76.5v-4q0 -58 -133 -58q-47 -6 -63.5 -60.5t-16.5 -205.5v-82q15 -180 15 -451q0 -51 -1.5 -124t-1.5 -80q2 -5 8 -8.5t13 -5t8 -1.5q47 -13 72.5 -50.5 t25.5 -82.5q0 -9 -33 -21t-44 -12q-8 0 -17 3.5t-12 3.5h-4q-7 0 -57.5 -4.5t-59.5 -6.5h-72q-34 0 -98 -9t-98 -9q-33 0 -60.5 44t-27.5 87q0 11 5.5 23t14.5 12h10q15 -1 68 -4.5t82 -3.5h10q21 0 33 6h18q18 0 27 14v143q0 13 -6 37v236q-2 46 -19 151v33q0 48 -7 125 t-7 139q0 64 2 76q-1 2 -2 6.5t-2 7.5t-2.5 7t-3 7t-3.5 5.5t-5 4t-6 1.5q-42 0 -101 -18q-1 0 -5 -3.5t-5 -3.5h-20q-6 0 -25.5 -8t-32.5 -8q-43 0 -71.5 32.5t-38 70.5t-9.5 77zM715 229v9h6z" />
<glyph unicode="J" horiz-adv-x="980" d="M102 1300q0 18 13.5 32t31.5 14q9 0 24.5 -6.5t23.5 -6.5h8q46 4 180 14.5t207 18.5q1 0 10.5 4.5t19 8t15.5 3.5q19 -1 41.5 -10.5t36.5 -19.5t37.5 -28t31.5 -24q6 -5 22 -15.5t21.5 -15t15.5 -16.5t14 -23.5t7.5 -30.5t3.5 -44v-80q0 -20 5.5 -64.5t5.5 -58.5v-35 v-39.5t-0.5 -38t-1.5 -40.5t-2 -37.5t-4 -38.5t-6 -33t-8 -32.5t-11 -26.5q0 -1 2 -10.5t2 -10.5v-55q0 -55 -10.5 -158.5t-10.5 -120.5l-8 -2v-90q-10 -4 -14 -11.5t-5.5 -22t-4.5 -21.5q0 -3 -13.5 -24.5t-13.5 -38.5q-16 -19 -40 -38t-41 -31t-19 -17l-33 -21 q-31 -20 -94 -29t-82 -16h-13q-15 0 -41 18.5t-34 20.5q-10 7 -36 24t-33.5 22t-26 20t-24.5 24t-18 26.5t-16.5 35.5t-10.5 42.5t-9 55.5v4q2 8 7 50.5t5 49.5v6q0 1 -3 10.5t-3 10.5v6q0 21 9.5 30t31.5 9q12 0 88.5 -23.5t77.5 -31.5v-15q0 -11 -7 -26.5t-8 -18.5 q0 -41 -4 -57v-29q0 -38 19 -78.5t47 -40.5h2q31 0 51 13t38 34t32 29q28 67 38 98l5 58v-4q3 0 12.5 95.5t18 254.5t8.5 295v112q-6 11 -10.5 74t-22.5 72h-23q-66 0 -184.5 -34t-155.5 -34q-21 0 -41.5 10.5t-31 19t-29.5 29.5t-21 23l-39 78q0 2 -1 9.5t-1 8.5zM434 252 v4h6z" />
<glyph unicode="K" horiz-adv-x="1269" d="M102 1325q0 21 12 39t42 18h14q198 0 215 -116q0 -2 -1 -9t-1 -10q0 -12 8 -28v-123q0 -32 -4 -93t-4 -69q0 -15 1 -44t1 -40v-19q0 -5 -2.5 -18t-3.5 -18q21 25 68.5 91.5t62.5 86.5l33 43v-2q74 99 116 133q16 27 52.5 81.5t48.5 74.5l-2 -3l26 52q16 10 43 10 q16 0 38.5 -11.5t52.5 -11.5l71 -47q27 -16 27 -57q0 -19 -13 -37.5t-30 -28.5l-90 -96v2l-27 -18q-5 0 -23 -19.5t-40.5 -45.5t-34.5 -36h2l-137 -141l-21 -14q-3 -3 -12 -10.5t-13.5 -12t-10.5 -11t-9 -12t-4 -10.5l106 -114q0 -5 15 -17t38.5 -27t24.5 -16q26 -22 64 -84 l8 -8q9 -12 18 -12.5t23 -20.5v-14q1 -3 5.5 -15t6.5 -14l25 -10h31q0 -2 16 -17.5t16 -23.5v-24l11 -17q10 -10 10 -22v-6q2 -2 8 -3.5t11 -3t5 -2.5l21 -18q8 4 18 4t45 -6q-6 -3 -6 -8q0 -14 27 -29l35 -22q2 -2 7.5 -23.5t23.5 -42t53 -29.5l-31 -30h2 q-18 -25 -45 -47.5t-45 -22.5h-13q-4 0 -24 10l-35 17q-22 1 -39 18t-22 35l-2 -2q-15 0 -29.5 13t-17.5 32l-125 125q-24 32 -56 55l-309 252l-20 12q0 -1 1 -4t1 -4q0 -19 -10.5 -35t-10.5 -63q0 -46 5 -140t5 -145v-37q17 -34 17 -82v-6l-8 -4q-17 -24 -25 -33.5 t-25.5 -17.5t-42.5 -8q-41 0 -92 43.5t-51 87.5l4 12q4 4 4 80q0 41 -5 115t-5 112v15q-20 153 -20 243v326q-15 92 -15 170l-12 88l-6 10q-15 25 -15 35z" />
<glyph unicode="L" horiz-adv-x="808" d="M102 1393q0 16 12.5 25t30.5 9h10q26 0 41.5 -0.5t45 -3t49 -9t39.5 -16.5t30.5 -28.5t10.5 -42.5q0 -33 -15 -63q-26 -210 -26 -385v-43q-11 -62 -11 -140v-45q11 -77 11 -123v-96q1 -12 6.5 -37.5t5.5 -38.5v-4l-6 -26v-29q0 -1 -3 -10.5t-3 -10.5t3 -7t3 -7 q2 -11 4.5 -27t4.5 -22.5t7 -16t14 -12.5t25 -5.5t41 -2.5h21q12 -4 51 -4h2q14 0 18 4h121q11 0 36.5 -39t25.5 -67q0 -4 -0.5 -7.5t-2.5 -6.5t-3 -5.5t-4.5 -4.5t-5 -3.5t-6 -3.5t-6 -2.5t-7 -3t-6.5 -2.5l-203 -15h-90q-16 0 -38.5 -6t-41.5 -6h-33q-45 9 -51 12l-39 31 q-14 10 -22 16.5t-14.5 19t-6.5 28.5q0 9 9 18t9 14v11q0 2 -3 14t-3 14v111q0 166 -12 325q0 2 -2 19t-2 18v72q0 14 -3 43t-3 45l-8 82l-3 469q-4 4 -4 27z" />
<glyph unicode="M" horiz-adv-x="1644" d="M104 1276q0 54 12 68q9 10 25 10q62 0 113 -11q9 -2 40 -7t50 -9t41.5 -15t32.5 -26q10 -44 34 -89t58.5 -97.5t50.5 -81.5q9 -18 23.5 -58t19.5 -53q29 -71 90.5 -210.5t89.5 -209.5l19 -51q0 -14 11 -53.5t26 -48.5q44 91 49 110l18 70q3 14 15.5 38.5t15.5 33.5 q44 112 98 313l2 6q15 46 27 58q6 16 30 83t42 105l14 31q12 28 12 88v51q22 22 37 22q118 -20 166 -61l45 -39q11 -9 31.5 -20.5t29.5 -20.5t17 -39.5t8 -83.5v-112q0 -106 12 -158v-27q0 -27 7.5 -83.5t7.5 -86.5v-49q0 -2 3 -24.5t3 -24.5v-82q0 -15 -10.5 -43t-10.5 -29 v-4q0 -3 10.5 -25.5t10.5 -35.5t-8.5 -34t-8.5 -32t6.5 -17t6.5 -7q-9 0 -19 -6.5t-10 -14.5q0 -7 12 -43v-4q-6 -6 -6 -12l10 -14q0 -1 1.5 -6t1.5 -9l-3 -8q6 6 17 6v-78q12 -15 12 -22q0 -4 -36.5 -27.5t-43.5 -27.5h-2q-12 0 -53.5 23t-44.5 32v278q0 40 -9.5 122 t-9.5 124v90q0 15 -6.5 58t-9.5 43l-27 184q-8 16 -14 16l-4 -2q-26 -50 -50 -121t-24 -96q-60 -60 -182 -471q-9 -9 -18 -48t-9 -52q-28 -84 -58.5 -110.5t-102.5 -26.5q-42 0 -80.5 32t-38.5 97q-3 13 -13.5 34.5t-13.5 34.5q-9 30 -29 100.5t-37.5 123.5t-37.5 100 l-17 28q-12 23 -39 84l-20 46q-10 22 -27 63t-29.5 67.5t-21.5 38.5q-4 9 -13 34.5t-17.5 47.5t-19.5 45.5t-22.5 37.5t-21.5 14h-4q0 -3 -3 -15t-3 -14v-8q7 -128 10 -135v-248q12 -12 12 -72v-8q-1 -8 -1.5 -19t-0.5 -18q0 -29 11.5 -78.5t11.5 -83.5l6 -10q12 -32 12 -80 q0 -14 -6 -39t-6 -41q0 -8 3 -26t3 -27q0 -21 -34 -50.5t-64 -29.5q-25 0 -33 8l-35 33q-4 4 -16 10.5t-20.5 14.5t-12.5 18v33q0 19 6 57.5t6 59.5v4q-18 137 -18 184q0 5 1 15t1 14q-14 22 -14 49q0 11 4 47l-6 8l-2 22q-3 22 -5.5 50t-3.5 43v18q0 1 -3 13.5t-3 13.5v96 q-6 6 -6 15v16q-23 178 -23 426zM1522 143q0 7 2 7l2 -7q0 -2 -2 -2z" />
<glyph unicode="N" horiz-adv-x="1101" d="M102 1315q0 16 9.5 25t20 10.5t28.5 1.5q187 0 227 -58q8 -9 9.5 -31t4.5 -30q1 -5 17.5 -44t17.5 -42q39 -98 39 -115q4 -9 18 -34.5t17 -39.5v-10q11 -12 20 -30t18 -41t13 -31q16 -33 42.5 -103.5t46.5 -122.5t26 -55l14 -65q4 -22 17.5 -35t13.5 -23q0 -16 -6 -18 q14 0 20 -6v-19l-14 -14q12 -2 16.5 -7t6.5 -15.5t6 -16.5l10 -10q0 -1 1 -4.5t1 -5.5q0 -1 -1 -4.5t-1 -4.5q0 -18 12 -18q1 0 2.5 2t3 4.5t2.5 3.5v494q0 6 -3 61t-3 60v188q-6 27 -6 66v26q-1 5 -6.5 20t-8.5 26.5t-3 21.5q0 45 106 45q34 0 47.5 -0.5t37 -4.5t33 -12 t17.5 -24.5t8 -40.5v-33q0 -113 -10 -279.5t-10 -263.5l-4 -184q0 -3 -2.5 -13t-5.5 -11v-11q0 -22 4 -66t4 -65v-28q0 -2 -2.5 -8.5t-5.5 -6.5v-4q12 -12 12 -51q0 -1 -2 -9t-2 -9v-13q0 -4 2 -13.5t2 -14.5q0 -11 -6 -31t-6 -33v-22q5 -1 8.5 -12.5t3.5 -16.5 q0 -18 -35.5 -49t-56.5 -31q-29 0 -127 35q-11 0 -49.5 16.5t-44.5 32.5v6q-9 60 -31 118.5t-27 80.5q-3 31 -16 74t-25.5 74t-36 85.5t-32.5 75.5q0 16 -20 58.5t-25 66.5l-72 139q-2 11 -25 52.5t-32 41.5h-2q0 -2 -3.5 -11.5t-3.5 -10.5v-27q0 -1 -2 -8t-2 -8t2 -17 t2 -18q0 -1 -4 -10t-4 -10v-5q0 -3 2 -29.5t2 -29.5v-235q0 -9 -3 -83t-3 -114q0 -69 3 -129.5t3 -71.5v-8q0 -32 -26 -55t-56 -23q-26 0 -64 24t-38 52q0 16 6 20v404q-6 12 -6 35v139q0 14 -3 48t-3 40q0 15 1 40t1 26q-1 8 -3 75t-3 74v23q0 13 3 35.5t3 35.5q0 23 -5 71 t-5 71v34q-1 7 -6 27t-5 31z" />
<glyph unicode="O" horiz-adv-x="1171" d="M102 635v12q0 55 9 109t16.5 78.5t30 85.5t26.5 73q6 13 11.5 42.5t15.5 47.5l16 29q3 7 30.5 41.5t33.5 40.5q3 4 23 29.5t28 34.5t28.5 31t35 32t35.5 23t43 18.5t46 5.5q21 0 57 -6.5t54 -7.5l94 -23q11 -2 21 -6.5t21.5 -11t19.5 -10.5q12 0 34 -26.5t37 -31.5 l31 -20q52 -35 91.5 -95.5t39.5 -97.5l17 -59q22 -81 22 -176q0 -36 -6 -94.5t-6 -94.5v-43q0 -16 -9 -66t-24 -65l-16 -59l-11 -15l-39 -88q0 -37 -165 -202l-19 -9l-20 -16l-23 -20q-27 -15 -63 -15h-37q-13 0 -40 -5t-42 -5q-33 0 -76.5 20.5t-50.5 20.5q-37 0 -87.5 38 t-92.5 83l-11 12q-52 59 -79 156l-19 69q0 11 -10 31q0 41 -10.5 106t-10.5 99zM307 561q6 -22 6 -24l-1 -9q-1 -9 -1 -14q0 -23 11.5 -67t11.5 -70v-35q2 0 7 -5t5 -7q3 -5 17.5 -30t18.5 -32t18 -28.5t21.5 -30t22 -25.5t26 -26t27.5 -19.5t33 -17.5h5q14 0 32 3t41 10.5 t38.5 24t15.5 40.5l18 12q6 10 23 31.5t24 25.5q2 20 29.5 54.5t27.5 56.5v27q12 12 23.5 39t11.5 47v28q0 2 5 13.5t5 13.5v61q0 1 3.5 10.5t3.5 10.5v41q0 56 6 80v38q0 21 -3.5 44t-10.5 51.5t-9 42.5q-2 11 -3.5 28t-4 29.5t-8.5 24.5q-6 4 -18.5 30t-20.5 49l-23 41 q-18 21 -64 46.5t-65 25.5h-10l-82 -63q-14 -4 -30 -22t-25.5 -33.5t-25.5 -46t-21 -38.5q-66 -116 -84 -190q-19 -75 -27 -242v-4z" />
<glyph unicode="P" horiz-adv-x="1171" d="M94 1298q0 56 35 56h139q40 0 63.5 -29t30.5 -68l3 3q14 8 78.5 33t105.5 53h127q27 0 91.5 -20t100.5 -40l-2 2l21 -10q69 -52 125.5 -153t56.5 -197q0 -68 -41.5 -155t-108 -164.5t-160 -131t-186.5 -53.5q-69 0 -159 63l-13 9q-33 33 -55 41v-60q0 -25 -2 -38.5 t-4 -15.5t-4 -3t-2 -4l4 -25v-102q0 -5 2 -21.5t2 -21.5q0 -7 -4 -23v-133q-6 -6 -6 -14q0 -11 3 -23.5t3 -25.5v-11q-2 -32 -13 -66.5t-32 -43.5l-49 -25l6 2q-9 -6 -23 -6q-5 1 -12.5 3.5t-27 11t-34.5 17.5t-27.5 24t-12.5 30v14q4 8 4 17v63l6 2q0 2 -3 14.5t-3 14.5v8 q0 9 3 18.5t3 12.5q-2 23 -2 123q0 60 4 134.5t4 121.5v76q-8 8 -8 88q0 5 1 18.5t1 18.5v4q-6 11 -8 32.5t-3 61t-3 65.5v91q0 46 -5.5 140t-5.5 146v31q-4 10 -4 20zM358 936q4 -16 4 -18q0 -3 -1 -13t-1 -18q0 -35 19 -135q8 -47 62.5 -85t115.5 -38q54 0 106.5 12.5 t65.5 40.5l27 51q5 3 13 9t18 24.5t10 40.5l24 45q6 12 10 31t5.5 33.5t3 43.5t2.5 39v15l-27 102q-56 70 -156 70q-54 0 -121.5 -22t-95.5 -60v2q-79 -107 -84 -170z" />
<glyph unicode="Q" horiz-adv-x="1232" d="M88 545v153l16 88q24 131 121 316q6 39 90 123l103 102q55 47 121 47q43 0 114 -15.5t117 -41.5l-2 2l45 -19q85 -36 180 -184l17 -26v2q30 -38 44.5 -136.5t14.5 -175.5v-16l-6 -8v-27q0 -28 -13.5 -114.5t-13.5 -122.5l-20 -43q-3 -7 -18.5 -36t-28.5 -59t-21 -59 q-8 -26 -28 -45l-5 2q0 -11 46 -39.5t65 -34.5l117 -45q19 -11 34 -64.5t15 -80.5v-31q-15 -29 -47 -29q-22 0 -52.5 16.5t-43.5 32.5l-39 19q-19 9 -62 36.5t-80 45t-69 18.5h-4q-19 0 -41 -17.5t-40 -38.5t-46 -38.5t-58 -17.5h-22q-8 0 -25 -1t-26 -1q-56 0 -121.5 36 t-161.5 146l-14 12h2q-93 106 -148 303q0 48 -6 66zM285 584q0 -15 10 -45v-31q0 -63 37.5 -153t89 -156t88.5 -66q26 0 53 14q2 4 31.5 24t34.5 40q-2 2 -5 3.5t-8 3.5t-8 3q-7 0 -70 36t-69 36l-57 39q-24 24 -31.5 39t-7.5 43q0 41 27 94t57 53h18q72 -78 227 -186 l37 -23q0 7 8 27.5t17 23.5l10 17q24 48 33 69t21 79t12 128v133q0 1 -1 5t-1 6v6q-7 24 -10 89.5t-19 100.5v-2q-7 0 -11.5 7.5t-4.5 11.5v18q0 32 -39.5 56.5t-84.5 34t-81 9.5q-13 -7 -35.5 -18t-33.5 -17t-23 -19t-17 -30q-40 -50 -66.5 -96.5t-38 -75.5t-32.5 -90 q-57 -124 -57 -237v-4z" />
<glyph unicode="R" horiz-adv-x="1019" d="M102 1335q0 16 33 46t53 30h31q17 0 46 -4.5t40 -5.5l166 -25q95 -18 185.5 -59t117.5 -94q41 -59 53.5 -104t12.5 -122v-22l-11 -27v-20q-3 -26 -20.5 -76t-24.5 -57v2q-1 0 -9.5 -15.5t-23.5 -40.5t-30 -43l-23 -20q0 -18 -35.5 -53.5t-64.5 -57.5l-12 -6v-22 q0 -21 11 -39.5t39 -46t32 -31.5q9 -11 41.5 -51t55.5 -63.5t42 -33.5q7 -8 17.5 -26.5t19.5 -30.5l39 -45q0 -6 42 -33t42 -43q0 -26 -25 -58.5t-53 -41.5h-31q-51 0 -86 16t-61 62l-21 30q-20 22 -53 63t-75 85.5t-118 116.5q-18 11 -47 42t-39 33h-14l-2 -4q6 -12 6 -39 v-125q-4 -24 -6 -26v-17q0 -17 8 -49t8 -49q0 -61 -16 -82l-20 -16q-5 -4 -16.5 -14t-14.5 -12t-11 -6.5t-14.5 -5.5t-15.5 -1q-32 0 -55 15t-33.5 30.5t-11.5 15.5v330q0 17 -6.5 155.5t-6.5 153.5v25q-3 4 -5.5 40t-2.5 46v29q0 2 -2 15t-2 17v306q0 21 -11.5 84t-11.5 75 zM332 854q0 -1 2 -17t2 -18v-37q0 -4 12 -100q-6 -18 -6 -43v-14q0 -15 10 -15q56 0 99 26.5t88 76.5q16 18 29.5 54t35.5 58q33 95 33 201q0 129 -67 185.5t-179 56.5q-12 0 -19.5 -6t-10 -20.5t-3 -21t-0.5 -24.5q0 -10 -7 -64.5t-9 -56.5l-6 -201q0 -1 -2 -10t-2 -10z " />
<glyph unicode="S" horiz-adv-x="1056" d="M102 1030v33l13 61l14 15l29 55q0 2 8 10v-2q1 3 6.5 14t7.5 14.5t7 13t8.5 14t8.5 11.5t11 12t12 9q17 0 21 4l24 25l17 6q15 20 37 33t30.5 15.5t30.5 8.5q19 0 44.5 8.5t31.5 8.5h12q63 -2 133 -25h10l109 -31q77 -41 115.5 -64.5t60.5 -49.5t26.5 -46.5t4.5 -60.5 v-57q0 -17 -3 -38.5t-13 -53.5t-35 -53t-62 -21q-44 0 -71.5 7.5t-51.5 35.5l7 -2l-29 21q0 11 -24.5 36t-24.5 41v17q2 4 25.5 40.5t23.5 51.5q-30 45 -119 45q-24 0 -42.5 -6.5t-25.5 -12t-23 -23.5t-22 -24l-8 -8q-55 -60 -55 -78v-73q6 -17 8 -25l21 -27q0 -22 30 -43 l17 -20q5 -5 28 -20t43 -27l21 -12q313 -208 360 -299q0 -13 8 -36t13 -28l2 -8q14 -17 14 -35v-20l8 -13v-12q0 -29 -20 -55v-19q0 -32 -92 -118l-27 -25l-27 -16v2l-32 -29q-109 -51 -160.5 -67.5t-128.5 -16.5q-55 0 -113.5 14t-112 42t-88 76.5t-34.5 109.5 q0 38 23.5 85.5t23.5 65.5l18 27l-2 -2q4 13 12 28t23 35t40 32.5t56 12.5q28 0 91 -22t63 -45q0 -34 -47 -64l-17 -16q0 -37 -53 -113v-18q0 -2 -1 -7t-1 -10v-16q0 -29 19 -43l16 -14h106q7 0 56 30v-2l26 23q61 40 86.5 78.5t26.5 99.5v4q0 7 4 17t4 14q0 2 -4 14l-8 23 q-18 32 -43 55.5t-44.5 35t-60.5 32t-65 34.5q-67 38 -242 190q-13 11 -20 17l-25 35q-25 34 -38.5 55.5t-26.5 54.5t-13 64z" />
<glyph unicode="T" horiz-adv-x="1271" d="M102 1350v16q0 45 39 45q15 0 49 -11t48 -11h34q24 0 37 -9l203 -14q13 0 19.5 6t8.5 12.5t15 12.5t37 6h24q2 0 26 -2t26 -2h59q16 -2 43.5 -15.5t52.5 -13.5q7 0 16.5 0.5t16.5 1.5h6q30 -6 90 -6h135q23 -7 33 -13.5t12 -12t11 -20.5t26 -32v-18q-1 0 -6.5 -6.5 t-5.5 -8.5l12 -12v-4q-15 -20 -53 -35q-4 0 -33 2t-49 2q-106 0 -158.5 -9.5t-66.5 -24t-14 -44.5v-51q0 -34 -11 -71v-27q-8 -57 -8 -88q0 -3 2 -19l2 -16v-43q0 -31 -5 -94t-5 -94v-17q0 -2 3 -19t3 -20q0 -27 -4.5 -67.5t-9.5 -40.5v-8q4 -7 9 -30.5t5 -35.5l-6 -14v-33 q0 -18 3 -51t3 -49q0 -40 -4.5 -78.5t-16.5 -83.5t-39 -72.5t-67 -27.5q-35 0 -72.5 17t-37.5 50q0 7 -1 35t-1 31q0 39 6 78.5t6 58.5q0 4 -1 16t-1 13v552q4 28 4 43q0 12 -1 33t-1 33q0 3 3 26t3 25v4q0 11 -6 19v176l-10 8h-70q-19 0 -51.5 3t-38.5 3h-60q-39 13 -69 13 h-72q-20 6 -34 23t-19.5 32.5t-12.5 41.5t-10 36z" />
<glyph unicode="U" horiz-adv-x="1165" d="M102 950q0 3 2 26t2 30q-4 2 -4 12q0 25 2 79t2 81v36q0 2 -2 13.5t-2 13.5q0 11 11 24t22 13h125q8 -4 41 -12.5t51.5 -21t18.5 -34.5q0 -19 -8 -51t-9 -49q-8 -90 -14 -102v-8q1 -9 1.5 -20.5t0.5 -18.5q0 -30 -8 -35v-193q0 -3 3 -26t3 -25v-20l8 -21v-145 q5 -5 5 -31.5t5 -36.5q4 -20 23 -59t46.5 -83.5t65 -77t72.5 -32.5h6q5 0 11 6q5 1 31 7.5t37 10.5t30 12.5t30.5 20t18.5 27.5q2 6 6 19t6.5 19.5t9.5 16t17 17.5q-2 4 -2 24q0 7 1.5 14.5t3 12.5t5 13t5.5 11t7.5 13t6.5 12q0 28 12 81t12 81q8 4 8 14v305q0 61 -8 193 q-2 21 -13 67t-11 70v19q0 11 26 18h19q1 1 12.5 3.5t13.5 2.5q1 0 10.5 -3t10.5 -3h55q55 0 84 -16t29 -56q0 -18 -2 -52t-2 -52q0 -14 6 -44t6 -46v-27l-8 -14l8 -41q-1 -5 -6 -53t-6 -52v-20q0 -1 -3.5 -16t-3.5 -17l7 -8v-10q-5 -37 -7 -100.5t-9 -116t-25 -103.5 q-15 -30 -15 -53l-22 -41q-7 -13 -10.5 -39t-6.5 -35l-22 -30l-8 -19l-21 -12l-26 -35q-54 -52 -138 -100q0 -5 -9.5 -6.5t-25 -2t-24.5 -2.5q0 -1 -24 -7t-53 -11.5t-40 -5.5h-6q-35 0 -78 24l-4 5q-53 20 -81 32.5t-65.5 36t-66 55.5t-55.5 78q-2 1 -13 21l-10 20 q-12 11 -22 33.5t-15 41.5t-11.5 50.5t-8.5 40.5v37q0 2 -5 20t-5 23v16q-1 9 -7 48t-6 63v244q0 2 -2 12t-2 12z" />
<glyph unicode="V" horiz-adv-x="1251" d="M102 1305v8q0 18 12.5 28.5t30.5 10.5l144 -13q73 -11 86 -59q9 -108 61 -268l29 -76q4 -12 4 -37l14 -51q0 -40 24 -97t25 -73v-16q3 -14 14.5 -36.5t14.5 -31.5q-2 -4 -2 -6q0 -13 17 -38.5t20 -35.5v-27q0 -29 16.5 -90.5t38.5 -87.5q0 3 13 29q22 56 61 211 q6 23 43 152t53 198q0 10 6 16q8 22 45 164q0 2 6.5 15.5t6.5 15.5l10 55q2 10 19.5 74t17.5 98q0 5 -1 13t-1 12q9 14 41 14q48 0 113 -18t65 -45v-13l-6 -10q-1 -16 -6 -31.5t-16.5 -42.5t-16.5 -40q-4 -11 -7 -26.5t-4 -25.5t-3 -10l-15 -31q0 -28 -4 -28 q-15 -54 -20 -54h-2q-19 0 -131 -350q-1 -5 -6.5 -40.5t-16.5 -51.5l-27 -145q-14 -11 -28 -60l-9 -10v-22l-4 -5q-3 -3 -5 -11t-3 -18t-2 -12v-20l-3 -4q-4 -4 -9 -11t-10.5 -17t-9 -25.5t-3.5 -32.5q0 -4 2 -11t2 -14t-6.5 -18t-7.5 -17l4 -14q0 -43 -37 -70.5t-73 -27.5 h-2q-7 2 -20 3.5t-21.5 3t-17.5 6t-15 11.5q-18 23 -42 37.5t-44 34.5q0 22 -8.5 51t-18.5 41l-22 68q-1 1 -5.5 8t-8.5 14t-5 7l-12 43v22q0 5 -4 12.5t-4 12.5l-15 30q-12 44 -33 96.5t-26 77.5q-10 16 -16.5 56.5t-14.5 48.5q-11 37 -29.5 113t-25.5 100 q-12 41 -45.5 119t-46.5 116q-6 18 -17.5 56t-22 67.5t-22.5 55.5z" />
<glyph unicode="W" horiz-adv-x="1968" d="M102 1290v4q5 14 15.5 20.5t19.5 7.5t27 1q127 0 190 -51q8 -5 11.5 -15t5.5 -24.5t4 -20.5l18 -32q0 -2 2 -14.5t2 -14.5q5 -18 15.5 -67t21 -84.5t29.5 -77.5q58 -131 98 -316q0 -11 6 -31t6 -26l-1 -9q-1 -10 -1 -16q0 -2 1 -4.5t1 -3.5q18 -90 45 -141l9 10 q7 32 42.5 143t35.5 144l26 176q0 5 2.5 14t3.5 17q7 31 14.5 90.5t8.5 68.5q3 17 10.5 52t11.5 60.5t4 49.5v45q0 50 21 66h33q16 0 45 -3t45 -3q12 0 36 5t38 5q65 0 104 -22.5t39 -51.5v-41q4 -31 13 -59t28 -71t24 -56q19 -48 48 -147.5t47 -147.5q5 -15 30 -62t25 -57 q1 -4 12 -41t22 -62.5t21 -29.5l6 -4q0 1 2 7t2 7v19q47 101 103 333l45 199q2 11 17.5 58.5t15.5 70.5v17l18 88q0 2 2.5 6t3.5 4q8 20 4 41.5t5 38t38 16.5h19q146 -24 168 -68v-6q0 -7 -6 -22q-5 -12 -76 -217q0 -2 -3 -11.5t-3 -11.5q-11 -62 -31 -138t-34 -119.5 t-46.5 -141l-40.5 -121.5q-4 -14 -16.5 -65t-24 -90t-20.5 -48l-23 -84q-2 -8 -8.5 -33.5t-10.5 -38.5t-12 -37t-14.5 -37.5t-18 -31.5t-23 -27.5t-27 -16.5t-33.5 -7q-24 0 -60 19.5t-43 41.5l-8 11q-6 18 -6 26q7 11 10 26t4.5 33.5t3.5 28.5v4q-1 4 -10 18t-12 17 q-17 30 -35 103q-4 13 -28.5 67.5t-24.5 85.5q-11 50 -32.5 100t-55.5 115t-47 94v5q-1 3 -5.5 19t-9.5 31.5t-12.5 37.5t-15 40t-15 34.5t-15.5 26t-15 9.5h-7l-12 -53q0 -36 -9 -76t-18.5 -66.5t-9.5 -29.5l2 -12q-31 -158 -67 -289q-10 -39 -34.5 -115t-41 -133 t-16.5 -78v-53q-25 -42 -51 -60t-62 -18q-8 0 -68 12l-12 4q-12 5 -29 13.5t-34 19.5t-29 27.5t-12 34.5q-15 107 -56 245q-17 57 -45 194t-53 208q0 9 -11.5 25.5t-11.5 21.5q0 3 3 6q-10 27 -32.5 80t-40 100.5t-44.5 126.5q0 30 -30 81t-30 85z" />
<glyph unicode="X" horiz-adv-x="1302" d="M102 1085q0 37 15 74l18 45q10 8 21 29l10 14l-2 -2q1 1 6 9t6.5 10t6.5 9t8 9.5t8 7.5t9.5 7t10 5t12 4t13.5 1q16 0 28 -8t15.5 -13t11.5 -20l8 -13l29 -43q9 -19 33.5 -42t27.5 -31l19 -25h-2l18 -22q3 0 36.5 -44t82 -102.5t80.5 -85.5l100 148h-2l72 98q5 16 51 74 l59 71q11 7 20.5 31.5t23.5 43.5t38 19q51 0 122 -47t71 -104q0 -41 -22 -78t-49 -58.5t-62 -48t-49 -42.5v2l-15 -19q-14 -14 -47 -61l-6 -8q-17 -23 -69 -83t-70 -96q11 -29 74 -98t102 -100l108 -101v2l29 -18q16 -25 34.5 -43t29.5 -25t18.5 -19t7.5 -32 q0 -37 -25.5 -109.5t-64.5 -72.5q-11 0 -31.5 10t-27.5 19l-33 53q-2 0 -8 6l-15 12q-25 24 -44 49t-42.5 45.5t-79.5 59.5l-26 29h2q-15 18 -31 34l-35 33q-2 2 -16 17t-25 26t-25.5 23.5t-23.5 15.5q-9 -6 -43 -57t-61 -72l-4 -14l-31 -49q-3 0 -23.5 -22t-47 -54 t-40.5 -55q-8 -8 -8 -9q-7 -30 -42.5 -70t-82.5 -40q-10 0 -16 4h-23l-30 51l-9 8v-2q-10 9 -15.5 16t-10 25.5t-4.5 48.5q0 1 1 3t1 3v5q1 14 8.5 24.5t15.5 15.5t23 13l10 6l70 104l75 97q18 23 48.5 62t52 67t35.5 47l2 6l-21 14q-14 9 -45 45l-67 70q-6 8 -27 29v-2 l-27 22q-2 6 -39 44t-63 54l-27 17l2 -2q-23 15 -31 20.5t-24.5 21t-22.5 33.5t-6 41z" />
<glyph unicode="Y" horiz-adv-x="1392" d="M102 1294q0 16 4.5 24.5t9 11t20 6.5t24.5 7h6q1 -3 8.5 -5.5t9.5 -2.5h4q2 0 18 4t19 4h99q5 -14 30.5 -19t32.5 -17q16 -28 32 -93t34 -94q30 -66 103.5 -174.5t98.5 -157.5l25 -47q10 -27 74 -151l6 -6l6 6q26 45 39 123q45 84 119 260q59 145 69 153q-2 2 -2 4 q1 0 6 19.5t16 52.5t23 58l2 10q7 14 9.5 37.5t9 35t28.5 11.5q61 0 124 -27t81 -80v-2q0 -10 -4.5 -20t-14.5 -23.5t-11 -15.5l-33 -72q-2 -3 -12 -32t-31.5 -76.5t-50.5 -96.5q-33 -25 -55 -84.5t-40.5 -121t-40.5 -85.5q-10 -11 -14.5 -19.5t-7.5 -19t-21 -46.5t-49 -89 v-82q0 -12 -20 -31t-21 -20q-24 -35 -57 -99.5t-47 -86.5l-19 -16l-12 -25q-15 -30 -41 -53l-22 -47l-19 -19q0 -1 -4 -7t-4 -7l-25 -41q0 -1 -2 -9.5t-2 -9.5l-18 -18q-8 -8 -8 -10q0 -33 -38 -70t-77 -37q-11 0 -19.5 5t-17 13t-14.5 11l-39 20q-7 5 -20 26.5t-13 31.5 q0 2 2 11.5t2 10.5l37 25q2 1 9.5 20t9.5 21q0 1 7 11t7 11l24 41q7 12 23.5 32t28.5 35t12 21l20 33q0 2 4 10t5 9l18 24q9 20 20.5 57.5t20.5 57.5l9.5 19t9 18.5t7 16.5t6.5 18t3.5 17.5t1.5 20.5v19l-23 29q-88 106 -88 139q-60 117 -120 214.5t-72 119.5l-47 69l-29 35 l-117 205q-3 5 -14 17.5t-16 22t-5 21.5z" />
<glyph unicode="Z" horiz-adv-x="1396" d="M102 1313l2 26l25 25l21 6q19 -3 29 -5t12 -2.5t3.5 -2t4.5 -2.5l22 -6h-2q39 -5 114.5 -9.5t112.5 -9.5l41 -6q20 -2 66 -2q45 0 137 9t137 9l45 -4q24 0 65 9.5t67 9.5q24 -3 48.5 -17.5t38 -26.5t39.5 -38l19 -19v3l25 -17h-3q39 -23 50 -39q10 -16 12 -37 q-17 -31 -25 -39v2l-10 -14l-12 -33q-20 -54 -64 -73q-59 -59 -196 -234v2l-19 -26q-14 -25 -29.5 -46.5t-34.5 -44t-28 -34.5l-22 -31v2l-37 -57q-37 -58 -64 -76q-15 -18 -37 -46.5t-42.5 -53t-47.5 -50.5h2q-9 -11 -27.5 -28.5t-31.5 -34t-21 -35.5q29 -29 97 -29 q7 0 21.5 1t21.5 1q6 0 17.5 -1t17.5 -1h137q15 0 41 -3t43 -3l20 6h84q25 0 75 -4t75 -4l53 6q3 1 8 3t14.5 3t28.5 1q17 -19 33.5 -51.5t19.5 -55.5v-12q0 -28 -17 -47t-44 -19h-25l-18 12h-19q-17 0 -20 17l-6 10l2 12h-2q-1 0 -18 -15t-44 -17h-63q-15 -5 -19 -9l-22 9 h-43l-16 -7l-54 -6q-30 -6 -59 -6h-64l-14 8l-22 -8h-168q-54 0 -164 -8l-105 -6q-20 4 -28 4q-27 0 -48.5 28t-30.5 57.5t-13 57.5v11q0 38 49 81v-2l12 11q9 13 104 135l52 67q54 57 76 80.5t61 70.5t63 83l129 203q17 27 67.5 87t65.5 85l25 32q24 28 37 58 q-59 -3 -111 -15q-72 -18 -219 -18h-61q-14 0 -41 -5t-43 -5q-19 0 -25 6q-59 -19 -102 -19q-62 0 -115 75.5t-72 150.5z" />
<glyph unicode="\" horiz-adv-x="882" d="M102 1206q0 24 20.5 42t50.5 26.5t55 12t44 3.5l9 2q13 0 30 -41.5t28 -82.5l11 -42q19 -19 53.5 -134.5t53.5 -147.5q3 -10 15.5 -34t12.5 -38q11 -22 26.5 -73.5t29.5 -80.5q70 -153 112 -276q1 -2 3 -7.5t4 -10t2 -5.5l16 -26q0 -4 6 -10q13 -29 31.5 -87.5 t29.5 -84.5l23 -52v-14q0 -12 6 -22.5t6 -18.5q0 -9 -3.5 -28t-8.5 -19q-4 0 -10.5 2.5t-14 6.5t-10.5 5l-33 35q-10 0 -19 8t-19 22.5t-13 18.5l-24 27q-24 27 -67 117t-48 98l-29 76q-23 46 -52 119t-64 147q-9 10 -11 12q2 4 2 6q0 10 -13.5 42t-37 81.5t-24.5 50.5 l-17 33q-65 151 -114 244q-4 8 -17.5 27.5t-22 36.5t-8.5 34z" />
<glyph unicode="_" horiz-adv-x="913" d="M-201 -111q2 4 8.5 10.5t10.5 6.5h411q23 -6 60 -6q19 0 58 3t59 3t57 -3t57 -3l31 10h67q4 0 39 3t39 3h47q22 0 67 -3t69 -3q66 16 127 16q9 0 26 -3t33 -3q15 0 47 3t47 3h15q4 -4 4 -10l-4 -10v-6q0 -5 10 -27t10 -27q0 -21 -35 -30l-29 30h-12q-8 0 -24 -5t-25 -5 q-23 0 -38.5 8.5t-24.5 8.5l-11 -7h-6q-1 0 -18.5 5.5t-18.5 5.5h-12q0 -1 1 -6t1 -7q0 -1 -13 -5t-31 -9t-36.5 -9.5t-30.5 -7.5l-12 -3h-8q-45 10 -57 10h-15q-6 6 -18 6h-21q-1 0 -13.5 -5t-14.5 -5h-15q-4 0 -38 -5.5t-37 -5.5h-15q-12 0 -16 -6q-1 0 -13 1t-20 1 q-40 0 -156.5 -19.5t-173.5 -23.5q-95 -4 -129 -16h-120q-8 -6 -25 -6h-10l-58 22l-14 15q0 6 -15.5 35t-17.5 38v43z" />
<glyph unicode="a" horiz-adv-x="1028" d="M102 328v37q0 64 18.5 120t52 99.5t66 73t74.5 59.5q11 7 36.5 23.5t36.5 22.5t31.5 15t42 12t48.5 3q48 0 168 -52h6l6 7q-2 4 -2 22q0 19 6 28.5t23 20.5h12q23 0 65.5 -10t85 -35t42.5 -57v-6q-12 -55 -23.5 -127.5t-11.5 -91.5q0 -62 20 -101v-147q6 -11 8 -13l7 -6 q0 -5 -4.5 -10t-4.5 -18q0 -7 0.5 -17t0.5 -17l1 -7q-1 0 -3 -17t-5 -42t-6 -38v-51q0 -6 6 -12l21 -29q0 -14 -43 -48t-54 -34q-24 0 -65.5 28.5t-54.5 49.5l-27 51h-6l-19 -12h-159q-18 7 -55 8.5t-48 3.5q-16 3 -31.5 9.5t-36 19t-28.5 16.5l-63 31q0 1 -13 14l-69 58 l-13 18q-39 39 -39 148zM356 305q0 -83 40 -114t124 -31q32 0 48 9t27.5 26t22.5 24q1 1 17 11t21.5 14.5t17.5 14t18.5 18.5t9.5 18l13 33l-13 100q-6 12 -6 27l-8 127q-18 14 -70 14q-191 0 -247 -205l-15 -39v-47z" />
<glyph unicode="b" horiz-adv-x="1126" d="M102 1272q0 30 19 39h33q57 0 106.5 -11t90 -45t40.5 -88q0 -17 -6 -42t-6 -42q0 -5 1 -13l1 -9q-2 -5 -7 -35.5t-5 -34.5v-20q0 -2 -3 -13t-4 -12v-6q7 -28 7 -70v-102l4 -6h8q10 0 22 6q54 19 75.5 26t64.5 16t78 9q44 0 69 -6l131 -45q77 -27 140 -126t63 -228v-41 q-29 -49 -35 -78q0 -41 -47.5 -120.5t-107.5 -108.5q-2 -1 -7.5 -2.5t-10.5 -2.5t-5 -2l-23 -18l-34 -27l-54 -18q-16 -15 -37.5 -23t-36.5 -9t-42 -1h-43q-94 48 -154 103h-6q-6 0 -41 -30t-61 -30q-1 0 -10 1t-11 1q-63 35 -92 65.5t-29 80.5q0 92 19 135l-17 364 q-1 22 -5.5 74t-4.5 84v256q0 8 -3.5 48.5t-4.5 47.5v33q0 8 -9.5 36t-9.5 40zM379 406q0 -108 73.5 -174t165.5 -66q66 0 115 37t62 108q13 13 16.5 29t3.5 53v101q0 143 -194 143h-19q-36 0 -60 -2t-57.5 -12t-53.5 -28.5t-35 -54.5t-15 -87v-23q0 -4 -1 -12t-1 -12z" />
<glyph unicode="c" horiz-adv-x="950" d="M102 406v6q17 205 107 295l80 65l86 62q58 28 88 28q33 0 49 -6q10 -11 64.5 -27.5t72.5 -31.5l37 -31q8 -6 31.5 -19.5t37 -27.5t13.5 -33q0 -39 -32.5 -63.5t-73.5 -24.5q-18 0 -54 7t-53 7q-43 0 -53 -8q-6 -4 -15.5 -11.5t-34.5 -32.5t-44 -52t-34.5 -68.5 t-15.5 -83.5v-6q11 -44 11 -47l20 -49q9 -25 27.5 -45.5t40.5 -20.5q44 0 78 26t50 57t29 61t17 33h53q12 -2 47.5 -17t76 -46t40.5 -60v-4q0 -7 -6 -13l-37 -59q-9 -13 -24.5 -29.5t-28.5 -27.5t-28.5 -24t-18.5 -15q-65 -53 -92 -62.5t-111 -9.5h-6q-48 5 -72.5 17 t-28.5 12q-53 26 -92 57t-54 48.5t-41.5 58.5t-35.5 53q-10 14 -17 25t-11.5 18.5t-10 22.5t-8 22t-10.5 33t-13 41z" />
<glyph unicode="d" horiz-adv-x="1126" d="M102 336v121q36 73 56 116q5 12 16 24t25 25t20 19q2 2 55 76q6 9 15.5 13t25 5.5t21.5 3.5q81 43 221 72h25q6 0 24 -3t25 -3h4q6 -1 42.5 -13t41.5 -14l31 -22l32 -13l9 9q-3 27 -3 55q0 31 3.5 94t3.5 94v92q0 13 -3.5 43t-3.5 46q0 20 1.5 51.5t1.5 32.5q-1 16 -8 49 t-7 53q0 37 31 37q42 0 97.5 -16t99.5 -44q0 -67 10 -185.5t10 -188.5q0 -106 -53 -125h18q0 -72 15 -142q0 -9 -27 -12.5t-27 -5.5q0 -1 21.5 -7t21.5 -20q0 -4 -10 -14v-61q10 -5 10 -21v-12q0 -3 -3 -25.5t-8.5 -54.5t-10.5 -49q12 -10 12 -27q0 -6 -9 -13.5t-9 -13.5v-2 l6 -16v-6q-6 -10 -6 -12t7.5 -12t10.5 -11v-2q0 -9 -16.5 -13t-16.5 -9q0 -4 12.5 -12.5t12.5 -22.5q0 -16 -5 -44.5t-5 -43.5v-37q10 -10 10 -15q0 -17 -4 -31.5t-4 -29.5q0 -21 4 -30.5t4 -14.5q0 -12 -27.5 -30.5t-55.5 -31.5l-28 -12q-13 0 -20.5 4.5t-16 12.5t-16.5 12 q-33 16 -42 27t-9 40q0 12 4 22t4 17q0 4 -8 18.5t-12 14.5h-3q-7 -7 -29 -13.5t-32 -15.5q-54 -38 -149 -38h-29q-95 0 -150 28l-16 17q-25 0 -68 32.5t-49 32.5l-71 80q0 5 -25 54t-25 67zM317 319q0 -79 35.5 -111t110.5 -32h6q39 5 99.5 25.5t60.5 34.5l55 28 q21 21 49 27h2q5 0 12 -2t11 -2h10q4 0 7 42.5t3 73.5q0 49 -8.5 119t-24.5 78l-57 29q-39 8 -53 12h-6q-85 -25 -118 -39t-71 -45l-20 -16q-9 -8 -20.5 -28t-14.5 -24l-55 -71l-13 -72v-27z" />
<glyph unicode="e" horiz-adv-x="1034" d="M102 414q0 13 4 41v2q0 1 17 60t30.5 94.5t22.5 35.5l2 17l23 32l2 11q4 9 9.5 16t14.5 15.5t13 13.5l20 20l29 21q29 21 51 32t32.5 13.5t26.5 3.5q74 0 150 -13l74 -12q10 -10 36 -24.5t31 -18.5l10 -8l-2 -2q0 -4 5.5 -11t15.5 -18.5t12 -13.5l19 -14q69 -85 69 -148 q0 -76 -84 -137q-1 -3 -51.5 -26.5t-52.5 -26.5l-8 -4l-95 -46q-12 0 -112.5 -29.5t-100.5 -45.5q0 -61 51.5 -98t94.5 -37q87 0 181 49t142 112l19 -4q40 -7 82.5 -57.5t46.5 -77.5q-2 -7 -26 -20t-29 -21q-3 -16 -8.5 -21t-16 -7t-16.5 -7l-7 -4q-2 -1 -7.5 -3.5 t-9.5 -4.5t-5 -2l2 2q-6 0 -37 -17t-31 -24l2 -2l-10 -8l-25 -8q-24 -9 -32.5 -11.5t-35 -9.5t-46.5 -9.5t-51 -5.5t-64 -3q-97 0 -121 32l-41 23l-34 27q-6 4 -13 15t-12.5 19.5t-7.5 8.5l-2 -2l-33 47q-1 1 -11.5 16t-14 19.5t-14 21t-15.5 26t-14.5 27.5t-14 31.5 t-11.5 34t-10 38.5t-5.5 40.5t-2.5 44.5zM315 485l11 -12h8q54 0 167.5 52t119.5 87v4q0 19 -20 31t-39.5 15.5t-33.5 3.5q-84 0 -145 -70q-6 -4 -15.5 -12.5t-28 -37t-24.5 -61.5z" />
<glyph unicode="f" horiz-adv-x="792" d="M102 1012q7 21 7 47q0 15 -3.5 46t-3.5 46v33q0 1 3.5 12t3.5 12l-1 18q-2 18 -2 29q0 8 3.5 28.5t16 54t30.5 51.5l14 32q2 3 4.5 15t5.5 16l35 35q8 4 39 4q57 29 141 29q28 0 37 -9h98l11 -10l82 -14q26 -7 46.5 -23t20.5 -37q0 -45 -29 -67.5t-75 -22.5 q-24 0 -67 13.5t-64 13.5h-6q-18 -5 -50 -33t-32 -45l-23 -35l-4 -10l-14 -131q0 -17 -1 -50t-1 -52v-17q0 -4 5 -43t5 -43v-41q0 -17 5 -54.5t5 -57.5v-33q27 -27 92 -27q66 0 110 3t46 3h20q5 0 19 -14q4 -2 16 -15.5t25.5 -38t13.5 -44.5q0 -14 -6 -23t-17.5 -12.5 t-21.5 -4.5t-25 -1q-5 0 -15 3t-15 3h-4q-8 -2 -20.5 -5.5t-24.5 -5t-35 -1.5q-17 0 -46 1l-30 1q-66 0 -66 -31v-8q11 -113 11 -129v-66q0 -3 3 -30.5t3 -30.5v-68q0 -12 7 -42t7 -60v-10q0 -9 -34.5 -41.5t-51.5 -32.5q-1 0 -6 1t-6 1l-51 24q-35 0 -45 62v104 q-12 44 -12 131v14v11q0 90 -15 133v25q0 11 -6.5 35.5t-7.5 35.5l-13 133q-4 38 -41 310z" />
<glyph unicode="g" horiz-adv-x="1058" d="M82 326q0 78 49 168t111 143h-2l20 20q20 20 46.5 40t70 44.5t102.5 40t123 15.5q51 0 105 -33v4q0 53 51 53q20 -4 24 -4q6 -2 15.5 -5t33.5 -13.5t42.5 -21t33.5 -25t15 -27.5v-147q-4 -4 -4 -17q0 -16 4 -24v-125q0 -34 7 -89t7 -81v-9q0 -6 -6 -30v-2q-2 -4 -4 -4 l18 -23q0 -2 -1 -8t-1 -8v-33q0 -8 4 -41.5t4 -63.5v-45q0 -5 -1 -15.5t-1 -14.5v-23q1 -5 4.5 -15.5t3.5 -12.5v-119l-6 -8v-31q0 -3 1 -9.5t1 -9.5q0 -47 -4 -59l-37 -68q7 -5 7 -18v-10q-5 -9 -7 -15v-32q-46 -46 -71.5 -92.5t-34.5 -55.5v2q-17 -21 -17 -28l-100 -54v2 l-123 -61q-94 -23 -112 -25h-21q-26 0 -57 10t-31 33l-4 -14l-45 37q-9 0 -16 10l-21 14h2q-24 22 -33.5 33t-19 35.5t-14.5 65.5q0 32 11.5 78.5t22.5 70.5q26 85 69.5 126.5t90.5 41.5q20 0 37 -6t33.5 -22t23.5 -23.5t25 -30.5v2l8 -6q1 -1 12 -27q0 -32 -26 -32l-29 -15 q-37 -29 -54.5 -78.5t-17.5 -91.5q0 -18 4.5 -38.5t12.5 -20.5q9 0 19.5 2t19 4t20 7t19 8.5t19 10t18 10.5t17 11.5t15 10.5t14.5 10t11 8l30 16q57 16 94 97t40 165v3q0 3 -0.5 9t-0.5 14v17t-0.5 17.5t-0.5 17v14.5v119q0 81 -17 154l-4 4l-4 -2h2q-36 -28 -63 -31 q-43 -27 -88.5 -39t-122.5 -12q-27 0 -59.5 5t-79.5 18t-92.5 45.5t-74.5 78.5q-6 11 -8 13l-10 24l2 -2q-29 44 -39 70.5t-10 73.5zM307 289q0 -50 15.5 -78.5t62.5 -28.5h12q68 0 150 27l43 20q11 0 37 13h-4l90 49q14 0 16 -2q0 45 -10 65v133q-6 13 -6.5 40.5t-1.5 35.5 l-41 12q-33 11 -52 11q-80 0 -143 -60q-55 -20 -111.5 -102.5t-56.5 -134.5z" />
<glyph unicode="h" horiz-adv-x="1021" d="M102 1534v4q0 13 12 21t25 8h19q2 -1 25.5 -6.5t25.5 -6.5h27q33 0 69.5 -22t42.5 -53v-64q0 -46 -3 -137.5t-3 -138.5q0 -14 0.5 -42.5t1.5 -51.5v-23q0 -13 3.5 -61.5t6.5 -55.5v-22q0 -1 2 -11.5t2 -11.5v-69q0 -6 11 -39h4q16 5 67 36t86 31q394 0 394 -303 q0 -35 -3.5 -60.5t-3.5 -33.5v-113q0 -84 -30 -112v-4q0 -4 8 -16.5t8 -33.5q0 -12 -6 -18v-111q-1 -1 -19.5 -17.5t-34 -28t-20.5 -11.5h-12q-57 0 -99 27.5t-42 60.5v2q14 52 14 119q0 1 -2 9.5t-2 10.5v4q10 67 10 244v123q-3 14 -4 31.5t-6 30.5t-21 40l-45 13 q-25 0 -60 -22t-56 -46q-10 -13 -18.5 -58.5t-18.5 -62.5q-31 -40 -37 -55q-27 -66 -27 -258q0 -13 3 -33t3 -26v-11q-2 -3 -13.5 -16t-16 -16.5t-14 -11.5t-18.5 -10.5t-20 -2.5q-31 0 -80 32t-55 60q0 8 1 23.5t1 23.5q0 30 -5 93.5t-5 95.5v84q0 37 -6 55l-4 10l4 10v56 q0 3 -2 23.5t-2 23.5v102q0 3 -3 38.5t-3 39.5v29q0 4 -4 20t-4 17q-9 39 -9 110q0 15 4.5 29t4.5 18v6q-9 27 -13.5 59t-5.5 55t-2 61t-2 57q0 6 -5 63.5t-5 63.5v51q0 6 -7.5 43t-7.5 39z" />
<glyph unicode="i" horiz-adv-x="450" d="M33 1274q0 12 3 25.5t5.5 22.5t10.5 26.5t10.5 23t14 27t13.5 24.5q2 8 6.5 30.5t7.5 32.5t9 24t15 20t22 6l14 -2q26 0 100 -28.5t74 -61.5q0 -5 -18 -39.5t-45.5 -78t-67.5 -78t-76 -34.5h-16l-25 23l-10 4q-4 0 -4 6q-4 5 -8 12t-5.5 8.5t-5.5 4t-8.5 2.5h-15.5z M80 768v6l6 37l14 10h127q35 0 78 -30.5t43 -65.5q0 -15 -13 -46.5t-13 -43.5v-51q0 -33 -7 -54v-14q9 -38 9 -67q0 -18 -1 -63t-1 -50q1 0 2 -3.5t2 -7.5t2 -6v-8q-6 -18 -6 -39v-129q0 -2 5 -34t7 -37v-15q-2 -1 -9 -14t-10 -16q-5 -9 -32 -18t-39 -9h-11q-85 23 -110 86 q-12 49 -12 143v72q0 39 -7 99t-8 87q0 3 2 27.5t2 26.5v8q0 105 -4 158q0 10 -8 30.5t-8 30.5z" />
<glyph unicode="j" horiz-adv-x="454" d="M-127 -434q0 14 4 18q116 31 189 120t73 228v54q0 13 5.5 53.5t5.5 56.5q0 2 -1.5 18t-1.5 25q0 3 4.5 27t4.5 37v26q0 28 -10 96.5t-13 94.5q6 12 6 33v4q0 43 -8 91.5t-8 49.5v84q0 4 -2 41.5t-2 42.5v8q0 22 4 31.5t20 17.5h29h15h17.5t18 -0.5t20 -1t19 -1.5 t19.5 -2.5t17.5 -3.5t17.5 -5t14 -7t12 -9q16 -6 22.5 -21t10.5 -16v-35l-21 -74v-315q11 -74 11 -86v-2q0 -48 -4 -89t-10 -87t-9 -78v-90q0 -111 -33 -144q-7 -8 -9 -23t-13 -26l-35 -49q-4 0 -27.5 -23t-23.5 -26l-58 -29q-10 -21 -63 -42t-90 -21h-29q-15 8 -38 17 t-50 22v10zM129 1188v2q4 18 59 134.5t103 211.5h28q28 0 55.5 -10.5t45 -21.5t47.5 -34v-14q-9 -9 -28 -34.5t-23 -37.5q-6 -6 -37 -62.5t-37 -59.5l-29 -27q-4 -13 -18.5 -24t-22.5 -11l-4 -6q-36 -43 -57 -43h-4q-17 0 -47.5 13t-30.5 24z" />
<glyph unicode="k" horiz-adv-x="968" d="M102 1286q0 22 12 32.5t48 10.5q83 0 129.5 -16.5t73.5 -71.5v-18q0 -39 -12.5 -122.5t-14.5 -131.5q12 -129 12 -267v-120l6 -47v-41l41 41q5 7 29.5 44.5t32.5 47.5l18 35l15 10h-5q34 34 75.5 112t58.5 140q7 20 43 20q1 0 6 -1t6 -1q2 0 19 -4t28.5 -7t31 -9 t33 -12.5t27 -14.5t20.5 -18.5t7 -22.5q0 -25 -27 -64t-71 -91.5t-64 -84.5q-14 -19 -46.5 -56t-54.5 -63.5t-22 -31.5l-29 -43l-10 -17l4 -8l-24 -24v-4q0 -23 45 -43l-2 2l34 -19h-2l101 -65q39 -36 99 -78.5t93 -57.5q0 -24 -36.5 -54.5t-65.5 -43.5q-14 0 -27 2t-27.5 9 t-23.5 11.5t-26.5 17.5t-24 18t-28 22.5t-27.5 22.5q-58 47 -213 94q-2 -4 -2 -21q0 -30 8 -82.5t8 -78.5t-36.5 -48t-57.5 -22q-34 2 -78.5 31t-44.5 63q0 13 3 25.5t3 15.5l-20 264q-5 62 -9 284t-24 337v248q0 7 -7.5 27t-7.5 38z" />
<glyph unicode="l" horiz-adv-x="485" d="M102 1475v16q0 17 9 31t26 14h6q8 -1 36.5 -3t45 -4.5t44 -7t44.5 -12t35 -19t26.5 -28.5t8.5 -39q0 -9 -4.5 -24.5t-5.5 -20.5q-4 -23 -8.5 -64.5t-8.5 -64.5v-364q0 -20 -7 -62.5t-7 -46.5q0 -1 0.5 -11.5t1 -25.5t0.5 -26q0 -17 -3 -28.5t-3 -18.5v-7q0 -4 2 -22.5 t2 -22.5v-522q0 -90 -31 -106h-24q-59 0 -107 51q-7 35 -9.5 52t-3.5 30.5t-4 61.5t-9 112v6q0 3 2 21l2 18q0 32 -8.5 92t-8.5 90q0 29 2 43q-8 5 -8 23q0 4 1 12t1 10q-6 18 -6 41v256q0 22 -2.5 90t-5.5 78q0 1 1 16t1 25q0 6 -6 43t-6 53q0 1 3 8t3 9q0 37 -10 127v96 q0 2 -3.5 13t-3.5 12z" />
<glyph unicode="m" horiz-adv-x="1431" d="M102 881v118q10 23 58 23q31 0 60 -4.5t57.5 -14t47.5 -29.5t23 -48q2 -13 4 -62.5t8 -70.5h2q10 0 22 6t24.5 15t17.5 11l16 9q17 10 37.5 20t30.5 10q76 0 132.5 -19.5t92.5 -74.5l23 -45q1 -2 3.5 -10t4.5 -13.5t6 -10.5t10 -5q8 0 14.5 6.5t13 18t9.5 14.5l27 33 l57 57q5 5 15 17.5t19 20t21 11.5h31q88 0 169 -48t124 -124l8 -12t6 -10.5t4 -12.5l11 -116v-97q-5 0 -9 -3t-4 -5q0 -5 6.5 -13.5t6.5 -21.5q0 -7 -3 -20.5t-3 -20.5q0 -5 6 -7.5t6 -8.5q0 -5 -3 -17t-3 -18q0 -5 12 -55v-2q0 -10 -3 -29t-3 -28t6 -21.5t6 -21.5 q0 -20 -8 -30t-27 -18l23 -12l6 -8q0 -4 -41 -39.5t-49 -36.5h-16q-9 0 -21.5 7.5t-19.5 9.5q-4 1 -16.5 4.5t-15.5 7t-7 15.5t-4 34v12q0 1 3 27t3 41q-1 30 -3.5 61.5t-2.5 38.5l-13 240q0 85 -15 137.5t-56 87.5h-7q-9 0 -26 -24.5t-17 -34.5l-47 -92q-1 -20 -15.5 -53.5 t-16.5 -47.5l-13 -73q0 -8 -5 -21t-5 -18l-23 -113q-1 -3 -9.5 -29.5t-8.5 -42.5q0 -11 6 -32.5t6 -40.5v-11q0 -1 -5 -6t-5 -6q2 0 -11 -17t-32.5 -34t-34.5 -17l-44 16q-44 17 -87 41.5t-43 45.5v14q0 9 3 22t3 21q0 16 -6 45t-6 43v72q0 56 -6 80v49q0 3 -2 25.5t-2 25.5 v10q-3 13 -8.5 53t-13 61.5t-21.5 21.5q-49 0 -96.5 -35t-69.5 -101q-10 -34 -10 -229v-106q0 -11 -6 -23v-2q0 -14 6 -39t6 -39v-14l-17 -29q-23 -30 -45 -42.5t-57 -12.5q-38 0 -91.5 36.5t-53.5 77.5q0 32 11 97t11 96v6q0 2 -4 39t-8 80t-4 59v146q0 2 -3 17.5t-3 17.5 l-4 167q0 2 -3.5 25t-3.5 25z" />
<glyph unicode="n" horiz-adv-x="1048" d="M102 809v37q13 18 35 18q82 0 158 -26l43 -23q0 -3 11 -19t11 -18v-90q5 -4 5 -6h4q19 0 51.5 36.5t36.5 39.5l30 14l21 16q56 33 131 33q12 0 29 -3l16 -3q5 -2 50 -7t84.5 -19.5t60.5 -43.5q1 -1 6.5 -14t7.5 -16q0 -21 23.5 -65t23.5 -70v-281q-10 -87 -10 -104v-29 q1 -10 8.5 -31.5t7.5 -34.5q0 -22 -41 -47.5t-65 -25.5h-17l-4 6q-8 7 -26.5 19.5t-28.5 20.5t-18.5 23t-8.5 33q0 20 3 39t3 47v100q0 3 3.5 32t3.5 32q0 7 -3 43t-4 41v43t-1.5 49.5t-5.5 42t-14 45.5t-26 35h-6q-59 -24 -96 -52t-64 -77l-49 -74q0 -1 -2 -11t-2 -11 q-3 -8 -14 -36t-15.5 -39.5t-14 -37t-13.5 -41.5t-9.5 -38.5t-7.5 -42.5t-2 -40v-39q1 -1 7 -18t6 -19v-10q0 -48 -38.5 -70t-88.5 -22q-6 0 -11.5 0.5t-11 2.5t-9.5 4t-9.5 5.5t-8 5.5t-8.5 7.5t-8 7.5l-8 8l-8 8q0 11 -23.5 31.5t-23.5 46.5q0 23 6 39v65q0 78 -23 338v23 l-9.5 57t-13 76.5t-9.5 36.5v33q0 1 -3.5 7t-3.5 7z" />
<glyph unicode="o" horiz-adv-x="1046" d="M102 412q0 73 20.5 131t78.5 143l28 33q2 4 2 8l72 49l21 10l-2 -2l20 15q53 29 78 41.5t69.5 25.5t88.5 13q18 0 56 -11.5t50 -21.5l23 -21h-2q28 -14 42.5 -26.5t28.5 -36.5v2l12 -25q0 -1 7 -7.5t10 -8.5l63 -53q2 -3 11.5 -16.5t13 -19.5t12 -19t12.5 -21.5t10 -21.5 t9 -23t5.5 -22t2.5 -23q0 -48 -10.5 -89t-36 -84t-45 -69t-61.5 -76l-15 -18q-24 -35 -82 -68l-47 -26h2l-20 -11q-9 0 -17 -8q-93 -51 -172 -51h-39l-6 6h-14q-131 43 -205 155.5t-74 246.5zM315 285q10 -43 18.5 -62t26.5 -30l-2 2q19 -7 43 -7q38 0 72 12.5t66.5 39 t52.5 46.5t51 56l37 41q33 16 53.5 72t20.5 106q0 29 -28.5 67t-76.5 38q-93 0 -170 -54q-6 -12 -22.5 -23.5t-26.5 -13.5l-18 -14q-25 -25 -29 -31l-49 -81q-7 -16 -9 -33t-2 -37.5t-1 -32.5z" />
<glyph unicode="p" horiz-adv-x="1189" d="M102 823q0 32 25 35h39q124 0 173 -17q60 -21 60 -67v-45q-4 -10 -6 -10v-4q0 -15 15 -15q23 9 59 33.5t72 44.5t69 25l72 12q3 0 10.5 3t16.5 3q20 0 42 -3t48 -9t42 -10.5t46 -13.5t39 -11q69 -55 127 -135q-2 -2 -2 -8l6 -10q6 -10 12 -23t6 -20q6 -9 7.5 -36t6.5 -32 v-8q0 -251 -113 -375.5t-308 -124.5q-84 0 -167.5 21t-129.5 55q0 -5 1 -31.5t1 -30.5q-2 -22 -10.5 -83t-8.5 -93v-35q0 -26 -6 -53v-184q0 -24 7 -68.5t7 -66.5q0 -14 -5 -25.5t-20 -23.5t-25 -18.5t-36 -22.5h-6q-7 0 -48 9t-46 13l-18 29q-6 24 -6 53q0 11 1 29t1 24 q0 2 -3.5 22.5t-3.5 22.5v158q0 48 -6 66v51q0 9 6.5 107.5t6.5 150.5v28l-13 107q0 52 -7 145.5t-7 186.5q0 143 2 168q-2 11 -13.5 50t-11.5 60zM395 393q0 -89 87.5 -156t189.5 -67q89 0 147 59.5t58 180.5q0 225 -170 225q-74 0 -183 -45q-129 -93 -129 -197z" />
<glyph unicode="q" horiz-adv-x="991" d="M102 336q0 57 19 135q0 25 6.5 43t15 25.5t15 14t6.5 11.5l55 72q31 31 35 33l65 71q7 8 13 13t12.5 8.5t10.5 4.5t14 4t16 5q2 0 12 4.5t11 5.5q31 13 94 13q25 0 52.5 -5.5t61.5 -15.5t52 -14q12 5 12 24q0 4 -1 13.5t-1 13.5q0 23 24 23q45 0 103 -16t84 -52v-4 q0 -16 -9.5 -60.5t-9.5 -68.5v-211q0 -128 -11 -284t-25 -195v-115q-7 -7 -7 -16q0 -6 7 -13q12 -58 12 -135q0 -14 -1 -38.5t-1 -35.5l6 -12v-88q0 -14 -8 -37t-8 -39q16 -9 16 -53q0 -10 -7.5 -16.5t-20.5 -12t-17 -8.5l-33 -26h-12q-24 0 -64.5 15t-40.5 34q0 1 3.5 6 t3.5 6v2q0 4 -3.5 10.5t-3.5 10.5v10q7 7 7 22v88q0 25 6 43l-13 156q0 2 -2 16t-2 17v209q-4 4 -6 13.5t-3 24t-3 23.5l-10 10q-50 -20 -84 -20q-20 0 -56 4l-98 23q-16 4 -29 11.5t-27.5 19.5t-25.5 18l-39 22q-38 30 -59 49t-51 51.5t-44 67t-14 72.5zM340 328 q0 -3 1 -19.5t1 -19.5q4 -8 4 -10l16 -46q12 -24 47 -56t64 -32q90 0 126.5 10.5t59.5 57.5h3q12 0 12 260q0 148 -62 148h-51q-33 0 -49 -11l-33 -28q-7 -6 -32 -25.5t-38.5 -34.5t-23.5 -35v-4q-29 -48 -37 -77.5t-8 -77.5z" />
<glyph unicode="r" horiz-adv-x="854" d="M102 801q0 15 17 21.5t31 6.5q11 0 33 -7.5t28 -8.5q131 -18 131 -119q0 -17 -7 -37t-9 -30q0 -2 1 -12t1 -11q20 0 38.5 11.5t33.5 28t31.5 33.5t39 28.5t47.5 11.5h8q4 -1 34 -8t59 -16t61 -22.5t52 -34.5t20 -46q-27 -60 -27 -70v-2q-11 -19 -31.5 -33.5t-35.5 -20 t-42 -13.5h-6q-14 5 -41 30t-51 25l-22 -17l-84 -100q-1 -2 -6.5 -7t-11.5 -9.5t-7 -5.5q-12 -14 -31 -70q-1 -3 -10.5 -22.5t-12.5 -27.5t-7 -23t-4 -27q0 -36 12 -94.5t12 -86.5q0 -30 -25 -49.5t-55 -19.5q-41 0 -90 49.5t-49 89.5q0 8 2 23t2 24q0 31 -7 91t-7 91v39 q-11 183 -13 312z" />
<glyph unicode="s" horiz-adv-x="868" d="M102 182q3 10 8 37.5t11 38.5l18 27q1 5 1 16t1.5 16.5t5.5 12t13.5 9.5t25.5 3q11 0 17 -2l84 -23l35 -16q1 0 16 -4t21 -9.5t8 -15.5l2 -8q0 -1 -3 -4.5t-6 -7.5t-4 -6l-39 -41q-8 -11 -8 -33q0 -7 6 -43l7 -35q3 -3 14.5 -7.5t15.5 -4.5q9 2 27 10t27 10l10 2l49 39 l14 13l8 34q9 21 21 41.5t17 33t5 28.5q0 23 -41 52.5t-92 29.5l-32 26q-6 6 -57 39.5t-54 36.5l-39 39q-11 10 -31.5 25t-31.5 24.5t-20.5 29t-8.5 46.5v10q0 37 47 160l20 14q12 10 28 30t31.5 33t37.5 17l18 2q4 0 12 1t11 1q44 -2 110 -26l60 -23q4 -2 24 -2 q59 -9 121 -51.5t62 -93.5q0 -37 -26.5 -60.5t-66.5 -23.5q-54 0 -104 53q-3 4 -6 9.5t-5 8.5t-5.5 6t-8.5 5l-45 -9q-27 -21 -38 -34t-11 -31q0 -60 57 -100q138 -45 209.5 -84t90 -68.5t18.5 -73.5q0 -90 -4 -98l-23 -33l-6 -28q-3 -13 -11 -22.5t-20 -19t-18 -16.5 q-13 -16 -25.5 -29.5t-28.5 -25t-25 -18.5t-30 -17.5t-28.5 -14t-35 -15.5t-34.5 -15q-65 -30 -94 -33l-23 -4q-5 -2 -16 -3t-19.5 -1.5t-9.5 -1.5q-21 6 -60 26.5t-83.5 62t-52.5 83.5l-4 39z" />
<glyph unicode="t" horiz-adv-x="825" d="M102 535v6q0 3 5.5 28t5.5 27v8q0 15 -3.5 43t-3.5 41q0 25 7 39v109q0 4 3 31t3 30v4q0 110 -6 152v80q0 4 -2 44t-2 44q0 3 2 27.5t2 27.5q0 19 -11 37v94q0 13 14 19t29 6h17q29 0 64.5 -2.5t80.5 -16.5t49 -37v-125q0 -9 -5 -68.5t-7 -70.5q0 -22 6 -85.5t6 -82.5 q0 -60 -6 -78v-16q0 -12 3 -33t3 -33v-14q0 -2 -3 -13t-3 -12v-81q0 -25 -6 -31q0 -14 7 -17.5t22 -3.5q2 0 9.5 5.5t10.5 9.5l4 6q31 0 51.5 14.5t36.5 29.5t37 15q34 0 82.5 -39t48.5 -71v-4q-34 -39 -106 -68q-19 -7 -49 -28.5t-47 -28.5q-14 -10 -51 -23.5t-56 -32.5 v-30q0 -78 12 -115q9 -27 29 -68t33 -41l14 7q34 26 71.5 81t82.5 76h10q14 0 40.5 -6t33.5 -6l16 -12q1 -1 11.5 -6t18 -10t7.5 -9v-59l-23 -19q-9 -5 -23 -38t-20 -40q-41 -51 -101.5 -79.5t-125.5 -28.5q-69 0 -157.5 44.5t-110.5 98.5l-23 37v84q-15 29 -26 113.5 t-11 163.5z" />
<glyph unicode="u" horiz-adv-x="993" d="M102 518q0 65 10.5 155.5t10.5 133.5q0 5 -1 14.5t-1 14.5q1 3 8 9.5t8 6.5h45q51 0 80 -2.5t62.5 -11.5t49 -30.5t15.5 -55.5v-4q0 -6 -11.5 -31.5t-23.5 -40.5l-16 -158v-104q0 -2 3 -11.5t3 -11.5v-55q0 -48 6 -72l10 -61q3 -11 16 -26t25 -19h5q70 0 113.5 11.5 t75.5 45t45 93t13 155.5q0 9 -1 31.5t-1 35.5l-4 95v133q-8 8 -8 20v17q0 4 -3 9t-3 9q0 18 55 18q16 0 37 -1.5t56 -5.5t58 -15.5t23 -28.5v-10l-6 -6q-6 -12 -6 -29v-63q0 -14 -2 -34.5t-2 -31.5q0 -20 8 -88t8 -108v-164q0 -3 3 -32.5t3 -33.5v-39q0 -25 11.5 -81 t11.5 -83v-36l-12 -17q-3 -3 -68 -55h-8q-8 0 -15 2.5t-15.5 7t-12.5 6.5l-33 13q-22 0 -40.5 18t-18.5 47q0 8 3 22t3 23v21l-12 63l-11 6l-12 -18q-29 -32 -61 -39l-125 -33q-2 0 -17 -2t-18 -2h-17q-3 0 -23.5 5t-23.5 5q-31 0 -39 4l-47 23q-6 3 -27.5 13t-30.5 15 t-24.5 15t-25.5 21t-17 24q-22 43 -22 123q-19 100 -19 266z" />
<glyph unicode="v" horiz-adv-x="987" d="M94 813q0 49 105 49h16q135 0 147 -86q0 -5 4 -32.5t7 -28.5l49 -172q4 -15 11.5 -31.5t18 -36.5t13.5 -26l16 -35l-2 2l2 -4q23 23 44.5 64.5t21.5 55.5l24 48v10q0 1 9.5 12t9.5 19l57 120q11 16 17 37.5t7.5 35t9 23t21.5 9.5h111q10 0 25 -6h-2l30 -11l17 -28 q-86 -95 -133 -232q-7 -14 -21 -63t-31 -80l-18 -35q-46 -85 -76 -178q-6 -19 -11 -63.5t-10.5 -74t-31 -54.5t-70.5 -25q-36 0 -78.5 22t-62.5 52v10q0 3 1 9.5t1 10.5q0 31 -6 31l-25 111q-10 10 -10 16l-49 145q-12 14 -39.5 79t-30.5 100l-12 18q0 23 -18.5 58.5 t-18.5 56.5l-14 41l2 -2l-10 16q-17 25 -17 43z" />
<glyph unicode="w" horiz-adv-x="1351" d="M102 801q0 18 15.5 31.5t34.5 13.5h153q37 0 59.5 -29t22.5 -63v-41l12 -64q0 -1 3.5 -6t3.5 -6t-1.5 -8t-1.5 -11q1 -6 5.5 -19t5.5 -19q2 -8 14 -28t20.5 -43t8.5 -46q9 11 29 127.5t46 163.5v53l29 31h156q13 0 27 -14t22 -29q-2 -4 -2 -31q8 -105 39 -174l12 -29h-2 q20 -39 21 -55v-25q0 -12 5.5 -35t16.5 -32l-8 2q7 -9 22 -35t15 -31q2 0 6 15v-3q4 17 12 25l19 37q4 4 4 27q16 66 80 192l12 25q3 7 11 26t16 35t18 29v51q0 10 19 20.5t24 10.5h90q18 0 43 -25l10 -2v-27l-73 -133q-17 0 -17 -28l-14 -39q-2 -5 -8.5 -15t-11.5 -17.5 t-5 -10.5q0 -4 2 -6l-18 -72q-8 -34 -28 -98t-21 -66l-11 -22l5 4q-17 -52 -34.5 -87.5t-23.5 -52.5l-10 -39q-3 -22 -7 -37t-12.5 -31.5t-25.5 -25t-41 -8.5q-17 0 -88 21h-6q-43 24 -43 47v45q0 13 -21 108q0 5 -37 95t-45 90q-11 0 -45.5 -108.5t-38.5 -166.5v-47 q0 -11 -7 -29t-32 -38.5t-63 -20.5h-8q-35 0 -85.5 22t-68.5 56v4q0 7 2 19.5t2 19.5q0 76 -30.5 172.5t-79 222.5t-72.5 213v-2q-10 23 -12 33l2 -2q-1 3 -6.5 13.5t-8 18t-2.5 13.5z" />
<glyph unicode="x" horiz-adv-x="1079" d="M102 836q0 15 14 29t29 14h80q112 0 162 -29l21 -21q0 -14 8 -41t24 -47q12 -31 44 -86t38 -55h2q7 0 36.5 42.5t68 96.5t59.5 74l17 70q0 5 10 10.5t16 5.5q14 0 46 -3.5t81 -13t84 -31.5t35 -52q0 -24 -16 -37.5t-41.5 -24.5t-36.5 -22l-6 -10q-1 -1 -9 -7.5t-15.5 -13 t-8.5 -8.5l-19 -31q-14 -23 -48 -59.5t-44 -48.5l-35 -45q-6 -19 -27.5 -42.5t-23.5 -27.5v-6q1 -23 28.5 -76t51.5 -80l23 -27q3 -1 15.5 -22.5t14.5 -26.5l58 -59q1 -1 4.5 -6t7 -9t4.5 -4l29 -26v-6q0 -30 -27.5 -52t-62.5 -22q-17 0 -42 10t-46 10q-12 6 -31.5 30.5 t-20.5 25.5l-30 30q0 1 -13.5 16t-13.5 23l-18 17q-5 12 -7 14q-1 1 -13 19.5t-25.5 34.5t-22.5 16q-10 0 -17 -6.5t-12.5 -17.5t-7.5 -13q0 -8 -11 -23.5t-27 -36t-23 -32.5q-6 -10 -16 -31.5t-17.5 -32.5t-21 -25t-34.5 -20t-51 -6q-35 0 -74.5 29.5t-39.5 60.5v8q0 1 2 4 t5 7t5 6l33 39q6 7 29 26t30 33v10q7 16 34 48.5t34 50.5q3 8 36 49.5t33 58.5q0 30 -10.5 48.5t-29 33t-60 59.5t-86.5 107l-14 14q-1 1 -14.5 17.5t-14.5 19.5l-59 74q-9 18 -9 31z" />
<glyph unicode="y" horiz-adv-x="970" d="M102 580q0 38 6.5 79.5t6.5 65.5v27q3 9 7 24.5t7 22t13.5 12.5t29.5 6h133q20 0 51 -22t31 -45v-7q-5 -45 -22 -96v-10q-1 -15 -6 -54t-5 -61v-26q0 -58 12.5 -125t43.5 -103l22 -18q3 -3 10.5 -11.5t14 -13t14.5 -4.5h6q24 -4 39 -4q113 0 113 174v6q16 277 16 283 q0 16 -4 44t-4 42q0 27 57 27h17q38 0 57.5 -1t42 -6t33.5 -16l12 -59v-27l-12 -55q0 -1 -2 -5.5t-2 -5.5v-67q-6 -3 -6 -14v-5q0 -2 3 -14t3 -14v-2q0 -21 -4.5 -65.5t-4.5 -67.5l3 -45l10 -29q0 -11 1 -48t1 -48q0 -48 -21 -64l9 -18l20 -172q0 -27 -6 -33q1 -5 6 -31.5 t9.5 -56.5t4.5 -51t-2 -51t-2 -39q0 -3 1 -9t1 -8q-6 -6 -8 -53.5t-12 -54.5l-4 -9l6 -41q-1 -34 -34.5 -79t-70.5 -70l-28 -18q-78 -68 -215 -68h-41q-61 6 -106.5 22t-73 36.5t-46 50t-27 56.5t-13.5 62l-7 41q4 6 7.5 21t6 33.5t3.5 23.5l-4 19l26 24q4 4 13 20 t19.5 24.5t27.5 10.5l131 2q41 0 43 -14v-4q0 -1 -5.5 -6.5t-11.5 -12.5t-8 -10l-20 -28q-16 -21 -25.5 -54t-9.5 -51l4 -33q0 -1 2 -5t2 -5l4 -24q0 -19 46.5 -38.5t70.5 -19.5q39 0 67 18t42.5 43.5t23 64t10.5 68.5t2 68q0 126 -14 238l-6 43l-2 16l-2 -2q-2 13 -6 99 q-56 -19 -91 -19q-8 0 -24 1t-25 1q-98 0 -173.5 47t-119.5 124.5t-66 168t-22 187.5z" />
<glyph unicode="z" horiz-adv-x="1056" d="M102 791q0 27 19 32h37q51 0 86 -6h522q12 6 22 6h7q9 0 18 -2.5t14.5 -5t14.5 -9.5t12.5 -9.5t14 -12.5t12.5 -12l51 -45q10 -10 16 -31.5t6 -38.5v-16q-19 -21 -73 -49q-24 -13 -49 -30.5t-54.5 -40t-44.5 -32.5l-41 -28q-21 -21 -59 -54t-43 -38l-23 -17 q-11 -11 -16 -15t-9 -6t-25 -18t-56 -45l-6 -12q-4 -4 -18 -12t-24 -16t-10 -17q0 -16 35 -16h283q82 0 125 22h2q25 0 57.5 -48t32.5 -71q0 -21 -19.5 -36t-41.5 -15q-6 0 -18.5 3t-18.5 3q-14 0 -84 -6t-109 -6h-61q-1 0 -11.5 -3t-11.5 -3q-11 -1 -94.5 -11t-126.5 -18 q-18 -4 -53.5 -24.5t-57.5 -20.5q-51 0 -65 35l-41 90v6q0 1 -2 11.5t-2 11.5q0 23 28.5 42t32.5 25l74 97q26 35 59 70t79 79.5t67 65.5q0 1 5 9t5 9l41 39v-2q5 0 22 32.5t17 36.5l-6 7q-59 4 -84 6h-6l-58 -13h-24q-24 0 -66.5 -8t-64.5 -8h-31q-55 20 -82 73t-27 116z " />
<glyph unicode="|" horiz-adv-x="419" d="M102 1386v9q2 3 8 8.5t9 5.5h98q5 -5 27.5 -8t41.5 -11.5t21 -27.5l10 -135v-568q0 -7 -2 -45t-2 -45v-73q0 -1 -3 -14t-3 -15t3 -27t3 -28v-107q0 -23 -16 -55l6 -19v-32q0 -1 -3 -5.5t-3 -5.5v-20q-1 -3 -2.5 -9t-6 -23.5t-9 -33t-11.5 -35t-14 -33t-15 -23t-16 -9.5 q-18 3 -32 16.5t-22 39t-13 48t-6.5 58.5t-2 54t-0.5 51v6.5v5.5q0 6 -3 158.5t-3 246.5v43q0 68 -4 180.5t-4 118.5v27q0 1 -3 11t-3 11q-6 34 -7 100.5t-7 100.5q-11 64 -11 108z" />
<glyph unicode="&#xa1;" horiz-adv-x="485" d="M102 76q0 17 15 43.5t18 38.5q4 17 6 60t11 65l8 8q0 1 -2 5t-2 5v14q10 118 20 154v31q0 47 3 139.5t3 140.5v31q6 1 6 14q2 8 6.5 52t4.5 51v92q0 74 13.5 105.5t51.5 31.5q28 0 68 -24t47 -48q4 -18 4 -65v-41q0 -26 -2 -55t-5.5 -64.5t-4.5 -54.5v-43q0 -1 -2 -9.5 t-2 -9.5v-6q16 -94 16 -180q0 -27 -6 -82.5t-6 -83.5q0 -5 4 -14.5t4 -14.5v-4q-1 -4 -4.5 -27t-3.5 -26v-158q0 -2 -2 -25.5t-2 -25.5v-76q-2 -8 -11 -12.5t-24 -7t-19 -4.5h-120q-1 1 -18 6t-32 11.5t-28 23t-13 39.5zM160 1319v47q1 7 4 64.5t4 64.5q0 14 5.5 22.5 t17.5 12t21 4t26 0.5q31 0 51 -8.5t29.5 -27t13.5 -34.5t7 -45v-3.5t0.5 -3t0.5 -3.5l4 -8q0 -1 1 -5t1 -7q0 -5 -0.5 -12.5t-1 -12.5t-0.5 -6q1 -7 6.5 -22.5t5.5 -24.5q0 -31 -59 -31q-34 0 -79 10t-58 29z" />
<glyph unicode="&#xaa;" horiz-adv-x="942" d="M102 1014q0 23 9 47l24 74q6 12 6 39q158 251 275 251q28 0 84.5 -13t81.5 -13q1 0 15 19.5t34 19.5t52 -5t69 -14.5t62.5 -29t25.5 -43.5v-11q-21 -21 -21 -88q0 -9 1 -28t1 -29q0 -1 -3 -27t-3 -41q0 -7 3 -71.5t3 -71.5q0 -1 -1 -44t-1 -69q0 -34 10.5 -104t10.5 -109 v-8q-1 -1 -4 -2l-6 -2t-3 -2q-12 -7 -25 -24.5t-26.5 -28.5t-34.5 -11h-20l-14 7l-19 14q-38 0 -58 31t-28 62.5t-16 31.5h-4l-70 -39q-16 -6 -55 -6h-27q-6 0 -22.5 3t-22.5 3h-35q-17 2 -33.5 9.5t-34 19t-26.5 16.5l-51 25l-64 69l-24 49v21q-13 29 -13 61v15q0 9 -1 25 t-1 22zM367 950q0 -4 1 -24t1 -23q3 -10 11 -23t13.5 -22.5t5.5 -11.5h9q17 0 31 13.5t29 38.5t19 30l5 4q6 5 10 9t4 5l33 51q19 29 33 78t16 86v6l-6 50l-13 12q-14 2 -20 2q-55 0 -98.5 -48t-63.5 -111t-20 -122z" />
<glyph unicode="&#xab;" horiz-adv-x="1097" d="M102 330q0 14 7 22.5t22 16t19 10.5q13 9 24.5 22.5t24.5 34t18 27.5l33 45q0 2 9.5 14t23.5 29.5t20 26.5t16.5 28.5t16.5 28.5l61 90q4 5 15 27t21.5 33.5t23.5 11.5q31 0 86 -26.5t59 -53.5q0 -1 -2 -7t-2 -10q2 0 2 -2q0 -1 -17.5 -16.5t-17.5 -22.5l-12 -18 q0 -6 -60.5 -82.5t-60.5 -77.5q-11 0 -15.5 -6t-5.5 -14.5t-11.5 -21.5t-30.5 -23l-21 -15l-45 -61v-4q0 -14 20.5 -36.5t64 -57t61.5 -47.5t63 -45q5 -4 36 -19t55 -31t24 -28q0 -13 -30.5 -36.5t-47.5 -23.5q-11 0 -44 19t-80 49.5t-65 40.5q-15 8 -39.5 34t-62.5 42 q-5 3 -38 18.5t-56 30.5t-23 26l-24 25zM471 326q0 14 7 22.5t21.5 16t18.5 10.5q13 9 24.5 22.5t25.5 34.5l18 27l32 45q0 2 10 14t23.5 29t20.5 26q6 9 16.5 29t16.5 29l61 90q4 6 14.5 27t21 33t23.5 12q31 0 86.5 -26.5t59.5 -53.5q0 -1 -2 -7t-2 -10q2 0 2 -2 q0 -1 -17.5 -16.5t-17.5 -22.5l-12 -18q0 -6 -60.5 -82.5t-60.5 -77.5q-11 0 -15.5 -6t-6 -14.5t-12 -21.5t-30.5 -23l-20 -15l-45 -61v-4q0 -38 209 -187q5 -4 35.5 -19t54.5 -30.5t24 -27.5q0 -13 -30 -36.5t-47 -23.5q-11 0 -44 19t-80 49.5t-65 40.5q-15 8 -39.5 34 t-62.5 42q-5 3 -38 18.5t-56 30.5t-23 26l-25 25z" />
<glyph unicode="&#xad;" horiz-adv-x="1038" d="M102 618q0 30 6 40t29 10h19q25 -2 85.5 -15.5t67.5 -13.5h10q1 0 14 1t15 1h191q11 0 14 -6l139 4q14 0 43 -3.5t45 -2.5q29 0 60 4t39 4q30 0 43.5 -34.5t13.5 -78.5l-2 -18l-4 -10l-6 -6l-119 10q-4 -2 -23.5 -3.5t-45.5 -3t-38 -3.5l-26 4q-4 0 -43.5 -4.5 t-42.5 -4.5q-47 0 -51 -2l-70 -10q-8 0 -8 -4l-70 -4q-16 -1 -46 -8.5t-46 -7.5q-5 0 -17 2l-12 2q-7 0 -21 -4t-22 -4l-6 2q-45 9 -59 16q-24 18 -40 65t-16 86zM346 467h2q4 0 4 4q0 6 -2 6z" />
<glyph unicode="&#xba;" horiz-adv-x="989" d="M102 848v45q0 63 25.5 149t56.5 144q5 9 24 28.5t25 32.5l19 35l49 61q26 32 41 47.5t47.5 30.5t73.5 15q113 0 244 -50l49 -18q5 -9 67 -41q23 -15 43.5 -82.5t20.5 -95.5q0 -15 -3.5 -33t-8.5 -39t-7 -33v-12q-6 -18 -6 -43l-14 -61v-27q0 -12 -4 -20t-13.5 -17.5 t-13.5 -15.5l-35 -53q-6 -6 -6 -21q-8 -14 -28.5 -31t-28.5 -28l-19 -31q-38 -56 -83.5 -80t-112.5 -24q-132 0 -164 32l-70 35l-86 74q-19 15 -50.5 61.5t-31.5 65.5zM346 881q0 -41 24 -88.5t58 -47.5q45 0 117.5 82t72.5 125q7 24 23 66t25.5 76.5t9.5 68.5q0 74 -27 90 h-20q-17 0 -32 -3t-25.5 -5.5t-23.5 -11t-19 -12t-19 -17.5t-16.5 -17.5t-18.5 -21.5t-18 -22q-4 -6 -18.5 -20.5t-18.5 -22.5q-7 -12 -23.5 -52.5t-31.5 -58.5z" />
<glyph unicode="&#xbb;" horiz-adv-x="1097" d="M102 68q0 12 24 27.5t55 30.5t36 19q209 149 209 187v4l-45 61l-21 15q-20 10 -30.5 23t-11.5 21.5t-5.5 14.5t-15.5 6q0 1 -60.5 77.5t-60.5 82.5l-12 18q0 7 -17.5 22.5t-17.5 16.5l2 2q0 4 -2 10t-2 7q4 27 59 53.5t86 26.5q13 0 23.5 -11.5t21.5 -33.5t15 -27l61 -90 q86 -123 86 -127l33 -45l18 -27t25.5 -34.5t24.5 -22.5q4 -3 18.5 -10.5t21.5 -16t7 -22.5l-15 -33l-24 -25q0 -11 -23 -26t-56 -30.5t-38 -18.5q-38 -16 -62.5 -42t-39.5 -34q-18 -10 -65 -40.5t-80 -49.5t-44 -19q-17 0 -47.5 23.5t-30.5 36.5zM471 72q0 12 24 28t55 31 t36 19q165 118 198 162q11 15 11 24v4l-45 61l-21 15q-20 10 -30.5 23t-11.5 21.5t-5.5 14.5t-15.5 6q0 1 -60.5 77.5t-60.5 82.5l-13 18q0 7 -17 22.5t-17 16.5l2 2q0 4 -2 10t-2 7q4 27 59 53.5t86 26.5q13 0 23.5 -12t21 -33t14.5 -27l62 -90q86 -123 86 -127l33 -45 q5 -7 18 -27.5t24.5 -34t24.5 -22.5q4 -3 18.5 -10.5t21.5 -16t7 -22.5l-14 -33l-25 -25q0 -11 -22.5 -26t-55.5 -30.5t-38 -18.5q-39 -16 -63.5 -42t-39.5 -34q-18 -11 -65 -41t-79.5 -49t-43.5 -19q-17 0 -47.5 23.5t-30.5 36.5z" />
<glyph unicode="&#xbf;" horiz-adv-x="1159" d="M102 287q0 83 52 196q1 1 5.5 12t4.5 13q8 17 31.5 39.5t29.5 34.5l27 24q28 20 84 76q0 5 26.5 42.5t59 86t43.5 74.5q1 1 5 18.5t5 18.5v-2q2 0 7 21.5t9.5 49.5t4.5 43v8q0 16 -4.5 48.5t-4.5 46.5q0 7 5 10t13.5 5t12.5 5q8 5 19.5 27t31.5 22q8 0 32.5 -12t45.5 -24 t21 -13v-61q0 -5 5 -18t5 -17q-10 -35 -10 -41v-74q0 -12 -6 -24q2 -7 2 -11q0 -1 -5.5 -10t-5.5 -12q-7 -18 -16 -45t-17.5 -48.5t-19.5 -43.5q-6 -13 -31.5 -41.5t-31.5 -46.5l-62 -58l-9 -8q-9 -7 -20 -17t-23 -22.5t-23 -26t-17 -24.5l-31 -43q-6 -6 -6 -10v-15 q0 -2 -5 -8.5t-5 -7.5q-7 -10 -12.5 -22t-8.5 -20t-6 -24.5t-4 -21.5t-3.5 -25.5t-2.5 -23.5v-15q19 -68 23 -75q12 -46 62.5 -65t109.5 -19q24 0 61.5 20t54.5 37q86 40 140.5 115t72.5 170l11 57q4 20 4 49q0 63 -41 127q-1 1 -15.5 21.5t-15.5 23.5v23q0 33 25 59.5 t63 26.5q17 0 25.5 -4.5t23 -15.5t35.5 -21l45 -21q36 -11 55 -71.5t19 -114.5q0 -25 -3 -51t-6.5 -43t-11 -48t-10.5 -46q0 -23 -17.5 -55t-40 -63.5t-26.5 -39.5l-31 -62q-11 -13 -23.5 -26t-22.5 -22.5t-24 -20.5t-21.5 -17t-22 -16t-19.5 -13.5t-19.5 -12.5t-17.5 -11 q-31 0 -87 -28.5t-91 -28.5h-26q-173 14 -285 69q-57 28 -103.5 98.5t-46.5 129.5zM457 1421q0 17 4 29l4 4q5 10 11 33t13.5 33t22.5 10q8 0 10 -6h51q0 -15 9 -15h2q6 6 6 15q12 -6 17.5 -24.5t6 -32t0.5 -42.5q1 -9 10 -24t9 -23q0 -22 -16.5 -28.5t-45.5 -6.5 q-39 0 -59 7l-10 4q-3 1 -19 2.5t-22 7.5v43q-4 12 -4 14z" />
<glyph unicode="&#xc0;" horiz-adv-x="1073" d="M102 43v18q0 2 5.5 16t9.5 19q24 47 43.5 118t19.5 116v41q0 10 8 26l-2 -2l7 51q10 89 24 117q7 29 15 92.5t16 98.5l63 247q44 106 54 232q0 57 10 98q15 21 70 30t108 9q23 0 53 -10h-2l31 -8q20 -5 52.5 -7t52.5 -9.5t38 -30.5v-185q0 -13 15 -56t18 -79 q7 -68 32 -143t25 -99v-88l12 -17q13 -18 13 -34t-3 -34.5t-3 -26.5q0 -11 2 -13l72 -67q10 -5 10 -27q0 -17 -8 -28.5t-17.5 -16.5t-17.5 -12t-8 -14q0 -3 2 -17t2 -24q0 -6 -2 -13t-2 -8q0 -2 6 -14t6 -19q0 -18 -4 -22q2 -3 9 -12t9 -15v-12q0 -5 -7 -12t-7 -9 q0 -6 9 -29.5t9 -39.5q0 -29 -2 -46t-12 -37.5t-29 -35.5h-37q-20 0 -29 1t-30 6t-33.5 20.5t-17.5 40.5v26q-17 24 -17 74v14q0 3 1 11t1 12l-4 10v21q0 19 -12 65l-10 51l-174 -16q-13 -5 -82.5 -8t-77.5 -13l-29 -24h2q-26 -33 -26 -51v-15q0 -28 -10.5 -60.5 t-10.5 -45.5q0 -21 8.5 -33.5t8.5 -24.5q0 -15 -9.5 -25t-32.5 -17.5t-35 -10t-44 -8.5h-31q-29 0 -39 8zM295 1630v21q0 86 53 86q12 0 18 -5t9.5 -12t9.5 -15t23.5 -14.5t46.5 -9.5l39 -12l22 -16l-2 2l37 -13q69 -22 96 -36l74 -37q16 -11 35.5 -37.5t19.5 -46.5 q0 -8 -16 -17.5t-23 -9.5q-16 0 -24 2l-4 2q-50 24 -138.5 51t-115.5 43l2 -2q-25 10 -25 11h-80q-16 0 -33.5 11.5t-21.5 27.5v12q0 2 -1 7.5t-1 6.5zM434 518q0 -16 27 -16q50 0 101.5 4t83.5 9.5t32 10.5q0 15 -8.5 45t-10.5 37l-26 115q-3 13 -10 48.5t-11.5 52.5 t-11.5 42.5t-15.5 41.5t-19.5 26q-7 -20 -23.5 -68.5t-25.5 -75t-21 -65t-19.5 -68t-10.5 -53.5z" />
<glyph unicode="&#xc1;" horiz-adv-x="1073" d="M102 43v18q0 2 5.5 16t9.5 19q24 47 43.5 118t19.5 116v41q0 10 8 26l-2 -2l7 51q10 89 24 117q7 29 15 92.5t16 98.5l63 247q44 106 54 232q0 57 10 98q15 21 70 30t108 9q23 0 53 -10h-2l31 -8q20 -5 52.5 -7t52.5 -9.5t38 -30.5v-185q0 -13 15 -56t18 -79 q7 -68 32 -143t25 -99v-88l12 -17q13 -18 13 -34t-3 -34.5t-3 -26.5q0 -11 2 -13l72 -67q10 -5 10 -27q0 -17 -8 -28.5t-17.5 -16.5t-17.5 -12t-8 -14q0 -3 2 -17t2 -24q0 -6 -2 -13t-2 -8q0 -2 6 -14t6 -19q0 -18 -4 -22q2 -3 9 -12t9 -15v-12q0 -5 -7 -12t-7 -9 q0 -6 9 -29.5t9 -39.5q0 -29 -2 -46t-12 -37.5t-29 -35.5h-37q-20 0 -29 1t-30 6t-33.5 20.5t-17.5 40.5v26q-17 24 -17 74v14q0 3 1 11t1 12l-4 10v21q0 19 -12 65l-10 51l-174 -16q-13 -5 -82.5 -8t-77.5 -13l-29 -24h2q-26 -33 -26 -51v-15q0 -28 -10.5 -60.5 t-10.5 -45.5q0 -21 8.5 -33.5t8.5 -24.5q0 -15 -9.5 -25t-32.5 -17.5t-35 -10t-44 -8.5h-31q-29 0 -39 8zM295 1485q0 20 19.5 46.5t35.5 37.5l74 37q38 18 96 36l37 13l-2 -2l23 16l38 12q18 2 48 15q1 0 13 11t25.5 20.5t20.5 9.5q53 0 53 -86v-21q0 -1 -1 -6.5t-1 -7.5 v-12q-4 -16 -21.5 -27.5t-33.5 -11.5h-80q0 -1 -4.5 -3t-11 -4t-9.5 -4l2 2q-17 -10 -24 -10l4 2q-17 -7 -100 -34t-134 -52l-4 -2q-8 -2 -24 -2q-8 0 -23.5 9.5t-15.5 17.5zM434 518q0 -16 27 -16q50 0 101.5 4t83.5 9.5t32 10.5q0 15 -8.5 45t-10.5 37l-26 115 q-3 13 -10 48.5t-11.5 52.5t-11.5 42.5t-15.5 41.5t-19.5 26q-7 -20 -23.5 -68.5t-25.5 -75t-21 -65t-19.5 -68t-10.5 -53.5z" />
<glyph unicode="&#xc2;" horiz-adv-x="1073" d="M102 43v18q0 2 5.5 16t9.5 19q24 47 43.5 118t19.5 116v41q0 10 8 26l-2 -2l7 51q10 89 24 117q7 29 15 92.5t16 98.5l63 247q44 106 54 232q0 57 10 98q15 21 70 30t108 9q23 0 53 -10h-2l31 -8q20 -5 52.5 -7t52.5 -9.5t38 -30.5v-185q0 -13 15 -56t18 -79 q7 -68 32 -143t25 -99v-88l12 -17q13 -18 13 -34t-3 -34.5t-3 -26.5q0 -11 2 -13l72 -67q10 -5 10 -27q0 -17 -8 -28.5t-17.5 -16.5t-17.5 -12t-8 -14q0 -3 2 -17t2 -24q0 -6 -2 -13t-2 -8q0 -2 6 -14t6 -19q0 -18 -4 -22q2 -3 9 -12t9 -15v-12q0 -5 -7 -12t-7 -9 q0 -6 9 -29.5t9 -39.5q0 -29 -2 -46t-12 -37.5t-29 -35.5h-37q-20 0 -29 1t-30 6t-33.5 20.5t-17.5 40.5v26q-17 24 -17 74v14q0 3 1 11t1 12l-4 10v21q0 19 -12 65l-10 51l-174 -16q-13 -5 -82.5 -8t-77.5 -13l-29 -24h2q-26 -33 -26 -51v-15q0 -28 -10.5 -60.5 t-10.5 -45.5q0 -21 8.5 -33.5t8.5 -24.5q0 -15 -9.5 -25t-32.5 -17.5t-35 -10t-44 -8.5h-31q-29 0 -39 8zM162 1530v12l51 47l74 76q0 9 9 21.5t26 27t31 25.5t34 25t25 18q9 35 41 35q134 0 168 -27q109 -115 225 -197l35 -24l24 -13q6 -3 6 -8q0 -71 -75 -71 q-99 0 -115 36l-154 123l-37 21h-14q-15 -2 -45.5 -41t-40.5 -43q-11 -11 -22.5 -35.5t-20 -44.5t-28.5 -35.5t-48 -15.5q-17 0 -38 3t-48 11.5t-45 27.5t-18 46zM434 518q0 -16 27 -16q50 0 101.5 4t83.5 9.5t32 10.5q0 15 -8.5 45t-10.5 37l-26 115q-3 13 -10 48.5 t-11.5 52.5t-11.5 42.5t-15.5 41.5t-19.5 26q-7 -20 -23.5 -68.5t-25.5 -75t-21 -65t-19.5 -68t-10.5 -53.5z" />
<glyph unicode="&#xc3;" horiz-adv-x="1073" d="M102 43v18q0 2 5.5 16t9.5 19q24 47 43.5 118t19.5 116v41q0 10 8 26l-2 -2l7 51q10 89 24 117q7 29 15 92.5t16 98.5l63 247q44 106 54 232q0 57 10 98q15 21 70 30t108 9q23 0 53 -10h-2l31 -8q20 -5 52.5 -7t52.5 -9.5t38 -30.5v-185q0 -13 15 -56t18 -79 q7 -68 32 -143t25 -99v-88l12 -17q13 -18 13 -34t-3 -34.5t-3 -26.5q0 -11 2 -13l72 -67q10 -5 10 -27q0 -17 -8 -28.5t-17.5 -16.5t-17.5 -12t-8 -14q0 -3 2 -17t2 -24q0 -6 -2 -13t-2 -8q0 -2 6 -14t6 -19q0 -18 -4 -22q2 -3 9 -12t9 -15v-12q0 -5 -7 -12t-7 -9 q0 -6 9 -29.5t9 -39.5q0 -29 -2 -46t-12 -37.5t-29 -35.5h-37q-20 0 -29 1t-30 6t-33.5 20.5t-17.5 40.5v26q-17 24 -17 74v14q0 3 1 11t1 12l-4 10v21q0 19 -12 65l-10 51l-174 -16q-13 -5 -82.5 -8t-77.5 -13l-29 -24h2q-26 -33 -26 -51v-15q0 -28 -10.5 -60.5 t-10.5 -45.5q0 -21 8.5 -33.5t8.5 -24.5q0 -15 -9.5 -25t-32.5 -17.5t-35 -10t-44 -8.5h-31q-29 0 -39 8zM190 1599q0 21 12.5 58t14.5 47l8 35q5 21 12 34.5t13.5 18.5t15 12t13.5 15l18 24q19 27 88 27q20 0 82 -17q33 0 66 -25t54.5 -54.5t41 -54.5t28.5 -25l37 -47 q9 0 24 31t15 48q-3 24 -5.5 49t-3.5 37t-1 11v16q0 29 20 29h2q76 -10 76 -25l17 -10q29 -15 37 -48t8 -83q0 -74 -43.5 -147.5t-94.5 -73.5q-29 0 -54 8.5t-43.5 19t-43 36.5t-39 45t-45.5 59l-22 39q-8 10 -35 10q-90 0 -90 -99v-32q0 -33 -15.5 -61.5t-48.5 -28.5 q-10 0 -36.5 13t-54.5 43t-28 66zM434 518q0 -16 27 -16q50 0 101.5 4t83.5 9.5t32 10.5q0 15 -8.5 45t-10.5 37l-26 115q-3 13 -10 48.5t-11.5 52.5t-11.5 42.5t-15.5 41.5t-19.5 26q-7 -20 -23.5 -68.5t-25.5 -75t-21 -65t-19.5 -68t-10.5 -53.5z" />
<glyph unicode="&#xc4;" horiz-adv-x="1073" d="M102 43v18q0 2 5.5 16t9.5 19q24 47 43.5 118t19.5 116v41q0 10 8 26l-2 -2l7 51q10 89 24 117q7 29 15 92.5t16 98.5l63 247q44 106 54 232q0 57 10 98q15 21 70 30t108 9q23 0 53 -10h-2l31 -8q20 -5 52.5 -7t52.5 -9.5t38 -30.5v-185q0 -13 15 -56t18 -79 q7 -68 32 -143t25 -99v-88l12 -17q13 -18 13 -34t-3 -34.5t-3 -26.5q0 -11 2 -13l72 -67q10 -5 10 -27q0 -17 -8 -28.5t-17.5 -16.5t-17.5 -12t-8 -14q0 -3 2 -17t2 -24q0 -6 -2 -13t-2 -8q0 -2 6 -14t6 -19q0 -18 -4 -22q2 -3 9 -12t9 -15v-12q0 -5 -7 -12t-7 -9 q0 -6 9 -29.5t9 -39.5q0 -29 -2 -46t-12 -37.5t-29 -35.5h-37q-20 0 -29 1t-30 6t-33.5 20.5t-17.5 40.5v26q-17 24 -17 74v14q0 3 1 11t1 12l-4 10v21q0 19 -12 65l-10 51l-174 -16q-13 -5 -82.5 -8t-77.5 -13l-29 -24h2q-26 -33 -26 -51v-15q0 -28 -10.5 -60.5 t-10.5 -45.5q0 -21 8.5 -33.5t8.5 -24.5q0 -15 -9.5 -25t-32.5 -17.5t-35 -10t-44 -8.5h-31q-29 0 -39 8zM266 1591q0 33 29.5 71t64.5 38q21 0 23 -2q16 0 46 -9t60.5 -32t30.5 -53q0 -22 -8.5 -33.5t-24 -26t-26.5 -35.5q-3 0 -17 -15.5t-35 -31.5t-42 -16 q-15 0 -26.5 7.5t-25.5 23t-20 20.5q-29 0 -29 94zM434 518q0 -16 27 -16q50 0 101.5 4t83.5 9.5t32 10.5q0 15 -8.5 45t-10.5 37l-26 115q-3 13 -10 48.5t-11.5 52.5t-11.5 42.5t-15.5 41.5t-19.5 26q-7 -20 -23.5 -68.5t-25.5 -75t-21 -65t-19.5 -68t-10.5 -53.5z M610 1595q0 33 30 71t65 38q20 0 22 -2q16 0 46 -9t60.5 -32t30.5 -53q0 -22 -8.5 -33.5t-24 -26t-26.5 -35.5q-3 0 -17 -15.5t-35 -31.5t-42 -16q-15 0 -26.5 7.5t-25.5 23t-20 20.5q-29 0 -29 94z" />
<glyph unicode="&#xc5;" horiz-adv-x="1073" d="M102 43v18q0 2 5.5 16t9.5 19q24 47 43.5 118t19.5 116v41q0 10 8 26l-2 -2l7 51q10 89 24 117q7 29 15 92.5t16 98.5l63 247q44 106 54 232q0 57 10 98q15 21 70 30t108 9q23 0 53 -10h-2l31 -8q20 -5 52.5 -7t52.5 -9.5t38 -30.5v-185q0 -13 15 -56t18 -79 q7 -68 32 -143t25 -99v-88l12 -17q13 -18 13 -34t-3 -34.5t-3 -26.5q0 -11 2 -13l72 -67q10 -5 10 -27q0 -17 -8 -28.5t-17.5 -16.5t-17.5 -12t-8 -14q0 -3 2 -17t2 -24q0 -6 -2 -13t-2 -8q0 -2 6 -14t6 -19q0 -18 -4 -22q2 -3 9 -12t9 -15v-12q0 -5 -7 -12t-7 -9 q0 -6 9 -29.5t9 -39.5q0 -29 -2 -46t-12 -37.5t-29 -35.5h-37q-20 0 -29 1t-30 6t-33.5 20.5t-17.5 40.5v26q-17 24 -17 74v14q0 3 1 11t1 12l-4 10v21q0 19 -12 65l-10 51l-174 -16q-13 -5 -82.5 -8t-77.5 -13l-29 -24h2q-26 -33 -26 -51v-15q0 -28 -10.5 -60.5 t-10.5 -45.5q0 -21 8.5 -33.5t8.5 -24.5q0 -15 -9.5 -25t-32.5 -17.5t-35 -10t-44 -8.5h-31q-29 0 -39 8zM283 1761q0 34 34.5 89t65.5 81l59 33q38 21 82 21q3 0 8.5 -2.5t8.5 -2.5l45 -10l39 -24l-2 2l18 -6q2 -1 15.5 -5t16 -5t14 -5.5t16 -6.5t14 -7t15 -9.5t13.5 -11 t15 -14.5l10 -14q0 -3 3 -23.5t5 -28.5l2 -6q8 -27 8 -65v-17q-12 -16 -12 -20q0 -2 1 -6.5t1 -7.5q0 -13 -8 -30.5t-8 -39.5v-23l-10 -18q-39 -55 -81.5 -83.5t-107.5 -35.5h-20q-52 0 -121 27l-21 16h2l-38 29q0 1 -9 10q-73 24 -73 219zM434 518q0 -16 27 -16 q50 0 101.5 4t83.5 9.5t32 10.5q0 15 -8.5 45t-10.5 37l-26 115q-3 13 -10 48.5t-11.5 52.5t-11.5 42.5t-15.5 41.5t-19.5 26q-7 -20 -23.5 -68.5t-25.5 -75t-21 -65t-19.5 -68t-10.5 -53.5zM455 1692q0 -10 3 -29t3 -29v-12q2 -12 25 -28.5t40 -16.5q13 0 21 4l-2 -2 q70 34 92 158l-6 82q-4 18 -12.5 23t-21 5.5t-19.5 5.5h-11q-7 0 -13 -1t-13.5 -5.5l-10 -6t-12.5 -10t-12 -9.5l-27 -23l-4 -14v6q-20 -51 -20 -92v-6z" />
<glyph unicode="&#xc6;" horiz-adv-x="1460" d="M102 43v18q0 2 5.5 16t9.5 19q24 47 43.5 118t19.5 116v41q0 10 8 26l-2 -2l7 51q10 89 24 117q7 29 15 92.5t16 98.5l63 247q44 106 54 232q0 57 10 98q15 21 70 30t108 9q23 0 53 -10h-2l31 -8q20 -5 52.5 -7t52.5 -9.5t38 -30.5v-37h410q8 4 24 4q36 0 56 -12.5 t45 -42.5l8 -7q37 -26 37 -69q0 -16 -31 -27.5t-51 -11.5h-4q-10 0 -31 2t-33 2h-20q-1 0 -31.5 1t-56.5 1q-248 0 -248 -61q0 -26 9 -40l3 -3q6 -29 9 -92.5t10 -100.5t24 -37h29q10 0 46 -2.5t42 -5.5h6q18 3 59 5t72 4.5t37 8.5h10q19 0 38.5 -15t29.5 -34l10 -45l12 -20 v-15q0 -8 -4.5 -14.5t-15 -10t-19 -5.5t-25.5 -3t-24.5 -1h-25.5h-62q-2 0 -17 -3.5t-18 -3.5h-86q-96 -14 -98 -16l-10 -16q0 -6 -1 -23.5t-2.5 -44t-2.5 -45.5l6 -6q10 -5 10 -27q0 -27 -18 -41v-110q1 -6 4 -11.5t5.5 -9t8 -6.5t8.5 -5t10.5 -3.5t11 -2t12 -1t11.5 -0.5 h12.5h12.5h96q75 0 176 22h9q72 0 96 -114v-13q0 -13 -16 -23t-33 -14h-33q-59 0 -128 -7t-114.5 -14t-48.5 -7q-8 0 -18 0.5t-17 1.5h-8q-38 0 -52.5 -11.5t-24 -33t-25.5 -33.5h-37q-22 0 -27.5 7.5t-15.5 60.5v26q-5 5 -10 14t-8 15.5t-3 7.5v12q-1 3 -5.5 17.5 t-4.5 23.5v9q0 1 3 13t3 13v60l-16 73l-174 -16q-13 -5 -82.5 -8t-77.5 -13l-29 -24h2q-26 -33 -26 -51v-15q0 -28 -10.5 -60.5t-10.5 -45.5q0 -21 8.5 -33.5t8.5 -24.5q0 -15 -9.5 -25t-32.5 -17.5t-35 -10t-44 -8.5h-31q-29 0 -39 8zM434 518q0 -16 27 -16q50 0 101.5 4 t83.5 9.5t32 10.5q0 15 -8.5 45t-10.5 37l-26 115q-3 13 -10 48.5t-11.5 52.5t-11.5 42.5t-15.5 41.5t-19.5 26q-7 -20 -23.5 -68.5t-25.5 -75t-21 -65t-19.5 -68t-10.5 -53.5z" />
<glyph unicode="&#xc7;" horiz-adv-x="1052" d="M102 506v147q0 3 4 26.5t7 31.5v-2q48 193 151 342l64 77q36 42 122.5 106t151.5 64q69 0 137 -22l25 -21q31 -4 85 -42t54 -72q0 -97 -110 -97q-17 0 -57.5 7.5t-53.5 7.5q-35 0 -80 -29.5t-80 -68.5t-59.5 -71.5t-28.5 -43.5v2q-2 -13 -10 -25l-47 -94 q-15 -29 -26 -94.5t-11 -122.5q0 -47 18.5 -107.5t49.5 -105.5t61 -45l6 -12h21q54 0 88.5 29t62.5 89l49 74v-2q8 12 13 69t20 72q0 7 -4 21.5t-4 28.5q0 19 7.5 27.5t17 10t32.5 1.5h27l16 -9l9 -4l17.5 -7t20.5 -9.5t23 -12t21.5 -13t19.5 -15t13 -15.5t5 -16 q0 -11 -16 -35l-14 -22q6 -18 6 -25v-20q-8 -31 -27 -80q0 2 2 2l-18 -45q0 -46 -42 -109t-109.5 -113t-131.5 -57q-4 -16 -4 -28v-9q8 -24 8 -55q6 -10 45 -12t85 -9.5t67 -29.5t43 -67.5t22 -77.5q0 -38 -16 -78q0 -8 -26.5 -42.5t-26.5 -41.5l-29 -25q-10 -6 -12 -6 l-8 -4q0 -4 -23.5 -18t-55.5 -26.5t-51 -12.5h-2q-42 8 -61 10h-16q-13 4 -41 26l-29 25q-67 55 -70 92v8q0 41 90 41h13q42 0 51.5 -3.5t9.5 -14.5q0 -5 -2 -15.5t-2 -21.5q0 -12 4 -14q1 0 12.5 -9t27.5 -17.5t28 -8.5l6 2q27 8 46 36.5t19 45.5v18q5 13 5 15l-9 53 q-4 25 -18 49.5t-33 24.5h-10q-2 0 -24 -6.5t-25 -6.5h-29q-70 0 -106.5 25.5t-36.5 85.5v133q-46 21 -84 51l-39 45q-47 15 -93.5 81t-72 134.5t-25.5 106.5z" />
<glyph unicode="&#xc8;" horiz-adv-x="978" d="M102 1231q0 22 11 33l47 22h10q10 -10 109 -10h428q8 4 24 4q36 0 55.5 -12t44.5 -43l9 -6q37 -26 37 -70q0 -16 -31 -27.5t-51 -11.5h-4q-10 0 -31 2t-33 2h-20q-1 0 -32 1t-57 1q-247 0 -247 -61v-1q3 -35 12 -42q6 -29 9 -92.5t10 -100.5t24 -37h29q10 0 46 -2.5 t42 -5.5h6q18 3 59 5t72 5t37 9h10q19 0 38.5 -15.5t29.5 -34.5l10 -45l12 -20v-14q0 -12 -10 -20t-31 -11t-35 -3.5t-39 -0.5h-61q-2 0 -17 -3t-18 -3h-86q-95 -14 -98 -17l-10 -16q0 -6 -4.5 -82.5t-4.5 -104.5v-110q1 -6 4 -11.5t6 -9t8 -6.5t8.5 -5t10.5 -3.5t10.5 -2 t12.5 -1t12 -0.5h12.5h12.5h96q75 0 176 22h8q41 0 64 -34t33 -80v-12q0 -24 -50 -37h-32q-59 0 -128 -7.5t-114.5 -14.5t-48.5 -7q-8 0 -18 0.5t-18 1.5h-7q-29 0 -75.5 -13.5t-72.5 -13.5q-27 0 -70 31t-53 49v13q-1 3 -5.5 17.5t-4.5 23.5v8q0 1 3 13t3 13v82 q0 21 5.5 63t5.5 64q0 7 -3.5 21t-3.5 22t3.5 26t3.5 27v3q0 3 -3.5 27.5t-3.5 27.5v84q0 11 -2 52t-2 67l-22 215q-2 15 -14.5 71.5t-18.5 73.5v4q0 15 -14.5 38t-14.5 36zM248 1630v21q0 86 53 86q12 0 18 -5t9.5 -12t9.5 -15t23.5 -14.5t46.5 -9.5l38 -12l23 -16l-2 2 l37 -13q69 -22 96 -36l74 -37q16 -11 35.5 -37.5t19.5 -46.5q0 -8 -15.5 -17.5t-23.5 -9.5q-16 0 -24 2l-4 2q-50 24 -138.5 51t-115.5 43l2 -2q-25 10 -25 11h-80q-16 0 -33.5 11.5t-21.5 27.5v12q0 2 -1 7.5t-1 6.5z" />
<glyph unicode="&#xc9;" horiz-adv-x="978" d="M102 1231q0 22 11 33l47 22h10q10 -10 109 -10h428q8 4 24 4q36 0 55.5 -12t44.5 -43l9 -6q37 -26 37 -70q0 -16 -31 -27.5t-51 -11.5h-4q-10 0 -31 2t-33 2h-20q-1 0 -32 1t-57 1q-247 0 -247 -61v-1q3 -35 12 -42q6 -29 9 -92.5t10 -100.5t24 -37h29q10 0 46 -2.5 t42 -5.5h6q18 3 59 5t72 5t37 9h10q19 0 38.5 -15.5t29.5 -34.5l10 -45l12 -20v-14q0 -12 -10 -20t-31 -11t-35 -3.5t-39 -0.5h-61q-2 0 -17 -3t-18 -3h-86q-95 -14 -98 -17l-10 -16q0 -6 -4.5 -82.5t-4.5 -104.5v-110q1 -6 4 -11.5t6 -9t8 -6.5t8.5 -5t10.5 -3.5t10.5 -2 t12.5 -1t12 -0.5h12.5h12.5h96q75 0 176 22h8q41 0 64 -34t33 -80v-12q0 -24 -50 -37h-32q-59 0 -128 -7.5t-114.5 -14.5t-48.5 -7q-8 0 -18 0.5t-18 1.5h-7q-29 0 -75.5 -13.5t-72.5 -13.5q-27 0 -70 31t-53 49v13q-1 3 -5.5 17.5t-4.5 23.5v8q0 1 3 13t3 13v82 q0 21 5.5 63t5.5 64q0 7 -3.5 21t-3.5 22t3.5 26t3.5 27v3q0 3 -3.5 27.5t-3.5 27.5v84q0 11 -2 52t-2 67l-22 215q-2 15 -14.5 71.5t-18.5 73.5v4q0 15 -14.5 38t-14.5 36zM248 1485q0 20 19.5 46.5t35.5 37.5l74 37q39 18 96 36l37 13l-2 -2l22 16l39 12q17 2 47 15 q1 0 13 11t26 20.5t21 9.5q53 0 53 -86v-21q0 -1 -1 -6.5t-1 -7.5v-12q-4 -16 -21.5 -27.5t-33.5 -11.5h-80q0 -1 -4.5 -3t-11 -4t-9.5 -4l2 2q-17 -10 -24 -10l4 2q-17 -7 -100 -34t-134 -52l-4 -2q-8 -2 -24 -2q-7 0 -23 9.5t-16 17.5z" />
<glyph unicode="&#xca;" horiz-adv-x="978" d="M102 1231q0 22 11 33l47 22h10q10 -10 109 -10h428q8 4 24 4q36 0 55.5 -12t44.5 -43l9 -6q37 -26 37 -70q0 -16 -31 -27.5t-51 -11.5h-4q-10 0 -31 2t-33 2h-20q-1 0 -32 1t-57 1q-247 0 -247 -61v-1q3 -35 12 -42q6 -29 9 -92.5t10 -100.5t24 -37h29q10 0 46 -2.5 t42 -5.5h6q18 3 59 5t72 5t37 9h10q19 0 38.5 -15.5t29.5 -34.5l10 -45l12 -20v-14q0 -12 -10 -20t-31 -11t-35 -3.5t-39 -0.5h-61q-2 0 -17 -3t-18 -3h-86q-95 -14 -98 -17l-10 -16q0 -6 -4.5 -82.5t-4.5 -104.5v-110q1 -6 4 -11.5t6 -9t8 -6.5t8.5 -5t10.5 -3.5t10.5 -2 t12.5 -1t12 -0.5h12.5h12.5h96q75 0 176 22h8q41 0 64 -34t33 -80v-12q0 -24 -50 -37h-32q-59 0 -128 -7.5t-114.5 -14.5t-48.5 -7q-8 0 -18 0.5t-18 1.5h-7q-29 0 -75.5 -13.5t-72.5 -13.5q-27 0 -70 31t-53 49v13q-1 3 -5.5 17.5t-4.5 23.5v8q0 1 3 13t3 13v82 q0 21 5.5 63t5.5 64q0 7 -3.5 21t-3.5 22t3.5 26t3.5 27v3q0 3 -3.5 27.5t-3.5 27.5v84q0 11 -2 52t-2 67l-22 215q-2 15 -14.5 71.5t-18.5 73.5v4q0 15 -14.5 38t-14.5 36zM115 1530v12l51 47l74 76q0 9 9 21.5t26 27t31 25.5t34 25t25 18q9 35 41 35q133 0 167 -27 q107 -113 226 -197l35 -24l24 -13q6 -3 6 -8q0 -71 -76 -71q-98 0 -114 36l-154 123l-37 21h-14q-15 -2 -45.5 -41t-40.5 -43q-11 -11 -22.5 -35.5t-20 -44.5t-28.5 -35.5t-48 -15.5q-17 0 -38 3t-48 11.5t-45 27.5t-18 46z" />
<glyph unicode="&#xcb;" horiz-adv-x="978" d="M102 1231q0 22 11 33l47 22h10q10 -10 109 -10h428q8 4 24 4q36 0 55.5 -12t44.5 -43l9 -6q37 -26 37 -70q0 -16 -31 -27.5t-51 -11.5h-4q-10 0 -31 2t-33 2h-20q-1 0 -32 1t-57 1q-247 0 -247 -61v-1q3 -35 12 -42q6 -29 9 -92.5t10 -100.5t24 -37h29q10 0 46 -2.5 t42 -5.5h6q18 3 59 5t72 5t37 9h10q19 0 38.5 -15.5t29.5 -34.5l10 -45l12 -20v-14q0 -12 -10 -20t-31 -11t-35 -3.5t-39 -0.5h-61q-2 0 -17 -3t-18 -3h-86q-95 -14 -98 -17l-10 -16q0 -6 -4.5 -82.5t-4.5 -104.5v-110q1 -6 4 -11.5t6 -9t8 -6.5t8.5 -5t10.5 -3.5t10.5 -2 t12.5 -1t12 -0.5h12.5h12.5h96q75 0 176 22h8q41 0 64 -34t33 -80v-12q0 -24 -50 -37h-32q-59 0 -128 -7.5t-114.5 -14.5t-48.5 -7q-8 0 -18 0.5t-18 1.5h-7q-29 0 -75.5 -13.5t-72.5 -13.5q-27 0 -70 31t-53 49v13q-1 3 -5.5 17.5t-4.5 23.5v8q0 1 3 13t3 13v82 q0 21 5.5 63t5.5 64q0 7 -3.5 21t-3.5 22t3.5 26t3.5 27v3q0 3 -3.5 27.5t-3.5 27.5v84q0 11 -2 52t-2 67l-22 215q-2 15 -14.5 71.5t-18.5 73.5v4q0 15 -14.5 38t-14.5 36zM190 1616q0 33 30 70.5t65 37.5q20 0 22 -2q16 0 46 -9t60.5 -32t30.5 -53q0 -22 -8.5 -33.5 t-24 -25.5t-26.5 -35q-3 0 -17 -16t-35 -32t-42 -16q-15 0 -26.5 7.5t-25.5 23.5t-20 21q-29 0 -29 94zM535 1613v7q0 33 29.5 71t64.5 38q19 0 22 -3q16 0 46 -9t60.5 -32t30.5 -53q0 -22 -8.5 -33.5t-24 -25.5t-26.5 -35q-3 0 -17 -16t-35 -31.5t-42 -15.5 q-15 0 -26.5 7.5t-25.5 23t-20 20.5q-29 0 -28 87z" />
<glyph unicode="&#xcc;" horiz-adv-x="962" d="M102 1292q0 13 9.5 23t19.5 10h41q86 0 247.5 12.5t196.5 14.5q22 1 67.5 14.5t66.5 13.5q32 0 64.5 -39.5t45.5 -76.5v-4q0 -58 -133 -58q-47 -6 -63.5 -60.5t-16.5 -205.5v-82q15 -180 15 -451q0 -51 -1.5 -124t-1.5 -80q2 -5 8 -8.5t13 -5t8 -1.5q47 -13 72.5 -50.5 t25.5 -82.5q0 -9 -33 -21t-44 -12q-8 0 -17 3.5t-12 3.5h-4q-7 0 -57.5 -4.5t-59.5 -6.5h-72q-34 0 -98 -9t-98 -9q-33 0 -60.5 44t-27.5 87q0 11 5.5 23t14.5 12h10q15 -1 68 -4.5t82 -3.5h10q21 0 33 6h18q18 0 27 14v143q0 13 -6 37v236q-2 46 -19 151v33q0 48 -7 125 t-7 139q0 64 2 76q-1 2 -2 6.5t-2 7.5t-2.5 7t-3 7t-3.5 5.5t-5 4t-6 1.5q-42 0 -101 -18q-1 0 -5 -3.5t-5 -3.5h-20q-6 0 -25.5 -8t-32.5 -8q-43 0 -71.5 32.5t-38 70.5t-9.5 77zM240 1630v21q0 86 53 86q12 0 18 -5t9.5 -12t9 -15t23 -14.5t46.5 -9.5l39 -12l23 -16l-2 2 l37 -13q69 -22 96 -36l74 -37q16 -11 35.5 -37.5t19.5 -46.5q0 -8 -15.5 -17.5t-23.5 -9.5q-17 0 -25 2l-4 2q-50 24 -138.5 51t-115.5 43l2 -2q-24 10 -24 11h-80q-16 0 -33.5 11.5t-21.5 27.5v12q0 2 -1 7.5t-1 6.5zM715 229v9h6z" />
<glyph unicode="&#xcd;" horiz-adv-x="962" d="M102 1292q0 13 9.5 23t19.5 10h41q86 0 247.5 12.5t196.5 14.5q22 1 67.5 14.5t66.5 13.5q32 0 64.5 -39.5t45.5 -76.5v-4q0 -58 -133 -58q-47 -6 -63.5 -60.5t-16.5 -205.5v-82q15 -180 15 -451q0 -51 -1.5 -124t-1.5 -80q2 -5 8 -8.5t13 -5t8 -1.5q47 -13 72.5 -50.5 t25.5 -82.5q0 -9 -33 -21t-44 -12q-8 0 -17 3.5t-12 3.5h-4q-7 0 -57.5 -4.5t-59.5 -6.5h-72q-34 0 -98 -9t-98 -9q-33 0 -60.5 44t-27.5 87q0 11 5.5 23t14.5 12h10q15 -1 68 -4.5t82 -3.5h10q21 0 33 6h18q18 0 27 14v143q0 13 -6 37v236q-2 46 -19 151v33q0 48 -7 125 t-7 139q0 64 2 76q-1 2 -2 6.5t-2 7.5t-2.5 7t-3 7t-3.5 5.5t-5 4t-6 1.5q-42 0 -101 -18q-1 0 -5 -3.5t-5 -3.5h-20q-6 0 -25.5 -8t-32.5 -8q-43 0 -71.5 32.5t-38 70.5t-9.5 77zM240 1485q0 20 19.5 46.5t35.5 37.5l74 37q39 18 96 36l37 13l-2 -2l22 16l39 12q17 2 47 15 q1 0 13 11t26 20.5t21 9.5q53 0 53 -86v-21q0 -1 -1 -6.5t-1 -7.5v-12q-4 -16 -21.5 -27.5t-33.5 -11.5h-80q0 -1 -4.5 -3t-11 -4t-9.5 -4l2 2q-17 -10 -24 -10l4 2q-17 -7 -100 -34t-134 -52l-4 -2q-8 -2 -24 -2q-7 0 -23 9.5t-16 17.5zM715 229v9h6z" />
<glyph unicode="&#xce;" horiz-adv-x="962" d="M102 1292q0 13 9.5 23t19.5 10h41q86 0 247.5 12.5t196.5 14.5q22 1 67.5 14.5t66.5 13.5q32 0 64.5 -39.5t45.5 -76.5v-4q0 -58 -133 -58q-47 -6 -63.5 -60.5t-16.5 -205.5v-82q15 -180 15 -451q0 -51 -1.5 -124t-1.5 -80q2 -5 8 -8.5t13 -5t8 -1.5q47 -13 72.5 -50.5 t25.5 -82.5q0 -9 -33 -21t-44 -12q-8 0 -17 3.5t-12 3.5h-4q-7 0 -57.5 -4.5t-59.5 -6.5h-72q-34 0 -98 -9t-98 -9q-33 0 -60.5 44t-27.5 87q0 11 5.5 23t14.5 12h10q15 -1 68 -4.5t82 -3.5h10q21 0 33 6h18q18 0 27 14v143q0 13 -6 37v236q-2 46 -19 151v33q0 48 -7 125 t-7 139q0 64 2 76q-1 2 -2 6.5t-2 7.5t-2.5 7t-3 7t-3.5 5.5t-5 4t-6 1.5q-42 0 -101 -18q-1 0 -5 -3.5t-5 -3.5h-20q-6 0 -25.5 -8t-32.5 -8q-43 0 -71.5 32.5t-38 70.5t-9.5 77zM106 1530v12l52 47l73 76q0 9 9 21.5t26 27t31 25.5t34 25t25 18q9 35 41 35q134 0 168 -27 q107 -113 226 -197l34 -24l25 -13q6 -3 6 -8q0 -71 -76 -71q-98 0 -114 36l-154 123l-37 21h-14q-15 -2 -45.5 -41t-40.5 -43q-11 -11 -22.5 -35.5t-20 -44.5t-28.5 -35.5t-48 -15.5q-17 0 -38 3t-48.5 11.5t-45.5 27.5t-18 46zM715 229v9h6z" />
<glyph unicode="&#xcf;" horiz-adv-x="962" d="M102 1292q0 13 9.5 23t19.5 10h41q86 0 247.5 12.5t196.5 14.5q22 1 67.5 14.5t66.5 13.5q32 0 64.5 -39.5t45.5 -76.5v-4q0 -58 -133 -58q-47 -6 -63.5 -60.5t-16.5 -205.5v-82q15 -180 15 -451q0 -51 -1.5 -124t-1.5 -80q2 -5 8 -8.5t13 -5t8 -1.5q47 -13 72.5 -50.5 t25.5 -82.5q0 -9 -33 -21t-44 -12q-8 0 -17 3.5t-12 3.5h-4q-7 0 -57.5 -4.5t-59.5 -6.5h-72q-34 0 -98 -9t-98 -9q-33 0 -60.5 44t-27.5 87q0 11 5.5 23t14.5 12h10q15 -1 68 -4.5t82 -3.5h10q21 0 33 6h18q18 0 27 14v143q0 13 -6 37v236q-2 46 -19 151v33q0 48 -7 125 t-7 139q0 64 2 76q-1 2 -2 6.5t-2 7.5t-2.5 7t-3 7t-3.5 5.5t-5 4t-6 1.5q-42 0 -101 -18q-1 0 -5 -3.5t-5 -3.5h-20q-6 0 -25.5 -8t-32.5 -8q-43 0 -71.5 32.5t-38 70.5t-9.5 77zM182 1616q0 33 29.5 70.5t64.5 37.5q21 0 23 -2q16 0 46 -9t60.5 -32t30.5 -53 q0 -22 -8.5 -33.5t-24 -25.5t-26.5 -35q-3 0 -17 -16t-35 -32t-42 -16q-15 0 -26.5 7.5t-25.5 23.5t-20 21q-29 0 -29 94zM526 1620q0 33 30 71t65 38q19 0 22 -3q16 0 46 -9t60.5 -32t30.5 -53q0 -22 -8.5 -33.5t-24 -25.5t-26.5 -35q-3 0 -17 -16t-35 -31.5t-42 -15.5 q-15 0 -26.5 7.5t-25.5 23t-20 20.5q-29 0 -29 94zM715 229v9h6z" />
<glyph unicode="&#xd1;" horiz-adv-x="1101" d="M102 1315q0 16 9.5 25t20 10.5t28.5 1.5q187 0 227 -58q8 -9 9.5 -31t4.5 -30q1 -5 17.5 -44t17.5 -42q39 -98 39 -115q4 -9 18 -34.5t17 -39.5v-10q11 -12 20 -30t18 -41t13 -31q16 -33 42.5 -103.5t46.5 -122.5t26 -55l14 -65q4 -22 17.5 -35t13.5 -23q0 -16 -6 -18 q14 0 20 -6v-19l-14 -14q12 -2 16.5 -7t6.5 -15.5t6 -16.5l10 -10q0 -1 1 -4.5t1 -5.5q0 -1 -1 -4.5t-1 -4.5q0 -18 12 -18q1 0 2.5 2t3 4.5t2.5 3.5v494q0 6 -3 61t-3 60v188q-6 27 -6 66v26q-1 5 -6.5 20t-8.5 26.5t-3 21.5q0 45 106 45q34 0 47.5 -0.5t37 -4.5t33 -12 t17.5 -24.5t8 -40.5v-33q0 -113 -10 -279.5t-10 -263.5l-4 -184q0 -3 -2.5 -13t-5.5 -11v-11q0 -22 4 -66t4 -65v-28q0 -2 -2.5 -8.5t-5.5 -6.5v-4q12 -12 12 -51q0 -1 -2 -9t-2 -9v-13q0 -4 2 -13.5t2 -14.5q0 -11 -6 -31t-6 -33v-22q5 -1 8.5 -12.5t3.5 -16.5 q0 -18 -35.5 -49t-56.5 -31q-29 0 -127 35q-11 0 -49.5 16.5t-44.5 32.5v6q-9 60 -31 118.5t-27 80.5q-3 31 -16 74t-25.5 74t-36 85.5t-32.5 75.5q0 16 -20 58.5t-25 66.5l-72 139q-2 11 -25 52.5t-32 41.5h-2q0 -2 -3.5 -11.5t-3.5 -10.5v-27q0 -1 -2 -8t-2 -8t2 -17 t2 -18q0 -1 -4 -10t-4 -10v-5q0 -3 2 -29.5t2 -29.5v-235q0 -9 -3 -83t-3 -114q0 -69 3 -129.5t3 -71.5v-8q0 -32 -26 -55t-56 -23q-26 0 -64 24t-38 52q0 16 6 20v404q-6 12 -6 35v139q0 14 -3 48t-3 40q0 15 1 40t1 26q-1 8 -3 75t-3 74v23q0 13 3 35.5t3 35.5q0 23 -5 71 t-5 71v34q-1 7 -6 27t-5 31zM205 1542q0 22 12 59t14 46l9 34q6 27 15 40.5t20.5 22t17.5 17.5l18 25q19 26 88 26q24 0 82 -16q33 0 66 -25t54.5 -55t41.5 -55t29 -25l37 -47q9 0 24 31.5t15 48.5q-3 26 -5.5 49t-4 35.5t-1.5 11.5v17q0 28 21 28h2q76 -10 76 -24l16 -10 q29 -15 37 -47.5t8 -83.5q0 -74 -43 -148t-94 -74q-29 0 -54 8.5t-43.5 19t-43 36.5t-39 45t-45.5 59l-23 39q-8 10 -35 10q-90 0 -90 -98v-33q0 -33 -15 -61.5t-48 -28.5q-10 0 -36.5 13t-54.5 43.5t-28 66.5z" />
<glyph unicode="&#xd2;" horiz-adv-x="1171" d="M102 635v12q0 55 9 109t16.5 78.5t30 85.5t26.5 73q6 13 11.5 42.5t15.5 47.5l16 29q3 7 30.5 41.5t33.5 40.5q3 4 23 29.5t28 34.5t28.5 31t35 32t35.5 23t43 18.5t46 5.5q21 0 57 -6.5t54 -7.5l94 -23q11 -2 21 -6.5t21.5 -11t19.5 -10.5q12 0 34 -26.5t37 -31.5 l31 -20q52 -35 91.5 -95.5t39.5 -97.5l17 -59q22 -81 22 -176q0 -36 -6 -94.5t-6 -94.5v-43q0 -16 -9 -66t-24 -65l-16 -59l-11 -15l-39 -88q0 -37 -165 -202l-19 -9l-20 -16l-23 -20q-27 -15 -63 -15h-37q-13 0 -40 -5t-42 -5q-33 0 -76.5 20.5t-50.5 20.5q-37 0 -87.5 38 t-92.5 83l-11 12q-52 59 -79 156l-19 69q0 11 -10 31q0 41 -10.5 106t-10.5 99zM307 561q6 -22 6 -24l-1 -9q-1 -9 -1 -14q0 -23 11.5 -67t11.5 -70v-35q2 0 7 -5t5 -7q3 -5 17.5 -30t18.5 -32t18 -28.5t21.5 -30t22 -25.5t26 -26t27.5 -19.5t33 -17.5h5q14 0 32 3t41 10.5 t38.5 24t15.5 40.5l18 12q6 10 23 31.5t24 25.5q2 20 29.5 54.5t27.5 56.5v27q12 12 23.5 39t11.5 47v28q0 2 5 13.5t5 13.5v61q0 1 3.5 10.5t3.5 10.5v41q0 56 6 80v38q0 21 -3.5 44t-10.5 51.5t-9 42.5q-2 11 -3.5 28t-4 29.5t-8.5 24.5q-6 4 -18.5 30t-20.5 49l-23 41 q-18 21 -64 46.5t-65 25.5h-10l-82 -63q-14 -4 -30 -22t-25.5 -33.5t-25.5 -46t-21 -38.5q-66 -116 -84 -190q-19 -75 -27 -242v-4zM344 1630v21q0 86 53 86q12 0 18 -5t9.5 -12t9.5 -15t23.5 -14.5t46.5 -9.5l39 -12l22 -16l-2 2l37 -13q69 -22 96 -36l74 -37 q16 -11 35.5 -37.5t19.5 -46.5q0 -8 -15.5 -17.5t-23.5 -9.5q-16 0 -24 2l-4 2q-50 24 -138.5 51t-115.5 43l2 -2q-25 10 -25 11h-80q-16 0 -33.5 11.5t-21.5 27.5v12q0 2 -1 7.5t-1 6.5z" />
<glyph unicode="&#xd3;" horiz-adv-x="1171" d="M102 635v12q0 55 9 109t16.5 78.5t30 85.5t26.5 73q6 13 11.5 42.5t15.5 47.5l16 29q3 7 30.5 41.5t33.5 40.5q3 4 23 29.5t28 34.5t28.5 31t35 32t35.5 23t43 18.5t46 5.5q21 0 57 -6.5t54 -7.5l94 -23q11 -2 21 -6.5t21.5 -11t19.5 -10.5q12 0 34 -26.5t37 -31.5 l31 -20q52 -35 91.5 -95.5t39.5 -97.5l17 -59q22 -81 22 -176q0 -36 -6 -94.5t-6 -94.5v-43q0 -16 -9 -66t-24 -65l-16 -59l-11 -15l-39 -88q0 -37 -165 -202l-19 -9l-20 -16l-23 -20q-27 -15 -63 -15h-37q-13 0 -40 -5t-42 -5q-33 0 -76.5 20.5t-50.5 20.5q-37 0 -87.5 38 t-92.5 83l-11 12q-52 59 -79 156l-19 69q0 11 -10 31q0 41 -10.5 106t-10.5 99zM307 561q6 -22 6 -24l-1 -9q-1 -9 -1 -14q0 -23 11.5 -67t11.5 -70v-35q2 0 7 -5t5 -7q3 -5 17.5 -30t18.5 -32t18 -28.5t21.5 -30t22 -25.5t26 -26t27.5 -19.5t33 -17.5h5q14 0 32 3t41 10.5 t38.5 24t15.5 40.5l18 12q6 10 23 31.5t24 25.5q2 20 29.5 54.5t27.5 56.5v27q12 12 23.5 39t11.5 47v28q0 2 5 13.5t5 13.5v61q0 1 3.5 10.5t3.5 10.5v41q0 56 6 80v38q0 21 -3.5 44t-10.5 51.5t-9 42.5q-2 11 -3.5 28t-4 29.5t-8.5 24.5q-6 4 -18.5 30t-20.5 49l-23 41 q-18 21 -64 46.5t-65 25.5h-10l-82 -63q-14 -4 -30 -22t-25.5 -33.5t-25.5 -46t-21 -38.5q-66 -116 -84 -190q-19 -75 -27 -242v-4zM344 1485q0 20 19.5 46.5t35.5 37.5l74 37q39 18 96 36l37 13l-2 -2l23 16l39 12q17 2 47 15q1 0 13 11t25.5 20.5t20.5 9.5q53 0 53 -86 v-21q0 -1 -1 -6.5t-1 -7.5v-12q-4 -16 -21.5 -27.5t-33.5 -11.5h-80q0 -1 -4 -2.5t-10.5 -4t-9.5 -4.5l2 2q-17 -10 -25 -10l4 2q-17 -7 -99.5 -34t-133.5 -52l-4 -2q-8 -2 -25 -2q-7 0 -23 9.5t-16 17.5z" />
<glyph unicode="&#xd4;" horiz-adv-x="1171" d="M102 635v12q0 55 9 109t16.5 78.5t30 85.5t26.5 73q6 13 11.5 42.5t15.5 47.5l16 29q3 7 30.5 41.5t33.5 40.5q3 4 23 29.5t28 34.5t28.5 31t35 32t35.5 23t43 18.5t46 5.5q21 0 57 -6.5t54 -7.5l94 -23q11 -2 21 -6.5t21.5 -11t19.5 -10.5q12 0 34 -26.5t37 -31.5 l31 -20q52 -35 91.5 -95.5t39.5 -97.5l17 -59q22 -81 22 -176q0 -36 -6 -94.5t-6 -94.5v-43q0 -16 -9 -66t-24 -65l-16 -59l-11 -15l-39 -88q0 -37 -165 -202l-19 -9l-20 -16l-23 -20q-27 -15 -63 -15h-37q-13 0 -40 -5t-42 -5q-33 0 -76.5 20.5t-50.5 20.5q-37 0 -87.5 38 t-92.5 83l-11 12q-52 59 -79 156l-19 69q0 11 -10 31q0 41 -10.5 106t-10.5 99zM178 1501v12l51 48l74 75q0 9 9 21.5t26 27t31 25.5t34 25t25 18q9 35 41 35q134 0 168 -27q106 -112 225 -196l35 -25l25 -12q6 -3 6 -8q0 -72 -76 -72q-98 0 -115 37l-153 123l-37 20h-15 q-15 -2 -45.5 -41t-40.5 -43q-12 -12 -26.5 -48t-35 -59.5t-56.5 -23.5q-17 0 -38 3t-48.5 11.5t-45.5 27.5t-18 46zM307 561q6 -22 6 -24l-1 -9q-1 -9 -1 -14q0 -23 11.5 -67t11.5 -70v-35q2 0 7 -5t5 -7q3 -5 17.5 -30t18.5 -32t18 -28.5t21.5 -30t22 -25.5t26 -26 t27.5 -19.5t33 -17.5h5q14 0 32 3t41 10.5t38.5 24t15.5 40.5l18 12q6 10 23 31.5t24 25.5q2 20 29.5 54.5t27.5 56.5v27q12 12 23.5 39t11.5 47v28q0 2 5 13.5t5 13.5v61q0 1 3.5 10.5t3.5 10.5v41q0 56 6 80v38q0 21 -3.5 44t-10.5 51.5t-9 42.5q-2 11 -3.5 28t-4 29.5 t-8.5 24.5q-6 4 -18.5 30t-20.5 49l-23 41q-18 21 -64 46.5t-65 25.5h-10l-82 -63q-14 -4 -30 -22t-25.5 -33.5t-25.5 -46t-21 -38.5q-66 -116 -84 -190q-19 -75 -27 -242v-4z" />
<glyph unicode="&#xd5;" horiz-adv-x="1171" d="M102 635v12q0 55 9 109t16.5 78.5t30 85.5t26.5 73q6 13 11.5 42.5t15.5 47.5l16 29q3 7 30.5 41.5t33.5 40.5q3 4 23 29.5t28 34.5t28.5 31t35 32t35.5 23t43 18.5t46 5.5q21 0 57 -6.5t54 -7.5l94 -23q11 -2 21 -6.5t21.5 -11t19.5 -10.5q12 0 34 -26.5t37 -31.5 l31 -20q52 -35 91.5 -95.5t39.5 -97.5l17 -59q22 -81 22 -176q0 -36 -6 -94.5t-6 -94.5v-43q0 -16 -9 -66t-24 -65l-16 -59l-11 -15l-39 -88q0 -37 -165 -202l-19 -9l-20 -16l-23 -20q-27 -15 -63 -15h-37q-13 0 -40 -5t-42 -5q-33 0 -76.5 20.5t-50.5 20.5q-37 0 -87.5 38 t-92.5 83l-11 12q-52 59 -79 156l-19 69q0 11 -10 31q0 41 -10.5 106t-10.5 99zM240 1599q0 22 12 59t14 46l8 35q5 21 12 34.5t13.5 18.5t15 12t13.5 15l18 24q19 27 88 27q20 0 82 -17q33 0 66 -25t54.5 -54.5t41.5 -54.5t29 -25l36 -47q9 0 24 31t15 48q-3 24 -5.5 49 t-3.5 37t-1 11v16q0 29 21 29h2q75 -9 75 -25l17 -10q29 -15 37 -48t8 -83q0 -74 -43 -147.5t-94 -73.5q-36 0 -64 10t-57 36t-48.5 49.5t-56.5 72.5l-22 39q-8 10 -35 10q-90 0 -90 -99v-32q0 -33 -15.5 -61.5t-48.5 -28.5q-10 0 -36 13t-54 43t-28 66zM307 561 q6 -22 6 -24l-1 -9q-1 -9 -1 -14q0 -23 11.5 -67t11.5 -70v-35q2 0 7 -5t5 -7q3 -5 17.5 -30t18.5 -32t18 -28.5t21.5 -30t22 -25.5t26 -26t27.5 -19.5t33 -17.5h5q14 0 32 3t41 10.5t38.5 24t15.5 40.5l18 12q6 10 23 31.5t24 25.5q2 20 29.5 54.5t27.5 56.5v27 q12 12 23.5 39t11.5 47v28q0 2 5 13.5t5 13.5v61q0 1 3.5 10.5t3.5 10.5v41q0 56 6 80v38q0 21 -3.5 44t-10.5 51.5t-9 42.5q-2 11 -3.5 28t-4 29.5t-8.5 24.5q-6 4 -18.5 30t-20.5 49l-23 41q-18 21 -64 46.5t-65 25.5h-10l-82 -63q-14 -4 -30 -22t-25.5 -33.5t-25.5 -46 t-21 -38.5q-66 -116 -84 -190q-19 -75 -27 -242v-4z" />
<glyph unicode="&#xd6;" horiz-adv-x="1171" d="M102 635v12q0 55 9 109t16.5 78.5t30 85.5t26.5 73q6 13 11.5 42.5t15.5 47.5l16 29q3 7 30.5 41.5t33.5 40.5q3 4 23 29.5t28 34.5t28.5 31t35 32t35.5 23t43 18.5t46 5.5q21 0 57 -6.5t54 -7.5l94 -23q11 -2 21 -6.5t21.5 -11t19.5 -10.5q12 0 34 -26.5t37 -31.5 l31 -20q52 -35 91.5 -95.5t39.5 -97.5l17 -59q22 -81 22 -176q0 -36 -6 -94.5t-6 -94.5v-43q0 -16 -9 -66t-24 -65l-16 -59l-11 -15l-39 -88q0 -37 -165 -202l-19 -9l-20 -16l-23 -20q-27 -15 -63 -15h-37q-13 0 -40 -5t-42 -5q-33 0 -76.5 20.5t-50.5 20.5q-37 0 -87.5 38 t-92.5 83l-11 12q-52 59 -79 156l-19 69q0 11 -10 31q0 41 -10.5 106t-10.5 99zM287 1609v7q0 33 29.5 70.5t64.5 37.5q20 0 22 -2q16 0 46 -9t61 -32t31 -53q0 -22 -8.5 -33.5t-24.5 -25.5t-27 -35q-3 0 -17 -16t-35 -32t-42 -16q-15 0 -26.5 7.5t-25.5 23.5t-20 21 q-29 0 -28 87zM307 561q6 -22 6 -24l-1 -9q-1 -9 -1 -14q0 -23 11.5 -67t11.5 -70v-35q2 0 7 -5t5 -7q3 -5 17.5 -30t18.5 -32t18 -28.5t21.5 -30t22 -25.5t26 -26t27.5 -19.5t33 -17.5h5q14 0 32 3t41 10.5t38.5 24t15.5 40.5l18 12q6 10 23 31.5t24 25.5q2 20 29.5 54.5 t27.5 56.5v27q12 12 23.5 39t11.5 47v28q0 2 5 13.5t5 13.5v61q0 1 3.5 10.5t3.5 10.5v41q0 56 6 80v38q0 21 -3.5 44t-10.5 51.5t-9 42.5q-2 11 -3.5 28t-4 29.5t-8.5 24.5q-6 4 -18.5 30t-20.5 49l-23 41q-18 21 -64 46.5t-65 25.5h-10l-82 -63q-14 -4 -30 -22 t-25.5 -33.5t-25.5 -46t-21 -38.5q-66 -116 -84 -190q-19 -75 -27 -242v-4zM631 1613v7q0 33 29.5 71t64.5 38q20 0 23 -3q16 0 46 -9t60.5 -32t30.5 -53q0 -22 -8.5 -33.5t-24.5 -25.5t-27 -35q-3 0 -17 -16t-35 -31.5t-42 -15.5q-15 0 -26.5 7.5t-25.5 23t-20 20.5 q-29 0 -28 87z" />
<glyph unicode="&#xd8;" horiz-adv-x="1171" d="M102 635v12q0 55 9 109t16.5 78.5t30 85.5t26.5 73q6 13 11.5 42.5t15.5 47.5l16 29q3 7 30.5 41.5t33.5 40.5q3 4 23 29.5t28 34.5t28.5 31t35 32t35.5 23t43 18.5t46 5.5q21 0 57 -6.5t54 -7.5l80 -21q20 51 37 51l8 -2q29 0 66 -6t75.5 -28t38.5 -56q0 -24 -33 -78 q48 -37 82.5 -92.5t34.5 -89.5l17 -59q22 -81 22 -176q0 -36 -6 -94.5t-6 -94.5v-43q0 -16 -9 -66t-24 -65l-16 -59l-11 -15l-39 -88q0 -37 -165 -202l-19 -9l-20 -16l-23 -20q-27 -15 -63 -15h-37q-13 0 -40 -5t-42 -5q-33 0 -76.5 20.5t-50.5 20.5q-32 0 -62 18 q-3 -3 -10.5 -14t-12 -16.5t-12 -11t-14.5 -5.5l-35 -37q-3 -1 -16.5 -7.5t-19.5 -6.5t-10.5 20t-4.5 29q0 10 7.5 20.5t7.5 22.5v17l22 55q4 4 4 10q-15 15 -24 27l-11 12q-52 59 -79 156l-19 69q0 11 -10 31q0 41 -10.5 106t-10.5 99zM307 561q6 -22 6 -24l-1 -9 q-1 -9 -1 -14q0 -23 11.5 -67t11.5 -70v-35l10 -10l8 14q0 1 8 25q7 29 17 58.5t24.5 64t23.5 54.5t29.5 62t26.5 56q14 31 30.5 85t27.5 78q0 15 13.5 40t16.5 36q20 33 51 140t46 137q-41 18 -54 18h-10l-82 -63q-14 -4 -30 -22t-25.5 -33.5t-25.5 -46t-21 -38.5 q-66 -116 -84 -190q-19 -75 -27 -242v-4zM444 180q41 -41 86 -59h5q14 0 32 3t41 10.5t38.5 24t15.5 40.5l18 12q6 10 23 31.5t24 25.5q2 20 29.5 54.5t27.5 56.5v27q12 12 23.5 39t11.5 47v28q0 2 5 13.5t5 13.5v61q0 1 3.5 10.5t3.5 10.5v41q0 56 6 80v38q0 21 -3.5 44 t-10.5 51.5t-9 42.5q-1 7 -4.5 33.5t-9.5 39.5q-6 -12 -16.5 -37.5t-14.5 -33.5l-16 -35l-27.5 -55t-39 -82t-15.5 -47v-2l2 -7l-10 -12q-34 -74 -66.5 -153.5t-58.5 -131.5l-29 -79q-10 -17 -34 -69t-36 -75z" />
<glyph unicode="&#xd9;" horiz-adv-x="1165" d="M102 950q0 3 2 26t2 30q-4 2 -4 12q0 25 2 79t2 81v36q0 2 -2 13.5t-2 13.5q0 11 11 24t22 13h125q8 -4 41 -12.5t51.5 -21t18.5 -34.5q0 -19 -8 -51t-9 -49q-8 -90 -14 -102v-8q1 -9 1.5 -20.5t0.5 -18.5q0 -30 -8 -35v-193q0 -3 3 -26t3 -25v-20l8 -21v-145 q5 -5 5 -31.5t5 -36.5q4 -20 23 -59t46.5 -83.5t65 -77t72.5 -32.5h6q5 0 11 6q5 1 31 7.5t37 10.5t30 12.5t30.5 20t18.5 27.5q2 6 6 19t6.5 19.5t9.5 16t17 17.5q-2 4 -2 24q0 7 1.5 14.5t3 12.5t5 13t5.5 11t7.5 13t6.5 12q0 28 12 81t12 81q8 4 8 14v305q0 61 -8 193 q-2 21 -13 67t-11 70v19q0 11 26 18h19q1 1 12.5 3.5t13.5 2.5q1 0 10.5 -3t10.5 -3h55q55 0 84 -16t29 -56q0 -18 -2 -52t-2 -52q0 -14 6 -44t6 -46v-27l-8 -14l8 -41q-1 -5 -6 -53t-6 -52v-20q0 -1 -3.5 -16t-3.5 -17l7 -8v-10q-5 -37 -7 -100.5t-9 -116t-25 -103.5 q-15 -30 -15 -53l-22 -41q-7 -13 -10.5 -39t-6.5 -35l-22 -30l-8 -19l-21 -12l-26 -35q-54 -52 -138 -100q0 -5 -9.5 -6.5t-25 -2t-24.5 -2.5q0 -1 -24 -7t-53 -11.5t-40 -5.5h-6q-35 0 -78 24l-4 5q-53 20 -81 32.5t-65.5 36t-66 55.5t-55.5 78q-2 1 -13 21l-10 20 q-12 11 -22 33.5t-15 41.5t-11.5 50.5t-8.5 40.5v37q0 2 -5 20t-5 23v16q-1 9 -7 48t-6 63v244q0 2 -2 12t-2 12zM342 1630v21q0 86 53 86q12 0 18 -5t9.5 -12t9.5 -15t23.5 -14.5t46.5 -9.5l39 -12l22 -16l-2 2l37 -13q69 -22 96 -36l74 -37q16 -11 35.5 -37.5t19.5 -46.5 q0 -8 -15.5 -17.5t-23.5 -9.5q-16 0 -24 2l-4 2q-50 24 -138.5 51t-115.5 43l2 -2q-25 10 -25 11h-80q-16 0 -33.5 11.5t-21.5 27.5v12q0 2 -1 7.5t-1 6.5z" />
<glyph unicode="&#xda;" horiz-adv-x="1165" d="M102 950q0 3 2 26t2 30q-4 2 -4 12q0 25 2 79t2 81v36q0 2 -2 13.5t-2 13.5q0 11 11 24t22 13h125q8 -4 41 -12.5t51.5 -21t18.5 -34.5q0 -19 -8 -51t-9 -49q-8 -90 -14 -102v-8q1 -9 1.5 -20.5t0.5 -18.5q0 -30 -8 -35v-193q0 -3 3 -26t3 -25v-20l8 -21v-145 q5 -5 5 -31.5t5 -36.5q4 -20 23 -59t46.5 -83.5t65 -77t72.5 -32.5h6q5 0 11 6q5 1 31 7.5t37 10.5t30 12.5t30.5 20t18.5 27.5q2 6 6 19t6.5 19.5t9.5 16t17 17.5q-2 4 -2 24q0 7 1.5 14.5t3 12.5t5 13t5.5 11t7.5 13t6.5 12q0 28 12 81t12 81q8 4 8 14v305q0 61 -8 193 q-2 21 -13 67t-11 70v19q0 11 26 18h19q1 1 12.5 3.5t13.5 2.5q1 0 10.5 -3t10.5 -3h55q55 0 84 -16t29 -56q0 -18 -2 -52t-2 -52q0 -14 6 -44t6 -46v-27l-8 -14l8 -41q-1 -5 -6 -53t-6 -52v-20q0 -1 -3.5 -16t-3.5 -17l7 -8v-10q-5 -37 -7 -100.5t-9 -116t-25 -103.5 q-15 -30 -15 -53l-22 -41q-7 -13 -10.5 -39t-6.5 -35l-22 -30l-8 -19l-21 -12l-26 -35q-54 -52 -138 -100q0 -5 -9.5 -6.5t-25 -2t-24.5 -2.5q0 -1 -24 -7t-53 -11.5t-40 -5.5h-6q-35 0 -78 24l-4 5q-53 20 -81 32.5t-65.5 36t-66 55.5t-55.5 78q-2 1 -13 21l-10 20 q-12 11 -22 33.5t-15 41.5t-11.5 50.5t-8.5 40.5v37q0 2 -5 20t-5 23v16q-1 9 -7 48t-6 63v244q0 2 -2 12t-2 12zM342 1485q0 20 19.5 46.5t35.5 37.5l74 37q38 18 96 36l37 13l-2 -2l23 16l39 12q17 2 47 15q1 0 13 11t25.5 20.5t20.5 9.5q53 0 53 -86v-21q0 -1 -1 -6.5 t-1 -7.5v-12q-4 -16 -21.5 -27.5t-33.5 -11.5h-80q0 -1 -4 -2.5t-10.5 -4t-9.5 -4.5l2 2q-17 -10 -25 -10l4 2q-17 -7 -99.5 -34t-133.5 -52l-4 -2q-8 -2 -25 -2q-7 0 -23 9.5t-16 17.5z" />
<glyph unicode="&#xdb;" horiz-adv-x="1165" d="M102 950q0 3 2 26t2 30q-4 2 -4 12q0 25 2 79t2 81v36q0 2 -2 13.5t-2 13.5q0 11 11 24t22 13h125q8 -4 41 -12.5t51.5 -21t18.5 -34.5q0 -19 -8 -51t-9 -49q-8 -90 -14 -102v-8q1 -9 1.5 -20.5t0.5 -18.5q0 -30 -8 -35v-193q0 -3 3 -26t3 -25v-20l8 -21v-145 q5 -5 5 -31.5t5 -36.5q4 -20 23 -59t46.5 -83.5t65 -77t72.5 -32.5h6q5 0 11 6q5 1 31 7.5t37 10.5t30 12.5t30.5 20t18.5 27.5q2 6 6 19t6.5 19.5t9.5 16t17 17.5q-2 4 -2 24q0 7 1.5 14.5t3 12.5t5 13t5.5 11t7.5 13t6.5 12q0 28 12 81t12 81q8 4 8 14v305q0 61 -8 193 q-2 21 -13 67t-11 70v19q0 11 26 18h19q1 1 12.5 3.5t13.5 2.5q1 0 10.5 -3t10.5 -3h55q55 0 84 -16t29 -56q0 -18 -2 -52t-2 -52q0 -14 6 -44t6 -46v-27l-8 -14l8 -41q-1 -5 -6 -53t-6 -52v-20q0 -1 -3.5 -16t-3.5 -17l7 -8v-10q-5 -37 -7 -100.5t-9 -116t-25 -103.5 q-15 -30 -15 -53l-22 -41q-7 -13 -10.5 -39t-6.5 -35l-22 -30l-8 -19l-21 -12l-26 -35q-54 -52 -138 -100q0 -5 -9.5 -6.5t-25 -2t-24.5 -2.5q0 -1 -24 -7t-53 -11.5t-40 -5.5h-6q-35 0 -78 24l-4 5q-53 20 -81 32.5t-65.5 36t-66 55.5t-55.5 78q-2 1 -13 21l-10 20 q-12 11 -22 33.5t-15 41.5t-11.5 50.5t-8.5 40.5v37q0 2 -5 20t-5 23v16q-1 9 -7 48t-6 63v244q0 2 -2 12t-2 12zM207 1530v12l51 47l74 76q0 9 9 21.5t26 27t31 25.5t34 25t25 18q9 35 41 35q134 0 168 -27q109 -115 225 -197l35 -24l24 -13q6 -3 6 -8q0 -71 -75 -71 q-99 0 -115 36l-154 123l-37 21h-14q-15 -2 -45.5 -41t-40.5 -43q-11 -11 -22.5 -35.5t-20 -44.5t-28.5 -35.5t-48 -15.5q-17 0 -38 3t-48 11.5t-45 27.5t-18 46z" />
<glyph unicode="&#xdc;" horiz-adv-x="1165" d="M102 950q0 3 2 26t2 30q-4 2 -4 12q0 25 2 79t2 81v36q0 2 -2 13.5t-2 13.5q0 11 11 24t22 13h125q8 -4 41 -12.5t51.5 -21t18.5 -34.5q0 -19 -8 -51t-9 -49q-8 -90 -14 -102v-8q1 -9 1.5 -20.5t0.5 -18.5q0 -30 -8 -35v-193q0 -3 3 -26t3 -25v-20l8 -21v-145 q5 -5 5 -31.5t5 -36.5q4 -20 23 -59t46.5 -83.5t65 -77t72.5 -32.5h6q5 0 11 6q5 1 31 7.5t37 10.5t30 12.5t30.5 20t18.5 27.5q2 6 6 19t6.5 19.5t9.5 16t17 17.5q-2 4 -2 24q0 7 1.5 14.5t3 12.5t5 13t5.5 11t7.5 13t6.5 12q0 28 12 81t12 81q8 4 8 14v305q0 61 -8 193 q-2 21 -13 67t-11 70v19q0 11 26 18h19q1 1 12.5 3.5t13.5 2.5q1 0 10.5 -3t10.5 -3h55q55 0 84 -16t29 -56q0 -18 -2 -52t-2 -52q0 -14 6 -44t6 -46v-27l-8 -14l8 -41q-1 -5 -6 -53t-6 -52v-20q0 -1 -3.5 -16t-3.5 -17l7 -8v-10q-5 -37 -7 -100.5t-9 -116t-25 -103.5 q-15 -30 -15 -53l-22 -41q-7 -13 -10.5 -39t-6.5 -35l-22 -30l-8 -19l-21 -12l-26 -35q-54 -52 -138 -100q0 -5 -9.5 -6.5t-25 -2t-24.5 -2.5q0 -1 -24 -7t-53 -11.5t-40 -5.5h-6q-35 0 -78 24l-4 5q-53 20 -81 32.5t-65.5 36t-66 55.5t-55.5 78q-2 1 -13 21l-10 20 q-12 11 -22 33.5t-15 41.5t-11.5 50.5t-8.5 40.5v37q0 2 -5 20t-5 23v16q-1 9 -7 48t-6 63v244q0 2 -2 12t-2 12zM285 1609v7q0 33 29.5 70.5t64.5 37.5q20 0 22 -2q16 0 46 -9t61 -32t31 -53q0 -22 -8.5 -33.5t-24.5 -25.5t-27 -35q-3 0 -17 -16t-35 -32t-42 -16 q-15 0 -26.5 7.5t-25.5 23.5t-20 21q-29 0 -28 87zM629 1613v7q0 33 29.5 71t64.5 38q19 0 22 -3q16 0 46 -9t61 -32t31 -53q0 -22 -8.5 -33.5t-24.5 -25.5t-27 -35q-3 0 -17 -16t-35 -31.5t-42 -15.5q-15 0 -26.5 7.5t-25.5 23t-20 20.5q-29 0 -28 87z" />
<glyph unicode="&#xdd;" horiz-adv-x="1392" d="M102 1294q0 16 4.5 24.5t9 11t20 6.5t24.5 7h6q1 -3 8.5 -5.5t9.5 -2.5h4q2 0 18 4t19 4h99q5 -14 30.5 -19t32.5 -17q16 -28 32 -93t34 -94q30 -66 103.5 -174.5t98.5 -157.5l25 -47q10 -27 74 -151l6 -6l6 6q26 45 39 123q45 84 119 260q59 145 69 153q-2 2 -2 4 q1 0 6 19.5t16 52.5t23 58l2 10q7 14 9.5 37.5t9 35t28.5 11.5q61 0 124 -27t81 -80v-2q0 -10 -4.5 -20t-14.5 -23.5t-11 -15.5l-33 -72q-2 -3 -12 -32t-31.5 -76.5t-50.5 -96.5q-33 -25 -55 -84.5t-40.5 -121t-40.5 -85.5q-10 -11 -14.5 -19.5t-7.5 -19t-21 -46.5t-49 -89 v-82q0 -12 -20 -31t-21 -20q-24 -35 -57 -99.5t-47 -86.5l-19 -16l-12 -25q-15 -30 -41 -53l-22 -47l-19 -19q0 -1 -4 -7t-4 -7l-25 -41q0 -1 -2 -9.5t-2 -9.5l-18 -18q-8 -8 -8 -10q0 -33 -38 -70t-77 -37q-11 0 -19.5 5t-17 13t-14.5 11l-39 20q-7 5 -20 26.5t-13 31.5 q0 2 2 11.5t2 10.5l37 25q2 1 9.5 20t9.5 21q0 1 7 11t7 11l24 41q7 12 23.5 32t28.5 35t12 21l20 33q0 2 4 10t5 9l18 24q9 20 20.5 57.5t20.5 57.5l9.5 19t9 18.5t7 16.5t6.5 18t3.5 17.5t1.5 20.5v19l-23 29q-88 106 -88 139q-60 117 -120 214.5t-72 119.5l-47 69l-29 35 l-117 205q-3 5 -14 17.5t-16 22t-5 21.5zM455 1485q0 20 19.5 46.5t35.5 37.5l74 37q38 18 96 36l37 13l-2 -2l22 16l39 12q17 2 47 15q1 0 13 11t26 20.5t21 9.5q53 0 53 -86v-21q0 -1 -1 -6.5t-1 -7.5v-12q-4 -16 -21.5 -27.5t-33.5 -11.5h-80q0 -1 -4.5 -3t-11 -4 t-9.5 -4l2 2q-17 -10 -24 -10l4 2q-17 -7 -100 -34t-134 -52l-4 -2q-8 -2 -24 -2q-8 0 -23.5 9.5t-15.5 17.5z" />
<glyph unicode="&#xdf;" horiz-adv-x="1110" d="M94 379l4 84q0 51 8.5 85t8.5 64q8 103 44 202.5t95.5 183.5t151.5 136t200 52q66 0 105 -4q85 -10 159 -79.5t74 -158.5q0 -34 -20.5 -103t-51.5 -112l-53 -63q2 -2 4 -2l54 -27q51 -38 69 -115l-4 -2q14 -13 24.5 -31t10.5 -26l-1 -5q-1 -4 -1 -9q0 -17 12 -30t12 -38 l-8 -43q8 -32 8 -57q0 -99 -73 -184t-174 -85q-149 0 -224 58.5t-75 165.5v32q6 23 24.5 34.5t33.5 13t40 1.5h27q14 0 40 -6t48 -6v-35q0 -9 -7 -16v-29q7 -7 7 -18q0 -2 -1 -5.5t-1 -4.5l20 -23v2q17 -26 35 -26q27 0 46 30t25.5 59.5t6.5 49.5v10l-9 76v18q0 4 -4 4 l-34 90q-23 32 -23 39l-37 31q-8 2 -24 2q-3 0 -9 -1t-8 -1h-8q-8 0 -14 2q-15 3 -32.5 8.5t-39 14.5t-35.5 23t-14 30q0 40 72 59l26 6h-2q8 3 18 10t15 9l14 10q7 4 32.5 39t33.5 57v27l10 16v-2q4 23 4 64q0 61 -29.5 90t-66.5 29q-47 0 -85 -17t-67 -50t-49.5 -63.5 t-46 -75t-41.5 -67.5v-24q0 -10 -10 -29.5t-10 -28.5v-65q-13 -78 -13 -123v-17q4 -23 4 -75l4 -6v-89q0 -36 15 -75q19 -26 19.5 -103t8.5 -102q3 -7 14 -20.5t19 -31.5t8 -42l-12 -21q-37 -61 -129 -61q-29 0 -49 6l-68 29l-22 28v41q0 11 3 41t3 37v8q0 21 -5.5 51 t-10.5 49.5t-4 20.5v145q-5 10 -7.5 30t-7.5 30z" />
<glyph unicode="&#xe0;" horiz-adv-x="1028" d="M102 328v37q0 64 18.5 120t52 99.5t66 73t74.5 59.5q11 7 36.5 23.5t36.5 22.5t31.5 15t42 12t48.5 3q48 0 168 -52h6l6 7q-2 4 -2 22q0 19 6 28.5t23 20.5h12q23 0 65.5 -10t85 -35t42.5 -57v-6q-12 -55 -23.5 -127.5t-11.5 -91.5q0 -62 20 -101v-147q6 -11 8 -13l7 -6 q0 -5 -4.5 -10t-4.5 -18q0 -7 0.5 -17t0.5 -17l1 -7q-1 0 -3 -17t-5 -42t-6 -38v-51q0 -6 6 -12l21 -29q0 -14 -43 -48t-54 -34q-24 0 -65.5 28.5t-54.5 49.5l-27 51h-6l-19 -12h-159q-18 7 -55 8.5t-48 3.5q-16 3 -31.5 9.5t-36 19t-28.5 16.5l-63 31q0 1 -13 14l-69 58 l-13 18q-39 39 -39 148zM272 1096v20q0 86 54 86q12 0 18 -4.5t9.5 -12t9 -15t23 -14t46.5 -9.5l39 -12l23 -17l-2 2l36 -12q66 -21 97 -37l73 -37q17 -11 36.5 -37.5t19.5 -46.5q0 -8 -15.5 -17t-23.5 -9q-17 0 -25 2l-4 2q-50 24 -138.5 51t-115.5 43l2 -2l-24 10h-80 q-16 0 -34 11.5t-22 27.5v12q0 2 -1 8t-1 7zM356 305q0 -83 40 -114t124 -31q32 0 48 9t27.5 26t22.5 24q1 1 17 11t21.5 14.5t17.5 14t18.5 18.5t9.5 18l13 33l-13 100q-6 12 -6 27l-8 127q-18 14 -70 14q-191 0 -247 -205l-15 -39v-47z" />
<glyph unicode="&#xe1;" horiz-adv-x="1028" d="M102 328v37q0 64 18.5 120t52 99.5t66 73t74.5 59.5q11 7 36.5 23.5t36.5 22.5t31.5 15t42 12t48.5 3q48 0 168 -52h6l6 7q-2 4 -2 22q0 19 6 28.5t23 20.5h12q23 0 65.5 -10t85 -35t42.5 -57v-6q-12 -55 -23.5 -127.5t-11.5 -91.5q0 -62 20 -101v-147q6 -11 8 -13l7 -6 q0 -5 -4.5 -10t-4.5 -18q0 -7 0.5 -17t0.5 -17l1 -7q-1 0 -3 -17t-5 -42t-6 -38v-51q0 -6 6 -12l21 -29q0 -14 -43 -48t-54 -34q-24 0 -65.5 28.5t-54.5 49.5l-27 51h-6l-19 -12h-159q-18 7 -55 8.5t-48 3.5q-16 3 -31.5 9.5t-36 19t-28.5 16.5l-63 31q0 1 -13 14l-69 58 l-13 18q-39 39 -39 148zM272 950q0 20 19.5 46.5t36.5 37.5l73 37q43 20 97 37l37 12l-3 -2l23 17l39 12q20 3 47 14q1 0 13 11t25.5 20.5t20.5 9.5q54 0 54 -86v-20q0 -1 -1 -7t-1 -8v-12q-4 -16 -22 -27.5t-34 -11.5h-80q0 -1 -4 -2.5t-10.5 -3.5t-9.5 -4l2 2 q-17 -10 -25 -10l4 2q-17 -7 -99.5 -34t-133.5 -52l-4 -2q-8 -2 -25 -2q-8 0 -23.5 9t-15.5 17zM356 305q0 -83 40 -114t124 -31q32 0 48 9t27.5 26t22.5 24q1 1 17 11t21.5 14.5t17.5 14t18.5 18.5t9.5 18l13 33l-13 100q-6 12 -6 27l-8 127q-18 14 -70 14 q-191 0 -247 -205l-15 -39v-47z" />
<glyph unicode="&#xe2;" horiz-adv-x="1028" d="M102 328v37q0 64 18.5 120t52 99.5t66 73t74.5 59.5q11 7 36.5 23.5t36.5 22.5t31.5 15t42 12t48.5 3q48 0 168 -52h6l6 7q-2 4 -2 22q0 19 6 28.5t23 20.5h12q23 0 65.5 -10t85 -35t42.5 -57v-6q-12 -55 -23.5 -127.5t-11.5 -91.5q0 -62 20 -101v-147q6 -11 8 -13l7 -6 q0 -5 -4.5 -10t-4.5 -18q0 -7 0.5 -17t0.5 -17l1 -7q-1 0 -3 -17t-5 -42t-6 -38v-51q0 -6 6 -12l21 -29q0 -14 -43 -48t-54 -34q-24 0 -65.5 28.5t-54.5 49.5l-27 51h-6l-19 -12h-159q-18 7 -55 8.5t-48 3.5q-16 3 -31.5 9.5t-36 19t-28.5 16.5l-63 31q0 1 -13 14l-69 58 l-13 18q-39 39 -39 148zM139 995v13l51 47l74 75q0 9 9 21.5t26 27t31 25.5t34 25t25 18q9 35 41 35q134 0 168 -27q106 -112 225 -196l35 -25l25 -12q6 -3 6 -8q0 -72 -76 -72q-98 0 -115 37l-153 123l-37 20h-14q-15 -2 -45.5 -41t-40.5 -43q-11 -11 -22.5 -35.5 t-20 -44.5t-28.5 -35.5t-48 -15.5q-17 0 -38 3t-48.5 11.5t-45.5 27.5t-18 46zM356 305q0 -83 40 -114t124 -31q32 0 48 9t27.5 26t22.5 24q1 1 17 11t21.5 14.5t17.5 14t18.5 18.5t9.5 18l13 33l-13 100q-6 12 -6 27l-8 127q-18 14 -70 14q-191 0 -247 -205l-15 -39v-47z " />
<glyph unicode="&#xe3;" horiz-adv-x="1028" d="M102 328v37q0 64 18.5 120t52 99.5t66 73t74.5 59.5q11 7 36.5 23.5t36.5 22.5t31.5 15t42 12t48.5 3q48 0 168 -52h6l6 7q-2 4 -2 22q0 19 6 28.5t23 20.5h12q23 0 65.5 -10t85 -35t42.5 -57v-6q-12 -55 -23.5 -127.5t-11.5 -91.5q0 -62 20 -101v-147q6 -11 8 -13l7 -6 q0 -5 -4.5 -10t-4.5 -18q0 -7 0.5 -17t0.5 -17l1 -7q-1 0 -3 -17t-5 -42t-6 -38v-51q0 -6 6 -12l21 -29q0 -14 -43 -48t-54 -34q-24 0 -65.5 28.5t-54.5 49.5l-27 51h-6l-19 -12h-159q-18 7 -55 8.5t-48 3.5q-16 3 -31.5 9.5t-36 19t-28.5 16.5l-63 31q0 1 -13 14l-69 58 l-13 18q-39 39 -39 148zM168 1065q0 21 12.5 57t14.5 47l8 35q6 27 15 40.5t20.5 22t17.5 17.5l18 25q19 26 88 26q24 0 82 -16q33 0 66 -25t54.5 -55t41.5 -55t29 -25l37 -47q9 0 24 31.5t15 48.5q-3 26 -5.5 49t-4 35.5t-1.5 11.5v17q0 28 21 28h2q76 -9 76 -24l16 -11 q29 -15 37 -47.5t8 -83.5q0 -74 -43 -147.5t-94 -73.5q-29 0 -54 8.5t-43.5 19t-43 36.5t-39 45t-45.5 59l-23 39q-8 10 -35 10q-90 0 -90 -98v-33q0 -33 -15 -61.5t-48 -28.5q-10 0 -36.5 13t-54.5 43.5t-28 66.5zM356 305q0 -83 40 -114t124 -31q32 0 48 9t27.5 26 t22.5 24q1 1 17 11t21.5 14.5t17.5 14t18.5 18.5t9.5 18l13 33l-13 100q-6 12 -6 27l-8 127q-18 14 -70 14q-191 0 -247 -205l-15 -39v-47z" />
<glyph unicode="&#xe4;" horiz-adv-x="1028" d="M102 328v37q0 64 18.5 120t52 99.5t66 73t74.5 59.5q11 7 36.5 23.5t36.5 22.5t31.5 15t42 12t48.5 3q48 0 168 -52h6l6 7q-2 4 -2 22q0 19 6 28.5t23 20.5h12q23 0 65.5 -10t85 -35t42.5 -57v-6q-12 -55 -23.5 -127.5t-11.5 -91.5q0 -62 20 -101v-147q6 -11 8 -13l7 -6 q0 -5 -4.5 -10t-4.5 -18q0 -7 0.5 -17t0.5 -17l1 -7q-1 0 -3 -17t-5 -42t-6 -38v-51q0 -6 6 -12l21 -29q0 -14 -43 -48t-54 -34q-24 0 -65.5 28.5t-54.5 49.5l-27 51h-6l-19 -12h-159q-18 7 -55 8.5t-48 3.5q-16 3 -31.5 9.5t-36 19t-28.5 16.5l-63 31q0 1 -13 14l-69 58 l-13 18q-39 39 -39 148zM264 1044q0 33 29.5 71t64.5 38q21 0 23 -2q16 0 46 -9t60.5 -32t30.5 -53q0 -22 -8.5 -33.5t-24 -25.5t-26.5 -35q-3 0 -17 -16t-35 -32t-42 -16q-15 0 -26.5 7.5t-25.5 23t-20 20.5q-29 0 -29 94zM356 305q0 -83 40 -114t124 -31q32 0 48 9 t27.5 26t22.5 24q1 1 17 11t21.5 14.5t17.5 14t18.5 18.5t9.5 18l13 33l-13 100q-6 12 -6 27l-8 127q-18 14 -70 14q-191 0 -247 -205l-15 -39v-47zM608 1049q0 33 29.5 70.5t64.5 37.5q21 0 23 -2q16 0 46 -9t60.5 -32t30.5 -53q0 -22 -8.5 -33.5t-24 -25.5t-26.5 -35 q-3 0 -17 -16t-35 -32t-42 -16q-15 0 -26.5 7.5t-25.5 23t-20 20.5q-29 0 -29 95z" />
<glyph unicode="&#xe5;" horiz-adv-x="1028" d="M102 328v37q0 64 18.5 120t52 99.5t66 73t74.5 59.5q11 7 36.5 23.5t36.5 22.5t31.5 15t42 12t48.5 3q48 0 168 -52h6l6 7q-2 4 -2 22q0 19 6 28.5t23 20.5h12q23 0 65.5 -10t85 -35t42.5 -57v-6q-12 -55 -23.5 -127.5t-11.5 -91.5q0 -62 20 -101v-147q6 -11 8 -13l7 -6 q0 -5 -4.5 -10t-4.5 -18q0 -7 0.5 -17t0.5 -17l1 -7q-1 0 -3 -17t-5 -42t-6 -38v-51q0 -6 6 -12l21 -29q0 -14 -43 -48t-54 -34q-24 0 -65.5 28.5t-54.5 49.5l-27 51h-6l-19 -12h-159q-18 7 -55 8.5t-48 3.5q-16 3 -31.5 9.5t-36 19t-28.5 16.5l-63 31q0 1 -13 14l-69 58 l-13 18q-39 39 -39 148zM293 1194q0 34 34.5 89t65.5 81l60 33q36 20 82 20q3 0 8 -2t8 -2l45 -10l39 -25l-2 2l18 -6q4 -1 17.5 -5.5t18.5 -6t16.5 -6t17.5 -8t15.5 -9.5t17.5 -12.5t16 -15.5l10 -15q0 -2 3 -22.5t5 -28.5l3 -6q8 -27 8 -65v-17q-13 -17 -13 -20q0 -2 1 -7 t1 -8q0 -13 -8 -30t-8 -39v-23l-10 -18q-39 -55 -81.5 -83.5t-107.5 -35.5h-20q-52 0 -121 27l-20 16h2l-39 29q0 2 -8 10q-74 24 -74 219zM356 305q0 -83 40 -114t124 -31q32 0 48 9t27.5 26t22.5 24q1 1 17 11t21.5 14.5t17.5 14t18.5 18.5t9.5 18l13 33l-13 100 q-6 12 -6 27l-8 127q-18 14 -70 14q-191 0 -247 -205l-15 -39v-47zM465 1124q0 -10 3 -28.5t3 -28.5v-12q2 -12 25.5 -28.5t40.5 -16.5q12 0 20 4l-2 -2q70 35 92 157l-6 82q-4 18 -12.5 23.5t-21 6t-19.5 5.5h-10q-7 0 -13 -1.5t-13.5 -5.5t-10.5 -6t-13 -10t-12 -10 l-27 -22l-4 -14v6q-20 -51 -20 -93v-6z" />
<glyph unicode="&#xe6;" horiz-adv-x="1644" d="M102 328v37q0 64 18.5 120t52 99.5t66 73t74.5 59.5q11 7 36.5 23.5t36.5 22.5t31.5 15t42 12t48.5 3q48 0 168 -52h6l6 7q-2 4 -2 22q0 19 6 28.5t23 20.5h12q37 0 104.5 -23.5t83.5 -60.5q49 33 95 37q78 0 149 -12l74 -12q10 -10 36 -24.5t31 -18.5l11 -9l-2 -2 q0 -5 32 -43l19 -14q70 -86 70 -148q0 -76 -84 -137q-1 -3 -52 -26.5t-53 -26.5l-8 -4l-94 -45q-12 0 -112.5 -30t-100.5 -46q0 -61 51 -98t94 -37q87 0 181.5 49.5t142.5 112.5l18 -4q40 -7 82.5 -58t46.5 -78q-2 -7 -26 -20t-29 -21q-3 -16 -8.5 -21t-16 -6.5t-16.5 -6.5 l-6 -4q-3 -1 -8 -3.5t-9.5 -5t-5.5 -2.5l2 2q-6 0 -36.5 -17t-30.5 -24l2 -2l-11 -8q-2 -1 -25 -9t-32 -10.5t-35 -9.5t-46 -10t-51 -5.5t-64 -2.5q-97 0 -121 33l-41 22l-19 15q-28 5 -78 38.5t-73 36.5l-76 -6h-6l-19 -12h-159q-18 7 -55 8.5t-48 3.5q-16 3 -31.5 9.5 t-36 19t-28.5 16.5l-63 31q0 1 -13 14l-69 58l-13 18q-39 39 -39 148zM356 305q0 -83 40 -114t124 -31q32 0 48 9t27.5 26t22.5 24q1 1 17 11t21.5 14.5t17.5 14t18.5 18.5t9.5 18l11 29l-11 104q-6 12 -6 27l-8 127q-18 14 -70 14q-191 0 -247 -205l-15 -39v-47zM926 416 l10 -13h8q54 0 167.5 52.5t119.5 87.5v4q0 26 -32.5 37.5t-59.5 11.5q-85 0 -146 -70q-6 -4 -15 -12t-27.5 -36.5t-24.5 -61.5z" />
<glyph unicode="&#xe7;" horiz-adv-x="950" d="M102 406v6q17 205 107 295l80 65l86 62q58 28 88 28q33 0 49 -6q10 -11 64.5 -27.5t72.5 -31.5l37 -31q8 -6 31.5 -19.5t37 -27.5t13.5 -33q0 -39 -32.5 -63.5t-73.5 -24.5q-18 0 -54 7t-53 7q-43 0 -53 -8q-6 -4 -15.5 -11.5t-34.5 -32.5t-44 -52t-34.5 -68.5 t-15.5 -83.5v-6q11 -44 11 -47l20 -49q9 -25 27.5 -45.5t40.5 -20.5q44 0 78 26t50 57t29 61t17 33h53q12 -2 47.5 -17t76 -46t40.5 -60v-4q0 -7 -6 -13l-37 -59q-9 -13 -24.5 -29.5t-28.5 -27.5t-28.5 -24t-18.5 -15q-59 -47 -84 -59t-76 -13v-14q8 -24 8 -56q6 -10 45 -12 t85 -9.5t67 -29.5t43 -67.5t22 -77.5q0 -38 -16 -78q0 -8 -27 -42.5t-27 -41.5l-28 -25q-10 -6 -12 -6l-9 -4q0 -4 -23.5 -18t-55 -26.5t-50.5 -12.5h-2q-42 8 -61 10h-17q-11 3 -41 27l-28 24q-67 55 -70 92v9q0 41 90 41h13q41 0 51 -3.5t10 -15.5q0 -5 -2 -15.5t-2 -21.5 q0 -12 4 -14q1 0 12.5 -8.5t27.5 -17.5t28 -9l6 2q27 8 46 36.5t19 45.5v18q4 13 4 15l-8 53q-4 25 -18 49.5t-33 24.5h-10q-2 0 -24 -6.5t-25 -6.5h-29q-70 0 -106.5 25.5t-36.5 85.5v123q-35 19 -61.5 39t-45.5 42t-30.5 38t-28 42.5t-27.5 41.5q-10 14 -17 25t-11.5 18.5 t-10 22.5t-8 22t-10.5 33t-13 41z" />
<glyph unicode="&#xe8;" horiz-adv-x="1034" d="M102 414q0 13 4 41v2q0 1 17 60t30.5 94.5t22.5 35.5l2 17l23 32l2 11q4 9 9.5 16t14.5 15.5t13 13.5l20 20l29 21q29 21 51 32t32.5 13.5t26.5 3.5q74 0 150 -13l74 -12q10 -10 36 -24.5t31 -18.5l10 -8l-2 -2q0 -4 5.5 -11t15.5 -18.5t12 -13.5l19 -14q69 -85 69 -148 q0 -76 -84 -137q-1 -3 -51.5 -26.5t-52.5 -26.5l-8 -4l-95 -46q-12 0 -112.5 -29.5t-100.5 -45.5q0 -61 51.5 -98t94.5 -37q87 0 181 49t142 112l19 -4q40 -7 82.5 -57.5t46.5 -77.5q-2 -7 -26 -20t-29 -21q-3 -16 -8.5 -21t-16 -7t-16.5 -7l-7 -4q-2 -1 -7.5 -3.5 t-9.5 -4.5t-5 -2l2 2q-6 0 -37 -17t-31 -24l2 -2l-10 -8l-25 -8q-24 -9 -32.5 -11.5t-35 -9.5t-46.5 -9.5t-51 -5.5t-64 -3q-97 0 -121 32l-41 23l-34 27q-6 4 -13 15t-12.5 19.5t-7.5 8.5l-2 -2l-33 47q-1 1 -11.5 16t-14 19.5t-14 21t-15.5 26t-14.5 27.5t-14 31.5 t-11.5 34t-10 38.5t-5.5 40.5t-2.5 44.5zM276 1096v20q0 86 54 86q12 0 18 -4.5t9.5 -12t9 -15t23 -14t46.5 -9.5l39 -12l23 -17l-2 2l36 -12q66 -21 97 -37l73 -37q17 -11 36.5 -37.5t19.5 -46.5q0 -8 -15.5 -17t-23.5 -9q-17 0 -25 2l-4 2q-50 24 -138.5 51t-115.5 43 l2 -2l-24 10h-80q-16 0 -33.5 11.5t-21.5 27.5v12q0 2 -1.5 8t-1.5 7zM315 485l11 -12h8q54 0 167.5 52t119.5 87v4q0 19 -20 31t-39.5 15.5t-33.5 3.5q-84 0 -145 -70q-6 -4 -15.5 -12.5t-28 -37t-24.5 -61.5z" />
<glyph unicode="&#xe9;" horiz-adv-x="1034" d="M102 414q0 13 4 41v2q4 10 18 62.5t28 90t24 37.5l2 17l23 32l2 11q4 9 9.5 16t14.5 15.5t13 13.5l20 20l29 21q29 21 51 32t32.5 13.5t26.5 3.5q74 0 150 -13l74 -12q10 -10 36 -24.5t31 -18.5l10 -8l-2 -2q0 -4 5.5 -11t15.5 -18.5t12 -13.5l19 -14q69 -85 69 -148 q0 -76 -84 -137q-1 -3 -51.5 -26.5t-52.5 -26.5l-8 -4l-95 -46q-12 0 -112.5 -29.5t-100.5 -45.5q0 -61 51.5 -98t94.5 -37q87 0 181 49t142 112l19 -4q40 -7 82.5 -57.5t46.5 -77.5q-2 -7 -26 -20t-29 -21q-3 -16 -8.5 -21t-16 -7t-16.5 -7l-7 -4q-2 -1 -7.5 -3.5 t-9.5 -4.5t-5 -2l2 2q-6 0 -37 -17t-31 -24l2 -2l-10 -8l-25 -8q-24 -9 -32.5 -11.5t-35 -9.5t-46.5 -9.5t-51 -5.5t-64 -3q-97 0 -121 32l-41 23l-34 27q-6 4 -13 15t-12.5 19.5t-7.5 8.5l-2 -2l-33 47q-1 1 -11.5 16t-14 19.5t-14 21t-15.5 26t-14.5 27.5t-14 31.5 t-11.5 34t-10 38.5t-5.5 40.5t-2.5 44.5zM215 942q0 20 19.5 46.5t35.5 37.5l74 37q46 21 96 37l37 12l-2 -2l23 16l39 13q20 3 47 14q1 0 13 11t25.5 20.5t20.5 9.5q53 0 53 -86v-21q0 -1 -1 -6.5t-1 -7.5v-12q-4 -16 -21.5 -27.5t-33.5 -11.5h-80q0 -1 -4 -2.5t-10.5 -3.5 t-9.5 -4l2 2q-17 -10 -25 -10l4 2q-17 -7 -99.5 -34t-133.5 -52l-4 -2q-12 -3 -25 -3q-7 0 -23 9.5t-16 17.5zM315 485l11 -12h8q54 0 167.5 52t119.5 87v4q0 19 -20 31t-39.5 15.5t-33.5 3.5q-84 0 -145 -70q-6 -4 -15.5 -12.5t-28 -37t-24.5 -61.5z" />
<glyph unicode="&#xea;" horiz-adv-x="1034" d="M43 983v12l51 47l74 76q0 9 9 21.5t26 27t31 25.5t34 25t25 18q9 35 41 35q134 0 168 -27q106 -112 225 -196l35 -25l24 -12q7 -4 7 -9q0 -71 -76 -71q-98 0 -115 37l-153 123l-37 20h-15q-15 -2 -45.5 -41t-40.5 -43q-12 -12 -26.5 -48t-35 -59.5t-56.5 -23.5 q-17 0 -38 3t-48.5 11.5t-45.5 27.5t-18 46zM102 414q0 13 4 41v2q0 1 17 60t30.5 94.5t22.5 35.5l2 17l23 32l2 11q4 9 9.5 16t14.5 15.5t13 13.5l20 20l29 21q29 21 51 32t32.5 13.5t26.5 3.5q74 0 150 -13l74 -12q10 -10 36 -24.5t31 -18.5l10 -8l-2 -2q0 -4 5.5 -11 t15.5 -18.5t12 -13.5l19 -14q69 -85 69 -148q0 -76 -84 -137q-1 -3 -51.5 -26.5t-52.5 -26.5l-8 -4l-95 -46q-12 0 -112.5 -29.5t-100.5 -45.5q0 -61 51.5 -98t94.5 -37q87 0 181 49t142 112l19 -4q40 -7 82.5 -57.5t46.5 -77.5q-2 -7 -26 -20t-29 -21q-3 -16 -8.5 -21 t-16 -7t-16.5 -7l-7 -4q-2 -1 -7.5 -3.5t-9.5 -4.5t-5 -2l2 2q-6 0 -37 -17t-31 -24l2 -2l-10 -8l-25 -8q-24 -9 -32.5 -11.5t-35 -9.5t-46.5 -9.5t-51 -5.5t-64 -3q-97 0 -121 32l-41 23l-34 27q-6 4 -13 15t-12.5 19.5t-7.5 8.5l-2 -2l-33 47q-1 1 -11.5 16t-14 19.5 t-14 21t-15.5 26t-14.5 27.5t-14 31.5t-11.5 34t-10 38.5t-5.5 40.5t-2.5 44.5zM315 485l11 -12h8q54 0 167.5 52t119.5 87v4q0 19 -20 31t-39.5 15.5t-33.5 3.5q-84 0 -145 -70q-6 -4 -15.5 -12.5t-28 -37t-24.5 -61.5z" />
<glyph unicode="&#xeb;" horiz-adv-x="1034" d="M102 414q0 13 4 41v2q0 1 17 60t30.5 94.5t22.5 35.5l2 17l23 32l2 11q4 9 9.5 16t14.5 15.5t13 13.5l20 20l29 21q29 21 51 32t32.5 13.5t26.5 3.5q74 0 150 -13l74 -12q10 -10 36 -24.5t31 -18.5l10 -8l-2 -2q0 -4 5.5 -11t15.5 -18.5t12 -13.5l19 -14q69 -85 69 -148 q0 -76 -84 -137q-1 -3 -51.5 -26.5t-52.5 -26.5l-8 -4l-95 -46q-12 0 -112.5 -29.5t-100.5 -45.5q0 -61 51.5 -98t94.5 -37q87 0 181 49t142 112l19 -4q40 -7 82.5 -57.5t46.5 -77.5q-2 -7 -26 -20t-29 -21q-3 -16 -8.5 -21t-16 -7t-16.5 -7l-7 -4q-2 -1 -7.5 -3.5 t-9.5 -4.5t-5 -2l2 2q-6 0 -37 -17t-31 -24l2 -2l-10 -8l-25 -8q-24 -9 -32.5 -11.5t-35 -9.5t-46.5 -9.5t-51 -5.5t-64 -3q-97 0 -121 32l-41 23l-34 27q-6 4 -13 15t-12.5 19.5t-7.5 8.5l-2 -2l-33 47q-1 1 -11.5 16t-14 19.5t-14 21t-15.5 26t-14.5 27.5t-14 31.5 t-11.5 34t-10 38.5t-5.5 40.5t-2.5 44.5zM219 1081q0 33 29.5 71t64.5 38q21 0 23 -2q16 0 46 -9t60.5 -32t30.5 -53q0 -22 -8.5 -33.5t-24 -26t-26.5 -35.5q-3 0 -17.5 -15.5t-35.5 -31.5t-42 -16q-15 0 -26.5 7.5t-25 23t-19.5 20.5q-29 0 -29 94zM315 485l11 -12h8 q54 0 167.5 52t119.5 87v4q0 19 -20 31t-39.5 15.5t-33.5 3.5q-84 0 -145 -70q-6 -4 -15.5 -12.5t-28 -37t-24.5 -61.5zM563 1085q0 33 29.5 71t64.5 38q21 0 23 -2q16 0 46 -9t60.5 -32t30.5 -53q0 -22 -8.5 -33.5t-24 -25.5t-26.5 -35q-3 0 -17 -16t-35 -32t-42 -16 q-15 0 -26.5 7.5t-25.5 23t-20 20.5q-29 0 -29 94z" />
<glyph unicode="&#xec;" horiz-adv-x="520" d="M20 1096v20q0 86 54 86q12 0 18 -4.5t9.5 -12t9 -15t23 -14t46.5 -9.5l39 -12l23 -17l-2 2l36 -12q66 -21 97 -37l73 -37q17 -11 36.5 -37.5t19.5 -46.5q0 -8 -15.5 -17t-23.5 -9q-17 0 -25 2l-4 2q-50 24 -138.5 51t-115.5 43l2 -2l-24 10h-80q-16 0 -33.5 11.5 t-21.5 27.5v12q0 2 -1.5 8t-1.5 7zM150 768v6l6 37l14 10h127q35 0 78 -30.5t43 -65.5q0 -15 -13.5 -46.5t-13.5 -43.5v-51q0 -36 -6 -54v-14q8 -33 8 -67q0 -18 -1 -63t-1 -50q1 0 2 -3.5t2 -7.5t2 -6v-8q-6 -18 -6 -39v-129q0 -2 5 -34t7 -37v-15q-2 -1 -8.5 -14t-9.5 -16 q-5 -9 -32.5 -18t-39.5 -9h-10q-85 23 -110 86q-13 53 -13 143v72q0 39 -6.5 99t-7.5 87q0 3 2 27.5t2 26.5v8q0 105 -4 158q0 10 -8 30.5t-8 30.5z" />
<glyph unicode="&#xed;" horiz-adv-x="520" d="M20 950q0 20 19.5 46.5t36.5 37.5l74 37q46 21 96 37l37 12l-2 -2l22 17l39 12q20 3 47 14q1 0 13 11t26 20.5t21 9.5q53 0 53 -86v-20q0 -1 -1 -7t-1 -8v-12q-4 -16 -22 -27.5t-34 -11.5h-79q0 -1 -4.5 -2.5t-11 -3.5t-9.5 -4l2 2q-17 -10 -25 -10l5 2q-17 -7 -100 -34 t-134 -52l-4 -2q-8 -2 -25 -2q-8 0 -23.5 9t-15.5 17zM150 768v6l6 37l14 10h127q35 0 78 -30.5t43 -65.5q0 -15 -13.5 -46.5t-13.5 -43.5v-51q0 -36 -6 -54v-14q8 -33 8 -67q0 -18 -1 -63t-1 -50q1 0 2 -3.5t2 -7.5t2 -6v-8q-6 -18 -6 -39v-129q0 -2 5 -34t7 -37v-15 q-2 -1 -8.5 -14t-9.5 -16q-5 -9 -32.5 -18t-39.5 -9h-10q-85 23 -110 86q-13 53 -13 143v72q0 39 -6.5 99t-7.5 87q0 3 2 27.5t2 26.5v8q0 105 -4 158q0 10 -8 30.5t-8 30.5z" />
<glyph unicode="&#xee;" horiz-adv-x="520" d="M-115 995v13l52 47l73 75q0 9 9 21.5t26 27t31 25.5t34 25t25 18q9 35 41 35q134 0 168 -27q106 -112 225 -196l35 -25l25 -12q6 -3 6 -8q0 -72 -76 -72q-98 0 -115 37l-153 123l-37 20h-14q-15 -2 -45.5 -41t-40.5 -43q-11 -11 -22.5 -35.5t-20 -44.5t-28.5 -35.5 t-48 -15.5q-17 0 -38 3t-48.5 11.5t-45.5 27.5t-18 46zM150 768v6l6 37l14 10h127q35 0 78 -30.5t43 -65.5q0 -15 -13.5 -46.5t-13.5 -43.5v-51q0 -36 -6 -54v-14q8 -33 8 -67q0 -18 -1 -63t-1 -50q1 0 2 -3.5t2 -7.5t2 -6v-8q-6 -18 -6 -39v-129q0 -2 5 -34t7 -37v-15 q-2 -1 -8.5 -14t-9.5 -16q-5 -9 -32.5 -18t-39.5 -9h-10q-85 23 -110 86q-13 53 -13 143v72q0 39 -6.5 99t-7.5 87q0 3 2 27.5t2 26.5v8q0 105 -4 158q0 10 -8 30.5t-8 30.5z" />
<glyph unicode="&#xef;" horiz-adv-x="520" d="M-37 1081q0 33 29.5 71t64.5 38q21 0 23 -2q16 0 46 -9t60.5 -32t30.5 -53q0 -22 -8.5 -33.5t-24 -26t-26.5 -35.5q-3 0 -17.5 -15.5t-35.5 -31.5t-42 -16q-15 0 -26.5 7.5t-25 23t-19.5 20.5q-29 0 -29 94zM150 768v6l6 37l14 10h127q35 0 78 -30.5t43 -65.5 q0 -15 -13.5 -46.5t-13.5 -43.5v-51q0 -36 -6 -54v-14q8 -33 8 -67q0 -18 -1 -63t-1 -50q1 0 2 -3.5t2 -7.5t2 -6v-8q-6 -18 -6 -39v-129q0 -2 5 -34t7 -37v-15q-2 -1 -8.5 -14t-9.5 -16q-5 -9 -32.5 -18t-39.5 -9h-10q-85 23 -110 86q-13 53 -13 143v72q0 39 -6.5 99 t-7.5 87q0 3 2 27.5t2 26.5v8q0 105 -4 158q0 10 -8 30.5t-8 30.5zM307 1085q0 33 29.5 71t64.5 38q21 0 23 -2q16 0 46 -9t60.5 -32t30.5 -53q0 -22 -8.5 -33.5t-24 -25.5t-26.5 -35q-3 0 -17 -16t-35 -32t-42 -16q-15 0 -26.5 7.5t-25.5 23t-20 20.5q-29 0 -29 94z" />
<glyph unicode="&#xf1;" horiz-adv-x="1048" d="M102 809v37q13 18 35 18q82 0 158 -26l43 -23q0 -3 11 -19t11 -18v-90q5 -4 5 -6h4q19 0 51.5 36.5t36.5 39.5l30 14l21 16q56 33 131 33q12 0 29 -3l16 -3q5 -2 50 -7t84.5 -19.5t60.5 -43.5q1 -1 6.5 -14t7.5 -16q0 -21 23.5 -65t23.5 -70v-281q-10 -87 -10 -104v-29 q1 -10 8.5 -31.5t7.5 -34.5q0 -22 -41 -47.5t-65 -25.5h-17l-4 6q-8 7 -26.5 19.5t-28.5 20.5t-18.5 23t-8.5 33q0 20 3 39t3 47v100q0 3 3.5 32t3.5 32q0 7 -3 43t-4 41v43t-1.5 49.5t-5.5 42t-14 45.5t-26 35h-6q-59 -24 -96 -52t-64 -77l-49 -74q0 -1 -2 -11t-2 -11 q-3 -8 -14 -36t-15.5 -39.5t-14 -37t-13.5 -41.5t-9.5 -38.5t-7.5 -42.5t-2 -40v-39q1 -1 7 -18t6 -19v-10q0 -48 -38.5 -70t-88.5 -22q-6 0 -11.5 0.5t-11 2.5t-9.5 4t-9.5 5.5t-8 5.5t-8.5 7.5t-8 7.5l-8 8l-8 8q0 11 -23.5 31.5t-23.5 46.5q0 23 6 39v65q0 78 -23 338v23 l-9.5 57t-13 76.5t-9.5 36.5v33q0 1 -3.5 7t-3.5 7zM178 1065q0 21 12.5 57t14.5 47l8 35q6 27 15 40.5t20.5 22t17.5 17.5l19 25q19 26 88 26q24 0 82 -16q33 0 66 -25t54.5 -55t41 -55t28.5 -25l37 -47q9 0 24 31.5t15 48.5q-3 24 -5.5 49t-3.5 36.5t-1 10.5v17 q0 28 20 28h2q76 -9 76 -24l16 -11q29 -15 37 -47.5t8 -83.5q0 -74 -43 -147.5t-94 -73.5q-29 0 -54 8.5t-43.5 19t-43 36.5t-39 45t-45.5 59l-23 39q-8 10 -34 10q-91 0 -91 -98v-33q0 -33 -15 -61.5t-48 -28.5q-10 0 -36.5 13t-54.5 43.5t-28 66.5z" />
<glyph unicode="&#xf2;" horiz-adv-x="1046" d="M102 412q0 73 20.5 131t78.5 143l28 33q2 4 2 8l72 49l21 10l-2 -2l20 15q53 29 78 41.5t69.5 25.5t88.5 13q18 0 56 -11.5t50 -21.5l23 -21h-2q28 -14 42.5 -26.5t28.5 -36.5v2l12 -25q0 -1 7 -7.5t10 -8.5l63 -53q2 -3 11.5 -16.5t13 -19.5t12 -19t12.5 -21.5t10 -21.5 t9 -23t5.5 -22t2.5 -23q0 -48 -10.5 -89t-36 -84t-45 -69t-61.5 -76l-15 -18q-24 -35 -82 -68l-47 -26h2l-20 -11q-9 0 -17 -8q-93 -51 -172 -51h-39l-6 6h-14q-131 43 -205 155.5t-74 246.5zM283 1096v20q0 86 53 86q12 0 18 -4.5t9.5 -12t9 -15t23 -14t46.5 -9.5l39 -12 l23 -17l-2 2l37 -12q64 -20 96 -37l74 -37q16 -11 35.5 -37.5t19.5 -46.5q0 -8 -15.5 -17t-23.5 -9q-17 0 -25 2l-4 2q-50 24 -138.5 51t-115.5 43l2 -2l-24 10h-80q-16 0 -33.5 11.5t-21.5 27.5v12q0 2 -1 8t-1 7zM315 285q10 -43 18.5 -62t26.5 -30l-2 2q19 -7 43 -7 q38 0 72 12.5t66.5 39t52.5 46.5t51 56l37 41q33 16 53.5 72t20.5 106q0 29 -28.5 67t-76.5 38q-93 0 -170 -54q-6 -12 -22.5 -23.5t-26.5 -13.5l-18 -14q-25 -25 -29 -31l-49 -81q-7 -16 -9 -33t-2 -37.5t-1 -32.5z" />
<glyph unicode="&#xf3;" horiz-adv-x="1046" d="M102 412q0 73 20.5 131t78.5 143l28 33q2 4 2 8l72 49l21 10l-2 -2l20 15q53 29 78 41.5t69.5 25.5t88.5 13q18 0 56 -11.5t50 -21.5l23 -21h-2q28 -14 42.5 -26.5t28.5 -36.5v2l12 -25q0 -1 7 -7.5t10 -8.5l63 -53q2 -3 11.5 -16.5t13 -19.5t12 -19t12.5 -21.5t10 -21.5 t9 -23t5.5 -22t2.5 -23q0 -48 -10.5 -89t-36 -84t-45 -69t-61.5 -76l-15 -18q-24 -35 -82 -68l-47 -26h2l-20 -11q-9 0 -17 -8q-93 -51 -172 -51h-39l-6 6h-14q-131 43 -205 155.5t-74 246.5zM283 950q0 20 19.5 46.5t35.5 37.5l74 37q46 21 96 37l37 12l-2 -2l22 17l39 12 q20 3 47 14q1 0 13 11t26 20.5t21 9.5q53 0 53 -86v-20q0 -1 -1 -7t-1 -8v-12q-4 -16 -21.5 -27.5t-33.5 -11.5h-80q0 -1 -4.5 -2.5t-11 -3.5t-9.5 -4l2 2q-17 -10 -24 -10l4 2q-17 -7 -100 -34t-134 -52l-4 -2q-8 -2 -24 -2q-8 0 -23.5 9t-15.5 17zM315 285 q10 -43 18.5 -62t26.5 -30l-2 2q19 -7 43 -7q38 0 72 12.5t66.5 39t52.5 46.5t51 56l37 41q33 16 53.5 72t20.5 106q0 29 -28.5 67t-76.5 38q-93 0 -170 -54q-6 -12 -22.5 -23.5t-26.5 -13.5l-18 -14q-25 -25 -29 -31l-49 -81q-7 -16 -9 -33t-2 -37.5t-1 -32.5z" />
</font>
</defs>
</svg>
