<?xml version="1.0" standalone="no"?>
<!DOCTYPE svg PUBLIC "-//W3C//DTD SVG 1.1//EN" "http://www.w3.org/Graphics/SVG/1.1/DTD/svg11.dtd" >
<svg xmlns="http://www.w3.org/2000/svg" xmlns:xlink="http://www.w3.org/1999/xlink" version="1.1">
<metadata></metadata>
<defs>
<font id="properprincessmedium" horiz-adv-x="20" >
<font-face units-per-em="2048" ascent="1638" descent="-410" />
<missing-glyph horiz-adv-x="860" />
<glyph horiz-adv-x="0" />
<glyph unicode="&#xd;" horiz-adv-x="681" />
<glyph unicode=" "  horiz-adv-x="860" />
<glyph unicode="&#x09;" horiz-adv-x="860" />
<glyph unicode="&#xa0;" horiz-adv-x="860" />
<glyph unicode="!" horiz-adv-x="172" d="M25.5 259q15.5 40 70.5 32q33 -4 48.5 -41t4 -72t-46.5 -35q-41 0 -66.5 38t-10 78zM47 860q-6 434 6.5 466t52.5 26q14 -4 22.5 -15.5t12.5 -65.5t5 -135t1 -251q0 -399 -14 -439q-8 -20 -33 -20q-29 0 -34 31q-12 47 -19 403z" />
<glyph unicode="#" horiz-adv-x="1007" d="M20 460q0 11 33 46q18 20 46 34.5t51 14.5q49 0 78.5 36t23.5 87q-6 33 -24.5 45t-71.5 16q-106 8 -125 66q-14 45 47 69q31 10 74 11q78 0 88 18q6 10 -14.5 150.5t-10.5 171.5q12 33 57 35t72 -29t33 -182l8 -152l70 8q72 6 100.5 51t28.5 144q0 94 32.5 136t81.5 11 q23 -14 31 -54t8 -134v-162l78 8q84 8 90 -49q6 -53 -57 -92q-33 -20 -72 -25q-37 -4 -49 -18t-12 -47q0 -41 17.5 -51.5t92.5 -16.5q129 -8 158 -63q23 -45 -49 -70q-35 -12 -84 -16l-113 -6l-12 -166q-8 -119 -17.5 -141.5t-52.5 -22.5t-52 22.5t-19 141.5l-11 166h-188 l-12 -166q-8 -109 -18.5 -136.5t-41.5 -27.5q-18 0 -33.5 10t-17.5 25l-20 149q-10 82 -21.5 96.5t-58.5 4.5q-68 -12 -111 18q-31 25 -31 36zM385 672q0 -37 14.5 -47.5t67.5 -10.5q57 0 69.5 10.5t12.5 57.5q0 57 -20.5 69.5t-86.5 -6.5q-57 -16 -57 -73z" />
<glyph unicode="$" horiz-adv-x="837" d="M23.5 391.5q-13.5 57.5 31.5 95.5q29 23 43 13q20 -12 131 -156q61 -80 101 -65q25 10 33 48t8 148v180l-107 95q-76 66 -90 97.5t-14 121.5q0 86 14.5 120t75.5 95q51 49 106.5 96t88 71.5t36.5 26.5t107 -67q158 -109 206 -180.5t-3 -122.5q-33 -31 -57.5 -24t-82.5 69 l-69 71l-23 -61q-25 -61 -24 -178q0 -78 18 -120t90 -130q78 -94 92.5 -131t5.5 -117q-10 -96 -51 -153.5t-125 -94.5q-45 -18 -61.5 -39.5t-20.5 -66.5t-15 -61.5t-39 -16.5t-40 17.5t-18 64.5q-8 55 -22.5 70.5t-65.5 19.5q-41 4 -79 29.5t-91 89.5q-76 88 -89.5 145.5z M301 973q0 -29 35 -61.5t49 -18.5q12 10 4 125l-6 112l-41 -63q-41 -61 -41 -94zM494 410q6 -109 47 -107q20 2 43 43q31 57 1 109.5t-63 52.5q-20 0 -26.5 -20.5t-1.5 -77.5z" />
<glyph unicode="%" horiz-adv-x="1404" d="M63 846q-120 197 97 379q41 35 81 48t103 13q123 0 174 -32.5t45 -108.5q-18 -217 -33.5 -279.5t-58.5 -97.5q-104 -80 -222 -58.5t-186 136.5zM92 195q-4 31 74 119.5t301 308.5q385 374 561 530q96 86 149.5 120t86.5 30q59 -6 65 -56q4 -29 -39 -75t-162 -140 q-139 -113 -434 -396.5t-428 -430.5q-57 -66 -111.5 -69t-62.5 59zM163 986q-3 -21 38 -75q23 -31 47 -41t63 -6q51 6 60.5 26t9.5 114q0 84 -8 107.5t-41 27.5q-49 8 -111 -66q-55 -66 -58 -87zM770 436q0 78 52.5 155t144.5 132q86 53 152.5 41t156.5 -94 q102 -94 108.5 -166t-77.5 -154q-78 -76 -174.5 -107.5t-175 -18t-133 68.5t-54.5 143zM919.5 464.5q-8.5 -22.5 6.5 -44.5q27 -43 87 -45t126 39q72 45 74 81.5t-68 71.5q-70 37 -93.5 32t-82.5 -67q-41 -45 -49.5 -67.5z" />
<glyph unicode="&#x26;" horiz-adv-x="952" d="M20 383v147l130 113q92 80 110.5 112.5t18.5 110.5q0 68 14 106t57 87q31 35 68 61.5t57 28.5q131 18 203 -28t72 -148q0 -61 -22.5 -98t-109.5 -121l-131 -125l56 -103q23 -41 47 -70.5t35.5 -29.5t41 29.5t60.5 70.5q45 63 71.5 82t63.5 13q72 -6 70 -52.5t-74 -122.5 q-78 -80 -95.5 -141t11.5 -149q31 -92 17 -129q-18 -43 -67.5 -33t-86.5 63l-47 64l-84 -41q-121 -57 -264.5 -26.5t-190.5 124.5q-31 59 -31 205zM174 448.5q-33 -63.5 2 -163.5q16 -43 87 -74t122 -18q84 20 90 63t-57 160q-80 150 -103 155q-18 4 -63 -27.5t-78 -95z M422 885q-6 -41 20 -58q25 -14 84.5 40t59.5 91q0 43 -43 44.5t-84 -41.5q-31 -35 -37 -76z" />
<glyph unicode="'" horiz-adv-x="215" d="M28.5 905q-18.5 49 6.5 172q28 149 53 178t58.5 28t43.5 -32q12 -29 -6 -204q-12 -113 -24.5 -145t-42.5 -36q-70 -10 -88.5 39z" />
<glyph unicode="(" horiz-adv-x="518" d="M23.5 541.5q11.5 150.5 62.5 255.5q51 100 180 295q76 117 113 154.5t67 33.5q76 -10 39 -106q-29 -74 -131 -230q-94 -143 -130 -212.5t-48 -119t-22 -75.5q-10 -27 -10.5 -47.5t7 -38t19.5 -61.5t20 -99q6 -45 24.5 -96.5t39.5 -73.5q39 -51 37 -131t-45 -88 q-41 -8 -105.5 103.5t-95.5 242.5q-33 143 -21.5 293.5z" />
<glyph unicode=")" horiz-adv-x="438" d="M26.5 1217q-16.5 50 10.5 77q25 20 54.5 18.5t65.5 -32.5t69.5 -77t67.5 -112.5t60 -142.5q51 -150 61.5 -349.5t-26.5 -319.5q-39 -133 -140.5 -282t-146.5 -142q-115 16 23 227q74 117 128 272.5t43 220t-36 146.5l-55 190q-12 43 -45 101.5t-64 93.5q-53 61 -69.5 111 z" />
<glyph unicode="*" horiz-adv-x="737" d="M26.5 1111q-12.5 22 4.5 50q59 96 176 -2q31 -27 58.5 -41t35.5 -8q20 12 20.5 126t18.5 128q33 33 61.5 4t34.5 -98q4 -84 18.5 -93.5t96.5 19.5q49 18 70.5 16t44.5 -26q35 -33 18.5 -73t-80.5 -71q-61 -31 -58 -60.5t70 -70.5q150 -88 76 -159q-25 -25 -39 -25t-51 27 q-63 43 -89 33.5t-26 -76.5q0 -66 -31.5 -103t-74.5 -22q-35 14 -35 120.5t-24 118.5q-8 6 -37 -7t-60 -38q-61 -53 -101 -53t-71 49q-14 27 -4 48.5t62 64.5l82 69l-95 80q-59 51 -71.5 73z" />
<glyph unicode="+" horiz-adv-x="999" d="M27 662q-18 47 27.5 73.5t181.5 44.5l170 23l12 164q8 129 23.5 177t58.5 48q41 0 56 -47t15 -174v-166l181 8q123 4 155.5 -3t50.5 -42q35 -68 1.5 -86t-191.5 -20q-201 -2 -227 -21q-27 -16 -28 -122.5t24 -153.5t-2 -94.5t-78 -41.5q-35 6 -45.5 39t-18.5 170l-10 199 l-172 -8q-104 -4 -140 2t-44 31z" />
<glyph unicode="," horiz-adv-x="319" d="M20.5 15q4.5 48 46.5 75t44 51.5t-37 65.5q-23 27 -24.5 41t16.5 37q29 35 90 33.5t100 -37.5q39 -33 44 -109t-28 -115q-37 -45 -110.5 -81.5t-104.5 -24.5q-41 16 -36.5 64z" />
<glyph unicode="-" horiz-adv-x="688" d="M20.5 624q-1.5 15 16.5 35q16 23 74.5 27t226.5 -6q309 -14 328 -64q8 -20 -17 -49q-16 -20 -75.5 -27.5t-217.5 -7.5q-174 0 -226 8.5t-81 39.5q-27 29 -28.5 44z" />
<glyph unicode="." horiz-adv-x="215" d="M24.5 183q-14.5 40 18.5 81q31 35 75 30t66 -46q25 -49 -3.5 -84t-90.5 -27q-51 6 -65.5 46z" />
<glyph unicode="/" horiz-adv-x="706" d="M22.5 218.5q8.5 31.5 67.5 152.5q29 57 106.5 209.5t142 278.5t81.5 167q36 82 59 119q31 43 51.5 90t26.5 70.5t21.5 37t46.5 9.5q47 -8 58 -45t-7.5 -92.5t-43 -108.5t-54 -109.5t-37.5 -78.5q-33 -92 -214.5 -424t-207.5 -349q-23 -14 -39.5 -11t-38.5 26 q-27 27 -18.5 58.5z" />
<glyph unicode="0" horiz-adv-x="741" d="M20 634.5q0 49.5 31 203.5q35 180 84 268t160 174q233 176 369 -53q37 -63 47 -116.5t10 -182.5q0 -199 -35 -326l-63 -223q-25 -90 -73 -142.5t-132 -80.5q-61 -20 -88 -17.5t-74 37.5q-76 53 -122 124t-83 189q-31 96 -31 145.5zM194.5 588.5q18.5 -150.5 84.5 -232.5 q39 -51 89 -54t74 42q43 86 90.5 285.5t47.5 304.5q0 100 -9.5 137t-44.5 70q-55 53 -100 48t-107 -71q-74 -80 -108.5 -229.5t-16 -300z" />
<glyph unicode="1" horiz-adv-x="645" d="M32.5 271q28.5 38 102.5 38h80l18 199q18 201 23 389q4 162 -8 176q-8 10 -43 6q-47 -6 -83 18.5t-36 61.5q0 29 123 113t166 84q39 0 49 -21q20 -47 -12 -438q-10 -106 -39 -428l-13 -147l113 -7q113 -6 139 -47q35 -57 -37 -80q-61 -18 -247 -28q-166 -8 -216.5 -3 t-70.5 31q-37 45 -8.5 83z" />
<glyph unicode="2" horiz-adv-x="763" d="M72 1192q59 88 159 125q242 86 373 -9.5t105 -334.5q-12 -109 -39 -151t-162 -173q-184 -176 -191 -235q-6 -41 13 -49q23 -10 174 -17q147 -4 200.5 -29.5t32.5 -80.5q-8 -20 -65.5 -27.5t-233.5 -7.5q-225 0 -264 18q-43 18 -33 96q2 23 17 91q18 94 50 142t157 171 q127 125 153.5 168t34.5 129q6 84 -3 109.5t-52 54.5q-68 43 -159 13t-140 -112q-29 -49 -51.5 -64t-59.5 -11q-129 14 -16 184z" />
<glyph unicode="3" horiz-adv-x="866" d="M20 479q0 19 28 47.5t52.5 15t112.5 -109.5q109 -117 178.5 -142.5t157.5 21.5q86 45 121 87t45 116q10 51 -3.5 77.5t-68.5 76.5q-51 45 -88 60t-92 15q-94 0 -109 39q-18 43 15.5 79t86 57.5t116 51t92.5 56.5q35 35 34.5 46t-32.5 48q-41 43 -98.5 37t-116.5 -61 q-90 -84 -150 -11q-31 37 1 83t120 89q109 53 185.5 48t152.5 -70q82 -72 85 -154t-75 -161l-70 -72l70 -70q49 -47 60.5 -83t11.5 -150q0 -145 -36 -213t-155 -142q-150 -94 -325.5 -32.5t-272.5 241.5q-33 61 -33 80z" />
<glyph unicode="4" horiz-adv-x="800" d="M20 489q-4 25 81 164.5t192.5 303t132.5 210.5q41 83 90 138q98 106 115 -5q12 -78 -23 -247q-25 -115 -26.5 -241t20.5 -163q10 -14 39 -24.5t61 -10.5q53 0 65.5 -11t12.5 -58t-14 -61.5t-68 -22.5l-84 -10v-142q0 -94 -8 -119.5t-41 -29.5q-51 -8 -76.5 31.5 t-31.5 140.5l-6 119h-211q-135 0 -174 7t-46 31zM293 629.5q8 -31.5 78 -23.5q37 6 48 26.5t15 94.5q6 111 -13.5 111t-82.5 -97q-53 -80 -45 -111.5z" />
<glyph unicode="5" horiz-adv-x="995" d="M25 549q-18 160 28 201q37 35 76 -50q12 -27 23 -63q29 -104 52 -158.5t64 -89.5t92.5 -45t143.5 -10q115 -2 142.5 9t68.5 69q55 84 50 161.5t-69 167.5q-51 72 -74.5 85.5t-80.5 2.5q-53 -8 -93 -31.5t-67 -40t-53 -9.5q-27 6 -36 48t-13 203q-4 143 2 204.5t26 94.5 q27 39 62 48q43 10 268 10q176 0 239.5 -7.5t81.5 -29.5q18 -23 16.5 -37t-26 -38.5t-80 -33t-200.5 -8.5h-242v-117q0 -72 7 -93t30 -15q129 35 214 -1t163 -157q63 -104 69 -236t-47 -239q-53 -104 -114.5 -134t-215.5 -30q-461 2 -507 369z" />
<glyph unicode="6" horiz-adv-x="792" d="M23.5 423.5q-7.5 47.5 1.5 203.5q8 127 23 202.5t48 149.5q57 127 176 244t209 135q186 35 228 -29q35 -53 3 -84t-122 -31q-76 0 -111 -17t-112 -93q-37 -37 -59.5 -62.5t-36 -45t-13.5 -32t12.5 -19.5t35 -10t59.5 -3q176 -2 290.5 -121t116.5 -305q0 -92 -15.5 -125 t-86.5 -107q-70 -68 -109 -86t-133 -24q-125 -10 -211 26.5t-147 128.5q-39 57 -46.5 104.5zM164 586q-8 -100 30.5 -170t116.5 -94q74 -25 131.5 -10.5t122.5 73.5q55 53 62.5 128t-35.5 142.5t-119 100.5q-84 35 -117.5 31.5t-103.5 -50.5q-49 -35 -66.5 -62.5 t-21.5 -88.5z" />
<glyph unicode="7" horiz-adv-x="860" d="M20 1233q0 45 11.5 55t406.5 10q260 0 329 -7t73 -31q10 -57 -187 -320q-49 -70 -174 -333t-166 -392q-18 -59 -71.5 -77.5t-69.5 26.5q-25 61 117.5 396t257.5 487q59 82 47 102t-229 6q-178 -14 -261.5 5.5t-83.5 72.5z" />
<glyph unicode="8" horiz-adv-x="839" d="M49 317q-74 221 49 340q53 51 121 99q37 25 36 36t-42 56q-4 4 -8 6q-41 43 -52.5 80t-11.5 119q0 86 12.5 119.5t63.5 82.5q63 61 119.5 90t133.5 29t169 -39q113 -47 151.5 -98t26.5 -131q-14 -82 -70.5 -165t-130.5 -126l-79 -47l84 -94q55 -61 70.5 -98t15.5 -113 q0 -182 -84 -257t-287 -75q-137 0 -192.5 36t-94.5 150zM186 400q23 -87 68 -121q45 -35 112.5 -26t125.5 58q68 55 70.5 118.5t-58.5 141.5q-25 33 -54.5 55.5t-46.5 20.5q-51 -2 -122.5 -40t-92.5 -75q-25 -45 -2 -132zM336 948q47 -59 94 -54t135 79q72 59 71 115.5 t-77 103.5q-68 41 -91.5 40t-94.5 -48q-147 -98 -37 -236z" />
<glyph unicode="9" horiz-adv-x="757" d="M41 682q-63 121 72 389q47 90 89 135t124 88q68 35 113.5 35t117.5 -35q82 -41 131 -92t49 -94q0 -33 -23.5 -116t-58 -248.5t-55.5 -376.5q-10 -98 -20.5 -125t-40.5 -27q-33 0 -42.5 27.5t-17.5 136.5l-12 166l-148 -8q-123 -8 -176 20.5t-102 124.5zM174 797 q0 -37 41 -92.5t66 -55.5q53 0 129.5 90t117.5 195q37 102 39.5 128.5t-28.5 59.5q-35 39 -85.5 44t-99.5 -23q-33 -20 -106.5 -162.5t-73.5 -183.5z" />
<glyph unicode=":" horiz-adv-x="241" d="M20.5 866.5q2.5 22.5 51.5 40.5q55 25 70.5 22t52.5 -44q25 -29 26.5 -45.5t-16.5 -36.5q-61 -74 -146 4q-41 37 -38.5 59.5zM31.5 183q-21.5 40 7.5 75q37 45 71.5 30.5t34.5 -73.5q0 -41 -9 -56.5t-34 -15.5q-49 0 -70.5 40z" />
<glyph unicode=";" horiz-adv-x="296" d="M27 872q18 45 58 31t40 -65q0 -59 -41 -66q-35 -8 -53 25.5t-4 74.5zM51 0q-14 33 27 96q31 43 31 58.5t-29 46.5q-71 78 -10 139q31 29 48 22.5t83 -69.5q68 -68 75 -139.5t-51 -133.5q-43 -45 -101 -52t-73 32z" />
<glyph unicode="&#x3c;" horiz-adv-x="978" d="M20.5 729q6.5 43 63.5 62q41 16 82 38.5t163 84t322 149.5q145 65 174 98q33 41 79 25.5t52 -70.5q2 -20 -1 -33.5t-19 -32t-41 -34t-77 -42t-114.5 -54t-164.5 -70.5q-92 -41 -158 -77t-66 -48t86 -63.5t207 -112.5q193 -96 244 -131t51 -74q0 -84 -98 -55 q-47 14 -285 131q-137 70 -239 112q-176 72 -218 111q-49 43 -42.5 86z" />
<glyph unicode="=" horiz-adv-x="577" d="M25 823q8 25 52 29t191 -4q244 -14 273 -33q18 -12 14 -53q-6 -35 -33 -43q-31 -10 -219 -10q-152 0 -203 7t-67 29q-22 39 -8 78zM51 496q-14 36 15 73q18 20 67 26.5t176 2.5q182 -6 201 -20q14 -10 14 -46q0 -41 -20 -49q-25 -12 -211 -16q-141 -6 -187.5 0t-54.5 29z " />
<glyph unicode="&#x3e;" horiz-adv-x="1001" d="M41 1130q31 35 58.5 32t127.5 -52q172 -90 323.5 -158.5t221.5 -95.5t123 -51.5t67.5 -40.5t18.5 -49q6 -51 -41 -90q-72 -59 -541 -289q-47 -23 -108 -53q-160 -78 -223 -47q-49 20 18 92q47 47 196.5 122.5t283.5 138t149 85.5q4 8 -23.5 27.5t-84 49t-134.5 64.5 q-375 172 -430 227q-41 41 -2 88z" />
<glyph unicode="?" horiz-adv-x="692" d="M21.5 1089.5q-9.5 63.5 31.5 113.5t137 95q102 49 135 53.5t124 -16.5q137 -33 192 -135t10 -237q-31 -92 -62.5 -129t-150.5 -117q-84 -55 -110.5 -87t-30.5 -79q-6 -66 -51 -84t-84 27t-1 152.5t103 144.5q98 53 163 120.5t77 128.5q14 82 -18.5 117t-127.5 35 q-66 0 -96.5 -15.5t-75.5 -70.5q-57 -70 -106 -75t-58.5 58.5zM184 229q-12 51 27 76q20 14 49 10t41 -19t12 -47t-12 -47.5t-43 -19.5q-59 -8 -74 47z" />
<glyph unicode="@" horiz-adv-x="1638" d="M21.5 416.5q-9.5 171.5 68.5 351.5q70 160 70 178q0 29 141 178.5t197 178.5q76 39 170 55q217 37 390 -13.5t335 -197.5q92 -84 129 -182.5t37 -255.5q0 -123 -12.5 -180.5t-61.5 -151.5q-74 -143 -139.5 -194.5t-174.5 -51.5q-72 0 -108.5 14.5t-89.5 61.5l-84 74 l-53 -48q-199 -184 -351 -38q-96 92 -61 247.5t186 313.5q100 104 135 122.5t132 16.5q84 0 120.5 -12.5t81.5 -55.5q53 -51 67.5 -109.5t-20.5 -80.5q-27 -16 -60.5 -101t-33.5 -137q0 -59 60.5 -96t121.5 -16q68 23 134.5 163t68.5 259q0 109 -53 208t-143.5 166.5 t-198 106.5t-228 33t-225.5 -62q-123 -63 -255 -277t-146 -376q-14 -145 68.5 -315t220.5 -279q80 -63 313.5 -69.5t366.5 51.5q47 20 88 32q33 10 122 120t138 200q41 74 84 67q84 -16 26 -159q-61 -152 -202 -281q-72 -66 -140 -96q-156 -68 -409.5 -83t-388.5 36 q-51 18 -173 140t-155 187q-96 186 -105.5 357.5zM575 428q-16 -84 12.5 -124t84.5 -11q68 37 143.5 131t116.5 188t18 131q-27 45 -112.5 -1t-166.5 -140t-96 -174z" />
<glyph unicode="A" horiz-adv-x="935" d="M26 276q-6 13 -6 31q0 19 8 44q14 48 34 99.5t45.5 120t37.5 113.5q12 55 69.5 172t57.5 137q0 23 82 194t113 210q23 30 53 30q11 1 22 -3q44 -14 68 -74q74 -178 188 -553q116 -375 118 -448q1 -18 0 -33q0 -45 -6 -59q-8 -19 -38 -19q-39 0 -67.5 52t-77.5 208 l-43 139h-186q-106 0 -149.5 -7t-53.5 -28q-25 -47 -54.5 -111.5t-46 -100.5t-37 -72.5t-38 -52t-37.5 -15.5q-44 0 -56 26zM399 823q11 -28 77 -28q17 0 38 2q86 7 94 41q1 4 1 10q0 41 -48 153q-43 96 -55 97q-37 0 -81 -114q-31 -81 -31 -128q0 -19 5 -33z" />
<glyph unicode="B" horiz-adv-x="759" d="M20 238v550q0 350 6 454t29 116q94 47 163 68.5t157 21.5h19q70 0 98 -14q32 -16 101 -86t84 -105t15 -125q0 -63 -11 -109t-23.5 -66.5t-21.5 -36t-7 -29t20 -35.5q35 -43 62.5 -109.5t27.5 -114.5q0 -84 -52 -192.5t-114 -146.5q-53 -37 -104 -45q-30 -5 -97 -5 q-48 0 -114 2zM150 1026q0 -119 38 -133q9 -4 25 -4q42 1 131 29q121 38 164 77q41 38 41 99q-1 8 -1 17q-6 73 -61 132q-53 55 -102 61q-7 1 -15 1q-45 0 -108 -33q-63 -37 -87.5 -88t-24.5 -158zM162 682l4 -127q2 -113 40 -150.5t144 -37.5q100 0 147.5 41t61.5 139 q7 43 7 72q0 13 -2 23q-4 32 -27 56q-35 39 -93 42h-11q-58 0 -165 -29z" />
<glyph unicode="C" horiz-adv-x="1005" d="M20 678q0 150 11.5 207t62.5 153q66 125 130.5 200t148.5 120q87 47 194 46q45 0 91 -7q162 -27 223 -121q29 -44 29 -77q0 -8 -2 -16q-9 -36 -46 -36h-4q-41 2 -98 43q-64 48 -152 60q-23 3 -44 3q-62 0 -111 -24q-125 -63 -208 -228t-83 -352q0 -117 10 -153.5 t57 -83.5q45 -43 80 -55.5t117 -12.5q139 0 222 36t173 136q91 100 131 100q33 0 33 -65q0 -53 -65.5 -143.5t-133.5 -133.5q-82 -52 -248 -74q-78 -11 -141 -10q-71 0 -123 13q-150 41 -202 138t-52 337z" />
<glyph unicode="D" horiz-adv-x="974" d="M20 1235q0 41 55.5 91t108.5 60q73 14 138 14h4q66 0 186 -20q96 -14 140 -34.5t104 -75.5q168 -166 196 -369q3 -18 3 -38q0 -82 -48 -190q-59 -134 -147 -206q-186 -154 -307 -213q-95 -46 -172 -46q-21 0 -41 3q-88 14 -109 39q-35 41 -39 237q-2 59 -2 222 q0 264 -6 353t-29 105q-14 12 -24.5 33t-10.5 35zM231 799q0 -340 21 -393q13 -36 49 -35q13 0 29 4t51 18q145 57 280.5 214t135.5 265q0 59 -46.5 149.5t-103.5 143.5q-35 35 -80 48.5t-139 19.5q-58 4 -98 4q-68 1 -80 -11q-18 -18 -19 -427z" />
<glyph unicode="E" horiz-adv-x="894" d="M23 309q6 51 16 291t22.5 452t20.5 238q17 43 27 76q6 23 192 32q86 4 172 4q99 0 199 -5q186 -10 196 -33q8 -31 0 -51.5t-50 -33.5t-111.5 -19.5t-184.5 -8.5h-8q-72 -2 -101.5 -2t-73.5 -4t-57.5 -6t-37 -13.5t-26.5 -18.5t-13 -30.5t-12.5 -39t-8.5 -54.5v-2 q-6 -35 -6 -60q0 -47 20 -59q30 -18 289 -18h258v-59q0 -39 -22 -49q-27 -12 -236 -27q-261 -17 -291 -29q-24 -9 -24 -126q0 -30 2 -68l6 -183l260 9q47 1 86 1q134 1 182 -15q49 -17 49 -69q0 -12 -3 -26q-4 -18 -28 -28.5t-81 -14.5t-121.5 -4t-186.5 -3t-239 -11h-20 q-42 0 -50 7q-10 9 -5 60z" />
<glyph unicode="F" horiz-adv-x="843" d="M22.5 341q4.5 42 4.5 67q-3 41 -3 158q0 126 4 340q6 412 29 448q12 18 85 21q17 1 41 1q80 0 237 -8q92 -4 154.5 -9t112.5 -12.5t75.5 -15.5t43 -19.5t16.5 -26.5t-5 -36q-9 -25 -63 -31q-29 -3 -100 -3q-59 0 -146 2q-73 2 -129 2q-173 -1 -191 -19q-20 -20 -19 -121 q0 -25 1 -55l8 -152l230 -6q133 -4 185 -13t60 -30q5 -14 5 -26q0 -35 -43 -53q-58 -24 -232 -29l-229 -6l8 -201q2 -45 2 -81q0 -53 -4 -85q-6 -53 -27 -80q-20 -29 -36.5 -33t-41 12.5t-31 37t-2 62.5z" />
<glyph unicode="G" horiz-adv-x="999" d="M23 680q-3 62 -3 113q0 132 19 190q31 90 150.5 212t238.5 183q131 70 268 76q13 1 25 1q121 0 197 -54q45 -33 55 -57q7 -18 7 -56q0 -15 -1 -33q-8 -92 -45 -109q-7 -2 -13 -2q-30 0 -59 62q-20 39 -47 55.5t-86 26.5q-23 4 -47 4q-88 0 -190 -51q-132 -65 -222 -182 q-74 -96 -95 -181q-13 -51 -13 -123q0 -47 6 -104q14 -137 73.5 -187t213.5 -50q100 0 139 12t88 55q47 43 61.5 76t14.5 107l2 114h-152q-94 0 -124.5 8.5t-34.5 32.5q-1 5 -1 10q0 41 72 70q80 33 199 33q43 0 68.5 -2t51 -7t36 -16.5t21.5 -30t11 -45t3 -64.5 q1 -16 1 -35q0 -24 -2 -52q-6 -119 -19 -166t-54 -102q-57 -74 -123 -105t-178 -37q-71 -4 -125 -4q-89 0 -132 10q-69 17 -147 89l-98 92z" />
<glyph unicode="H" horiz-adv-x="778" d="M23 1405q16 27 49.5 18.5t54.5 -43.5q23 -45 23 -221q0 -115 8 -150.5t37 -50.5q41 -24 209 -26h35q134 0 145 18q8 16 26.5 232t24.5 239q10 31 43 29t59 -33q10 -10 14.5 -23.5t5.5 -41t-1 -60t-5 -96t-8.5 -134.5t-11.5 -189.5t-10 -245.5q-14 -358 -33 -394 q-8 -18 -31 -18q-31 0 -41 31q-10 39 -18 252l-12 280l-396 15l17 -283q8 -145 8 -208q0 -18 -1 -30q-3 -50 -30 -61q-19 -7 -35 -7q-29 0 -49 22q-32 36 -37 120q-2 84 -16 364q-15 279 -23 482q-5 111 -4 165q0 43 3 48z" />
<glyph unicode="I" horiz-adv-x="595" d="M27.5 1286.5q-15.5 20.5 0 45.5t66.5 48q24 10 122 10q42 0 96 -2q184 -6 239 -22q12 -4 19.5 -22.5t4.5 -40.5q-6 -33 -27.5 -45.5t-86.5 -18.5l-105 -12v-824l95 -12q61 -8 77.5 -20.5t16.5 -51.5q0 -41 -23 -49q-27 -10 -188 -16q-38 -1 -70 -1q-110 -1 -152 15 q-47 18 -47 67q0 8 1 17q4 23 22 39.5t43 22.5q59 14 74 84q16 70 18 286v53q0 178 -12 277q-10 86 -22.5 105.5t-57.5 19.5q-31 0 -59.5 13.5t-44 34z" />
<glyph unicode="J" horiz-adv-x="1019" d="M34 461q-14 42 -14 76q0 36 15 63q24 45 51 45q9 0 18 -4q37 -18 72 -109q45 -123 144 -158q30 -10 58 -10q65 0 122 54q23 20 32 33.5t15 59.5t7 102.5t1 191.5q0 336 -25 397q-14 39 -38.5 49.5t-104.5 10.5q-92 0 -121 24q-18 15 -18 41q0 18 8 41q10 25 181 35 q81 5 164 5q90 0 182 -6q175 -11 196 -36q21 -27 21 -49q0 -6 -2 -11q-7 -26 -50 -41.5t-112 -15.5h-127l-13 -841l-149 -187l-170 8q-115 6 -156 18.5t-90 59.5q-70 68 -97 154z" />
<glyph unicode="K" horiz-adv-x="825" d="M20 238v1105h60q41 0 51 -22.5t19 -134.5q6 -66 16 -113t18 -47q20 0 192.5 118t190.5 118q6 0 33 21.5t57.5 44t61.5 37.5t55.5 2t30.5 -62q1 -6 1 -12q0 -35 -22 -58q-24 -27 -120 -88q-371 -233 -371 -286q-1 -33 103 -197q106 -166 130 -175q29 -10 64 -92 q26 -60 26 -92q0 -12 -4 -20q-4 -14 -25.5 -24.5t-43.5 -10.5q-41 0 -75 36t-120 177q-51 86 -107.5 159.5t-68.5 73.5q-20 0 -27 -229q-6 -195 -20 -215q-10 -14 -45 -14h-60z" />
<glyph unicode="L" horiz-adv-x="741" d="M20 1068q-1 31 0 59q0 168 23 216q26 32 56 32q6 0 12 -1q25 -4 34 -86t21 -377q16 -455 26 -485q7 -20 100 -20q40 0 97 4q33 2 63 2q113 0 186 -24q84 -27 84 -76q0 -5 -1 -11q-4 -27 -60.5 -33t-263.5 -6h-317l-19 82q-8 35 -22.5 269.5t-18.5 454.5z" />
<glyph unicode="M" horiz-adv-x="1105" d="M20 290q2 54 7 525q4 389 22 451q13 42 49 42q10 0 21 -3q16 -4 55 -21q43 -18 82 -73.5t117 -211.5q129 -256 147 -256q10 0 80 107.5t149.5 230.5t108.5 148q43 41 43 70.5t43 54.5q38 22 68 22q26 0 45 -16q29 -24 29 -67q0 -21 -7 -48q-47 -180 -90 -678 q-25 -281 -41 -311q-10 -18 -47 -18q-41 0 -49 20q-6 18 -6 115v53q2 102 8 195.5t12 140.5t8.5 85t-3 50t-21.5 12q-23 0 -102.5 -120.5t-81.5 -155.5q-2 -18 -68 -96q-62 -72 -120 -74h-4q-55 0 -62 69q-6 51 -104.5 249t-119.5 198q-16 0 -16 -336q0 -141 -4 -220 t-17 -127t-33 -60.5t-55 -6.5q-43 8 -43 56v5z" />
<glyph unicode="N" horiz-adv-x="747" d="M22 1162q2 91 9.5 118t25.5 37q27 18 49.5 6t73.5 -74q82 -94 119 -176q88 -188 158.5 -317t87.5 -129q12 0 29.5 199.5t17.5 365.5q0 133 16 149q15 18 44 18q8 0 18 -2q42 -7 53 -34q6 -14 6 -112q0 -140 -12 -449q-16 -453 -33 -502q-10 -27 -39 -31h-6q-34 0 -71 41 q-40 45 -136 203q-45 72 -131 238t-86 178q-1 20 -21 20q-19 0 -19 -268q0 -26 1 -55l4 -324h-59q-39 0 -49 21q-12 29 -25 249q-15 268 -21 404q-5 110 -5 190q1 19 1 36z" />
<glyph unicode="O" horiz-adv-x="907" d="M34 598q-13 64 -13 143q0 112 26 252q16 84 41 132.5t84 109.5q94 100 180 144t199 46q74 0 107.5 -11t72.5 -50q76 -80 120 -218q36 -112 36 -219q0 -24 -2 -48q-14 -195 -83 -343t-166 -220q-91 -68 -203 -67h-16q-122 5 -239 101q-112 92 -144 248zM176 660 q21 -100 103 -181q82 -80 146 -85h8q61 0 136 67q66 57 123.5 198.5t57.5 243.5q0 78 -51.5 208.5t-90.5 150.5q-2 2 -8 4q-27 14 -37 15t-45 -7q-27 -8 -47 -12q-33 -8 -82 -39t-84 -66q-53 -53 -75.5 -99t-41.5 -138q-20 -98 -20 -173q0 -48 8 -87z" />
<glyph unicode="P" horiz-adv-x="739" d="M27 1288q12 70 61 90q17 7 66 21q82 23 225 24h30q70 0 98 -8q34 -10 77 -55q61 -66 98 -160t37 -188q0 -144 -121 -234q-107 -80 -258 -79q-20 0 -41 1l-111 9v-236q0 -158 -7 -197.5t-36 -46.5q-12 -2 -22 -2q-25 1 -41 15q-20 20 -45 546q-15 272 -15 401q0 72 5 99z M167 1178q-3 -12 -3 -35q0 -32 6 -86q12 -137 43 -170q14 -12 54 -22.5t83 -12.5h16q48 0 79 10q36 12 71 45q61 57 61 126q0 89 -100 198q-47 51 -123 53h-6q-72 0 -131 -45q-43 -33 -50 -61z" />
<glyph unicode="Q" horiz-adv-x="985" d="M20 510v201q0 133 12.5 191.5t61.5 152.5q31 59 85.5 134t103.5 124l116 114h174q123 0 157 -11t77 -62q61 -74 61 -104.5t47 -133.5q48 -107 48 -249v-27q-5 -160 -64 -277l-61 -123l63 -75q56 -67 56 -95q0 -3 -1 -6q-11 -34 -71 -34h-11q-69 3 -110 42q-37 35 -58 36 h-1q-22 0 -91 -25q-67 -26 -152 -26q-37 0 -77 5q-88 10 -129 31.5t-119 101.5zM150 753q-3 -13 -3 -27q0 -36 15 -83q39 -131 158 -201q74 -42 146 -42q44 0 87 16q37 14 46 27.5t-1 36t-49 81.5q-29 41 -39 77t-1 56.5t28.5 27.5t51.5 -8.5t66 -51.5q55 -59 84 -60 q29 0 55.5 78t26.5 162q0 80 -45 216t-86 183q-41 45 -129 45q-211 0 -352 -356q-51 -133 -59 -177z" />
<glyph unicode="R" horiz-adv-x="741" d="M20 752q-1 76 -1 141q0 377 20 416t128.5 75.5t238.5 38.5h19q71 0 99 -13q32 -15 101 -89q70 -76 83 -113t13 -141v-149l-121 -99q-49 -41 -97 -69.5t-67 -28.5q-51 0 -51 -29q0 -15 14 -39q27 -43 107 -129q183 -194 183 -271q0 -48 -73 -50q-35 0 -62.5 24.5 t-70.5 91.5q-72 119 -92 119q-12 0 -59 56.5t-93 110.5q-43 50 -54 50h-1q-16 -6 -26 -211q-10 -176 -27 -194q-10 -12 -45 -12h-59zM160 1014q0 -5 -1 -10q-1 -82 31 -111q32 -31 132 -31q70 0 102.5 14.5t81.5 63.5q66 70 70 130v7q0 58 -56 131q-58 75 -133 75 q-58 0 -125 -44q-61 -41 -81.5 -85t-20.5 -140z" />
<glyph unicode="S" horiz-adv-x="972" d="M24 518q-4 23 -5 43q0 61 40 96q37 34 65 34q11 0 21 -5q35 -18 35 -90q0 -66 58.5 -127t137.5 -95q75 -32 151 -32h9q82 2 126 49q30 32 30 71q0 29 -17 63q-40 77 -202 231q-80 78 -141.5 150.5t-67.5 97.5q-5 23 -5 47q0 81 59 173q77 120 192 162q41 17 101 17 q23 0 49 -3q94 -9 149 -42q59 -37 105 -120q39 -70 39 -117q0 -9 -1 -17q-8 -45 -51 -45q-7 0 -17 2q-58 10 -93 72q-47 85 -126 109q-30 9 -58 9q-47 0 -91 -26q-70 -41 -90 -133q-5 -20 -4 -36q0 -20 6 -36q12 -29 59 -78q78 -80 105 -80q31 0 105.5 -86t115.5 -166 q48 -93 47 -153v-13q-6 -62 -78 -141q-59 -63 -92 -74.5t-162 -11.5q-141 0 -228 31t-183 114q-75 64 -93 156z" />
<glyph unicode="T" horiz-adv-x="954" d="M22 1349.5q-5 43.5 11 57.5q6 6 136 6q105 0 289 -4q416 -8 451 -20q12 -4 19.5 -22.5t5.5 -39.5q-4 -37 -36 -47t-171 -18l-201 -13l13 -198q12 -201 12 -496q0 -254 -16 -281q-8 -12 -31 -12q-18 0 -28.5 9.5t-16.5 38t-9.5 65.5t-6.5 105.5t-6 143t-12 193.5t-22 244 l-18 188l-158 17q-158 14 -180 30q-20 10 -25 53.5z" />
<glyph unicode="U" horiz-adv-x="968" d="M20 369l13 952h117l12 -457q8 -311 17 -388t40 -99q33 -23 67 -23q14 0 29 4q47 14 124 88t89 119q4 14 114 258t130 355q25 132 39 157q6 11 41 17q12 2 24 2q22 0 42 -8q32 -12 30 -50q-6 -72 -47 -291t-57 -255q-23 -55 -49 -283q-33 -276 -86 -283q-16 -2 -39 15 q-14 14 -25.5 45.5t-11.5 66.5q0 80 -14.5 80t-122.5 -96q-78 -70 -111 -82q-20 -7 -58 -7q-25 0 -59 3q-70 6 -105.5 22.5t-76.5 63.5z" />
<glyph unicode="V" horiz-adv-x="858" d="M20 1249q-2 41 8.5 57.5t39.5 20.5q6 1 12 1q48 0 79 -56q34 -64 56 -221q16 -111 46 -234q31 -123 61 -203q29 -76 45 -75h2q23 8 63 137q39 127 111.5 282.5t105.5 182.5q25 20 45 79q20 60 44 100q19 32 51 32q8 0 16 -2q33 -6 33 -97v-11q-2 -102 -39 -142 q-29 -35 -115 -211t-121 -275q-143 -391 -170 -436q-15 -22 -47 -22q-8 0 -16 2q-45 6 -64 41q-14 27 -49 188.5t-70 261.5q-37 111 -79.5 314.5t-47.5 285.5z" />
<glyph unicode="W" horiz-adv-x="1312" d="M22 1102q-2 28 -1 51q0 79 22 102q28 28 50 28q51 0 71 -146q0 -10 2 -21q14 -143 48 -343t44 -210q7 -7 14 -7q26 0 64 83q10 23 20 53q51 134 121 234q67 96 108 96h3q27 -4 43 -35t33 -115q73 -364 98 -364q10 0 87 152.5t169 337t123 233.5q47 75 90 75q28 0 53 -32 q6 -7 6 -22q0 -28 -22 -84q-34 -86 -156 -334q-203 -408 -244 -523q-57 -155 -115 -155q-22 0 -44 22q-59 57 -105 266q-49 233 -76 234q-6 0 -12 -16q-8 -25 -135 -259q-37 -70 -63.5 -113.5t-51 -75.5t-41 -42t-33 -3t-28.5 32.5t-24.5 75t-23 112t-24.5 156.5 q-62 434 -70 557z" />
<glyph unicode="X" horiz-adv-x="868" d="M20 272q12 42 41 78.5t59 73.5t30 47q0 18 81 115q35 39 50.5 61.5t23.5 56t4 58t-27.5 77t-52 101.5t-86.5 143q-47 75 -77 139q-26 56 -25 72q0 36 63 36h8q58 -3 91 -40q25 -29 97.5 -157.5t98.5 -165.5q25 -33 38.5 -30t56.5 54q55 66 104 138.5t69.5 105.5t48.5 53 q24 17 54 18q6 0 12 -1q65 -7 65 -49q0 -16 -9 -37q-14 -35 -133 -197q-61 -86 -103 -152l-74 -120l76 -150q76 -150 119 -213q35 -54 35 -111q0 -10 -1 -19q-7 -67 -55 -67q-25 0 -58.5 41t-88.5 136q-41 74 -79 128t-50 56h-1q-13 0 -50 -41q-39 -43 -80 -107 q-140 -212 -218 -212q-19 0 -34 12q-26 20 -26 48q0 10 3 21z" />
<glyph unicode="Y" horiz-adv-x="966" d="M21.5 1267.5q-3.5 28.5 12 42t52.5 17.5q35 4 57.5 -8t44.5 -49l99 -154q35 -53 56.5 -108.5t34.5 -85t38 -43.5q9 -6 20 -6q27 0 62 38q57 59 256 346q49 68 79.5 94.5t57.5 22.5q54 -7 54 -53t-56 -133q-29 -45 -101 -144q-86 -115 -112 -161q-55 -94 -116.5 -195.5 t-88.5 -145.5t-52.5 -96.5t-43.5 -103.5q-31 -96 -66 -133q-24 -26 -53 -26q-12 0 -25 5q-29 10 -29 69q0 24 4 56q17 111 75 209q55 94 55 138.5t-55 125.5q-57 86 -57.5 113t-108.5 186q-45 68 -67.5 111t-26 71.5z" />
<glyph unicode="Z" horiz-adv-x="954" d="M20 1292v6q0 25 29 54q20 20 57 20q20 0 44 -6q70 -16 419 -27q301 -8 346 -34q17 -10 17 -30q0 -22 -19 -56q-6 -8 -12 -21q-55 -88 -184 -252t-224.5 -286t-95.5 -142q0 -16 -47 -68.5t-47 -82.5q0 -25 48 -34t227 -20q274 -12 309 -49q20 -20 22 -34.5t-14 -33.5 q-17 -20 -105 -26q-53 -4 -160 -4q-72 0 -167 2q-356 4 -393 20q-21 11 -21 31q-1 38 181 325q186 294 262 371q66 70 127 149t61 97q0 20 -120 36.5t-273 16.5q-256 0 -267 78z" />
<glyph unicode="[" horiz-adv-x="1728" d="M20 838l78 34q121 53 211 18.5t90 -134.5q0 -94 52 -37q16 20 38 55q35 61 101.5 89t105.5 -3q27 -23 78 -16q35 4 62.5 -26t42 -64.5t34 -54t41.5 -1.5q33 27 33 70q0 45 37 72.5t63 1.5q12 -20 11.5 -38t-15 -57.5t-31 -76.5t-36 -93.5t-29.5 -107.5 q-23 -106 -78 -238.5t-82 -140.5q-53 -16 -34 78q12 61 53 166l74 182l-62 88q-84 121 -98 80q-6 -14 2 -53q14 -63 -19 -248q-31 -180 -83 -239.5t-181 -59.5q-90 0 -118.5 17.5t-102.5 113.5q-41 51 -76 90t-43 39q-20 0 -26 -125q-4 -68 -13.5 -95.5t-29.5 -27.5 q-23 0 -30 68.5t-13 302.5zM137 627q-8 -100 24 -104.5t105 87.5q45 55 52 81t-9 65q-23 51 -69.5 57t-71.5 -39q-23 -43 -31 -147zM229 416l56 -72q23 -29 43 -45t26 -8q16 18 34 151t-9 138q-10 0 -18.5 -7.5t-8.5 -17.5q0 -25 -61 -82zM340 -20q0 31 33 38q37 10 241 15 q274 8 297 35q31 41 105 242.5t104 326.5q39 166 47.5 196.5t49.5 22.5q18 -2 28 -15.5t17.5 -51t12.5 -84t20.5 -140.5t35.5 -194q39 -197 27 -240q-4 -18 2 -38.5t18 -33.5q84 -68 -51 -110q-43 -14 -115 -29q-129 -25 -160.5 -39t-35.5 -55q-12 -86 -68 -115 q-49 -25 -69 35q0 2 -2 6q-4 18 -21.5 35.5t-36.5 22.5q-29 8 -35 23t2 52l17 64l-232 -8q-201 -8 -221 8q-10 6 -10 31zM463 285q-4 -63 6 -80t51 -21q61 -8 98 48.5t53.5 232.5t-12.5 227q-10 20 -24 35.5t-23 15.5q-51 0 -97 -140t-52 -318zM1061.5 95.5 q15.5 -25.5 109.5 -15.5q111 12 117 16t-12 131q-18 139 -73.5 136t-115.5 -144q-41 -98 -25.5 -123.5zM1409 846q2 12 14.5 15t27.5 -5t26 -25q18 -29 28 -323l13 -293l71 -8q59 -8 94 -31.5t21 -46.5t-129 -18.5t-135 28.5q-14 16 -28.5 332t-2.5 375z" />
<glyph unicode="\" horiz-adv-x="405" d="M25 1280q16 29 60 28t67 -30q16 -18 48.5 -174t59.5 -326q6 -39 42 -187.5t62.5 -274.5t18.5 -146q-10 -33 -56 -37t-65 25q-20 35 -74.5 266t-54.5 289q0 76 -33 176q-41 131 -64 252t-11 139z" />
<glyph unicode="]" horiz-adv-x="1593" d="M21 866.5q-7 53.5 55 110.5q55 51 135 45q53 -4 68.5 -19.5t23.5 -76.5q14 -88 23.5 -96.5t111.5 -71.5q61 -37 89 -44t48 7q33 29 33 52.5t62 160.5q39 86 45 119.5t-11.5 55t-16.5 40t24 53.5q37 57 113.5 61.5t123.5 -49.5q29 -31 32 -49t-15 -47q-23 -47 -12.5 -132 t28.5 -164t25 -85q16 -18 106 16.5t135 75.5q18 16 30.5 46t12.5 55q0 121 127 121q72 0 114 -43t42 -115q0 -53 -23.5 -84t-53.5 -42t-60.5 -42t-40.5 -82q-25 -115 -74 -247t-90 -193q-57 -86 -57 -144q0 -23 -13.5 -56.5t-30.5 -53.5q-27 -35 -61.5 -42t-78.5 2 t-159.5 21.5t-252.5 12.5q-184 0 -191.5 29.5t-44.5 158.5l-90 340q-37 137 -61.5 185.5t-84.5 95.5q-78 61 -85 114.5zM137 870q0 -29 25 -28q29 2 41 39q4 12 -4.5 20t-24.5 8t-26.5 -11t-10.5 -28zM981 219q18 -16 32.5 -10t43.5 41q45 59 45 98q0 23 7 35t16.5 19.5 t16.5 37t7 80.5q0 127 -39 123q-8 0 -18 -10q-12 -14 -13 -51q0 -33 -35.5 -116t-59 -153.5t-3.5 -93.5zM1386 907q8 -49 44 -55q32 4 36 45q0 18 -12 34.5t-31 20.5q-27 4 -34 -5t-3 -40z" />
<glyph unicode="a" horiz-adv-x="819" d="M32 378q-13 44 -13 88q0 68 30 138q27 61 137.5 177t159.5 134q26 10 119 10q33 0 76 -1q94 -4 137 -15.5t72 -40.5l49 -49l-49 -162q-47 -160 -64 -282q-8 -70 -25 -111t-40 -51t-52 12q-12 12 -23 33t-11 37q0 55 -25 55t-86 -53q-74 -66 -136 -82q-23 -6 -47 -6 q-41 0 -85 18q-92 39 -124 151zM197 489v-8q0 -115 52 -115q4 0 9 1q84 14 231 245q51 80 65.5 117t0.5 55q-25 29 -45.5 27t-103.5 -41q-111 -51 -160 -116.5t-49 -164.5z" />
<glyph unicode="b" horiz-adv-x="724" d="M20 270v539q0 537 29 565.5t41 28.5q41 0 56.5 -65.5t15.5 -233.5q0 -242 32 -242h1q12 0 26 25q23 35 93 52q41 10 85 10q31 0 62 -5q68 -10 95.5 -31.5t76.5 -105.5q72 -126 72 -244q1 -39 -7 -77q-32 -152 -184 -257q-51 -35 -89 -43q-19 -4 -47 -4t-65 4 q-119 12 -204 47zM234 418q4 -39 13 -50.5t42 -23.5q28 -10 57 -10q30 0 60 12q58 22 106 82q47 60 47 130t-47 149q-48 82 -111 82q-46 0 -100 -44q-35 -27 -46 -66.5t-17 -143.5q-5 -52 -5 -87q0 -17 1 -30z" />
<glyph unicode="c" horiz-adv-x="790" d="M23 563q8 113 23 152t79 104q39 39 93 80t93 59q71 35 144 34q43 0 88 -12q119 -32 164 -130q14 -37 14 -65q0 -18 -6 -32q-13 -31 -49 -31q-6 0 -13 1q-47 6 -94 55q-55 59 -116 59q-7 -1 -14 -1q-69 -8 -157 -91q-68 -61 -83 -94t-17 -119q0 -82 11.5 -111.5 t58.5 -68.5q65 -52 138 -52q112 0 243 122q47 45 68.5 52t43.5 -13q38 -30 38 -68q0 -40 -44 -88q-92 -100 -272 -135q-39 -8 -76 -10q-40 -3 -71 -3q-41 0 -64 5q-41 8 -86 41q-86 59 -116 139q-23 62 -23 159q0 29 2 62z" />
<glyph unicode="d" horiz-adv-x="755" d="M35 552q39 142 158 279q61 70 120.5 96.5t186.5 37.5q61 6 80.5 54t21.5 198q2 133 20 149q12 11 36 11q12 0 28 -3q27 -4 35 -33q14 -53 14 -538q0 -489 -14 -539q-10 -29 -39 -33q-7 -1 -14 -1q-41 0 -64 42l-24 50l-80 -60q-80 -60 -183 -60q-27 0 -55 4 q-138 20 -207 120q-36 51 -36 122q0 47 16 104zM184 519q-5 -21 -6 -40q0 -61 55 -98q48 -35 83 -35h4q36 2 90 45q82 63 133 209q28 79 28 127q0 41 -20 61q-28 29 -68 29q-17 0 -35 -5q-64 -17 -129 -85q-113 -119 -135 -208z" />
<glyph unicode="e" horiz-adv-x="837" d="M20 600q0 240 193 375q102 72 223 77h17q110 0 188 -61q74 -55 117 -147q36 -78 36 -147q0 -13 -1 -25l-7 -80l-301 -12q-301 -12 -303 -31v-9q0 -46 35 -100q39 -60 96 -86q55 -26 88 -28q3 0 5 -1q33 0 92 17q41 12 89 39t75 51q51 47 96 47h4q47 -2 55 -55v-6 q0 -44 -78 -108q-83 -68 -197 -112q-89 -35 -151 -35q-17 0 -31 3q-160 31 -250 146.5t-90 287.5zM221 743q13 -23 199 -24h16q171 0 182 22q6 8 -7 38t-42.5 61.5t-69.5 54.5q-26 15 -59 15q-18 0 -38 -4q-58 -12 -117 -68q-33 -29 -51.5 -56.5t-12.5 -38.5z" />
<glyph unicode="f" horiz-adv-x="876" d="M26 923.5q9 20.5 42.5 39t70.5 20.5q53 6 67.5 26.5t33.5 120.5q18 90 40.5 130.5t90.5 99.5q74 63 109 76q27 9 90 9q21 0 44 -1q99 -4 128.5 -17.5t68.5 -70.5q45 -68 45 -107t-47 -67q-27 -16 -46.5 -7t-57.5 56q-59 72 -116 74h-3q-56 0 -123 -62 q-41 -37 -57.5 -72.5t-18.5 -97.5l-6 -106h164q98 0 133 -7.5t39 -29.5q1 -7 1 -14q0 -33 -34 -52q-41 -24 -139 -30l-117 -9v-116q2 -117 12 -318l11 -201h-60q-39 0 -49 23q-12 27 -27 211q-18 233 -51 330q-23 68 -41 83t-82 19q-90 8 -112 29q-12 18 -3 38.5z" />
<glyph unicode="g" horiz-adv-x="837" d="M20 18q9 61 56 61h8q53 -5 109 -77q41 -51 68.5 -66.5t86.5 -15.5q156 0 199 205q8 38 8 56q0 16 -6 17h-2q-15 0 -94 -46q-64 -37 -139 -37q-9 0 -18 1q-85 5 -142 56q-31 29 -37 74q-3 22 -3 72t3 126l10 230l92 94q37 39 76 66.5t55 27.5q29 0 41 9.5t18.5 18.5 t42.5 14q16 2 40 2q30 0 71 -3q174 -16 227 -97q26 -39 26 -96q0 -62 -30 -145q-20 -57 -38.5 -185t-46 -254t-74.5 -208q-55 -98 -94 -118.5t-168 -20.5q-119 0 -154 12t-102 80q-89 89 -89 142v5zM233 367q6 -39 29 -60.5t56 -23.5h9q28 0 59 10q36 12 73 44t63 75 q66 106 100 198q23 61 23 89q0 15 -6 20q-35 35 -97 35q-20 0 -43 -4q-93 -15 -169 -84q-39 -35 -72 -136q-27 -82 -27 -138q0 -13 2 -25z" />
<glyph unicode="h" horiz-adv-x="735" d="M20 776q0 522 30 552q25 25 62 25q7 0 15 -1q18 -4 25 -10q8 -4 13 -34q4 -25 4 -58v-13q-1 -41 -3 -133q-3 -81 -3 -134q0 -108 11 -108q16 0 86 60q74 63 165 63q5 -1 10 -1q97 -4 157 -73q119 -139 121 -520l2 -201h-140l-2 166q-4 168 -33.5 300t-74.5 173 q-37 33 -52.5 29t-64.5 -61q-69 -76 -69 -113q0 -20 -47.5 -129t-47.5 -182q0 -85 -43 -135q-25 -28 -49 -29l-37 16q-23 18 -29 121t-6 430z" />
<glyph unicode="i" horiz-adv-x="200" d="M20 549q0 349 30 379q24 23 58 24q9 0 19 -2q29 -4 35 -32q6 -26 6 -147q0 -73 -2 -179q-2 -96 -6 -159.5t-9.5 -115t-12.5 -77t-18 -44t-26.5 -16.5t-36.5 6q-23 8 -30 75t-7 288zM49.5 1211.5q-1.5 12.5 16.5 37.5q31 37 49 37t49 -37q18 -25 16 -38t-26 -37 q-27 -27 -39.5 -27t-38.5 27q-25 25 -26.5 37.5z" />
<glyph unicode="j" horiz-adv-x="608" d="M48 -32q-30 50 -30 90q0 41 31 71q25 27 45.5 17.5t83.5 -80.5q61 -66 91 -82q24 -14 62 -14q9 0 19 1l78 9l10 458q13 459 34 490q16 24 50 24q9 0 19 -2q31 -4 37 -28q9 -27 9 -211q0 -104 -3 -260q-4 -319 -13.5 -418t-35.5 -137q-43 -59 -129 -79q-36 -8 -72 -8 q-53 0 -107 17q-119 39 -179 142zM451 1212q14 25 59 25t59 -25q5 -8 5 -17q0 -21 -27 -46q-27 -27 -38 -27t-36 27q-27 25 -27 46q0 9 5 17z" />
<glyph unicode="k" horiz-adv-x="692" d="M21 252q-1 12 -1 32q0 71 9 240q30 596 96 803q10 31 51 23q27 -4 33 -41q5 -28 5 -107q0 -26 -1 -59q-4 -199 -18 -287q-3 -24 -3 -41q0 -41 17 -44h4q26 0 100 63q139 114 189 142q42 24 82 24q7 0 14 -1q73 -9 73 -46q0 -15 -12 -35q-23 -37 -92 -87 q-109 -74 -188.5 -143.5t-79.5 -87.5t168 -184q155 -153 155 -214q0 -14 -8 -22q-14 -16 -53 -22h-7q-29 0 -68 28q-44 32 -132 121q-64 66 -114 107q-46 37 -58 37h-2q-22 -13 -22 -109v-8q0 -82 -30 -123q-21 -28 -50 -28q-13 0 -27 5q-27 8 -30 64z" />
<glyph unicode="l" horiz-adv-x="188" d="M20 745q3 531 17 572q14 37 48 38h2q33 0 60 -34q13 -13 17 -33q3 -14 3 -44q0 -14 -1 -30q-2 -54 -7 -117t-14.5 -205t-15.5 -300q-14 -328 -31 -363q-8 -14 -30 -14q-29 0 -35 29q-12 49 -13 501z" />
<glyph unicode="m" horiz-adv-x="1042" d="M22 545q12 336 56 418q19 38 58 38q7 1 15 -1q50 -8 58 -60q7 -49 21 -50q15 0 71 42q57 45 137 45h7q85 -2 139 -51l53 -49l72 51q65 49 147 50h4q79 0 121 -48q29 -33 36 -83q4 -32 4 -107q0 -43 -1 -99q-4 -131 -10 -219t-13.5 -134t-23 -68.5t-24.5 -26t-29 -3.5 q-41 0 -50 19q-5 15 -5 80q0 33 1 78q4 178 17 282q4 39 4 69q0 90 -41 93q-16 2 -35 -10q-53 -33 -112.5 -162t-71.5 -242q-14 -111 -43 -157q-21 -34 -51 -34q-12 0 -25 5q-23 8 -29 67.5t-6 239.5q0 295 -29 311q-6 4 -13 4q-32 1 -84 -73q-64 -90 -122.5 -226.5 t-70.5 -238.5q-18 -131 -68 -141q-18 -2 -37 16q-30 30 -30 229q0 64 3 146z" />
<glyph unicode="n" horiz-adv-x="722" d="M20 607q0 284 25 327q24 43 61 43q8 0 17 -2q49 -12 57 -74q6 -57 30 -60h2q24 0 82 44q60 47 170 49h9q103 0 139 -45q51 -61 70.5 -147.5t19.5 -256.5q0 -133 -8 -188t-28 -72q-20 -16 -35 -16t-35 16t-27.5 65.5t-7.5 162.5q-1 186 -33 265q-27 65 -80 65 q-12 0 -24 -3q-66 -14 -104.5 -78.5t-102.5 -261.5q-78 -237 -127 -237q-25 0 -47 59q-23 61 -23 345z" />
<glyph unicode="o" horiz-adv-x="747" d="M28 376q-8 43 -8 89q0 113 48 242q39 104 98.5 159t159.5 84q73 22 118 22q18 0 33 -4q49 -12 135 -85l115 -97v-206q0 -145 -11 -188.5t-63 -108.5q-74 -92 -125 -121q-47 -28 -171 -28h-9q-131 1 -182 30q-110 62 -138 212zM162 460q4 -80 67 -143q65 -65 117 -65h8 q56 6 140 90q63 63 77.5 98t14.5 135q0 94 -11.5 127t-50.5 64q-59 45 -115 45q-27 0 -53 -10q-82 -31 -143 -152q-51 -102 -51 -178v-11z" />
<glyph unicode="p" horiz-adv-x="718" d="M22 772q3 115 21 137q18 20 33.5 22t44.5 -16q20 -18 54 -15t56.5 15.5t78 25.5t120.5 13q72 0 101.5 -12t68.5 -57q94 -113 98 -229v-11q0 -112 -82 -248q-45 -72 -136 -103q-45 -15 -87 -15q-43 0 -82 16q-35 14 -55 20.5t-37.5 0t-27 -20.5t-15.5 -50t-9 -80t-3 -120 q-6 -217 -21 -240q-8 -14 -45 -14h-59l-12 541q-6 236 -6 361q0 47 1 79zM176 664q-3 -12 -3 -24q0 -62 65 -130q70 -77 139 -77q20 0 41 7q88 31 117 174q3 16 3 31q0 54 -38 105q-45 53 -85 59q-6 1 -13 1q-39 0 -109 -30q-102 -45 -117 -116z" />
<glyph unicode="q" horiz-adv-x="753" d="M30 388q-10 44 -10 86q0 48 13 93q25 90 85 172t132 125q73 45 156 45q85 0 182 -47q55 -27 78 -52q19 -21 19 -51v-7q-3 -35 -17.5 -70t-39 -108.5t-38.5 -147.5q-53 -279 -66 -330q-10 -39 6 -44q2 -1 5 -1q18 0 61 23q41 20 62.5 22t41.5 -14q30 -24 30 -50t-30 -55 q-23 -20 -192 -137q-35 -25 -68 -47q-17 -12 -38 -12q-15 0 -31 6q-27 10 -31 40q-1 9 -1 23q0 37 7 111q16 160 37 199q18 35 1 49t-52 -8q-36 -24 -87 -24q-15 0 -31 2q-71 9 -108 52q-55 63 -76 157zM170 486v-16q0 -72 35 -118q25 -33 40 -27.5t77 64.5q98 94 155 242 q23 56 23 84t-23 28q-20 0 -51 11q-7 3 -15 3q-30 0 -81 -32q-64 -41 -113 -104q-43 -53 -47 -135z" />
<glyph unicode="r" horiz-adv-x="745" d="M21 562v49q0 261 30 292q26 28 54 28h5q30 -3 42 -34q2 -4 4 -12q23 -76 33 -83t47 25q4 4 6 7q104 94 226 102q11 1 22 1q107 0 178 -73q27 -29 44 -61.5t13 -48.5q-7 -46 -59 -50q-4 0 -8 -1q-47 0 -83 40q-42 46 -91 46q-41 1 -87 -31q-102 -70 -149 -238 q-37 -127 -60.5 -141t-23.5 -84q0 -59 -34 -79q-13 -8 -27 -9q-22 0 -46 20q-33 27 -36 335z" />
<glyph unicode="s" horiz-adv-x="714" d="M23 373q6 76 51 80h5q42 0 75 -70q35 -75 94 -107q34 -19 66 -18q24 0 46 10q56 26 56 59q0 34 -62 74q-102 66 -149 123.5t-47 118.5q0 70 25.5 125t88.5 125q37 37 70 50t98 13q70 0 104 -15t83 -64q68 -71 68 -119q0 -49 -70 -58q-37 -2 -59.5 9.5t-45.5 46.5 q-38 58 -79 58q-46 0 -97 -73q-35 -49 -35 -84q1 -9 3 -17q10 -40 79 -75q63 -33 150.5 -124t87.5 -126q0 -18 -29 -51t-70 -61q-59 -43 -102 -57.5t-119 -14.5q-84 0 -118.5 14.5t-92.5 67.5q-50 51 -66 81q-11 21 -11 50q0 14 2 29z" />
<glyph unicode="t" horiz-adv-x="638" d="M20 887q0 37 17.5 49t77.5 20q70 8 83 22.5t17 82.5q8 94 18 125q4 12 23.5 19t40.5 5q35 -4 46 -27.5t19 -109.5l11 -129h94q63 0 78.5 -9t15.5 -50q0 -43 -27.5 -60.5t-140.5 -48.5q-32 -7 -32 -171q1 -17 1 -35q4 -198 35 -226q23 -18 33 -13t25 42q20 57 60 87 q27 20 52 20q12 0 23 -5q23 -9 27 -31q1 -7 1 -17q0 -24 -6 -65q-18 -98 -56 -141q-37 -42 -122 -42h-4q-88 1 -141 44q-39 31 -49.5 79t-18.5 220l-12 254l-94 29q-57 16 -76 31.5t-19 50.5z" />
<glyph unicode="u" horiz-adv-x="622" d="M23 606q3 264 29 296q21 27 53 27q6 0 12 -1q23 -4 29 -50q3 -21 3 -67q0 -52 -4 -137q-2 -60 -2 -106q-1 -64 3 -100q6 -62 26 -89q27 -35 38 -35t46 31q20 18 44 63t38 88q111 346 154 389q11 11 24 11q22 0 49 -33q29 -35 34 -97q3 -35 3 -115q0 -63 -2 -155 q-6 -176 -14 -248.5t-27 -84.5q-22 -13 -42 -13q-17 0 -33 10q-34 22 -35 72q0 57 -30 57q-14 0 -34 -12q-25 -14 -57 -49q-50 -54 -120 -54q-7 0 -14 1q-79 6 -131 74q-31 41 -38 97q-4 33 -4 105q0 53 2 125z" />
<glyph unicode="v" horiz-adv-x="745" d="M25 918q12 33 58 38q7 1 13 1q36 0 51 -25q6 -10 22.5 -67.5t38 -126t45 -135t48.5 -105.5t43 -27q14 8 142 224t147 229q23 12 57.5 -16.5t34.5 -59.5q0 -37 -155.5 -316.5t-196.5 -316.5q-36 -33 -69 -33q-11 0 -21 4q-43 14 -62 76q-6 14 -69.5 175t-103.5 297 q-28 94 -29 147q0 23 6 37z" />
<glyph unicode="w" horiz-adv-x="1130" d="M29 768q-10 50 -10 85q0 39 12 62q18 35 51 39h8q28 0 49 -26q18 -23 51 -240t60 -244q10 -10 42 20t67.5 82t56.5 99q33 76 80 76q41 0 92 -60.5t51 -107.5q0 -43 28.5 -102.5t47.5 -59.5q8 0 48 70.5t89 171.5q90 191 135 249q35 46 69 45q9 0 19 -3q34 -14 34 -63 q0 -46 -32 -109l-166 -344q-88 -182 -119.5 -229.5t-72.5 -47.5q-25 0 -46.5 12.5t-29.5 30.5q-19 56 -85 160q-65 104 -78 103q-12 1 -60 -73q-47 -72 -104.5 -147.5t-92.5 -81.5q-5 -1 -9 -1q-42 0 -66 54q-26 58 -62 269z" />
<glyph unicode="x" horiz-adv-x="851" d="M22 196q-2 6 -2 12q0 35 56 79q168 133 223 233q12 24 12 44q0 12 -5 24q-13 30 -89 119q-106 125 -106 187q0 39 43 52q8 2 20 4q4 1 8 1q26 -1 52 -21q30 -24 79 -90q37 -49 73 -84t50.5 -35t61.5 41t100 100q100 110 141 130q12 6 24 6q28 0 54 -33q18 -23 11 -42.5 t-52 -68.5q-82 -88 -150.5 -181t-68.5 -118q0 -29 119 -164q88 -105 108 -157q6 -16 5 -28q0 -29 -31 -40q-10 -4 -22 -4q-32 0 -78 33q-62 45 -113 124q-25 39 -49.5 67t-35.5 28t-56.5 -38t-94.5 -91q-76 -78 -114.5 -103.5t-81.5 -25.5q-79 0 -91 40z" />
<glyph unicode="y" horiz-adv-x="737" d="M20 2q0 68 41 77q6 1 11 1q36 0 75 -49q53 -68 128 -91q32 -11 63 -11q40 0 76 18q41 20 57 50t29 105q14 74 14 110q0 23 -6 30q-6 6 -36 -9.5t-64 -42.5q-91 -70 -170 -70q-77 0 -142 66q-27 27 -37 41.5t-19 52.5q-7 28 -7 67q0 13 1 27q2 35 2 89q0 37 -1 82 q2 297 39 332q8 8 19 8q16 0 40 -15q37 -23 47 -132q3 -30 3 -58q0 -73 -19 -131q-14 -49 -14 -66q0 -5 1 -7q5 -11 19 -38.5t14 -75.5q0 -81 54 -81h6q72 6 157 127q27 39 50 81q63 129 63 170q0 45 40 132t71 112q37 28 59 28q20 0 27 -24q5 -18 5 -57q0 -65 -14 -188 q-18 -162 -31.5 -311.5t-17.5 -212t-13 -122t-22.5 -86t-44.5 -57.5q-63 -68 -181 -85q-33 -5 -66 -5q-83 0 -160 31q-80 33 -113 74.5t-33 113.5z" />
<glyph unicode="z" horiz-adv-x="704" d="M23 850q-4 14 1 36t15 34q18 23 82.5 28.5t238.5 5.5q199 -2 249 -10t67 -39q14 -29 0 -60.5t-80 -107.5q-86 -104 -192.5 -247.5t-106.5 -157.5q0 -12 148.5 -12t191.5 -31q35 -25 35 -60q0 -8 -2 -17q-10 -44 -58 -44h-4q-94 2 -239 6q-195 4 -254.5 10t-67.5 31 q-1 2 -1 4q0 29 84 154q91 135 188.5 269t97.5 149q0 24 -177 24h-14q-111 0 -152.5 7t-49.5 28z" />
<glyph unicode="{" horiz-adv-x="1423" d="M21.5 520.5q-1.5 24.5 12 36.5t54.5 20.5t93 11.5t143 3h247l19 104q66 379 82 406q18 31 64 14.5t77 -63.5q39 -61 129 -161.5t105 -100.5q10 0 112 90q184 162 230 106q8 -8 12 -20q14 -37 -17 -265q-27 -201 -71.5 -268t-147.5 -67q-82 0 -310 -81t-314 -141 q-35 -25 -77 -43t-65 -18q-45 0 -134 87t-175 216q-35 49 -51 79t-17.5 54.5z" />
<glyph unicode="|" horiz-adv-x="1177" d="M20 -154q4 90 25 129t127 146l150 149l-31 92q-29 88 -3.5 142.5t113.5 91.5l84 35l-73 59q-78 59 -81 151.5t68 166.5q25 27 56.5 46t48.5 19q41 1 129 60q80 53 132 55t105 -47q45 -43 52.5 -88t-14 -81t-49.5 -68t-52.5 -60.5t-24.5 -44.5q0 -12 -24.5 -41t-59.5 -58 l-86 -69l103 -56q76 -41 90 -66.5t20 -129.5l6 -141l166 -156q117 -109 139.5 -145.5t18.5 -100.5q-4 -55 -20.5 -80.5t-59.5 -52.5q-166 -96 -486.5 -99t-512.5 91q-39 18 -48.5 43.5t-7.5 107.5z" />
<glyph unicode="}" horiz-adv-x="1026" d="M20 668q0 74 10.5 104t41.5 53q53 37 176 37q80 0 110.5 -11t61.5 -50q35 -47 53.5 -50t87.5 25q113 39 208 34t161.5 -56.5t75.5 -132.5q4 -53 -16.5 -94.5t-92.5 -129.5q-94 -111 -251 -223.5t-218 -112.5q-82 0 -319 353q-55 84 -72 131t-17 123z" />
<glyph unicode="~" horiz-adv-x="1116" d="M25 561q27 98 151 189q19 10 35 22q72 43 108 43q47 0 160 -43t232 -104l145 -76l82 80q90 86 139 51q41 -29 2 -111q-18 -41 -57 -80q-49 -53 -78 -63t-121 -2q-70 6 -124 25.5t-86.5 43t-64.5 46t-77 39t-104 16.5q-72 0 -98.5 -13.5t-67.5 -74.5q-35 -53 -58.5 -70.5 t-58.5 -13.5q-82 10 -59 96z" />
<glyph unicode="&#xa2;" />
<glyph unicode="&#xa3;" horiz-adv-x="1007" d="M20 309q0 51 69 113.5t124 62.5q66 0 106 62q33 49 19 73.5t-80 32.5q-49 6 -76.5 45t-13.5 78t111 39q68 0 81 10.5t13 59.5q0 86 46 175t126 161q63 53 101 69.5t106 16.5q104 2 170.5 -45.5t58.5 -114.5q-6 -63 -53 -67.5t-107 53.5l-65 63l-94 -76q-94 -76 -123 -178 q-31 -111 -9.5 -142.5t132.5 -37.5q78 -4 101 -13.5t23 -40t-24.5 -40t-110.5 -15.5q-111 -6 -142.5 -32.5t-51.5 -135.5q-10 -55 0 -78.5t61 -60.5q74 -55 161 -56t159 52q31 25 63.5 36t48.5 5q51 -18 32 -72.5t-97 -109.5q-68 -51 -105 -60.5t-127 -1.5q-68 8 -121 20.5 t-75.5 23t-41 14.5t-28.5 -3.5t-27 -33.5q-20 -29 -48.5 -40t-80.5 -11q-55 0 -84.5 15t-66.5 62q-25 33 -42.5 69t-17.5 54zM199 326q-12 -20 12.5 -39.5t40.5 -3.5q8 8 -2 25.5t-24.5 24.5t-26.5 -7z" />
<glyph unicode="&#xa7;" />
<glyph unicode="&#xab;" horiz-adv-x="837" d="M20.5 462q-0.5 22 192.5 247q109 125 162 174t78 45q123 -18 -27 -207q-27 -35 -64 -76q-154 -172 -153.5 -192.5t70.5 -100.5q57 -63 66 -99t-23 -69q-41 -43 -87.5 -17t-115.5 130q-98 143 -98.5 165zM350 480q0 36 101 145l188 211q47 53 85 75.5t62.5 11t30.5 -56.5 q4 -29 -26.5 -77t-110.5 -132q-121 -129 -133 -191.5t65 -166.5q55 -76 21 -135q-29 -51 -84 -21q-18 10 -33 27q-43 41 -104.5 157.5t-61.5 152.5z" />
<glyph unicode="&#xad;" horiz-adv-x="688" d="M20.5 624q-1.5 15 16.5 35q16 23 74.5 27t226.5 -6q309 -14 328 -64q8 -20 -17 -49q-16 -20 -75.5 -27.5t-217.5 -7.5q-174 0 -226 8.5t-81 39.5q-27 29 -28.5 44z" />
<glyph unicode="&#xbb;" horiz-adv-x="712" d="M35 227q-41 27 20 117q23 33 60 68q92 94 102 148t-53 114q-45 41 -70 120.5t-2 114.5q14 25 56 23t69 -29q29 -27 57 0q47 47 105.5 16.5t167.5 -161.5q145 -174 145 -232q0 -37 -76.5 -135t-166 -178t-119.5 -76q-143 20 67 250l133 143l-86 113q-104 135 -143 145 q-8 2 -8 -10q0 -8 22.5 -38.5t47 -67.5t41 -81t2 -92t-65.5 -87l-152 -121q-111 -90 -153 -64z" />
<glyph unicode="&#xbf;" />
<glyph unicode="&#xc0;" />
<glyph unicode="&#xc1;" />
<glyph unicode="&#xc2;" />
<glyph unicode="&#xc4;" />
<glyph unicode="&#xc7;" />
<glyph unicode="&#xc8;" />
<glyph unicode="&#xc9;" />
<glyph unicode="&#xca;" />
<glyph unicode="&#xcb;" />
<glyph unicode="&#xce;" />
<glyph unicode="&#xcf;" />
<glyph unicode="&#xd1;" />
<glyph unicode="&#xd3;" />
<glyph unicode="&#xd4;" />
<glyph unicode="&#xd6;" />
<glyph unicode="&#xd9;" />
<glyph unicode="&#xda;" />
<glyph unicode="&#xdb;" />
<glyph unicode="&#xdc;" />
<glyph unicode="&#xdf;" />
<glyph unicode="&#xe0;" />
<glyph unicode="&#xe1;" />
<glyph unicode="&#xe2;" />
<glyph unicode="&#xe4;" />
<glyph unicode="&#xe7;" />
<glyph unicode="&#xe8;" />
<glyph unicode="&#xe9;" />
<glyph unicode="&#xea;" />
<glyph unicode="&#xeb;" />
<glyph unicode="&#xee;" />
<glyph unicode="&#xef;" />
<glyph unicode="&#xf3;" />
<glyph unicode="&#xf4;" />
<glyph unicode="&#xf6;" />
<glyph unicode="&#xf9;" />
<glyph unicode="&#xfa;" />
<glyph unicode="&#xfb;" />
<glyph unicode="&#xfc;" />
<glyph unicode="&#x2000;" horiz-adv-x="727" />
<glyph unicode="&#x2001;" horiz-adv-x="1455" />
<glyph unicode="&#x2002;" horiz-adv-x="727" />
<glyph unicode="&#x2003;" horiz-adv-x="1455" />
<glyph unicode="&#x2004;" horiz-adv-x="485" />
<glyph unicode="&#x2005;" horiz-adv-x="363" />
<glyph unicode="&#x2006;" horiz-adv-x="242" />
<glyph unicode="&#x2007;" horiz-adv-x="242" />
<glyph unicode="&#x2008;" horiz-adv-x="181" />
<glyph unicode="&#x2009;" horiz-adv-x="291" />
<glyph unicode="&#x200a;" horiz-adv-x="80" />
<glyph unicode="&#x2010;" horiz-adv-x="688" d="M20.5 624q-1.5 15 16.5 35q16 23 74.5 27t226.5 -6q309 -14 328 -64q8 -20 -17 -49q-16 -20 -75.5 -27.5t-217.5 -7.5q-174 0 -226 8.5t-81 39.5q-27 29 -28.5 44z" />
<glyph unicode="&#x2011;" horiz-adv-x="688" d="M20.5 624q-1.5 15 16.5 35q16 23 74.5 27t226.5 -6q309 -14 328 -64q8 -20 -17 -49q-16 -20 -75.5 -27.5t-217.5 -7.5q-174 0 -226 8.5t-81 39.5q-27 29 -28.5 44z" />
<glyph unicode="&#x2012;" horiz-adv-x="688" d="M20.5 624q-1.5 15 16.5 35q16 23 74.5 27t226.5 -6q309 -14 328 -64q8 -20 -17 -49q-16 -20 -75.5 -27.5t-217.5 -7.5q-174 0 -226 8.5t-81 39.5q-27 29 -28.5 44z" />
<glyph unicode="&#x2013;" horiz-adv-x="1063" d="M20.5 624q-2.5 15 25.5 35q26 23 118.5 27t357.5 -6q489 -14 519 -64q13 -20 -27 -49q-25 -20 -119 -27.5t-344 -7.5q-275 0 -357.5 8.5t-128.5 39.5q-42 29 -44.5 44z" />
<glyph unicode="&#x2014;" horiz-adv-x="2088" d="M20.5 624q-4.5 15 52.5 35q50 23 235 27t717 -6q977 -14 1037 -64q25 -20 -54 -49q-51 -20 -239 -27.5t-688 -7.5q-550 0 -714.5 8.5t-255.5 39.5q-86 29 -90.5 44z" />
<glyph unicode="&#x201c;" horiz-adv-x="669" d="M23.5 1105q15.5 108 107.5 212q53 61 94 20q43 -41 15 -120q-8 -23 -21 -41q-25 -37 -28 -80t4.5 -74t3.5 -62.5t-28 -51t-41 -14.5t-56 40q-66 63 -50.5 171zM371 1075q0 55 19.5 95.5t78.5 103.5q41 45 80 74.5t55 25.5q49 -8 45 -71.5t-55 -112.5q-45 -43 -55.5 -88 t20.5 -66q27 -14 23 -58t-31 -69q-23 -18 -43.5 -14t-65.5 37q-45 31 -58 57.5t-13 85.5z" />
<glyph unicode="&#x201e;" horiz-adv-x="714" d="M21 9q-7 32 49 85q41 37 45 56.5t-15 68.5q-14 43 -14 65.5t18 45.5q33 37 58.5 33.5t75.5 -54.5q45 -45 54 -107.5t-12.5 -114.5t-71.5 -87t-110 -29q-70 6 -77 38zM451 -82q-80 68 20 133q47 31 59.5 86.5t-22.5 75.5q-27 14 -25 57t29 70q31 29 57.5 24.5t71.5 -47.5 q49 -47 53 -126.5t-37 -155.5t-110 -113q-37 -20 -56.5 -20t-39.5 16z" />
<glyph unicode="&#x2022;" />
<glyph unicode="&#x202f;" horiz-adv-x="291" />
<glyph unicode="&#x205f;" horiz-adv-x="363" />
<glyph unicode="&#x20ac;" horiz-adv-x="952" d="M22 605q3 18 29 46q31 35 34 72t9 66.5t47 56.5q25 16 43.5 38.5t18.5 39.5q0 43 63 121t178 174q109 88 144 101t137 5q121 -10 164 -39t43 -100q0 -53 -22.5 -71.5t-58.5 -8.5t-73 28.5t-76.5 38t-60.5 19.5q-33 0 -166 -144.5t-125 -170.5q10 -27 185 -39l174 -13 l2 -69q2 -72 20 -111q31 -70 -10 -91.5t-201 -21.5q-182 0 -199.5 -29.5t109.5 -121.5q94 -70 155.5 -79t137.5 34q47 29 63.5 29t42.5 -27q61 -59 -12 -121q-76 -59 -211 -61q-123 0 -264 98t-186 215q-10 27 -26.5 45t-31.5 18q-33 0 -61 35q-18 20 -15 38z" />
<glyph unicode="&#x25fc;" horiz-adv-x="993" d="M0 0v993h993v-993h-993z" />
</font>
</defs>
</svg>
